<svg width="415" height="61" viewBox="0 0 415 61" fill="none" xmlns="http://www.w3.org/2000/svg">
<rect x="0.5" y="11" width="196" height="39" rx="19.0854" fill="#2B2729" fill-opacity="0.4"/>
<rect x="0.5" y="11" width="196" height="39" rx="19.0854" stroke="white"/>
<path d="M29.2536 36.5L28.2136 33.652H23.2536L22.1976 36.5H20.4216L24.8216 25.012H26.7576L31.1256 36.5H29.2536ZM25.7496 26.932L23.7816 32.228H27.6856L25.7496 26.932ZM35.4406 36.676C33.1206 36.676 31.4886 34.852 31.4886 32.26C31.4886 29.7 33.1526 27.86 35.4406 27.86C37.5366 27.86 39.0566 29.252 39.3606 31.46H37.6646C37.4886 30.1 36.6406 29.284 35.4566 29.284C34.0646 29.284 33.1526 30.468 33.1526 32.26C33.1526 34.068 34.0646 35.236 35.4566 35.236C36.6566 35.236 37.4886 34.436 37.6806 33.06H39.3606C39.0726 35.3 37.5686 36.676 35.4406 36.676ZM44.2531 36.676C41.9331 36.676 40.3011 34.852 40.3011 32.26C40.3011 29.7 41.9651 27.86 44.2531 27.86C46.3491 27.86 47.8691 29.252 48.1731 31.46H46.4771C46.3011 30.1 45.4531 29.284 44.2691 29.284C42.8771 29.284 41.9651 30.468 41.9651 32.26C41.9651 34.068 42.8771 35.236 44.2691 35.236C45.4691 35.236 46.3011 34.436 46.4931 33.06H48.1731C47.8851 35.3 46.3811 36.676 44.2531 36.676ZM53.2096 36.66C50.7616 36.66 49.1136 34.884 49.1136 32.212C49.1136 29.7 50.8256 27.86 53.1616 27.86C55.6896 27.86 57.3696 29.908 57.0816 32.66H50.7616C50.8896 34.388 51.7536 35.396 53.1776 35.396C54.3776 35.396 55.2096 34.74 55.4816 33.636H57.0816C56.6656 35.524 55.2096 36.66 53.2096 36.66ZM53.1296 29.076C51.8336 29.076 50.9536 30.004 50.7776 31.588H55.3696C55.2896 30.02 54.4416 29.076 53.1296 29.076ZM65.5197 33.972C65.5197 35.636 64.2237 36.66 61.9677 36.66C59.7277 36.66 58.3997 35.556 58.2397 33.732H59.7917C59.8557 34.788 60.7037 35.444 61.9997 35.444C63.1357 35.444 63.8877 35.044 63.8877 34.244C63.8877 33.54 63.4557 33.236 62.3997 33.028L61.0237 32.772C59.4557 32.468 58.5757 31.668 58.5757 30.388C58.5757 28.9 59.8717 27.86 61.8397 27.86C63.8717 27.86 65.2477 28.948 65.3917 30.692H63.8397C63.7437 29.668 62.9917 29.076 61.8557 29.076C60.8317 29.076 60.1437 29.508 60.1437 30.244C60.1437 30.932 60.5757 31.252 61.5997 31.444L63.0397 31.716C64.7197 32.02 65.5197 32.756 65.5197 33.972ZM74.0041 33.972C74.0041 35.636 72.7081 36.66 70.4521 36.66C68.2121 36.66 66.8841 35.556 66.7241 33.732H68.2761C68.3401 34.788 69.1881 35.444 70.4841 35.444C71.6201 35.444 72.3721 35.044 72.3721 34.244C72.3721 33.54 71.9401 33.236 70.8841 33.028L69.5081 32.772C67.9401 32.468 67.0601 31.668 67.0601 30.388C67.0601 28.9 68.3561 27.86 70.3241 27.86C72.3561 27.86 73.7321 28.948 73.8761 30.692H72.3241C72.2281 29.668 71.4761 29.076 70.3401 29.076C69.3161 29.076 68.6281 29.508 68.6281 30.244C68.6281 30.932 69.0601 31.252 70.0841 31.444L71.5241 31.716C73.2041 32.02 74.0041 32.756 74.0041 33.972ZM84.0242 32.196V36.5H82.2482V32.196L78.1202 25.012H80.0402L83.1922 30.548L86.3762 25.012H88.1682L84.0242 32.196ZM91.4454 36.66C89.0454 36.66 87.2854 34.772 87.2854 32.26C87.2854 29.748 89.0454 27.86 91.4454 27.86C93.8454 27.86 95.6054 29.748 95.6054 32.26C95.6054 34.772 93.8454 36.66 91.4454 36.66ZM91.4454 35.236C92.8374 35.236 93.9414 34.116 93.9414 32.26C93.9414 30.404 92.8374 29.3 91.4454 29.3C90.0534 29.3 88.9654 30.404 88.9654 32.26C88.9654 34.116 90.0534 35.236 91.4454 35.236ZM102.549 33.012V28.02H104.165V36.5H102.661V35.156C102.213 36.036 101.221 36.66 100.069 36.66C98.3568 36.66 97.1728 35.652 97.1728 33.476V28.02H98.7888V33.156C98.7888 34.628 99.5248 35.236 100.581 35.236C101.669 35.236 102.549 34.34 102.549 33.012ZM108.025 32.164V36.5H106.409V28.02H107.913V29.812C108.505 28.644 109.785 27.908 111.177 27.908V29.588C109.353 29.492 108.025 30.292 108.025 32.164ZM124.056 33.204C124.056 35.3 122.52 36.5 120.136 36.5H115.928V25.012H119.912C122.232 25.012 123.624 26.084 123.624 28.02C123.624 29.108 122.968 30.036 121.864 30.516C123.288 30.916 124.056 31.892 124.056 33.204ZM119.8 26.42H117.544V29.876H119.8C121.192 29.876 121.944 29.22 121.944 28.148C121.944 27.076 121.192 26.42 119.8 26.42ZM120.024 31.284H117.544V35.092H120.024C121.528 35.092 122.376 34.372 122.376 33.156C122.376 31.988 121.528 31.284 120.024 31.284ZM129.444 36.66C126.996 36.66 125.348 34.884 125.348 32.212C125.348 29.7 127.06 27.86 129.396 27.86C131.924 27.86 133.604 29.908 133.316 32.66H126.996C127.124 34.388 127.988 35.396 129.412 35.396C130.612 35.396 131.444 34.74 131.716 33.636H133.316C132.9 35.524 131.444 36.66 129.444 36.66ZM129.364 29.076C128.068 29.076 127.188 30.004 127.012 31.588H131.604C131.524 30.02 130.676 29.076 129.364 29.076ZM136.65 31.716V36.5H135.034V28.02H136.538V29.428C137.114 28.484 138.074 27.86 139.242 27.86C140.986 27.86 142.138 28.98 142.138 31.012V36.5H140.522V31.556C140.522 30.1 139.882 29.284 138.682 29.284C137.578 29.284 136.65 30.212 136.65 31.716ZM147.772 36.66C145.324 36.66 143.676 34.884 143.676 32.212C143.676 29.7 145.388 27.86 147.724 27.86C150.252 27.86 151.932 29.908 151.644 32.66H145.324C145.452 34.388 146.316 35.396 147.74 35.396C148.94 35.396 149.772 34.74 150.044 33.636H151.644C151.228 35.524 149.772 36.66 147.772 36.66ZM147.692 29.076C146.396 29.076 145.516 30.004 145.34 31.588H149.932C149.852 30.02 149.004 29.076 147.692 29.076ZM155.715 36.5H154.099V29.396H152.227V28.02H154.099V27.396C154.099 25.764 154.979 24.868 156.579 24.868C157.059 24.868 157.443 24.948 157.763 25.076V26.388C157.507 26.276 157.219 26.244 156.931 26.244C156.163 26.244 155.715 26.596 155.715 27.412V28.02H158.083V29.396H155.715V36.5ZM161.267 26.052C161.267 26.66 160.787 27.124 160.099 27.124C159.411 27.124 158.931 26.66 158.931 26.052C158.931 25.428 159.411 24.98 160.099 24.98C160.787 24.98 161.267 25.428 161.267 26.052ZM160.915 36.5H159.299V28.02H160.915V36.5ZM167.943 34.932V36.356C167.447 36.58 167.015 36.66 166.503 36.66C164.935 36.66 163.847 35.812 163.847 33.94V29.396H161.975V28.02H163.847V25.508H165.463V28.02H168.023V29.396H165.463V33.572C165.463 34.74 166.023 35.156 166.887 35.156C167.271 35.156 167.607 35.092 167.943 34.932ZM176.254 33.972C176.254 35.636 174.958 36.66 172.702 36.66C170.462 36.66 169.134 35.556 168.974 33.732H170.526C170.59 34.788 171.438 35.444 172.734 35.444C173.87 35.444 174.622 35.044 174.622 34.244C174.622 33.54 174.19 33.236 173.134 33.028L171.758 32.772C170.19 32.468 169.31 31.668 169.31 30.388C169.31 28.9 170.606 27.86 172.574 27.86C174.606 27.86 175.982 28.948 176.126 30.692H174.574C174.478 29.668 173.726 29.076 172.59 29.076C171.566 29.076 170.878 29.508 170.878 30.244C170.878 30.932 171.31 31.252 172.334 31.444L173.774 31.716C175.454 32.02 176.254 32.756 176.254 33.972Z" fill="white"/>
<line x1="217.75" y1="7.99805" x2="217.75" y2="53.0016" stroke="white" stroke-width="1.5"/>
<path d="M242.474 15.21C239.674 15.21 237.56 12.928 237.56 9.96C237.56 7.006 239.674 4.738 242.474 4.738C244.868 4.738 246.842 6.348 247.234 8.742H246.128C245.806 6.95 244.322 5.676 242.474 5.676C240.248 5.676 238.638 7.496 238.638 9.96C238.638 12.452 240.248 14.272 242.474 14.272C244.336 14.272 245.82 12.984 246.128 11.192H247.234C246.842 13.586 244.868 15.21 242.474 15.21ZM249.845 10.702V15H248.865V4.948H249.845V8.98C250.307 8.098 251.147 7.482 252.211 7.482C253.751 7.482 254.745 8.462 254.745 10.212V15H253.765V10.548C253.765 9.134 253.121 8.336 251.917 8.336C250.769 8.336 249.845 9.33 249.845 10.702ZM259.706 15.14C257.634 15.14 256.262 13.586 256.262 11.248C256.262 9.092 257.69 7.482 259.65 7.482C261.75 7.482 263.122 9.176 262.954 11.542H257.242C257.326 13.292 258.25 14.37 259.692 14.37C260.924 14.37 261.778 13.684 262.016 12.508H262.982C262.646 14.146 261.4 15.14 259.706 15.14ZM259.636 8.238C258.306 8.238 257.368 9.26 257.242 10.87H261.932C261.848 9.218 260.994 8.238 259.636 8.238ZM267.195 15.154C265.249 15.154 263.891 13.572 263.891 11.304C263.891 9.064 265.263 7.482 267.195 7.482C268.917 7.482 270.149 8.63 270.443 10.478H269.449C269.225 9.134 268.385 8.336 267.195 8.336C265.823 8.336 264.885 9.54 264.885 11.304C264.885 13.096 265.823 14.3 267.195 14.3C268.399 14.3 269.225 13.516 269.449 12.144H270.443C270.177 14.02 268.931 15.154 267.195 15.154ZM273.005 15H272.025V4.948H273.005V11.052L276.561 7.622H277.723L273.999 11.234L278.031 15H276.757L273.005 11.458V15ZM287.717 7.622L283.937 17.702H282.887L283.965 14.902L281.039 7.622H282.089L284.469 13.726L286.723 7.622H287.717ZM291.59 15.14C289.56 15.14 288.09 13.53 288.09 11.304C288.09 9.092 289.56 7.496 291.59 7.496C293.634 7.496 295.104 9.092 295.104 11.304C295.104 13.53 293.634 15.14 291.59 15.14ZM291.59 14.286C293.032 14.286 294.11 13.138 294.11 11.304C294.11 9.498 293.032 8.35 291.59 8.35C290.162 8.35 289.084 9.498 289.084 11.304C289.084 13.138 290.162 14.286 291.59 14.286ZM301.407 12.018V7.622H302.373V15H301.463V13.67C301.085 14.524 300.189 15.14 299.111 15.14C297.613 15.14 296.619 14.286 296.619 12.424V7.622H297.599V12.214C297.599 13.712 298.341 14.286 299.377 14.286C300.553 14.286 301.407 13.334 301.407 12.018ZM305.476 11.052V15H304.496V7.622H305.406V9.302C305.91 8.21 307.002 7.51 308.22 7.51V8.532C306.666 8.476 305.476 9.442 305.476 11.052ZM315.101 15.154C313.155 15.154 311.797 13.572 311.797 11.304C311.797 9.064 313.169 7.482 315.101 7.482C316.823 7.482 318.055 8.63 318.349 10.478H317.355C317.131 9.134 316.291 8.336 315.101 8.336C313.729 8.336 312.791 9.54 312.791 11.304C312.791 13.096 313.729 14.3 315.101 14.3C316.305 14.3 317.131 13.516 317.355 12.144H318.349C318.083 14.02 316.837 15.154 315.101 15.154ZM324.467 15V13.656C324.033 14.58 323.137 15.14 321.989 15.14C320.463 15.14 319.469 14.286 319.469 12.956C319.469 11.514 320.617 10.758 322.857 10.758C323.305 10.758 323.641 10.786 324.369 10.842V10.226C324.369 8.994 323.711 8.266 322.591 8.266C321.387 8.266 320.631 9.008 320.617 10.212H319.721C319.763 8.574 320.897 7.482 322.577 7.482C324.299 7.482 325.307 8.49 325.307 10.198V15H324.467ZM320.407 12.928C320.407 13.824 321.093 14.426 322.129 14.426C323.501 14.426 324.369 13.53 324.369 12.144V11.486C323.739 11.43 323.305 11.416 322.899 11.416C321.219 11.416 320.407 11.906 320.407 12.928ZM328.349 11.052V15H327.369V7.622H328.279V9.302C328.783 8.21 329.875 7.51 331.093 7.51V8.532C329.539 8.476 328.349 9.442 328.349 11.052ZM331.731 11.304C331.731 9.036 332.991 7.482 334.979 7.482C336.085 7.482 337.023 8.112 337.513 9.162V4.948H338.493V15H337.583V13.446C337.065 14.524 336.113 15.14 334.979 15.14C332.991 15.14 331.731 13.572 331.731 11.304ZM332.725 11.304C332.725 13.18 333.677 14.286 335.119 14.286C336.547 14.286 337.527 13.124 337.527 11.276C337.527 9.414 336.519 8.336 335.119 8.336C333.677 8.336 332.725 9.428 332.725 11.304ZM350.305 11.304C350.305 13.572 349.031 15.14 347.057 15.14C345.923 15.14 344.971 14.524 344.453 13.446V15H343.543V4.948H344.523V9.176C344.999 8.098 345.937 7.482 347.057 7.482C349.031 7.482 350.305 9.036 350.305 11.304ZM349.311 11.304C349.311 9.428 348.345 8.336 346.903 8.336C345.517 8.336 344.509 9.414 344.509 11.276C344.509 13.124 345.489 14.286 346.903 14.286C348.345 14.286 349.311 13.18 349.311 11.304ZM354.78 15.14C352.708 15.14 351.336 13.586 351.336 11.248C351.336 9.092 352.764 7.482 354.724 7.482C356.824 7.482 358.196 9.176 358.028 11.542H352.316C352.4 13.292 353.324 14.37 354.766 14.37C355.998 14.37 356.852 13.684 357.09 12.508H358.056C357.72 14.146 356.474 15.14 354.78 15.14ZM354.71 8.238C353.38 8.238 352.442 9.26 352.316 10.87H357.006C356.922 9.218 356.068 8.238 354.71 8.238ZM360.628 10.702V15H359.648V7.622H360.558V9.008C361.034 8.098 361.93 7.482 362.994 7.482C364.534 7.482 365.528 8.462 365.528 10.212V15H364.548V10.548C364.548 9.134 363.904 8.336 362.7 8.336C361.552 8.336 360.628 9.33 360.628 10.702ZM370.489 15.14C368.417 15.14 367.045 13.586 367.045 11.248C367.045 9.092 368.473 7.482 370.433 7.482C372.533 7.482 373.905 9.176 373.737 11.542H368.025C368.109 13.292 369.033 14.37 370.475 14.37C371.707 14.37 372.561 13.684 372.799 12.508H373.765C373.429 14.146 372.183 15.14 370.489 15.14ZM370.419 8.238C369.089 8.238 368.151 9.26 368.025 10.87H372.715C372.631 9.218 371.777 8.238 370.419 8.238ZM376.967 15H375.987V8.448H374.251V7.622H375.987V6.95C375.987 5.592 376.729 4.836 378.017 4.836C378.353 4.836 378.647 4.892 378.899 4.99V5.802C378.661 5.704 378.437 5.69 378.185 5.69C377.401 5.69 376.967 6.082 376.967 6.95V7.622H379.137V8.448H376.967V15ZM381.545 5.914C381.545 6.348 381.223 6.656 380.761 6.656C380.285 6.656 379.963 6.348 379.963 5.914C379.963 5.494 380.285 5.186 380.761 5.186C381.223 5.186 381.545 5.494 381.545 5.914ZM381.251 15H380.271V7.622H381.251V15ZM387.176 14.062V14.93C386.798 15.084 386.476 15.14 386.112 15.14C384.894 15.14 383.956 14.51 383.956 12.914V8.448H382.22V7.622H383.956V5.438H384.936V7.622H387.246V8.448H384.936V12.704C384.936 13.852 385.496 14.244 386.308 14.244C386.616 14.244 386.868 14.188 387.176 14.062ZM394.23 12.942C394.23 14.3 393.138 15.14 391.318 15.14C389.484 15.14 388.364 14.216 388.224 12.69H389.162C389.232 13.74 390.058 14.398 391.318 14.398C392.522 14.398 393.25 13.936 393.25 13.096C393.25 12.368 392.83 12.032 391.71 11.808L390.646 11.598C389.246 11.332 388.504 10.646 388.504 9.582C388.504 8.35 389.596 7.482 391.206 7.482C392.9 7.482 394.02 8.392 394.132 9.862H393.208C393.11 8.84 392.368 8.238 391.206 8.238C390.17 8.238 389.456 8.728 389.456 9.498C389.456 10.226 389.904 10.576 390.996 10.786L392.102 10.996C393.572 11.276 394.23 11.892 394.23 12.942ZM397.557 14.188C397.557 14.692 397.193 15.07 396.675 15.07C396.171 15.07 395.793 14.692 395.793 14.188C395.793 13.656 396.171 13.292 396.675 13.292C397.193 13.292 397.557 13.656 397.557 14.188ZM244.896 32.186C244.896 33.978 243.58 35 241.606 35H238.134V24.948H241.396C243.342 24.948 244.49 25.886 244.49 27.538C244.49 28.532 243.86 29.386 242.838 29.764C244.196 30.1 244.896 30.982 244.896 32.186ZM241.34 25.802H239.114V29.386H241.34C242.698 29.386 243.468 28.714 243.468 27.594C243.468 26.474 242.698 25.802 241.34 25.802ZM241.55 30.24H239.114V34.146H241.55C243.02 34.146 243.888 33.418 243.888 32.158C243.888 30.954 243.02 30.24 241.55 30.24ZM252.225 27.622L248.445 37.702H247.395L248.473 34.902L245.547 27.622H246.597L248.977 33.726L251.231 27.622H252.225ZM260.125 31.304C260.125 33.586 258.851 35.14 256.891 35.14C255.785 35.14 254.847 34.538 254.343 33.488V37.702H253.363V27.622H254.273V29.218C254.777 28.126 255.757 27.482 256.891 27.482C258.851 27.482 260.125 29.05 260.125 31.304ZM259.131 31.304C259.131 29.442 258.165 28.336 256.723 28.336C255.351 28.336 254.329 29.428 254.329 31.304C254.329 33.138 255.323 34.286 256.723 34.286C258.165 34.286 259.131 33.194 259.131 31.304ZM266.239 35V33.656C265.805 34.58 264.909 35.14 263.761 35.14C262.235 35.14 261.241 34.286 261.241 32.956C261.241 31.514 262.389 30.758 264.629 30.758C265.077 30.758 265.413 30.786 266.141 30.842V30.226C266.141 28.994 265.483 28.266 264.363 28.266C263.159 28.266 262.403 29.008 262.389 30.212H261.493C261.535 28.574 262.669 27.482 264.349 27.482C266.071 27.482 267.079 28.49 267.079 30.198V35H266.239ZM262.179 32.928C262.179 33.824 262.865 34.426 263.901 34.426C265.273 34.426 266.141 33.53 266.141 32.144V31.486C265.511 31.43 265.077 31.416 264.671 31.416C262.991 31.416 262.179 31.906 262.179 32.928ZM274.656 32.942C274.656 34.3 273.564 35.14 271.744 35.14C269.91 35.14 268.79 34.216 268.65 32.69H269.588C269.658 33.74 270.484 34.398 271.744 34.398C272.948 34.398 273.676 33.936 273.676 33.096C273.676 32.368 273.256 32.032 272.136 31.808L271.072 31.598C269.672 31.332 268.93 30.646 268.93 29.582C268.93 28.35 270.022 27.482 271.632 27.482C273.326 27.482 274.446 28.392 274.558 29.862H273.634C273.536 28.84 272.794 28.238 271.632 28.238C270.596 28.238 269.882 28.728 269.882 29.498C269.882 30.226 270.33 30.576 271.422 30.786L272.528 30.996C273.998 31.276 274.656 31.892 274.656 32.942ZM281.875 32.942C281.875 34.3 280.783 35.14 278.963 35.14C277.129 35.14 276.009 34.216 275.869 32.69H276.807C276.877 33.74 277.703 34.398 278.963 34.398C280.167 34.398 280.895 33.936 280.895 33.096C280.895 32.368 280.475 32.032 279.355 31.808L278.291 31.598C276.891 31.332 276.149 30.646 276.149 29.582C276.149 28.35 277.241 27.482 278.851 27.482C280.545 27.482 281.665 28.392 281.777 29.862H280.853C280.755 28.84 280.013 28.238 278.851 28.238C277.815 28.238 277.101 28.728 277.101 29.498C277.101 30.226 277.549 30.576 278.641 30.786L279.747 30.996C281.217 31.276 281.875 31.892 281.875 32.942ZM285.957 31.304C285.957 29.05 287.217 27.482 289.205 27.482C290.353 27.482 291.305 28.14 291.809 29.246V27.622H292.719V37.702H291.739V33.488C291.235 34.538 290.311 35.14 289.205 35.14C287.217 35.14 285.957 33.586 285.957 31.304ZM286.951 31.304C286.951 33.194 287.903 34.286 289.345 34.286C290.773 34.286 291.753 33.138 291.753 31.304C291.753 29.428 290.745 28.336 289.345 28.336C287.903 28.336 286.951 29.442 286.951 31.304ZM299.561 32.018V27.622H300.527V35H299.617V33.67C299.239 34.524 298.343 35.14 297.265 35.14C295.767 35.14 294.773 34.286 294.773 32.424V27.622H295.753V32.214C295.753 33.712 296.495 34.286 297.531 34.286C298.707 34.286 299.561 33.334 299.561 32.018ZM305.548 35.14C303.476 35.14 302.104 33.586 302.104 31.248C302.104 29.092 303.532 27.482 305.492 27.482C307.592 27.482 308.964 29.176 308.796 31.542H303.084C303.168 33.292 304.092 34.37 305.534 34.37C306.766 34.37 307.62 33.684 307.858 32.508H308.824C308.488 34.146 307.242 35.14 305.548 35.14ZM305.478 28.238C304.148 28.238 303.21 29.26 303.084 30.87H307.774C307.69 29.218 306.836 28.238 305.478 28.238ZM315.134 32.018V27.622H316.1V35H315.19V33.67C314.812 34.524 313.916 35.14 312.838 35.14C311.34 35.14 310.346 34.286 310.346 32.424V27.622H311.326V32.214C311.326 33.712 312.068 34.286 313.104 34.286C314.28 34.286 315.134 33.334 315.134 32.018ZM321.12 35.14C319.048 35.14 317.676 33.586 317.676 31.248C317.676 29.092 319.104 27.482 321.064 27.482C323.164 27.482 324.536 29.176 324.368 31.542H318.656C318.74 33.292 319.664 34.37 321.106 34.37C322.338 34.37 323.192 33.684 323.43 32.508H324.396C324.06 34.146 322.814 35.14 321.12 35.14ZM321.05 28.238C319.72 28.238 318.782 29.26 318.656 30.87H323.346C323.262 29.218 322.408 28.238 321.05 28.238ZM333.45 35V33.656C333.016 34.58 332.12 35.14 330.972 35.14C329.446 35.14 328.452 34.286 328.452 32.956C328.452 31.514 329.6 30.758 331.84 30.758C332.288 30.758 332.624 30.786 333.352 30.842V30.226C333.352 28.994 332.694 28.266 331.574 28.266C330.37 28.266 329.614 29.008 329.6 30.212H328.704C328.746 28.574 329.88 27.482 331.56 27.482C333.282 27.482 334.29 28.49 334.29 30.198V35H333.45ZM329.39 32.928C329.39 33.824 330.076 34.426 331.112 34.426C332.484 34.426 333.352 33.53 333.352 32.144V31.486C332.722 31.43 332.288 31.416 331.882 31.416C330.202 31.416 329.39 31.906 329.39 32.928ZM340.104 34.062V34.93C339.726 35.084 339.404 35.14 339.04 35.14C337.822 35.14 336.884 34.51 336.884 32.914V28.448H335.148V27.622H336.884V25.438H337.864V27.622H340.174V28.448H337.864V32.704C337.864 33.852 338.424 34.244 339.236 34.244C339.544 34.244 339.796 34.188 340.104 34.062ZM348.376 34.062V34.93C347.998 35.084 347.676 35.14 347.312 35.14C346.094 35.14 345.156 34.51 345.156 32.914V28.448H343.42V27.622H345.156V25.438H346.136V27.622H348.446V28.448H346.136V32.704C346.136 33.852 346.696 34.244 347.508 34.244C347.816 34.244 348.068 34.188 348.376 34.062ZM350.907 30.702V35H349.927V24.948H350.907V28.98C351.369 28.098 352.209 27.482 353.273 27.482C354.813 27.482 355.807 28.462 355.807 30.212V35H354.827V30.548C354.827 29.134 354.183 28.336 352.979 28.336C351.831 28.336 350.907 29.33 350.907 30.702ZM360.769 35.14C358.697 35.14 357.325 33.586 357.325 31.248C357.325 29.092 358.753 27.482 360.713 27.482C362.813 27.482 364.185 29.176 364.017 31.542H358.305C358.389 33.292 359.313 34.37 360.755 34.37C361.987 34.37 362.841 33.684 363.079 32.508H364.045C363.709 34.146 362.463 35.14 360.769 35.14ZM360.699 28.238C359.369 28.238 358.431 29.26 358.305 30.87H362.995C362.911 29.218 362.057 28.238 360.699 28.238ZM369.542 35H368.562V24.948H369.542V35ZM374.62 35.14C372.59 35.14 371.12 33.53 371.12 31.304C371.12 29.092 372.59 27.496 374.62 27.496C376.664 27.496 378.134 29.092 378.134 31.304C378.134 33.53 376.664 35.14 374.62 35.14ZM374.62 34.286C376.062 34.286 377.14 33.138 377.14 31.304C377.14 29.498 376.062 28.35 374.62 28.35C373.192 28.35 372.114 29.498 372.114 31.304C372.114 33.138 373.192 34.286 374.62 34.286ZM384.436 32.018V27.622H385.402V35H384.492V33.67C384.114 34.524 383.218 35.14 382.14 35.14C380.642 35.14 379.648 34.286 379.648 32.424V27.622H380.628V32.214C380.628 33.712 381.37 34.286 382.406 34.286C383.582 34.286 384.436 33.334 384.436 32.018ZM388.505 30.702V35H387.525V27.622H388.435V29.008C388.911 28.098 389.807 27.482 390.871 27.482C392.411 27.482 393.405 28.462 393.405 30.212V35H392.425V30.548C392.425 29.134 391.781 28.336 390.577 28.336C389.429 28.336 388.505 29.33 388.505 30.702ZM398.254 37.856C396.378 37.856 395.202 36.876 395.118 35.224H396.056C396.14 36.428 396.924 37.072 398.24 37.072C399.696 37.072 400.466 36.302 400.466 34.846V33.306C400.018 34.342 399.122 34.944 398.03 34.944C396.168 34.944 394.922 33.446 394.922 31.206C394.922 28.966 396.154 27.482 398.016 27.482C399.122 27.482 400.046 28.112 400.522 29.19V27.622H401.432V34.832C401.432 36.736 400.27 37.856 398.254 37.856ZM395.902 31.206C395.902 33.012 396.756 34.104 398.17 34.104C399.556 34.104 400.48 32.984 400.48 31.276C400.48 29.47 399.57 28.322 398.17 28.322C396.77 28.322 395.902 29.414 395.902 31.206ZM406.46 35.14C404.388 35.14 403.016 33.586 403.016 31.248C403.016 29.092 404.444 27.482 406.404 27.482C408.504 27.482 409.876 29.176 409.708 31.542H403.996C404.08 33.292 405.004 34.37 406.446 34.37C407.678 34.37 408.532 33.684 408.77 32.508H409.736C409.4 34.146 408.154 35.14 406.46 35.14ZM406.39 28.238C405.06 28.238 404.122 29.26 403.996 30.87H408.686C408.602 29.218 407.748 28.238 406.39 28.238ZM240 49.324L238.68 50.956L238.188 50.56L239.496 48.964L237.516 48.376L237.708 47.788L239.688 48.388L239.664 46.384H240.336L240.312 48.388L242.292 47.788L242.484 48.376L240.504 48.964L241.812 50.56L241.32 50.956L240 49.324ZM249.414 55L247.758 49.792L246.114 55H245.262L243.414 48.676H244.242L245.706 53.812L247.35 48.676H248.178L249.81 53.824L251.274 48.676H252.114L250.254 55H249.414ZM254.045 51.316V55H253.205V46.384H254.045V49.84C254.441 49.084 255.161 48.556 256.073 48.556C257.393 48.556 258.245 49.396 258.245 50.896V55H257.405V51.184C257.405 49.972 256.853 49.288 255.821 49.288C254.837 49.288 254.045 50.14 254.045 51.316ZM262.498 55.12C260.722 55.12 259.546 53.788 259.546 51.784C259.546 49.936 260.77 48.556 262.45 48.556C264.25 48.556 265.426 50.008 265.282 52.036H260.386C260.458 53.536 261.25 54.46 262.486 54.46C263.542 54.46 264.274 53.872 264.478 52.864H265.306C265.018 54.268 263.95 55.12 262.498 55.12ZM262.438 49.204C261.298 49.204 260.494 50.08 260.386 51.46H264.406C264.334 50.044 263.602 49.204 262.438 49.204ZM267.51 51.616V55H266.67V48.676H267.45V50.116C267.882 49.18 268.818 48.58 269.862 48.58V49.456C268.53 49.408 267.51 50.236 267.51 51.616ZM273.361 55.12C271.585 55.12 270.409 53.788 270.409 51.784C270.409 49.936 271.633 48.556 273.313 48.556C275.113 48.556 276.289 50.008 276.145 52.036H271.249C271.321 53.536 272.113 54.46 273.349 54.46C274.405 54.46 275.137 53.872 275.341 52.864H276.169C275.881 54.268 274.813 55.12 273.361 55.12ZM273.301 49.204C272.161 49.204 271.357 50.08 271.249 51.46H275.269C275.197 50.044 274.465 49.204 273.301 49.204ZM282.218 48.676L279.782 55H278.906L276.494 48.676H277.394L279.374 54.016L281.354 48.676H282.218ZM285.49 55.12C283.714 55.12 282.538 53.788 282.538 51.784C282.538 49.936 283.762 48.556 285.442 48.556C287.242 48.556 288.418 50.008 288.274 52.036H283.378C283.45 53.536 284.242 54.46 285.478 54.46C286.534 54.46 287.266 53.872 287.47 52.864H288.298C288.01 54.268 286.942 55.12 285.49 55.12ZM285.43 49.204C284.29 49.204 283.486 50.08 283.378 51.46H287.398C287.326 50.044 286.594 49.204 285.43 49.204ZM290.502 51.616V55H289.662V48.676H290.442V50.116C290.874 49.18 291.81 48.58 292.854 48.58V49.456C291.522 49.408 290.502 50.236 290.502 51.616ZM300.277 55V53.848C299.905 54.64 299.137 55.12 298.153 55.12C296.845 55.12 295.993 54.388 295.993 53.248C295.993 52.012 296.977 51.364 298.897 51.364C299.281 51.364 299.569 51.388 300.193 51.436V50.908C300.193 49.852 299.629 49.228 298.669 49.228C297.637 49.228 296.989 49.864 296.977 50.896H296.209C296.245 49.492 297.217 48.556 298.657 48.556C300.133 48.556 300.997 49.42 300.997 50.884V55H300.277ZM296.797 53.224C296.797 53.992 297.385 54.508 298.273 54.508C299.449 54.508 300.193 53.74 300.193 52.552V51.988C299.653 51.94 299.281 51.928 298.933 51.928C297.493 51.928 296.797 52.348 296.797 53.224ZM307.448 48.676L305.012 55H304.136L301.724 48.676H302.624L304.604 54.016L306.584 48.676H307.448ZM312.183 55V53.848C311.811 54.64 311.043 55.12 310.059 55.12C308.751 55.12 307.899 54.388 307.899 53.248C307.899 52.012 308.883 51.364 310.803 51.364C311.187 51.364 311.475 51.388 312.099 51.436V50.908C312.099 49.852 311.535 49.228 310.575 49.228C309.543 49.228 308.895 49.864 308.883 50.896H308.115C308.151 49.492 309.123 48.556 310.563 48.556C312.039 48.556 312.903 49.42 312.903 50.884V55H312.183ZM308.703 53.224C308.703 53.992 309.291 54.508 310.179 54.508C311.355 54.508 312.099 53.74 312.099 52.552V51.988C311.559 51.94 311.187 51.928 310.839 51.928C309.399 51.928 308.703 52.348 308.703 53.224ZM315.51 55H314.67V46.384H315.51V55ZM321.218 55V53.848C320.846 54.64 320.078 55.12 319.094 55.12C317.786 55.12 316.934 54.388 316.934 53.248C316.934 52.012 317.918 51.364 319.838 51.364C320.222 51.364 320.51 51.388 321.134 51.436V50.908C321.134 49.852 320.57 49.228 319.61 49.228C318.578 49.228 317.93 49.864 317.918 50.896H317.15C317.186 49.492 318.158 48.556 319.598 48.556C321.074 48.556 321.938 49.42 321.938 50.884V55H321.218ZM317.738 53.224C317.738 53.992 318.326 54.508 319.214 54.508C320.39 54.508 321.134 53.74 321.134 52.552V51.988C320.594 51.94 320.222 51.928 319.874 51.928C318.434 51.928 317.738 52.348 317.738 53.224ZM329.501 51.832C329.501 53.776 328.409 55.12 326.717 55.12C325.745 55.12 324.929 54.592 324.485 53.668V55H323.705V46.384H324.545V50.008C324.953 49.084 325.757 48.556 326.717 48.556C328.409 48.556 329.501 49.888 329.501 51.832ZM328.649 51.832C328.649 50.224 327.821 49.288 326.585 49.288C325.397 49.288 324.533 50.212 324.533 51.808C324.533 53.392 325.373 54.388 326.585 54.388C327.821 54.388 328.649 53.44 328.649 51.832ZM331.693 55H330.853V46.384H331.693V55ZM335.998 55.12C334.222 55.12 333.046 53.788 333.046 51.784C333.046 49.936 334.27 48.556 335.95 48.556C337.75 48.556 338.926 50.008 338.782 52.036H333.886C333.958 53.536 334.75 54.46 335.986 54.46C337.042 54.46 337.774 53.872 337.978 52.864H338.806C338.518 54.268 337.45 55.12 335.998 55.12ZM335.938 49.204C334.798 49.204 333.994 50.08 333.886 51.46H337.906C337.834 50.044 337.102 49.204 335.938 49.204Z" fill="white"/>
</svg>
