<?xml version="1.0" encoding="utf-8"?>
<!-- Generator: Adobe Illustrator 24.0.0, SVG Export Plug-In . SVG Version: 6.00 Build 0)  -->
<svg version="1.1" id="Layer_1" xmlns="http://www.w3.org/2000/svg" xmlns:xlink="http://www.w3.org/1999/xlink" x="0px" y="0px"
	 viewBox="0 0 150 75" style="enable-background:new 0 0 150 75;" xml:space="preserve">
<style type="text/css">
	.st0{clip-path:url(#SVGID_2_);fill:#E32526;}
	.st1{clip-path:url(#SVGID_4_);fill:#FFFFFF;}
</style>
<g id="AA">
	<g>
		<g>
			<defs>
				<path id="SVGID_1_" d="M40.6,37.5c0,19,15.4,34.4,34.4,34.4s34.4-15.4,34.4-34.4S94,3.1,75,3.1S40.6,18.5,40.6,37.5"/>
			</defs>
			<clipPath id="SVGID_2_">
				<use xlink:href="#SVGID_1_"  style="overflow:visible;"/>
			</clipPath>
			<path class="st0" d="M109.4,37.5c0,19-15.4,34.4-34.4,34.4S40.6,56.5,40.6,37.5S56,3.1,75,3.1S109.4,18.5,109.4,37.5"/>
		</g>
	</g>
	<g>
		<g>
			<defs>
				<path id="SVGID_3_" d="M40.6,37.5c0,19,15.4,34.4,34.4,34.4s34.4-15.4,34.4-34.4S94,3.1,75,3.1S40.6,18.5,40.6,37.5"/>
			</defs>
			<clipPath id="SVGID_4_">
				<use xlink:href="#SVGID_3_"  style="overflow:visible;"/>
			</clipPath>
			<path class="st1" d="M65.3,30.6c0.8-0.1,1.4,0.3,1.3,1.1c-0.1,0.7-0.7,1.4-1.5,1.6c-0.8,0.1-1.4-0.3-1.3-1.1
				C63.9,31.5,64.5,30.8,65.3,30.6 M56.9,35.8c0.7-2.5,1.5-5.1,2.3-7c-1.6,2.1-3.4,4.8-4.9,7.5C55.2,36.1,56.1,35.9,56.9,35.8
				 M70.8,33.8c0.6-0.1,2,0.7,1.3,1.5s-1.4,0.6-2.6,1.1c-0.7,0.3-1.2,0.9-1.9,2c-0.9,1.4-1.4,2.8-1.5,3.8c0,0.3,0,0.5-0.2,0.6
				c-1.6,1-2.1,0.3-2-0.7c0-0.2,0.1-0.6,0.2-1c-1.2,1.8-2.3,2.8-3,2.9c-0.9,0.2-1.5-0.5-1.4-1.7c0-0.6,0.2-1.2,0.5-2s0.8-2,1.3-2.9
				c0.1-0.2,0.2-0.5,0.3-0.7c-0.7,0.1-1.7,0.3-2.9,0.6v0.1c-0.5,2.4-0.6,3.3-0.8,5.4c-0.1,0.9,0.1,1.9-1,2c-1.1,0.2-1.4-1-1.4-1.9
				c0-1,0.2-2.1,0.8-4.9c-1.1,0.3-2.3,0.6-3.5,1l0,0c-2,3.6-3.9,8-4.2,9.4c-0.3,1.1-0.8,1.5-1.5,1.2c-0.8-0.3-1.2-1.1-0.9-2
				c0.5-1.5,2-5,3.4-7.4c0,0,0,0,0-0.1c-1,0.4-1.9,0.8-2.7,1.2c-0.5,0.3-1.2,0-1.3-0.6c-0.1-0.4-0.3-1.3,0.7-1.7
				c1.6-0.7,3.3-1.3,4.9-1.8c3.6-6,8-12.2,9.3-12.1c0.6,0,0.5,0.6,1,1.2c0.5,0.5,0.6,0.9,0,2.3c-1.2,2.9-1.1,2.3-2.2,6.9
				c2.1-0.3,3.9-0.5,4.1-0.6c0.6-0.1,1.6,0.3,1,1.4c0,0-0.5,1-0.8,1.4c-0.4,0.7-0.9,1.7-1.2,2.4c-0.2,0.4-0.3,0.7-0.3,1
				c0,0.1,0,0.2,0.2,0.2s0.4-0.2,0.7-0.5s1.2-1.1,2.9-3.9l0.4-0.9c0.1-0.3,0.3-0.7,0.4-1c0-0.3,0.1-0.4,0.3-0.6
				c0.4-0.3,1.2-0.5,1.7-0.2c0.4,0.3,0.3,0.8,0,1.4C70.1,33.9,70.5,33.9,70.8,33.8 M99.1,38.5c0.8-1,2.1-3.3,2.1-3.9
				c0-0.3,0-0.4-0.3-0.4s-0.9,0.5-1.5,1.3c-0.9,1-2,3.2-2.1,3.9c0,0.3,0.1,0.5,0.3,0.4C97.9,39.8,98.4,39.3,99.1,38.5 M103.9,36.9
				c0.4-0.6,1.1-0.4,0.9,0.1c-0.2,0.4-0.5,1.2-1.3,2.2c-1,1.3-2,1.9-2.8,2c-0.7,0.1-1.2-0.2-1.3-0.8v-0.1c0-0.1-0.1-0.2-0.1-0.2
				c-0.1,0-0.1,0.1-0.2,0.2c-0.9,0.9-1.5,1.5-2.3,1.6c-1.3,0.1-2-0.9-1.8-2.2c-0.3,0.5-0.6,0.9-1,1.3c-0.9,1-1.7,1.7-2.4,1.8
				c-1,0.1-1.5-0.6-1.3-1.8c0.1-0.5,0.3-1.2,0.6-2c0.4-0.8,0.9-1.9,1.4-2.8c0.4-0.7,0.8-1.6,0.9-1.9c0-0.2,0.1-0.3,0.2-0.4
				c0.2-0.2,0.7-0.3,0.9-0.4c0.7-0.1,1.6,0.4,1,1.4l-0.2,0.4c0,0.1-0.4,0.8-0.7,1.2c-0.4,0.7-1,1.7-1.3,2.4
				c-0.2,0.4-0.3,0.7-0.3,0.9s0,0.2,0.1,0.2c0.2,0,0.4-0.2,0.7-0.5c0.3-0.3,0.5-0.5,1.2-1.4l0.2-0.3c0.2-0.3,1.7-2.3,2.2-2.8
				c1.2-1.5,2.6-2.5,3.5-2.6c0.6-0.1,1.1,0.2,1.3,0.7c0.2,0.4,0.2,0.5,0.6,0.6c0.6,0.3,0.8,0.5,0.8,0.8c0,0.2-0.1,0.4-0.5,1
				c-0.3,0.5-0.6,1-0.8,1.5c-0.5,0.9-0.7,1.6-0.3,1.7c0.2,0.1,0.5-0.1,0.9-0.5C103.3,37.9,103.6,37.4,103.9,36.9 M95.8,32.2
				c0.8-0.1,1.5-0.8,1.5-1.6c0.1-0.7-0.5-1.2-1.3-1c-0.8,0.1-1.5,0.8-1.5,1.6C94.4,31.9,95,32.3,95.8,32.2 M84,28.8
				c-1.6,2.1-3.3,4.8-4.9,7.5c0.9-0.2,1.8-0.4,2.6-0.5C82.4,33.3,83.2,30.7,84,28.8 M84.4,35.3c0.5-0.1,2-0.2,1.9,0.4
				c-0.1,1-0.5,1-1.8,1.3c-0.3,0.1-0.5,0.1-0.8,0.2c0,0.1,0,0.1-0.1,0.1c-0.5,2.4-0.5,3.3-0.8,5.4c-0.1,0.9,0.1,1.9-1,2
				c-1.1,0.2-1.5-1-1.4-1.9c0-1.7,0.9-5,0.9-5c-1.1,0.3-2.3,0.6-3.5,1c-1.4,2.4-3.9,8.1-4.3,9.5c-0.3,1.1-0.8,1.5-1.5,1.2
				c-0.8-0.3-1.2-1.1-0.9-2c0.7-2.4,3.4-7.5,3.4-7.6c-1,0.4-1.9,0.8-2.7,1.3c-0.5,0.3-1.1,0-1.3-0.6c-0.1-0.4-0.3-1.3,0.7-1.7
				c1.6-0.7,3.2-1.3,4.9-1.8c3.6-6,8-12.2,9.3-12.1c0.6,0,0.5,0.6,1,1.2c0.5,0.5,0.6,0.9,0,2.3c-1.2,2.9-1.1,2.3-2.2,6.9
				C84.2,35.3,84.3,35.3,84.4,35.3 M86.1,43.7c0.9-0.1,3.5-0.7,3.5-3.5c0-1.1-1-1.7-1.3-2.4c-0.2-0.5-0.1-1.5,0.6-1.7
				c0.9-0.4,1.1,0.2,1.4,0.7c0.1,0.2,0.6,0.1,0.7,0c0.2-0.2,0.5-0.5,0.6-1.1c0.1-0.5-0.4-1.3-1.9-1.3c-0.5,0-1.3,0.1-2.3,1.1
				c-0.5,0.5-2,2.6-0.9,4.4c0.3,0.5,1.1,1.1,0.6,1.6c-0.7,0.7-2-0.4-2.3-0.7c-0.1-0.2-0.4-0.3-0.6,0c-0.1,0.2-0.7,1.2-0.6,1.6
				C83.9,43.4,85.4,43.7,86.1,43.7"/>
		</g>
	</g>
</g>
</svg>
