<?xml version="1.0" encoding="utf-8"?>
<!-- Generator: Adobe Illustrator 24.0.0, SVG Export Plug-In . SVG Version: 6.00 Build 0)  -->
<svg version="1.1" id="Layer_1" xmlns="http://www.w3.org/2000/svg" xmlns:xlink="http://www.w3.org/1999/xlink" x="0px" y="0px"
	 viewBox="0 0 150 75" style="enable-background:new 0 0 150 75;" xml:space="preserve">
<style type="text/css">
	.st0{clip-path:url(#SVGID_2_);}
	.st1{fill:#5C0FD9;}
	.st2{fill:#FF6300;}
</style>
<g>
	<g>
		<defs>
			<rect id="SVGID_1_" x="4.6" y="25.6" width="140.9" height="23.8"/>
		</defs>
		<clipPath id="SVGID_2_">
			<use xlink:href="#SVGID_1_"  style="overflow:visible;"/>
		</clipPath>
		<g class="st0">
			<path class="st1" d="M105.6,46L105.6,46c0,0.1,0,0.2,0.1,0.2l0.1,0.1h0.1h2.7V34.4h-0.8c-0.5,0-1.1,0.2-1.4,0.5
				c-0.4,0.3-0.6,0.8-0.7,1.4c-0.8-1.4-2.3-2.1-4.1-2.1c-3.1,0-5.8,2.5-5.8,6.4c0,3.7,2,6.1,5.4,6.1c2.5,0,3.5-1.1,3.5-2.3
				c0-0.2,0-0.5-0.1-0.7s-0.2-0.4-0.4-0.5c-0.3,0.3-0.6,0.5-1,0.6S102.4,44,102,44c-1.6,0-3-0.9-3-3.4c0-2.4,1.6-3.5,3.3-3.5
				c2.2,0,3.3,1.4,3.3,3.5V46z M124.6,31.7l5.6,14.6H127c-0.1,0-0.2,0-0.3-0.1c-0.1-0.1-0.2-0.2-0.2-0.3L122,33.8l-2.4,6.5h1.6
				c1.4,0,2,0.5,2.3,1.4l0.4,1.1c0.1,0.2,0,0.4-0.2,0.4h-5.1l-1.1,3.2h-3c-0.1,0-0.1,0-0.1,0l-0.1-0.1c0,0,0-0.1-0.1-0.1
				c0-0.1,0-0.1,0-0.1l5.3-13.8c0.5-1.4,1.3-1.9,2.5-1.9h2.6c0.2,0,0.3,0.1,0.3,0.2c0,0.3-0.4,0.3-0.4,0.7
				C124.5,31.4,124.5,31.6,124.6,31.7z M79.2,46L79.2,46c0,0.1,0,0.2,0.1,0.2l0.1,0.1h0.1h2.7V34.4h-0.8c-0.5,0-1.1,0.2-1.4,0.5
				c-0.4,0.3-0.6,0.8-0.7,1.4c-0.8-1.4-2.3-2.1-4.1-2.1c-3.1,0-5.8,2.5-5.8,6.4c0,3.7,2,6.1,5.4,6.1c2.5,0,3.5-1.1,3.5-2.3
				c0-0.2,0-0.5-0.1-0.7s-0.2-0.4-0.4-0.5c-0.3,0.3-0.6,0.5-1,0.6S76,44,75.6,44c-1.6,0-3-0.9-3-3.4c0-2.4,1.6-3.5,3.3-3.5
				c2.2,0,3.3,1.4,3.3,3.5V46z M65.2,34.8c0.1-0.1,0.2-0.3,0.4-0.3c0.2-0.1,0.3-0.1,0.5-0.1h3.5l-5.1,5.7l5.2,6.2h-3.5
				c-0.2,0-0.3,0-0.5-0.1s-0.3-0.2-0.4-0.3l-3.9-4.8v5.2h-2.7h-0.1c0,0-0.1,0-0.1-0.1l-0.1-0.1V46V31.8c0-0.6,0.2-1.1,0.7-1.6
				c0.4-0.4,1-0.6,1.6-0.7h0.8v9.7L65.2,34.8z M50.9,31.7l5.6,14.6h-3.2c-0.1,0-0.2,0-0.3-0.1s-0.2-0.2-0.2-0.3l-4.5-12.2L46,40.3
				h1.6c1.4,0,2,0.5,2.3,1.4l0.4,1.1c0.1,0.2,0,0.4-0.2,0.4H45l-1.1,3.2h-3c-0.1,0-0.1,0-0.1,0l-0.1-0.1c0,0,0-0.1-0.1-0.1
				c0-0.1,0-0.1,0-0.1l5.3-13.8c0.5-1.4,1.3-1.9,2.5-1.9H51c0.2,0,0.3,0.1,0.3,0.2c0,0.3-0.4,0.3-0.4,0.7
				C50.9,31.4,50.9,31.6,50.9,31.7L50.9,31.7z M137.5,36.6V46v0.1c0,0,0,0.1,0.1,0.1l0.1,0.1h0.1h2.7v-5.9c0-0.4,0-0.8,0.2-1.2
				c0.1-0.4,0.4-0.8,0.7-1.1s0.6-0.5,1-0.7s0.8-0.3,1.2-0.3c0.5,0,0.9,0,1.4,0.2c0.3-0.5,0.4-1.1,0.5-1.7c0-0.7-0.4-1.4-1.7-1.4
				s-2.5,0.8-3.2,2.5v-2.4h-0.8c-0.3,0-0.6,0-0.9,0.1c-0.3,0.1-0.5,0.3-0.7,0.5s-0.4,0.5-0.5,0.7C137.6,36,137.5,36.3,137.5,36.6
				L137.5,36.6z M131.9,36.6c0-0.6,0.2-1.1,0.7-1.6c0.4-0.4,1-0.6,1.6-0.7h0.8v11.9h-2.7h-0.1c0,0-0.1,0-0.1-0.1L132,46v-0.1
				L131.9,36.6L131.9,36.6z M84,44.2c0,1.6,2.8,2.4,5,2.4c2.9,0,5.3-1.4,5.3-3.9c0-1.8-0.9-2.9-3.2-3.5l-2.5-0.6c-0.6-0.2-1-0.4-1-1
				s0.6-0.9,1.7-0.9c1.3,0,2.6,0.4,3.8,1.2c0.4-0.4,0.7-1,0.8-1.6c0-1.3-2.2-2.1-4.6-2.1c-2.6,0-4.9,1.3-4.9,3.8c0,1.9,0.9,3,3,3.5
				L90,42c0.7,0.1,1,0.4,1,1c0,0.7-0.6,1-2,1c-1.6-0.1-3.1-0.6-4.4-1.5C84.3,43,84,43.6,84,44.2z M133.5,28.9c-0.5,0-1,0.2-1.3,0.5
				s-0.5,0.8-0.5,1.3s0.2,1,0.5,1.3c0.4,0.4,0.8,0.5,1.3,0.5c0.3,0,0.5,0,0.7-0.1s0.4-0.2,0.6-0.4c0.2-0.2,0.3-0.4,0.4-0.6
				s0.1-0.5,0.1-0.7c0-0.3-0.1-0.5-0.1-0.7c-0.1-0.2-0.2-0.4-0.4-0.6s-0.4-0.3-0.6-0.4C134,28.9,133.8,28.9,133.5,28.9z"/>
			<path class="st2" d="M4.7,48.8l8.8-14.9c0.1-0.2,0.2-0.3,0.4-0.3c0.1,0,0.2,0.1,0.4,0.3c1.1,1.8,1.7,3.9,1.7,6
				c0,5.6-4.4,9.4-10.7,9.4c-0.1,0-0.6,0-0.6-0.3C4.6,49,4.6,48.9,4.7,48.8z"/>
			<path class="st2" d="M24.7,35l7.7,13.7c0.2,0.3,0.1,0.6-0.4,0.6c-5.6,0-8.2-2.1-10.4-5.9l-5.9-10.6c-0.3-0.4-0.5-0.9-0.5-1.4
				c0.1-0.6,0.3-1.2,0.6-1.8l0.7-1.3c1.1-2,2.2-2.8,4.9-2.8h1.9c0.3,0,0.3,0.2,0.2,0.4c-0.7,0.8-1,1.8-1,2.9
				C22.7,30.3,23.2,32.3,24.7,35z"/>
		</g>
	</g>
</g>
</svg>
