<?xml version="1.0" encoding="utf-8"?>
<!-- Generator: Adobe Illustrator 24.0.0, SVG Export Plug-In . SVG Version: 6.00 Build 0)  -->
<svg version="1.1" id="Layer_1" xmlns="http://www.w3.org/2000/svg" xmlns:xlink="http://www.w3.org/1999/xlink" x="0px" y="0px"
	 viewBox="0 0 150 75" style="enable-background:new 0 0 150 75;" xml:space="preserve">
<style type="text/css">
	.st0{fill:#612E87;}
	.st1{fill:#EF6719;}
	.st2{fill:#FEFEFE;}
	.st3{fill:#FFFFFF;}
</style>
<g>
	<rect x="5.4" y="1.4" class="st0" width="139.2" height="72.1"/>
	<path class="st1" d="M47.3,7.5c-13.6,0-24.6,11-24.6,24.6s11,24.6,24.6,24.6s24.6-11,24.6-24.6l0,0C72,18.5,60.9,7.5,47.3,7.5"/>
	<path class="st0" d="M44.8,41c-0.9,0-1.7-0.6-2-1.4l-1.3-2.9h-8.2l-1.3,3c-0.2,0.8-1,1.3-1.9,1.3c-1,0-1.9-0.9-1.9-1.9
		c0,0,0,0,0-0.1c0-0.3,0.1-0.6,0.2-0.9L35,23.5c0.4-1,1.3-1.7,2.4-1.6h0.2c1,0,2,0.6,2.4,1.6l6.5,14.7c0.5,0.9,0.1,2.1-0.8,2.6
		C45.4,41,45.1,41,44.8,41L44.8,41z"/>
	<polygon class="st1" points="34.9,33.1 40,33.1 37.4,26.9 	"/>
	<path class="st0" d="M64.4,32.7c0,5.6-3.2,8.4-8.2,8.4s-8.1-2.8-8.1-8.3v-8.7c-0.1-1.2,0.8-2.1,2-2.2s2.1,0.8,2.2,2
		c0,0.1,0,0.2,0,0.2v8.6c0,3,1.5,4.6,4,4.6s4-1.5,4-4.5v-8.7c-0.1-1.2,0.8-2.1,2-2.2s2.1,0.8,2.2,2c0,0.1,0,0.2,0,0.2L64.4,32.7z"/>
	<path class="st2" d="M77.9,19.3l2.8-6.2c0.2-0.4,0.6-0.7,1-0.7h0.1c0.5,0,0.9,0.3,1,0.7l2.8,6.2c0.1,0.1,0.1,0.2,0.1,0.3
		c0,0.5-0.3,0.8-0.8,0.9l0,0c-0.3,0-0.7-0.2-0.9-0.6l-0.5-1.3H80L79.4,20c-0.1,0.3-0.5,0.6-0.8,0.6c-0.5,0-0.8-0.3-0.8-0.8l0,0
		C77.8,19.6,77.8,19.5,77.9,19.3 M82.8,17.2l-1.1-2.6l-1.1,2.6H82.8z"/>
	<path class="st2" d="M86.2,17.1v-3.7c0.1-0.5,0.5-0.8,1-0.7c0.3,0.1,0.6,0.3,0.7,0.7V17c0,1.3,0.6,2,1.7,2s1.7-0.6,1.7-1.9v-3.7
		c0.1-0.5,0.5-0.8,1-0.7c0.3,0.1,0.6,0.3,0.7,0.7V17c0,2.4-1.3,3.6-3.5,3.6C87.5,20.6,86.2,19.4,86.2,17.1"/>
	<path class="st2" d="M78,29.9c-0.3-0.3-0.5-0.7-0.2-1.2c0.2-0.2,0.4-0.3,0.6-0.3s0.3,0.1,0.5,0.2c0.6,0.5,1.3,0.7,2,0.7
		s1.2-0.3,1.2-0.7l0,0c0-0.5-0.3-0.7-1.6-1c-1.5-0.6-2.6-1-2.6-2.6l0,0c0-1.4,1.2-2.4,2.8-2.4c0.9,0,1.8,0.2,2.5,0.7
		c0.2,0.2,0.4,0.4,0.4,0.7c0,0.5-0.3,0.8-0.8,0.8l0,0c-0.2,0-0.3-0.1-0.5-0.1c-0.5-0.3-1-0.5-1.6-0.5c-0.7,0-1,0.3-1,0.7l0,0
		c0,0.5,0.3,0.7,1.7,1c1.6,0.4,2.5,1,2.5,2.4l0,0c0,1.6-1.2,2.5-2.9,2.5C80,30.8,79,30.5,78,29.9"/>
	<path class="st2" d="M85,23.6c0-0.5,0.4-0.9,0.9-0.9l0,0H86c0.3,0,0.6,0.2,0.8,0.5l2.1,3.4l2.1-3.5c0.2-0.3,0.5-0.5,0.8-0.5H92
		c0.5,0,0.9,0.4,0.9,0.9l0,0v6.3c0.1,0.5-0.3,0.9-0.7,1s-0.9-0.3-1-0.7c0-0.1,0-0.1,0-0.2v-4l-1.6,2.4c-0.2,0.4-0.7,0.6-1.1,0.3
		c-0.2-0.1-0.3-0.2-0.3-0.3L86.7,26v3.9c0,0.5-0.4,0.9-0.9,0.9l0,0c-0.5,0-0.9-0.3-0.9-0.8l0,0L85,23.6L85,23.6z"/>
	<path class="st2" d="M93.9,29.6l2.8-6.2c0.2-0.4,0.6-0.7,1-0.7h0.1c0.5,0,0.9,0.3,1,0.7l2.8,6.2c0.1,0.1,0.1,0.2,0.1,0.3
		c0,0.5-0.3,0.8-0.8,0.9l0,0c-0.4,0-0.7-0.2-0.8-0.6l-0.5-1.3H96l-0.6,1.3c-0.1,0.3-0.5,0.6-0.8,0.6c-0.5,0-0.8-0.3-0.8-0.8l0,0
		C93.8,29.9,93.9,29.7,93.9,29.6 M98.8,27.4l-1.1-2.6l-1.1,2.6H98.8z"/>
	<path class="st2" d="M102.5,23.6c-0.1-0.5,0.2-0.9,0.7-1s0.9,0.2,1,0.7c0,0.1,0,0.2,0,0.3v5.5h3.2c0.5-0.1,0.8,0.3,0.9,0.7
		s-0.3,0.8-0.7,0.9c-0.1,0-0.1,0-0.1,0h-4.1c-0.5,0-0.9-0.4-0.9-0.9l0,0V23.6z"/>
	<path class="st2" d="M109.1,23.6c-0.1-0.5,0.2-0.9,0.7-1s0.9,0.2,1,0.7c0,0.1,0,0.2,0,0.3v5.5h3.2c0.5,0.1,0.7,0.4,0.7,0.9
		c-0.1,0.4-0.3,0.7-0.7,0.7h-4c-0.5,0-0.9-0.4-0.9-0.9l0,0V23.6z"/>
	<path class="st2" d="M77.8,33.9c0-0.5,0.4-0.9,0.9-0.9l0,0h4.4c0.5-0.1,0.8,0.3,0.9,0.7s-0.3,0.8-0.7,0.9c-0.1,0-0.1,0-0.1,0h-3.6
		v1.7h3c0.5,0.1,0.7,0.4,0.7,0.9c-0.1,0.4-0.3,0.7-0.7,0.7h-3v2.2c-0.1,0.5-0.5,0.8-1,0.7c-0.3-0.1-0.6-0.3-0.7-0.7v-6.2H77.8z"/>
	<path class="st2" d="M84.8,33.8c0.1-0.5,0.5-0.8,1-0.7c0.3,0.1,0.6,0.3,0.7,0.7v6.3c-0.1,0.5-0.5,0.8-1,0.7
		c-0.3-0.1-0.6-0.3-0.7-0.7V33.8z"/>
	<path class="st2" d="M88.1,33.9c0-0.5,0.4-0.9,0.9-0.9l0,0h0.2c0.3,0,0.7,0.2,0.9,0.5l3.3,4.4v-4.1c0-0.5,0.4-0.9,0.9-0.9
		s0.9,0.4,0.9,0.9v6.3c0,0.5-0.4,0.9-0.9,0.9l0,0h-0.1c-0.3,0-0.7-0.2-0.9-0.5L89.7,36v4.3c0,0.5-0.4,0.9-0.9,0.9S88,40.7,88,40.3
		L88.1,33.9z"/>
	<path class="st2" d="M96.1,39.8l2.8-6.2c0.2-0.4,0.6-0.7,1-0.7h0.1c0.5,0,0.9,0.3,1,0.7l2.7,6.2c0.1,0.1,0.1,0.2,0.1,0.3
		c0,0.5-0.3,0.8-0.8,0.8l0,0c-0.3,0-0.7-0.2-0.8-0.6l-0.5-1.3h-3.5l-0.6,1.3c-0.1,0.3-0.5,0.5-0.8,0.5c-0.5,0-0.8-0.3-0.8-0.8l0,0
		C96,40.1,96,39.9,96.1,39.8 M101,37.6L99.9,35l-1.1,2.6H101z"/>
	<path class="st2" d="M104.7,33.9c0-0.5,0.4-0.9,0.9-0.9l0,0h0.2c0.3,0,0.7,0.2,0.9,0.5L110,38v-4.1c0-0.5,0.4-0.9,0.9-0.9
		s0.9,0.4,0.9,0.9v6.3c0,0.5-0.4,0.9-0.9,0.9l0,0h-0.1c-0.3,0-0.7-0.2-0.9-0.5l-3.5-4.5v4.3c0,0.5-0.4,0.9-0.9,0.9s-0.9-0.4-0.9-0.9
		L104.7,33.9L104.7,33.9z"/>
	<path class="st2" d="M112.8,37L112.8,37c-0.1-2.2,1.7-4.1,4-4.1c0.1,0,0.1,0,0.2,0c0.9-0.1,1.9,0.2,2.6,0.8
		c0.2,0.2,0.3,0.4,0.3,0.7c0,0.5-0.4,0.9-0.9,0.9l0,0c-0.2,0-0.3-0.1-0.5-0.2c-0.5-0.3-1-0.6-1.6-0.6c-1.3,0-2.3,1.1-2.3,2.4V37l0,0
		c-0.1,1.3,0.9,2.4,2.2,2.5c0.1,0,0.1,0,0.1,0c0.6,0,1.3-0.2,1.7-0.6c0.2-0.1,0.3-0.2,0.5-0.2c0.5,0,0.8,0.3,0.8,0.8
		c0,0.2-0.1,0.5-0.3,0.6c-1.7,1.5-4.4,1.3-5.9-0.5C113.2,38.9,112.9,38,112.8,37"/>
	<path class="st2" d="M121.1,40.1v-6.2c0-0.5,0.4-0.9,0.9-0.9l0,0h4.4c0.5,0,0.8,0.3,0.8,0.8l0,0c0,0.4-0.3,0.7-0.7,0.7l0,0h-3.6
		v1.6h3c0.5,0,0.8,0.3,0.8,0.8l0,0c0,0.4-0.3,0.7-0.7,0.7l0,0h-3v1.7h3.6c0.5,0,0.8,0.3,0.8,0.8l0,0c0,0.4-0.3,0.7-0.7,0.7l0,0h-4.4
		C121.5,41,121.1,40.5,121.1,40.1L121.1,40.1"/>
	<path class="st2" d="M77.8,44.2c0-0.5,0.4-0.9,0.9-0.9l0,0h2.8c0.7-0.1,1.5,0.2,2.1,0.7c0.3,0.3,0.6,0.9,0.5,1.3l0,0
		c0,0.7-0.4,1.4-1,1.7c0.9,0.3,1.5,0.9,1.5,2l0,0c0,1.4-1.2,2.2-2.9,2.2h-2.9c-0.5,0-0.9-0.4-0.9-0.9l0,0L77.8,44.2z M81,46.5
		c0.7,0,1.3-0.2,1.3-0.8l0,0c0-0.5-0.4-0.8-1.2-0.8h-1.7v1.7L81,46.5z M81.5,49.7c0.7,0,1.2-0.3,1.2-0.9l0,0c0-0.5-0.4-0.9-1.3-0.9
		h-2v1.7h2.1V49.7z"/>
	<path class="st2" d="M85,50l2.8-6.2c0.2-0.4,0.6-0.7,1-0.7h0.1c0.5,0,0.9,0.3,1,0.7l2.8,6.2c0.2,0.4,0.1,0.9-0.3,1.1
		c-0.1,0.1-0.2,0.1-0.4,0.1c-0.3,0-0.7-0.2-0.8-0.6l-0.5-1.3h-3.6l-0.6,1.3c-0.1,0.3-0.5,0.5-0.8,0.5c-0.5,0-0.8-0.3-0.8-0.8l0,0
		C84.9,50.3,84.9,50.2,85,50 M89.9,47.9l-1.1-2.6l-1.1,2.6H89.9z"/>
	<path class="st2" d="M93.6,44.1c0-0.5,0.4-0.9,0.9-0.9l0,0h0.2c0.3,0,0.7,0.2,0.9,0.5l3.3,4.4V44c0-0.5,0.4-0.9,0.9-0.9
		s0.9,0.4,0.9,0.9v6.3c0,0.5-0.4,0.9-0.9,0.9l0,0h-0.1c-0.3,0-0.7-0.2-0.9-0.5l-3.5-4.6v4.3c0,0.5-0.4,0.9-0.9,0.9s-0.9-0.4-0.9-0.9
		L93.6,44.1z"/>
	<path class="st2" d="M102.1,44.1c0.1-0.5,0.5-0.8,1-0.7c0.4,0.1,0.7,0.3,0.7,0.7v2.6l3.2-3.2c0.2-0.2,0.5-0.3,0.7-0.3
		c0.5,0,0.8,0.3,0.8,0.7c0,0,0,0,0,0.1c0,0.2-0.1,0.5-0.3,0.6l-2.2,2.1l2.4,3c0.2,0.2,0.2,0.4,0.2,0.6c0,0.5-0.3,0.9-0.8,0.9h-0.1
		c-0.3,0-0.6-0.2-0.7-0.4l-2.2-3l-1,0.9v1.6c-0.1,0.5-0.5,0.8-1,0.7c-0.4-0.1-0.7-0.3-0.7-0.7V44.1z"/>
	<rect x="5.4" y="62.7" class="st1" width="139.2" height="10.8"/>
	<path class="st3" d="M94.6,71.7c0.1,0.1,0.2,0.2,0.2,0.4c0,0.2-0.1,0.3-0.2,0.4s-0.2,0.2-0.3,0.2c-0.1,0-0.3-0.1-0.3-0.2
		c-0.1-0.1-0.2-0.2-0.1-0.4c0-0.2,0.1-0.3,0.1-0.4c0.1-0.1,0.2-0.2,0.3-0.2S94.6,71.6,94.6,71.7 M94.9,69.5c0.1,0.1,0.1,0.1,0.2,0.1
		s0.2-0.1,0.2-0.1c0.1-0.1,0.1-0.1,0.1-0.2s-0.1-0.2-0.1-0.2C95.2,69,95.2,69,95.1,69c0,0-0.1,0-0.2,0c-0.1,0.1-0.1,0.1-0.1,0.2
		C94.8,69.4,94.8,69.4,94.9,69.5z M92.5,63.7c0.1-0.1,0.2-0.1,0.3-0.1c0.1,0,0.2,0.1,0.4,0.3l0.3,0.3l1.8,1.7l0,0H96
		c0.4,0.1,0.4,0.7,0,0.7h-0.7v1.3c0,0.1,0,0.2-0.1,0.2c-0.1,0.1-0.1,0.1-0.2,0.1c-0.1-0.1-0.3-0.1-0.4-0.1c-0.2,0-0.3,0-0.5-0.1
		c-0.3,0-0.7,0.1-1,0.3c-0.2,0.1-0.4,0.3-0.5,0.6c0,0.3,0.1,0.5,0.3,0.7c0.2,0.2,0.5,0.3,0.9,0.3c0.1,0,0.3,0,0.4-0.1
		s0.2-0.1,0.3-0.2c-0.1-0.1-0.1-0.1-0.2-0.2s-0.1-0.2-0.1-0.3c0-0.2,0.1-0.4,0.2-0.5c0.2-0.2,0.3-0.2,0.6-0.2s0.4,0.1,0.6,0.2
		s0.2,0.3,0.2,0.5c0,0.4-0.2,0.8-0.6,1c-0.4,0.3-0.9,0.5-1.4,0.4c-0.5,0-1-0.2-1.4-0.5c-0.3-0.3-0.6-0.7-0.6-1.2s0.3-0.9,0.7-1.2
		c0.5-0.3,1-0.5,1.6-0.5h0.4v-0.8H91V70c0,0.1-0.1,0.2-0.1,0.3c-0.1,0.1-0.2,0.1-0.3,0.1c-0.1,0-0.2-0.1-0.3-0.1
		c-0.1-0.1-0.1-0.2-0.1-0.3v-0.5c0,0.4-0.2,0.5-0.4,0.5c-0.2,0.1-0.5,0.1-0.7,0.1c-0.4,0-0.9-0.1-1.2-0.4c-0.3-0.2-0.5-0.6-0.5-1
		c0-0.5,0.2-0.9,0.5-1.2c0.3-0.3,0.7-0.5,1.2-0.5c0.2,0,0.3,0.1,0.5,0.1c0.1,0.1,0.2,0.2,0.2,0.3c0,0.1-0.1,0.2-0.1,0.2
		c-0.1,0.1-0.2,0.1-0.3,0.1h-0.6l1.3,1c0.1-0.1,0.1-0.1,0.1-0.2s0.1-0.1,0.1-0.2v-2.1H87c-0.2,0-0.3-0.2-0.3-0.4
		c0-0.2,0.2-0.3,0.3-0.3h7.2l0,0L92.6,64L92.5,63.7c-0.2,0-0.3-0.1-0.3-0.1C92.4,63.8,92.4,63.8,92.5,63.7L92.5,63.7z M95.4,64.2
		c0.2,0.2,0.2,0.4,0,0.6l0,0c-0.1,0.1-0.2,0.1-0.3,0.1c-0.1,0-0.2-0.1-0.3-0.1c-0.2-0.2-0.2-0.4,0-0.6l0,0c0.1-0.1,0.2-0.1,0.3-0.1
		S95.3,64.1,95.4,64.2z M88.3,68.6c-0.1,0.1-0.1,0.2-0.1,0.3c0,0.2,0.1,0.4,0.2,0.5c0.2,0.1,0.3,0.2,0.6,0.2c0.1,0,0.3,0,0.4-0.1
		c0.1,0,0.2-0.1,0.3-0.1l-1.3-1.1C88.3,68.4,88.3,68.5,88.3,68.6z M81.3,63.7c0.1-0.1,0.2-0.1,0.3-0.1c0.1,0,0.2,0.1,0.4,0.3
		l0.3,0.3l1.8,1.8h-1l-1.6-1.5c-0.1-0.1-0.1-0.1-0.2-0.2C81.1,64.1,81,64.1,81,64C81.2,63.9,81.2,63.8,81.3,63.7z M73.6,66.1
		c0.3,0.2,0.5,0.5,0.5,0.9c0,0.2-0.1,0.5-0.2,0.6c-0.1,0.2-0.3,0.3-0.5,0.5c0.2,0.2,0.5,0.3,0.6,0.6c0.2,0.2,0.2,0.4,0.2,0.7
		c0,0.4-0.2,0.8-0.5,1.1S72.9,71,72.4,71s-1.1-0.2-1.5-0.5c-0.4-0.2-0.6-0.6-0.6-1.1c0-0.1,0.1-0.2,0.1-0.2c0.1-0.1,0.2-0.1,0.2-0.1
		c0.1,0,0.2,0.1,0.3,0.1c0.1,0.1,0.2,0.2,0.2,0.3c0.1,0.2,0.2,0.5,0.5,0.6c0.2,0.2,0.5,0.2,0.8,0.2s0.5-0.1,0.7-0.3
		c0.2-0.2,0.3-0.4,0.3-0.6s-0.1-0.4-0.3-0.5c-0.2-0.2-0.5-0.2-0.7-0.2c-0.1,0-0.2-0.1-0.3-0.1c-0.1-0.1-0.2-0.2-0.1-0.3
		c0-0.1,0.1-0.2,0.1-0.2c0.1-0.1,0.2-0.1,0.3-0.1c0.2,0,0.4-0.1,0.6-0.2s0.2-0.3,0.2-0.5s-0.1-0.3-0.3-0.5c-0.2-0.1-0.4-0.2-0.6-0.2
		s-0.3,0-0.5,0.1s-0.3,0.1-0.5,0.2c-0.1,0.1-0.2,0.1-0.3,0s-0.2-0.2-0.2-0.3c0-0.2,0.1-0.3,0.4-0.5c0.3-0.1,0.7-0.2,1-0.2
		C72.8,65.7,73.2,65.9,73.6,66.1z M84.9,65.9c0.2,0.1,0.3,0.2,0.3,0.5c-0.1,0.1-0.1,0.2-0.3,0.3h-0.7v3.7c0,0.1-0.1,0.2-0.1,0.3
		c-0.1,0.1-0.2,0.1-0.3,0.1s-0.2-0.1-0.3-0.1c-0.1-0.1-0.1-0.2-0.1-0.3v-3.7H82c0.1,0.2,0.2,0.3,0.3,0.6c0.1,0.2,0.1,0.5,0.1,0.7
		c0,0.5-0.2,0.9-0.6,1.3c-0.4,0.3-0.9,0.5-1.4,0.5c-0.3,0-0.7-0.1-1-0.3C79.1,69.3,79,69,79,68.6c0-0.2,0.1-0.5,0.3-0.6
		c0.2-0.2,0.4-0.3,0.6-0.3s0.3,0.1,0.5,0.1c0.1,0.1,0.2,0.2,0.2,0.3c0,0.1-0.1,0.2-0.1,0.3c-0.1,0.1-0.2,0.1-0.3,0.1
		c-0.1,0-0.2,0-0.3,0c-0.1,0-0.1-0.1-0.2-0.1c0,0.2,0.1,0.3,0.2,0.3c0.1,0.1,0.3,0.2,0.5,0.1c0.3,0,0.6-0.1,0.8-0.3
		c0.2-0.2,0.3-0.5,0.3-0.7s-0.1-0.6-0.3-0.9s-0.5-0.3-0.7-0.3h-2.3v3.7c0,0.1-0.1,0.2-0.1,0.3c-0.1,0.1-0.2,0.1-0.3,0.1
		c-0.1,0-0.2-0.1-0.3-0.1c-0.1-0.1-0.1-0.2-0.1-0.3v-3.7h-1.2v3.7c0,0.1-0.1,0.2-0.1,0.3c-0.1,0.1-0.2,0.1-0.3,0.1
		c-0.1,0-0.2-0.1-0.3-0.1c-0.1-0.1-0.1-0.2-0.1-0.3v-1.7h-0.9c-0.1,0-0.2-0.1-0.3-0.1c-0.1-0.1-0.1-0.2-0.1-0.2
		c0-0.1,0.1-0.2,0.1-0.2c0.1-0.1,0.2-0.1,0.3-0.1h0.9v-1.3H75c-0.1,0-0.2-0.1-0.3-0.1c-0.1-0.1-0.1-0.2-0.1-0.2
		c0-0.1,0.1-0.2,0.1-0.2c0.1-0.1,0.2-0.1,0.3-0.1L84.9,65.9L84.9,65.9z M68.2,66.6h-0.7v3.7c0,0.1-0.1,0.2-0.1,0.3
		c-0.1,0.1-0.2,0.1-0.3,0.1c-0.1,0-0.2-0.1-0.3-0.1s-0.1-0.2-0.1-0.3v-3.7h-1.2v3.7c0,0.1-0.1,0.2-0.1,0.3c-0.1,0.1-0.2,0.1-0.3,0.1
		c-0.1,0-0.2-0.1-0.3-0.1s-0.1-0.2-0.1-0.3v-1.7c0-0.2-0.1-0.3-0.2-0.3c-0.2-0.1-0.4-0.2-0.6-0.1c-0.2,0-0.3,0.1-0.5,0.2
		c-0.1,0.1-0.2,0.2-0.3,0.4c0,0.1-0.1,0.1-0.1,0.2c-0.1,0-0.2,0-0.2,0c-0.1,0-0.3-0.1-0.3-0.2c-0.1-0.2-0.2-0.3-0.3-0.4
		c-0.2-0.1-0.3-0.2-0.6-0.2s-0.5,0.1-0.6,0.3c-0.2,0.2-0.3,0.4-0.3,0.6c0,0.3,0.1,0.5,0.3,0.7s0.5,0.3,0.7,0.3
		c0.1,0,0.2,0.1,0.3,0.1c0.1,0.1,0.1,0.2,0.1,0.3c0,0.1-0.1,0.2-0.2,0.2c-0.1,0.1-0.3,0.1-0.4,0.1c-0.5,0-0.9-0.2-1.2-0.5
		s-0.5-0.7-0.5-1.2s0.2-0.9,0.5-1.2c0.3-0.3,0.7-0.5,1.2-0.5c0.2,0,0.5,0.1,0.7,0.1c0.2,0.1,0.4,0.2,0.5,0.4
		c0.1-0.2,0.3-0.3,0.5-0.4s0.5-0.2,0.7-0.1c0.1,0,0.2,0,0.4,0.1c0.1,0,0.2,0.1,0.3,0.1v-0.9H59v3.7c0,0.1-0.1,0.2-0.1,0.3
		c-0.1,0.1-0.2,0.1-0.2,0.1c-0.1,0-0.2-0.1-0.3-0.1c-0.1-0.1-0.1-0.2-0.1-0.3v-0.5c-0.1,0.1-0.3,0.2-0.5,0.3
		c-0.2,0.1-0.5,0.1-0.7,0.1c-0.4,0-0.8-0.2-1.2-0.4c-0.3-0.2-0.5-0.6-0.5-1c0-0.2,0-0.3,0.1-0.5c0.1-0.1,0.1-0.3,0.2-0.3h-1.1
		c-0.1,0-0.2-0.1-0.3-0.1c-0.1-0.1-0.1-0.2-0.1-0.2c0-0.1,0.1-0.2,0.1-0.2c0.1-0.1,0.2-0.1,0.3-0.1h2.8c0.1,0,0.2,0.1,0.3,0.1
		c0.1,0.1,0.1,0.2,0.1,0.2c0,0.1-0.1,0.2-0.1,0.2c-0.1,0.1-0.2,0.1-0.3,0.1H57c-0.5,0-0.8,0.3-0.8,0.8c0,0.2,0.1,0.4,0.3,0.5
		s0.4,0.2,0.6,0.2c0.3,0,0.6-0.1,0.7-0.2c0.2-0.1,0.3-0.3,0.3-0.6v-2.1h-4.2c-0.2,0-0.3-0.2-0.3-0.4c0-0.2,0.2-0.3,0.3-0.3h12.2l0,0
		l-1.6-1.5l-0.2-0.2c-0.1-0.1-0.2-0.2-0.2-0.2c0-0.1,0.1-0.2,0.1-0.3c0.1-0.1,0.2-0.1,0.3-0.1c0.1,0,0.2,0.1,0.5,0.3l0.3,0.3
		l1.8,1.7l0,0h0.8C68.5,66,68.5,66.6,68.2,66.6z"/>
</g>
</svg>
