<?xml version="1.0" encoding="utf-8"?>
<!-- Generator: Adobe Illustrator 24.0.0, SVG Export Plug-In . SVG Version: 6.00 Build 0)  -->
<svg version="1.1"
	 id="svg2" inkscape:output_extension="org.inkscape.output.svg.inkscape" inkscape:version="0.46" sodipodi:docname="1000px-Axis_Bank_Logo.svg" sodipodi:version="0.32" xmlns:cc="http://creativecommons.org/ns#" xmlns:dc="http://purl.org/dc/elements/1.1/" xmlns:inkscape="http://www.inkscape.org/namespaces/inkscape" xmlns:rdf="http://www.w3.org/1999/02/22-rdf-syntax-ns#" xmlns:sodipodi="http://sodipodi.sourceforge.net/DTD/sodipodi-0.dtd" xmlns:svg="http://www.w3.org/2000/svg"
	 xmlns="http://www.w3.org/2000/svg" xmlns:xlink="http://www.w3.org/1999/xlink" x="0px" y="0px" viewBox="0 0 150 75"
	 style="enable-background:new 0 0 150 75;" xml:space="preserve">
<style type="text/css">
	.st0{fill:#AE285D;}
</style>
<defs>
	
		<inkscape:perspective  id="perspective30" inkscape:persp3d-origin="625 : 107.08333 : 1" inkscape:vp_x="0 : 160.625 : 1" inkscape:vp_y="0 : 1000 : 0" inkscape:vp_z="1250 : 160.625 : 1" sodipodi:type="inkscape:persp3d">
		</inkscape:perspective>
</defs>
<sodipodi:namedview  bordercolor="#666666" borderlayer="false" borderopacity="1.0" gridtolerance="10.0" guidetolerance="10.0" id="base" inkscape:current-layer="svg2" inkscape:cx="401.35343" inkscape:cy="82.827844" inkscape:pageopacity="0.0" inkscape:pageshadow="2" inkscape:showpageshadow="false" inkscape:window-height="669" inkscape:window-width="640" inkscape:window-x="138" inkscape:window-y="95" inkscape:zoom="0.61546574" objecttolerance="10.0" pagecolor="#ffffff" showborder="true" showgrid="false">
	</sodipodi:namedview>
<g id="_x23_ae285dff">
	<path id="path5" class="st0" d="M28.1,20.9c2,3.4,4,6.8,5.9,10.2c-3.2,5.6-6.3,11.2-9.5,16.7c-1.3,2.1-2.5,4.2-3.7,6.4
		c-4,0-8,0-12,0c0.1-0.3,0.2-0.6,0.4-0.8C15.5,42.5,21.8,31.7,28.1,20.9z"/>
	<path id="path7" class="st0" d="M109.5,29.2c2.1,4.1,4.2,8.3,6.4,12.4c-0.7,0-1.5,0-2.2,0c-0.5-0.9-0.9-1.9-1.4-2.8
		c-1.9-0.1-3.8,0-5.7,0c-0.5,0.9-1,1.9-1.4,2.8c-0.7,0-1.5,0-2.2,0C105,37.5,107.2,33.3,109.5,29.2 M107.4,37.1c1.3,0,2.6,0,3.9,0
		c-0.6-1.3-1.2-2.5-1.9-3.8C108.7,34.6,108.1,35.8,107.4,37.1z"/>
	<path id="path9" class="st0" d="M117.1,29.2c3.2,2.9,6.4,5.8,9.6,8.8c0.1-2.7,0-5.3,0.1-8c0.7,0,1.4,0,2.1,0c0,4.1,0,8.2,0,12.3
		c-2.1-1.8-4.1-3.8-6.2-5.6c-1.2-1-2.3-2.1-3.4-3.2c0,2.7,0,5.4,0,8.1c-0.7,0-1.4,0-2,0C117.1,37.5,117,33.3,117.1,29.2z"/>
	<path id="path11" class="st0" d="M49.3,41.6c2.2-4.1,4.4-8.3,6.6-12.4c2.1,4.1,4.2,8.3,6.4,12.4c-0.8,0-1.5,0-2.3,0
		c-0.5-0.9-0.9-1.8-1.4-2.8c-1.9,0-3.8,0-5.7,0c-0.5,0.9-0.9,1.9-1.5,2.8C50.7,41.6,50,41.6,49.3,41.6 M53.9,37.1c1.3,0,2.6,0,3.9,0
		c-0.7-1.2-1.2-2.5-1.9-3.8C55.2,34.6,54.5,35.8,53.9,37.1z"/>
	<path id="path13" class="st0" d="M80.8,30.3c1.1-0.6,2.4-0.6,3.5-0.4c1,0.2,1.8,1,2.4,1.8c-0.5,0.3-1.1,0.6-1.6,0.9
		c-0.7-1.2-2.5-1.6-3.5-0.6c-0.6,0.4-0.5,1.4,0.1,1.8c1.4,0.8,3.1,1,4.4,2.1s1.2,3.4,0,4.6c-1.3,1.3-3.3,1.6-5,1.1
		c-1.4-0.4-2.5-1.7-2.7-3.2c0.7-0.2,1.4-0.3,2.1-0.4c0.1,0.7,0.3,1.5,1,1.8c1,0.6,2.5,0.4,3.2-0.6c0.5-0.7,0.3-1.8-0.3-2.3
		c-1.4-1-3.2-1-4.5-2.3C79.2,34,79,33,79.2,32.2C79.4,31.3,80.1,30.7,80.8,30.3z"/>
	<path id="path15" class="st0" d="M63,30c0.8-0.1,1.6-0.1,2.3-0.1c0.8,1.3,1.7,2.6,2.5,3.9c0.9-1.3,1.7-2.6,2.6-3.9
		c0.8,0,1.6,0,2.4,0c-1.3,1.8-2.6,3.7-3.8,5.5c1.3,2.1,2.7,4,4,6.1c-0.8,0-1.5,0-2.3,0c-1-1.5-1.9-2.9-2.9-4.4c-1,1.5-2,2.9-3,4.4
		c-0.8,0-1.6,0-2.3,0c1.3-2.1,2.8-4.1,4.2-6.1C65.4,33.7,64.2,31.9,63,30z"/>
	<path id="path17" class="st0" d="M74.7,30c0.7,0,1.4,0,2.1,0c0,3.9,0,7.8,0,11.7c-0.7,0-1.4,0-2.1,0C74.7,37.7,74.7,33.9,74.7,30z"
		/>
	<path id="path19" class="st0" d="M94.9,30c1.8,0.1,3.7-0.3,5.3,0.7c1.6,0.9,2,3.5,0.5,4.7c0.9,0.4,1.8,1.1,2.1,2.2
		c0.4,1.3-0.3,2.7-1.4,3.4c-2,1.1-4.3,0.6-6.4,0.8C94.8,37.7,94.9,33.9,94.9,30 M96.9,31.6c0,1.1,0,2.2,0,3.3c0.8,0,1.6,0,2.3-0.5
		c0.7-0.6,0.6-1.9-0.1-2.5C98.4,31.6,97.6,31.7,96.9,31.6 M96.9,36.5c0,1.1,0,2.3,0,3.4c1-0.1,2.1,0.1,3.1-0.4
		c0.8-0.4,1-1.8,0.2-2.4C99.3,36.3,98,36.5,96.9,36.5z"/>
	<path id="path21" class="st0" d="M131.2,30c0.7,0,1.4,0,2.1,0c0,1.5,0,3.1,0,4.6c1.7-1.6,3.4-3.1,5.1-4.6c0.9,0,1.9,0,2.8,0
		c-2,1.7-4,3.5-6,5.3c2,2.2,4,4.3,6,6.4c-0.9,0-1.9,0.1-2.8,0c-1.6-1.7-3.2-3.4-4.8-5.1c-0.1,0.2-0.2,0.3-0.3,0.5c0,1.6,0,3.1,0,4.7
		c-0.7,0-1.4,0-2.1,0C131.2,37.7,131.2,33.9,131.2,30z"/>
	<path id="path23" class="st0" d="M28.1,41.6c4,0,8,0,12.1,0c2.4,4.2,4.9,8.3,7.2,12.5c-4,0-8,0-12.1,0C33,49.9,30.5,45.8,28.1,41.6
		z"/>
</g>
</svg>
