<svg width="44" height="44" viewBox="0 0 44 44" fill="none" xmlns="http://www.w3.org/2000/svg">
<g filter="url(#filter0_d_41_1439)">
<rect x="6.65625" y="5.99084" width="30" height="30" rx="15" fill="white"/>
<g clip-path="url(#clip0_41_1439)">
<path fill-rule="evenodd" clip-rule="evenodd" d="M15.6655 20.9919C15.6655 21.1905 15.7444 21.381 15.8848 21.5214C16.0253 21.6618 16.2157 21.7407 16.4143 21.7407H25.0895L21.8743 24.9544C21.8047 25.024 21.7495 25.1067 21.7118 25.1976C21.6741 25.2886 21.6547 25.3861 21.6547 25.4845C21.6547 25.583 21.6741 25.6805 21.7118 25.7714C21.7495 25.8624 21.8047 25.9451 21.8743 26.0147C21.9439 26.0843 22.0266 26.1395 22.1175 26.1772C22.2085 26.2149 22.306 26.2343 22.4044 26.2343C22.5029 26.2343 22.6004 26.2149 22.6913 26.1772C22.7823 26.1395 22.8649 26.0843 22.9346 26.0147L27.4271 21.5221C27.4969 21.4525 27.5522 21.3699 27.5899 21.2789C27.6277 21.188 27.6471 21.0904 27.6471 20.9919C27.6471 20.8935 27.6277 20.7959 27.5899 20.705C27.5522 20.614 27.4969 20.5314 27.4271 20.4618L22.9346 15.9692C22.8649 15.8996 22.7823 15.8444 22.6913 15.8067C22.6004 15.769 22.5029 15.7496 22.4044 15.7496C22.306 15.7496 22.2085 15.769 22.1175 15.8067C22.0266 15.8444 21.9439 15.8996 21.8743 15.9692C21.7337 16.1098 21.6547 16.3005 21.6547 16.4993C21.6547 16.5978 21.6741 16.6953 21.7118 16.7862C21.7495 16.8772 21.8047 16.9599 21.8743 17.0295L25.0895 20.2432H16.4143C16.2157 20.2432 16.0253 20.3221 15.8848 20.4625C15.7444 20.6029 15.6655 20.7934 15.6655 20.9919Z" fill="#231F20"/>
</g>
</g>
<defs>
<filter id="filter0_d_41_1439" x="-0.000193596" y="4.54783e-05" width="43.3129" height="43.3129" filterUnits="userSpaceOnUse" color-interpolation-filters="sRGB">
<feFlood flood-opacity="0" result="BackgroundImageFix"/>
<feColorMatrix in="SourceAlpha" type="matrix" values="0 0 0 0 0 0 0 0 0 0 0 0 0 0 0 0 0 0 127 0" result="hardAlpha"/>
<feOffset dy="0.665644"/>
<feGaussianBlur stdDeviation="3.32822"/>
<feComposite in2="hardAlpha" operator="out"/>
<feColorMatrix type="matrix" values="0 0 0 0 0 0 0 0 0 0 0 0 0 0 0 0 0 0 0.1 0"/>
<feBlend mode="normal" in2="BackgroundImageFix" result="effect1_dropShadow_41_1439"/>
<feBlend mode="normal" in="SourceGraphic" in2="effect1_dropShadow_41_1439" result="shape"/>
</filter>
<clipPath id="clip0_41_1439">
<rect width="11.9816" height="11.9816" fill="white" transform="matrix(0 1 1 0 15.6655 15.0001)"/>
</clipPath>
</defs>
</svg>
