<svg width="38" height="13" viewBox="0 0 38 13" fill="none" xmlns="http://www.w3.org/2000/svg">
<mask id="path-1-inside-1_41_1437" fill="white">
<path d="M0.000212045 11.8762V0.242343H4.41139C4.97154 0.242343 5.4886 0.363529 5.96257 0.605901C6.43655 0.842888 6.81626 1.17682 7.10173 1.60771C7.38719 2.03859 7.52992 2.5368 7.52992 3.10234C7.52992 3.71635 7.35218 4.28188 6.9967 4.79894C6.64122 5.31062 6.17263 5.67149 5.59094 5.88154L5.55862 5.49375C6.32883 5.7415 6.94553 6.14007 7.40873 6.68945C7.87732 7.23344 8.11161 7.91747 8.11161 8.74154C8.11161 9.40402 7.9608 9.96956 7.65918 10.4381C7.35756 10.9013 6.94822 11.2568 6.43116 11.5046C5.91949 11.7523 5.34856 11.8762 4.7184 11.8762H0.000212045ZM0.678855 11.1976H4.39523C4.95538 11.1976 5.45898 11.1033 5.90602 10.9148C6.35845 10.7263 6.71393 10.4543 6.97246 10.0988C7.23638 9.74334 7.36833 9.31246 7.36833 8.80617C7.36833 8.29988 7.24715 7.84207 7.00478 7.43273C6.76779 7.018 6.44732 6.68945 6.04337 6.44708C5.6448 6.19932 5.20314 6.07544 4.7184 6.07544H0.678855V11.1976ZM0.678855 5.41296H4.41139C4.84766 5.41296 5.24623 5.30793 5.6071 5.09787C5.97335 4.88781 6.26419 4.60505 6.47964 4.24957C6.69508 3.89409 6.8028 3.49552 6.8028 3.05386C6.8028 2.40754 6.5712 1.88778 6.108 1.4946C5.65018 1.10142 5.08465 0.904828 4.41139 0.904828H0.678855V5.41296ZM9.86616 11.8762V-2.9385e-05H10.5448V11.8762H9.86616ZM15.5078 12.1186C14.8291 12.1186 14.2663 12.0001 13.8192 11.7631C13.3722 11.5261 13.0383 11.2137 12.8174 10.8259C12.5966 10.4381 12.4862 10.018 12.4862 9.5656C12.4862 9.05393 12.5966 8.63112 12.8174 8.29719C13.0436 7.95787 13.3372 7.69126 13.698 7.49736C14.0589 7.30346 14.4467 7.16342 14.8614 7.07725C15.3677 6.97491 15.909 6.88604 16.4853 6.81064C17.067 6.72985 17.6029 6.66252 18.0931 6.60866C18.5832 6.5548 18.9494 6.51171 19.1918 6.47939L18.9494 6.64098C18.9764 5.61224 18.7879 4.84742 18.3839 4.34652C17.9853 3.84023 17.2798 3.58708 16.2672 3.58708C15.5347 3.58708 14.9449 3.75136 14.4979 4.07991C14.0562 4.40307 13.7465 4.90128 13.5688 5.57454L12.8255 5.38064C13.0194 4.57273 13.4153 3.95872 14.0131 3.53861C14.6164 3.1185 15.3785 2.90844 16.2995 2.90844C17.1074 2.90844 17.7807 3.07271 18.3193 3.40126C18.8579 3.72981 19.2241 4.17416 19.418 4.73431C19.4934 4.94975 19.5473 5.21098 19.5796 5.51798C19.6119 5.82499 19.6281 6.12391 19.6281 6.41476V11.8762H18.9979V9.48481L19.3211 9.50097C19.0895 10.3304 18.629 10.9741 17.9396 11.4319C17.2501 11.8897 16.4395 12.1186 15.5078 12.1186ZM15.4754 11.44C16.1056 11.44 16.6604 11.3268 17.1397 11.1006C17.6245 10.8744 18.015 10.5486 18.3112 10.1231C18.6128 9.69218 18.804 9.17781 18.8848 8.57996C18.9279 8.27834 18.9494 7.95517 18.9494 7.61047C18.9494 7.26576 18.9494 7.018 18.9494 6.86719L19.3049 7.14188C19.0195 7.16881 18.6236 7.20651 18.1173 7.25499C17.6164 7.29807 17.0859 7.35732 16.5257 7.43273C15.9656 7.50274 15.4593 7.59431 15.0069 7.70741C14.7429 7.77205 14.4709 7.87438 14.1909 8.01442C13.9108 8.15446 13.6738 8.35105 13.4799 8.60419C13.2914 8.85734 13.1971 9.18319 13.1971 9.58176C13.1971 9.86184 13.2672 10.1446 13.4072 10.4301C13.5472 10.7155 13.7815 10.9552 14.1101 11.1491C14.444 11.343 14.8991 11.44 15.4754 11.44ZM25.2348 12.1186C24.3677 12.1186 23.6406 11.9247 23.0535 11.5369C22.4664 11.1491 22.0221 10.6105 21.7204 9.92108C21.4188 9.22628 21.2599 8.42376 21.2438 7.51352C21.2599 6.58173 21.4188 5.77113 21.7204 5.08171C22.0274 4.3923 22.4745 3.85908 23.0616 3.48205C23.6487 3.09964 24.3731 2.90844 25.2348 2.90844C26.0428 2.90844 26.7618 3.10234 27.392 3.49013C28.0275 3.87254 28.4773 4.40038 28.7412 5.07363L28.0948 5.34832C27.8525 4.78817 27.4781 4.3546 26.9718 4.04759C26.4709 3.74059 25.8919 3.58708 25.2348 3.58708C24.5023 3.58708 23.8964 3.75405 23.4171 4.08799C22.9377 4.41653 22.5795 4.87704 22.3425 5.46951C22.1055 6.05659 21.9817 6.73792 21.9709 7.51352C21.9871 8.69845 22.2671 9.64909 22.8111 10.3654C23.3551 11.0818 24.163 11.44 25.2348 11.44C25.8758 11.44 26.444 11.2918 26.9395 10.9956C27.435 10.6994 27.8148 10.2658 28.0787 9.69487L28.7412 9.98572C28.3803 10.6859 27.9036 11.2164 27.3112 11.5773C26.7187 11.9382 26.0266 12.1186 25.2348 12.1186ZM30.4388 11.8762V0.242343H31.1174V7.35194L35.4801 3.15081H36.4981L31.9415 7.51352L37.1929 11.8762H36.0295L31.1174 7.6751V11.8762H30.4388Z"/>
</mask>
<path d="M0.000212045 11.8762V0.242343H4.41139C4.97154 0.242343 5.4886 0.363529 5.96257 0.605901C6.43655 0.842888 6.81626 1.17682 7.10173 1.60771C7.38719 2.03859 7.52992 2.5368 7.52992 3.10234C7.52992 3.71635 7.35218 4.28188 6.9967 4.79894C6.64122 5.31062 6.17263 5.67149 5.59094 5.88154L5.55862 5.49375C6.32883 5.7415 6.94553 6.14007 7.40873 6.68945C7.87732 7.23344 8.11161 7.91747 8.11161 8.74154C8.11161 9.40402 7.9608 9.96956 7.65918 10.4381C7.35756 10.9013 6.94822 11.2568 6.43116 11.5046C5.91949 11.7523 5.34856 11.8762 4.7184 11.8762H0.000212045ZM0.678855 11.1976H4.39523C4.95538 11.1976 5.45898 11.1033 5.90602 10.9148C6.35845 10.7263 6.71393 10.4543 6.97246 10.0988C7.23638 9.74334 7.36833 9.31246 7.36833 8.80617C7.36833 8.29988 7.24715 7.84207 7.00478 7.43273C6.76779 7.018 6.44732 6.68945 6.04337 6.44708C5.6448 6.19932 5.20314 6.07544 4.7184 6.07544H0.678855V11.1976ZM0.678855 5.41296H4.41139C4.84766 5.41296 5.24623 5.30793 5.6071 5.09787C5.97335 4.88781 6.26419 4.60505 6.47964 4.24957C6.69508 3.89409 6.8028 3.49552 6.8028 3.05386C6.8028 2.40754 6.5712 1.88778 6.108 1.4946C5.65018 1.10142 5.08465 0.904828 4.41139 0.904828H0.678855V5.41296ZM9.86616 11.8762V-2.9385e-05H10.5448V11.8762H9.86616ZM15.5078 12.1186C14.8291 12.1186 14.2663 12.0001 13.8192 11.7631C13.3722 11.5261 13.0383 11.2137 12.8174 10.8259C12.5966 10.4381 12.4862 10.018 12.4862 9.5656C12.4862 9.05393 12.5966 8.63112 12.8174 8.29719C13.0436 7.95787 13.3372 7.69126 13.698 7.49736C14.0589 7.30346 14.4467 7.16342 14.8614 7.07725C15.3677 6.97491 15.909 6.88604 16.4853 6.81064C17.067 6.72985 17.6029 6.66252 18.0931 6.60866C18.5832 6.5548 18.9494 6.51171 19.1918 6.47939L18.9494 6.64098C18.9764 5.61224 18.7879 4.84742 18.3839 4.34652C17.9853 3.84023 17.2798 3.58708 16.2672 3.58708C15.5347 3.58708 14.9449 3.75136 14.4979 4.07991C14.0562 4.40307 13.7465 4.90128 13.5688 5.57454L12.8255 5.38064C13.0194 4.57273 13.4153 3.95872 14.0131 3.53861C14.6164 3.1185 15.3785 2.90844 16.2995 2.90844C17.1074 2.90844 17.7807 3.07271 18.3193 3.40126C18.8579 3.72981 19.2241 4.17416 19.418 4.73431C19.4934 4.94975 19.5473 5.21098 19.5796 5.51798C19.6119 5.82499 19.6281 6.12391 19.6281 6.41476V11.8762H18.9979V9.48481L19.3211 9.50097C19.0895 10.3304 18.629 10.9741 17.9396 11.4319C17.2501 11.8897 16.4395 12.1186 15.5078 12.1186ZM15.4754 11.44C16.1056 11.44 16.6604 11.3268 17.1397 11.1006C17.6245 10.8744 18.015 10.5486 18.3112 10.1231C18.6128 9.69218 18.804 9.17781 18.8848 8.57996C18.9279 8.27834 18.9494 7.95517 18.9494 7.61047C18.9494 7.26576 18.9494 7.018 18.9494 6.86719L19.3049 7.14188C19.0195 7.16881 18.6236 7.20651 18.1173 7.25499C17.6164 7.29807 17.0859 7.35732 16.5257 7.43273C15.9656 7.50274 15.4593 7.59431 15.0069 7.70741C14.7429 7.77205 14.4709 7.87438 14.1909 8.01442C13.9108 8.15446 13.6738 8.35105 13.4799 8.60419C13.2914 8.85734 13.1971 9.18319 13.1971 9.58176C13.1971 9.86184 13.2672 10.1446 13.4072 10.4301C13.5472 10.7155 13.7815 10.9552 14.1101 11.1491C14.444 11.343 14.8991 11.44 15.4754 11.44ZM25.2348 12.1186C24.3677 12.1186 23.6406 11.9247 23.0535 11.5369C22.4664 11.1491 22.0221 10.6105 21.7204 9.92108C21.4188 9.22628 21.2599 8.42376 21.2438 7.51352C21.2599 6.58173 21.4188 5.77113 21.7204 5.08171C22.0274 4.3923 22.4745 3.85908 23.0616 3.48205C23.6487 3.09964 24.3731 2.90844 25.2348 2.90844C26.0428 2.90844 26.7618 3.10234 27.392 3.49013C28.0275 3.87254 28.4773 4.40038 28.7412 5.07363L28.0948 5.34832C27.8525 4.78817 27.4781 4.3546 26.9718 4.04759C26.4709 3.74059 25.8919 3.58708 25.2348 3.58708C24.5023 3.58708 23.8964 3.75405 23.4171 4.08799C22.9377 4.41653 22.5795 4.87704 22.3425 5.46951C22.1055 6.05659 21.9817 6.73792 21.9709 7.51352C21.9871 8.69845 22.2671 9.64909 22.8111 10.3654C23.3551 11.0818 24.163 11.44 25.2348 11.44C25.8758 11.44 26.444 11.2918 26.9395 10.9956C27.435 10.6994 27.8148 10.2658 28.0787 9.69487L28.7412 9.98572C28.3803 10.6859 27.9036 11.2164 27.3112 11.5773C26.7187 11.9382 26.0266 12.1186 25.2348 12.1186ZM30.4388 11.8762V0.242343H31.1174V7.35194L35.4801 3.15081H36.4981L31.9415 7.51352L37.1929 11.8762H36.0295L31.1174 7.6751V11.8762H30.4388Z" fill="#414042"/>
<path d="M0.000212045 11.8762H-0.999788V12.8762H0.000212045V11.8762ZM0.000212045 0.242343V-0.757657H-0.999788V0.242343H0.000212045ZM5.96257 0.605901L5.50727 1.49628L5.51536 1.50033L5.96257 0.605901ZM7.10173 1.60771L6.26808 2.16L6.26808 2.16L7.10173 1.60771ZM6.9967 4.79894L7.81796 5.36951L7.82074 5.36547L6.9967 4.79894ZM5.59094 5.88154L4.59439 5.96459L4.7028 7.26546L5.93058 6.8221L5.59094 5.88154ZM5.55862 5.49375L5.86485 4.54179L4.43757 4.08266L4.56207 5.57679L5.55862 5.49375ZM7.40873 6.68945L6.64416 7.33408L6.65106 7.34209L7.40873 6.68945ZM7.65918 10.4381L8.49719 10.9838L8.50005 10.9794L7.65918 10.4381ZM6.43116 11.5046L5.99904 10.6028L5.99535 10.6045L6.43116 11.5046ZM0.678855 11.1976H-0.321145V12.1976H0.678855V11.1976ZM5.90602 10.9148L5.5214 9.99172L5.51747 9.99338L5.90602 10.9148ZM6.97246 10.0988L6.16951 9.50269L6.16372 9.51065L6.97246 10.0988ZM7.00478 7.43273L6.13653 7.92886L6.14037 7.93557L6.1443 7.94222L7.00478 7.43273ZM6.04337 6.44708L5.51543 7.29636L5.52212 7.30052L5.52887 7.30457L6.04337 6.44708ZM0.678855 6.07544V5.07544H-0.321145V6.07544H0.678855ZM0.678855 5.41296H-0.321145V6.41296H0.678855V5.41296ZM5.6071 5.09787L5.10957 4.2304L5.10403 4.23362L5.6071 5.09787ZM6.47964 4.24957L5.62444 3.73126L5.62444 3.73127L6.47964 4.24957ZM6.108 1.4946L5.45646 2.25324L5.46086 2.25698L6.108 1.4946ZM0.678855 0.904828V-0.0951723H-0.321145V0.904828H0.678855ZM0.000212045 11.8762H1.00021V0.242343H0.000212045H-0.999788V11.8762H0.000212045ZM0.000212045 0.242343V1.24234H4.41139V0.242343V-0.757657H0.000212045V0.242343ZM4.41139 0.242343V1.24234C4.82175 1.24234 5.18165 1.32972 5.50729 1.49624L5.96257 0.605901L6.41786 -0.284443C5.79556 -0.602667 5.12133 -0.757657 4.41139 -0.757657V0.242343ZM5.96257 0.605901L5.51536 1.50033C5.83694 1.66112 6.08179 1.87882 6.26808 2.16L7.10173 1.60771L7.93538 1.05541C7.55074 0.474828 7.03615 0.0246576 6.40979 -0.288526L5.96257 0.605901ZM7.10173 1.60771L6.26808 2.16C6.43486 2.41175 6.52992 2.71396 6.52992 3.10234H7.52992H8.52992C8.52992 2.35964 8.33951 1.66543 7.93538 1.05541L7.10173 1.60771ZM7.52992 3.10234H6.52992C6.52992 3.50938 6.41621 3.87816 6.17265 4.23242L6.9967 4.79894L7.82074 5.36547C8.28815 4.68561 8.52992 3.92332 8.52992 3.10234H7.52992ZM6.9967 4.79894L6.17544 4.22839C5.93732 4.57114 5.63643 4.80191 5.25129 4.94099L5.59094 5.88154L5.93058 6.8221C6.70883 6.54106 7.34512 6.0501 7.81795 5.3695L6.9967 4.79894ZM5.59094 5.88154L6.58748 5.7985L6.55517 5.4107L5.55862 5.49375L4.56207 5.57679L4.59439 5.96459L5.59094 5.88154ZM5.55862 5.49375L5.2524 6.44571C5.86715 6.64346 6.31667 6.94558 6.64421 7.33405L7.40873 6.68945L8.17325 6.04485C7.57439 5.33457 6.79051 4.83955 5.86485 4.54179L5.55862 5.49375ZM7.40873 6.68945L6.65106 7.34209C6.94042 7.67801 7.11161 8.11945 7.11161 8.74154H8.11161H9.11161C9.11161 7.71549 8.81421 6.78887 8.1664 6.03681L7.40873 6.68945ZM8.11161 8.74154H7.11161C7.11161 9.24883 6.9978 9.61807 6.81832 9.8969L7.65918 10.4381L8.50005 10.9794C8.92381 10.321 9.11161 9.55922 9.11161 8.74154H8.11161ZM7.65918 10.4381L6.82118 9.89247C6.62348 10.1961 6.35718 10.4312 5.99904 10.6028L6.43116 11.5046L6.86328 12.4064C7.53927 12.0825 8.09164 11.6066 8.49718 10.9838L7.65918 10.4381ZM6.43116 11.5046L5.99535 10.6045C5.63369 10.7797 5.21417 10.8762 4.7184 10.8762V11.8762V12.8762C5.48296 12.8762 6.20528 12.725 6.86697 12.4046L6.43116 11.5046ZM4.7184 11.8762V10.8762H0.000212045V11.8762V12.8762H4.7184V11.8762ZM0.678855 11.1976V12.1976H4.39523V11.1976V10.1976H0.678855V11.1976ZM4.39523 11.1976V12.1976C5.06841 12.1976 5.70703 12.084 6.29457 11.8362L5.90602 10.9148L5.51747 9.99338C5.21093 10.1226 4.84236 10.1976 4.39523 10.1976V11.1976ZM5.90602 10.9148L6.29064 11.8379C6.89245 11.5871 7.40261 11.2076 7.7812 10.687L6.97246 10.0988L6.16372 9.51065C6.02525 9.70105 5.82445 9.86546 5.52141 9.99173L5.90602 10.9148ZM6.97246 10.0988L7.77537 10.6949C8.18518 10.1429 8.36833 9.49504 8.36833 8.80617H7.36833H6.36833C6.36833 9.12988 6.28757 9.34375 6.16955 9.50272L6.97246 10.0988ZM7.36833 8.80617H8.36833C8.36833 8.13258 8.20487 7.49681 7.86525 6.92323L7.00478 7.43273L6.1443 7.94222C6.28943 8.18732 6.36833 8.46718 6.36833 8.80617H7.36833ZM7.00478 7.43273L7.87302 6.93659C7.55226 6.37527 7.11087 5.92139 6.55786 5.58958L6.04337 6.44708L5.52887 7.30457C5.78376 7.45751 5.98331 7.66073 6.13653 7.92886L7.00478 7.43273ZM6.04337 6.44708L6.5713 5.59779C6.00886 5.24817 5.38327 5.07544 4.7184 5.07544V6.07544V7.07544C5.02301 7.07544 5.28073 7.15047 5.51543 7.29636L6.04337 6.44708ZM4.7184 6.07544V5.07544H0.678855V6.07544V7.07544H4.7184V6.07544ZM0.678855 6.07544H-0.321145V11.1976H0.678855H1.67885V6.07544H0.678855ZM0.678855 5.41296V6.41296H4.41139V5.41296V4.41296H0.678855V5.41296ZM4.41139 5.41296V6.41296C5.01614 6.41296 5.58957 6.26515 6.11016 5.96212L5.6071 5.09787L5.10403 4.23362C4.90289 4.3507 4.67918 4.41296 4.41139 4.41296V5.41296ZM5.6071 5.09787L6.10461 5.96533C6.6153 5.67243 7.03021 5.2705 7.33483 4.76787L6.47964 4.24957L5.62444 3.73127C5.49818 3.93959 5.33139 4.1032 5.10958 4.23041L5.6071 5.09787ZM6.47964 4.24957L7.33483 4.76787C7.65098 4.24623 7.8028 3.66637 7.8028 3.05386H6.8028H5.8028C5.8028 3.32467 5.73917 3.54195 5.62444 3.73126L6.47964 4.24957ZM6.8028 3.05386H7.8028C7.8028 2.13527 7.45794 1.3288 6.75513 0.732224L6.108 1.4946L5.46086 2.25698C5.68445 2.44677 5.8028 2.6798 5.8028 3.05386H6.8028ZM6.108 1.4946L6.75952 0.735974C6.09912 0.168807 5.29412 -0.0951723 4.41139 -0.0951723V0.904828V1.90483C4.87517 1.90483 5.20124 2.03403 5.45647 2.25323L6.108 1.4946ZM4.41139 0.904828V-0.0951723H0.678855V0.904828V1.90483H4.41139V0.904828ZM0.678855 0.904828H-0.321145V5.41296H0.678855H1.67885V0.904828H0.678855ZM9.86616 11.8762H8.86616V12.8762H9.86616V11.8762ZM9.86616 -2.9385e-05V-1.00003H8.86616V-2.9385e-05H9.86616ZM10.5448 -2.9385e-05H11.5448V-1.00003H10.5448V-2.9385e-05ZM10.5448 11.8762V12.8762H11.5448V11.8762H10.5448ZM9.86616 11.8762H10.8662V-2.9385e-05H9.86616H8.86616V11.8762H9.86616ZM9.86616 -2.9385e-05V0.999971H10.5448V-2.9385e-05V-1.00003H9.86616V-2.9385e-05ZM10.5448 -2.9385e-05H9.5448V11.8762H10.5448H11.5448V-2.9385e-05H10.5448ZM10.5448 11.8762V10.8762H9.86616V11.8762V12.8762H10.5448V11.8762ZM12.8174 10.8259L13.6864 10.3311L13.6864 10.3311L12.8174 10.8259ZM12.8174 8.29719L11.9854 7.74248L11.9833 7.7456L12.8174 8.29719ZM13.698 7.49736L13.2247 6.61646L13.2247 6.61647L13.698 7.49736ZM14.8614 7.07725L14.6633 6.09705L14.658 6.09816L14.8614 7.07725ZM16.4853 6.81064L16.6151 7.80222L16.6229 7.80113L16.4853 6.81064ZM18.0931 6.60866L18.2023 7.60268L18.2023 7.60268L18.0931 6.60866ZM19.1918 6.47939L19.7465 7.31144L19.0597 5.48817L19.1918 6.47939ZM18.9494 6.64098L17.9498 6.61481L17.8993 8.54292L19.5041 7.47303L18.9494 6.64098ZM18.3839 4.34652L17.5981 4.96512L17.6055 4.97427L18.3839 4.34652ZM14.4979 4.07991L15.0884 4.88694L15.0901 4.88569L14.4979 4.07991ZM13.5688 5.57454L13.3164 6.54215L14.2811 6.79384L14.5357 5.82979L13.5688 5.57454ZM12.8255 5.38064L11.8531 5.14727L11.6243 6.10074L12.5731 6.34826L12.8255 5.38064ZM14.0131 3.53861L13.4416 2.71799L13.4382 2.72042L14.0131 3.53861ZM19.418 4.73431L18.473 5.06142L18.4742 5.06466L19.418 4.73431ZM19.5796 5.51798L20.5741 5.4133L20.5741 5.4133L19.5796 5.51798ZM19.6281 11.8762V12.8762H20.6281V11.8762H19.6281ZM18.9979 11.8762H17.9979V12.8762H18.9979V11.8762ZM18.9979 9.48481L19.0479 8.48606L17.9979 8.43356V9.48481H18.9979ZM19.3211 9.50097L20.2842 9.7699L20.6208 8.56471L19.371 8.50222L19.3211 9.50097ZM17.9396 11.4319L18.4928 12.2649L18.4928 12.2649L17.9396 11.4319ZM17.1397 11.1006L16.7168 10.1944L16.713 10.1963L17.1397 11.1006ZM18.3112 10.1231L17.492 9.5496L17.4905 9.55169L18.3112 10.1231ZM18.8848 8.57996L17.8948 8.43853L17.8938 8.44604L18.8848 8.57996ZM18.9494 6.86719L19.5609 6.07591L17.9494 4.8307V6.86719H18.9494ZM19.3049 7.14188L19.3988 8.13746L21.9209 7.89953L19.9164 6.35059L19.3049 7.14188ZM18.1173 7.25499L18.203 8.25135L18.2126 8.25043L18.1173 7.25499ZM16.5257 7.43273L16.6498 8.42505L16.6591 8.42379L16.5257 7.43273ZM15.0069 7.70741L15.2447 8.67872L15.2494 8.67756L15.0069 7.70741ZM14.1909 8.01442L13.7437 7.11999L13.7437 7.11999L14.1909 8.01442ZM13.4799 8.60419L12.686 7.99606L12.6779 8.00693L13.4799 8.60419ZM13.4072 10.4301L12.5094 10.8705L12.5094 10.8705L13.4072 10.4301ZM14.1101 11.1491L13.6018 12.0103L13.6079 12.0139L14.1101 11.1491ZM15.5078 12.1186V11.1186C14.939 11.1186 14.5496 11.0185 14.2876 10.8796L13.8192 11.7631L13.3509 12.6466C13.9829 12.9817 14.7192 13.1186 15.5078 13.1186V12.1186ZM13.8192 11.7631L14.2876 10.8796C13.9852 10.7193 13.8012 10.5326 13.6864 10.3311L12.8174 10.8259L11.9484 11.3208C12.2753 11.8948 12.7591 12.333 13.3509 12.6466L13.8192 11.7631ZM12.8174 10.8259L13.6864 10.3311C13.5527 10.0963 13.4862 9.84703 13.4862 9.5656H12.4862H11.4862C11.4862 10.189 11.6405 10.78 11.9484 11.3208L12.8174 10.8259ZM12.4862 9.5656H13.4862C13.4862 9.19589 13.5654 8.97909 13.6515 8.84878L12.8174 8.29719L11.9833 7.7456C11.6278 8.28315 11.4862 8.91197 11.4862 9.5656H12.4862ZM12.8174 8.29719L13.6495 8.85189C13.7842 8.64972 13.9543 8.49486 14.1714 8.37825L13.698 7.49736L13.2247 6.61647C12.72 6.88765 12.303 7.26601 11.9854 7.74249L12.8174 8.29719ZM13.698 7.49736L14.1714 8.37825C14.4446 8.23143 14.7411 8.1236 15.0649 8.05633L14.8614 7.07725L14.658 6.09816C14.1523 6.20324 13.6732 6.37549 13.2247 6.61646L13.698 7.49736ZM14.8614 7.07725L15.0596 8.05742C15.5406 7.96019 16.0589 7.87496 16.6151 7.80218L16.4853 6.81064L16.3556 5.81909C15.7591 5.89713 15.1948 5.98963 14.6633 6.09707L14.8614 7.07725ZM16.4853 6.81064L16.6229 7.80113C17.1969 7.72141 17.7232 7.65532 18.2023 7.60268L18.0931 6.60866L17.9838 5.61464C17.4827 5.66972 16.9372 5.73828 16.3478 5.82014L16.4853 6.81064ZM18.0931 6.60866L18.2023 7.60268C18.6941 7.54864 19.0697 7.50453 19.324 7.47062L19.1918 6.47939L19.0597 5.48817C18.8292 5.51889 18.4723 5.56096 17.9838 5.61464L18.0931 6.60866ZM19.1918 6.47939L18.6371 5.64734L18.3947 5.80893L18.9494 6.64098L19.5041 7.47303L19.7465 7.31144L19.1918 6.47939ZM18.9494 6.64098L19.9491 6.66714C19.9787 5.53487 19.782 4.48714 19.1623 3.71876L18.3839 4.34652L17.6055 4.97427C17.7937 5.2077 17.974 5.68961 17.9498 6.61481L18.9494 6.64098ZM18.3839 4.34652L19.1696 3.72796C18.494 2.86974 17.4097 2.58708 16.2672 2.58708V3.58708V4.58708C17.1498 4.58708 17.4767 4.81072 17.5982 4.96508L18.3839 4.34652ZM16.2672 3.58708V2.58708C15.3895 2.58708 14.572 2.78441 13.9057 3.27412L14.4979 4.07991L15.0901 4.88569C15.3178 4.7183 15.6799 4.58708 16.2672 4.58708V3.58708ZM14.4979 4.07991L13.9074 3.27288C13.2352 3.76471 12.8219 4.48591 12.6019 5.31928L13.5688 5.57454L14.5357 5.82979C14.6711 5.31665 14.8772 5.04143 15.0884 4.88694L14.4979 4.07991ZM13.5688 5.57454L13.8212 4.60692L13.0779 4.41302L12.8255 5.38064L12.5731 6.34826L13.3164 6.54215L13.5688 5.57454ZM12.8255 5.38064L13.7979 5.61401C13.9433 5.00827 14.2169 4.61766 14.5881 4.3568L14.0131 3.53861L13.4382 2.72042C12.6137 3.29979 12.0955 4.13719 11.8531 5.14727L12.8255 5.38064ZM14.0131 3.53861L14.5846 4.35921C14.982 4.08243 15.5309 3.90844 16.2995 3.90844V2.90844V1.90844C15.2261 1.90844 14.2507 2.15456 13.4416 2.718L14.0131 3.53861ZM16.2995 2.90844V3.90844C16.9745 3.90844 17.4551 4.04548 17.7985 4.25497L18.3193 3.40126L18.84 2.54756C18.1063 2.09995 17.2404 1.90844 16.2995 1.90844V2.90844ZM18.3193 3.40126L17.7985 4.25497C18.1526 4.47096 18.3602 4.7355 18.473 5.06142L19.418 4.73431L20.363 4.4072C20.088 3.61283 19.5632 2.98866 18.84 2.54756L18.3193 3.40126ZM19.418 4.73431L18.4742 5.06466C18.5169 5.18666 18.5583 5.36757 18.5851 5.62267L19.5796 5.51798L20.5741 5.4133C20.5363 5.05439 20.47 4.71285 20.3619 4.40396L19.418 4.73431ZM19.5796 5.51798L18.5851 5.62267C18.614 5.897 18.6281 6.16094 18.6281 6.41476H19.6281H20.6281C20.6281 6.08689 20.6099 5.75297 20.5741 5.4133L19.5796 5.51798ZM19.6281 6.41476H18.6281V11.8762H19.6281H20.6281V6.41476H19.6281ZM19.6281 11.8762V10.8762H18.9979V11.8762V12.8762H19.6281V11.8762ZM18.9979 11.8762H19.9979V9.48481H18.9979H17.9979V11.8762H18.9979ZM18.9979 9.48481L18.948 10.4836L19.2711 10.4997L19.3211 9.50097L19.371 8.50222L19.0479 8.48606L18.9979 9.48481ZM19.3211 9.50097L18.3579 9.23204C18.188 9.84059 17.8672 10.2795 17.3864 10.5988L17.9396 11.4319L18.4928 12.2649C19.3908 11.6686 19.991 10.8203 20.2842 9.7699L19.3211 9.50097ZM17.9396 11.4319L17.3864 10.5988C16.881 10.9344 16.2684 11.1186 15.5078 11.1186V12.1186V13.1186C16.6107 13.1186 17.6193 12.845 18.4928 12.2649L17.9396 11.4319ZM15.4754 11.44V12.44C16.2256 12.44 16.9308 12.305 17.5665 12.005L17.1397 11.1006L16.713 10.1963C16.3899 10.3487 15.9856 10.44 15.4754 10.44V11.44ZM17.1397 11.1006L17.5626 12.0068C18.2019 11.7085 18.7316 11.2694 19.1319 10.6944L18.3112 10.1231L17.4905 9.55169C17.2983 9.82773 17.0471 10.0403 16.7168 10.1944L17.1397 11.1006ZM18.3112 10.1231L19.1304 10.6965C19.5362 10.1169 19.7768 9.44647 19.8758 8.71387L18.8848 8.57996L17.8938 8.44604C17.8312 8.90915 17.6895 9.26747 17.492 9.5496L18.3112 10.1231ZM18.8848 8.57996L19.8748 8.72138C19.9253 8.3673 19.9494 7.99646 19.9494 7.61047H18.9494H17.9494C17.9494 7.91389 17.9305 8.18938 17.8949 8.43853L18.8848 8.57996ZM18.9494 7.61047H19.9494C19.9494 7.60979 19.9494 7.60912 19.9494 7.60845C19.9494 7.60777 19.9494 7.6071 19.9494 7.60643C19.9494 7.60576 19.9494 7.60509 19.9494 7.60442C19.9494 7.60375 19.9494 7.60307 19.9494 7.6024C19.9494 7.60173 19.9494 7.60106 19.9494 7.60039C19.9494 7.59973 19.9494 7.59906 19.9494 7.59839C19.9494 7.59772 19.9494 7.59705 19.9494 7.59638C19.9494 7.59571 19.9494 7.59505 19.9494 7.59438C19.9494 7.59371 19.9494 7.59304 19.9494 7.59238C19.9494 7.59171 19.9494 7.59104 19.9494 7.59038C19.9494 7.58971 19.9494 7.58905 19.9494 7.58838C19.9494 7.58772 19.9494 7.58705 19.9494 7.58639C19.9494 7.58572 19.9494 7.58506 19.9494 7.5844C19.9494 7.58373 19.9494 7.58307 19.9494 7.58241C19.9494 7.58174 19.9494 7.58108 19.9494 7.58042C19.9494 7.57976 19.9494 7.57909 19.9494 7.57843C19.9494 7.57777 19.9494 7.57711 19.9494 7.57645C19.9494 7.57579 19.9494 7.57513 19.9494 7.57447C19.9494 7.57381 19.9494 7.57315 19.9494 7.57249C19.9494 7.57183 19.9494 7.57117 19.9494 7.57051C19.9494 7.56986 19.9494 7.5692 19.9494 7.56854C19.9494 7.56788 19.9494 7.56722 19.9494 7.56657C19.9494 7.56591 19.9494 7.56525 19.9494 7.5646C19.9494 7.56394 19.9494 7.56329 19.9494 7.56263C19.9494 7.56197 19.9494 7.56132 19.9494 7.56066C19.9494 7.56001 19.9494 7.55936 19.9494 7.5587C19.9494 7.55805 19.9494 7.55739 19.9494 7.55674C19.9494 7.55609 19.9494 7.55543 19.9494 7.55478C19.9494 7.55413 19.9494 7.55348 19.9494 7.55283C19.9494 7.55217 19.9494 7.55152 19.9494 7.55087C19.9494 7.55022 19.9494 7.54957 19.9494 7.54892C19.9494 7.54827 19.9494 7.54762 19.9494 7.54697C19.9494 7.54632 19.9494 7.54567 19.9494 7.54502C19.9494 7.54437 19.9494 7.54372 19.9494 7.54308C19.9494 7.54243 19.9494 7.54178 19.9494 7.54113C19.9494 7.54049 19.9494 7.53984 19.9494 7.53919C19.9494 7.53855 19.9494 7.5379 19.9494 7.53725C19.9494 7.53661 19.9494 7.53596 19.9494 7.53532C19.9494 7.53467 19.9494 7.53403 19.9494 7.53338C19.9494 7.53274 19.9494 7.53209 19.9494 7.53145C19.9494 7.53081 19.9494 7.53016 19.9494 7.52952C19.9494 7.52888 19.9494 7.52823 19.9494 7.52759C19.9494 7.52695 19.9494 7.52631 19.9494 7.52567C19.9494 7.52503 19.9494 7.52438 19.9494 7.52374C19.9494 7.5231 19.9494 7.52246 19.9494 7.52182C19.9494 7.52118 19.9494 7.52054 19.9494 7.5199C19.9494 7.51926 19.9494 7.51863 19.9494 7.51799C19.9494 7.51735 19.9494 7.51671 19.9494 7.51607C19.9494 7.51544 19.9494 7.5148 19.9494 7.51416C19.9494 7.51352 19.9494 7.51289 19.9494 7.51225C19.9494 7.51161 19.9494 7.51098 19.9494 7.51034C19.9494 7.50971 19.9494 7.50907 19.9494 7.50844C19.9494 7.5078 19.9494 7.50717 19.9494 7.50653C19.9494 7.5059 19.9494 7.50527 19.9494 7.50463C19.9494 7.504 19.9494 7.50337 19.9494 7.50273C19.9494 7.5021 19.9494 7.50147 19.9494 7.50084C19.9494 7.50021 19.9494 7.49957 19.9494 7.49894C19.9494 7.49831 19.9494 7.49768 19.9494 7.49705C19.9494 7.49642 19.9494 7.49579 19.9494 7.49516C19.9494 7.49453 19.9494 7.4939 19.9494 7.49327C19.9494 7.49264 19.9494 7.49202 19.9494 7.49139C19.9494 7.49076 19.9494 7.49013 19.9494 7.4895C19.9494 7.48888 19.9494 7.48825 19.9494 7.48762C19.9494 7.487 19.9494 7.48637 19.9494 7.48574C19.9494 7.48512 19.9494 7.48449 19.9494 7.48387C19.9494 7.48324 19.9494 7.48262 19.9494 7.48199C19.9494 7.48137 19.9494 7.48075 19.9494 7.48012C19.9494 7.4795 19.9494 7.47887 19.9494 7.47825C19.9494 7.47763 19.9494 7.47701 19.9494 7.47638C19.9494 7.47576 19.9494 7.47514 19.9494 7.47452C19.9494 7.4739 19.9494 7.47328 19.9494 7.47265C19.9494 7.47203 19.9494 7.47141 19.9494 7.47079C19.9494 7.47017 19.9494 7.46955 19.9494 7.46893C19.9494 7.46832 19.9494 7.4677 19.9494 7.46708C19.9494 7.46646 19.9494 7.46584 19.9494 7.46522C19.9494 7.46461 19.9494 7.46399 19.9494 7.46337C19.9494 7.46275 19.9494 7.46214 19.9494 7.46152C19.9494 7.46091 19.9494 7.46029 19.9494 7.45967C19.9494 7.45906 19.9494 7.45844 19.9494 7.45783C19.9494 7.45721 19.9494 7.4566 19.9494 7.45598C19.9494 7.45537 19.9494 7.45476 19.9494 7.45414C19.9494 7.45353 19.9494 7.45292 19.9494 7.4523C19.9494 7.45169 19.9494 7.45108 19.9494 7.45047C19.9494 7.44986 19.9494 7.44924 19.9494 7.44863C19.9494 7.44802 19.9494 7.44741 19.9494 7.4468C19.9494 7.44619 19.9494 7.44558 19.9494 7.44497C19.9494 7.44436 19.9494 7.44375 19.9494 7.44314C19.9494 7.44253 19.9494 7.44193 19.9494 7.44132C19.9494 7.44071 19.9494 7.4401 19.9494 7.43949C19.9494 7.43889 19.9494 7.43828 19.9494 7.43767C19.9494 7.43707 19.9494 7.43646 19.9494 7.43585C19.9494 7.43525 19.9494 7.43464 19.9494 7.43404C19.9494 7.43343 19.9494 7.43283 19.9494 7.43222C19.9494 7.43162 19.9494 7.43101 19.9494 7.43041C19.9494 7.42981 19.9494 7.4292 19.9494 7.4286C19.9494 7.428 19.9494 7.4274 19.9494 7.42679C19.9494 7.42619 19.9494 7.42559 19.9494 7.42499C19.9494 7.42439 19.9494 7.42378 19.9494 7.42318C19.9494 7.42258 19.9494 7.42198 19.9494 7.42138C19.9494 7.42078 19.9494 7.42018 19.9494 7.41958C19.9494 7.41898 19.9494 7.41839 19.9494 7.41779C19.9494 7.41719 19.9494 7.41659 19.9494 7.41599C19.9494 7.41539 19.9494 7.4148 19.9494 7.4142C19.9494 7.4136 19.9494 7.41301 19.9494 7.41241C19.9494 7.41181 19.9494 7.41122 19.9494 7.41062C19.9494 7.41003 19.9494 7.40943 19.9494 7.40884C19.9494 7.40824 19.9494 7.40765 19.9494 7.40705C19.9494 7.40646 19.9494 7.40586 19.9494 7.40527C19.9494 7.40468 19.9494 7.40409 19.9494 7.40349C19.9494 7.4029 19.9494 7.40231 19.9494 7.40172C19.9494 7.40112 19.9494 7.40053 19.9494 7.39994C19.9494 7.39935 19.9494 7.39876 19.9494 7.39817C19.9494 7.39758 19.9494 7.39699 19.9494 7.3964C19.9494 7.39581 19.9494 7.39522 19.9494 7.39463C19.9494 7.39404 19.9494 7.39345 19.9494 7.39287C19.9494 7.39228 19.9494 7.39169 19.9494 7.3911C19.9494 7.39051 19.9494 7.38993 19.9494 7.38934C19.9494 7.38875 19.9494 7.38817 19.9494 7.38758C19.9494 7.387 19.9494 7.38641 19.9494 7.38582C19.9494 7.38524 19.9494 7.38465 19.9494 7.38407C19.9494 7.38349 19.9494 7.3829 19.9494 7.38232C19.9494 7.38173 19.9494 7.38115 19.9494 7.38057C19.9494 7.37998 19.9494 7.3794 19.9494 7.37882C19.9494 7.37824 19.9494 7.37766 19.9494 7.37707C19.9494 7.37649 19.9494 7.37591 19.9494 7.37533C19.9494 7.37475 19.9494 7.37417 19.9494 7.37359C19.9494 7.37301 19.9494 7.37243 19.9494 7.37185C19.9494 7.37127 19.9494 7.37069 19.9494 7.37011C19.9494 7.36953 19.9494 7.36896 19.9494 7.36838C19.9494 7.3678 19.9494 7.36722 19.9494 7.36665C19.9494 7.36607 19.9494 7.36549 19.9494 7.36492C19.9494 7.36434 19.9494 7.36376 19.9494 7.36319C19.9494 7.36261 19.9494 7.36204 19.9494 7.36146C19.9494 7.36089 19.9494 7.36031 19.9494 7.35974C19.9494 7.35916 19.9494 7.35859 19.9494 7.35802C19.9494 7.35744 19.9494 7.35687 19.9494 7.3563C19.9494 7.35573 19.9494 7.35515 19.9494 7.35458C19.9494 7.35401 19.9494 7.35344 19.9494 7.35287C19.9494 7.3523 19.9494 7.35172 19.9494 7.35115C19.9494 7.35058 19.9494 7.35001 19.9494 7.34944C19.9494 7.34887 19.9494 7.3483 19.9494 7.34774C19.9494 7.34717 19.9494 7.3466 19.9494 7.34603C19.9494 7.34546 19.9494 7.34489 19.9494 7.34433C19.9494 7.34376 19.9494 7.34319 19.9494 7.34263C19.9494 7.34206 19.9494 7.34149 19.9494 7.34093C19.9494 7.34036 19.9494 7.33979 19.9494 7.33923C19.9494 7.33866 19.9494 7.3381 19.9494 7.33753C19.9494 7.33697 19.9494 7.33641 19.9494 7.33584C19.9494 7.33528 19.9494 7.33471 19.9494 7.33415C19.9494 7.33359 19.9494 7.33303 19.9494 7.33246C19.9494 7.3319 19.9494 7.33134 19.9494 7.33078C19.9494 7.33022 19.9494 7.32966 19.9494 7.32909C19.9494 7.32853 19.9494 7.32797 19.9494 7.32741C19.9494 7.32685 19.9494 7.32629 19.9494 7.32573C19.9494 7.32517 19.9494 7.32462 19.9494 7.32406C19.9494 7.3235 19.9494 7.32294 19.9494 7.32238C19.9494 7.32182 19.9494 7.32127 19.9494 7.32071C19.9494 7.32015 19.9494 7.3196 19.9494 7.31904C19.9494 7.31848 19.9494 7.31793 19.9494 7.31737C19.9494 7.31682 19.9494 7.31626 19.9494 7.31571C19.9494 7.31515 19.9494 7.3146 19.9494 7.31404C19.9494 7.31349 19.9494 7.31293 19.9494 7.31238C19.9494 7.31183 19.9494 7.31127 19.9494 7.31072C19.9494 7.31017 19.9494 7.30962 19.9494 7.30906C19.9494 7.30851 19.9494 7.30796 19.9494 7.30741C19.9494 7.30686 19.9494 7.30631 19.9494 7.30576C19.9494 7.30521 19.9494 7.30466 19.9494 7.30411C19.9494 7.30356 19.9494 7.30301 19.9494 7.30246C19.9494 7.30191 19.9494 7.30136 19.9494 7.30081C19.9494 7.30026 19.9494 7.29972 19.9494 7.29917C19.9494 7.29862 19.9494 7.29807 19.9494 7.29753C19.9494 7.29698 19.9494 7.29643 19.9494 7.29589C19.9494 7.29534 19.9494 7.2948 19.9494 7.29425C19.9494 7.29371 19.9494 7.29316 19.9494 7.29262C19.9494 7.29207 19.9494 7.29153 19.9494 7.29098C19.9494 7.29044 19.9494 7.2899 19.9494 7.28935C19.9494 7.28881 19.9494 7.28827 19.9494 7.28773C19.9494 7.28718 19.9494 7.28664 19.9494 7.2861C19.9494 7.28556 19.9494 7.28502 19.9494 7.28448C19.9494 7.28394 19.9494 7.28339 19.9494 7.28285C19.9494 7.28231 19.9494 7.28177 19.9494 7.28124C19.9494 7.2807 19.9494 7.28016 19.9494 7.27962C19.9494 7.27908 19.9494 7.27854 19.9494 7.278C19.9494 7.27747 19.9494 7.27693 19.9494 7.27639C19.9494 7.27585 19.9494 7.27532 19.9494 7.27478C19.9494 7.27424 19.9494 7.27371 19.9494 7.27317C19.9494 7.27264 19.9494 7.2721 19.9494 7.27157C19.9494 7.27103 19.9494 7.2705 19.9494 7.26996C19.9494 7.26943 19.9494 7.26889 19.9494 7.26836C19.9494 7.26783 19.9494 7.26729 19.9494 7.26676C19.9494 7.26623 19.9494 7.2657 19.9494 7.26516C19.9494 7.26463 19.9494 7.2641 19.9494 7.26357C19.9494 7.26304 19.9494 7.26251 19.9494 7.26198C19.9494 7.26145 19.9494 7.26092 19.9494 7.26039C19.9494 7.25986 19.9494 7.25933 19.9494 7.2588C19.9494 7.25827 19.9494 7.25774 19.9494 7.25721C19.9494 7.25668 19.9494 7.25616 19.9494 7.25563C19.9494 7.2551 19.9494 7.25457 19.9494 7.25405C19.9494 7.25352 19.9494 7.25299 19.9494 7.25247C19.9494 7.25194 19.9494 7.25142 19.9494 7.25089C19.9494 7.25037 19.9494 7.24984 19.9494 7.24932C19.9494 7.24879 19.9494 7.24827 19.9494 7.24774C19.9494 7.24722 19.9494 7.2467 19.9494 7.24617C19.9494 7.24565 19.9494 7.24513 19.9494 7.24461C19.9494 7.24408 19.9494 7.24356 19.9494 7.24304C19.9494 7.24252 19.9494 7.242 19.9494 7.24148C19.9494 7.24095 19.9494 7.24043 19.9494 7.23991C19.9494 7.23939 19.9494 7.23887 19.9494 7.23835C19.9494 7.23784 19.9494 7.23732 19.9494 7.2368C19.9494 7.23628 19.9494 7.23576 19.9494 7.23524C19.9494 7.23472 19.9494 7.23421 19.9494 7.23369C19.9494 7.23317 19.9494 7.23266 19.9494 7.23214C19.9494 7.23162 19.9494 7.23111 19.9494 7.23059C19.9494 7.23008 19.9494 7.22956 19.9494 7.22905C19.9494 7.22853 19.9494 7.22802 19.9494 7.2275C19.9494 7.22699 19.9494 7.22647 19.9494 7.22596C19.9494 7.22545 19.9494 7.22493 19.9494 7.22442C19.9494 7.22391 19.9494 7.2234 19.9494 7.22288C19.9494 7.22237 19.9494 7.22186 19.9494 7.22135C19.9494 7.22084 19.9494 7.22033 19.9494 7.21982C19.9494 7.21931 19.9494 7.21879 19.9494 7.21829C19.9494 7.21778 19.9494 7.21727 19.9494 7.21676C19.9494 7.21625 19.9494 7.21574 19.9494 7.21523C19.9494 7.21472 19.9494 7.21421 19.9494 7.21371C19.9494 7.2132 19.9494 7.21269 19.9494 7.21219C19.9494 7.21168 19.9494 7.21117 19.9494 7.21067C19.9494 7.21016 19.9494 7.20965 19.9494 7.20915C19.9494 7.20864 19.9494 7.20814 19.9494 7.20763C19.9494 7.20713 19.9494 7.20663 19.9494 7.20612C19.9494 7.20562 19.9494 7.20511 19.9494 7.20461C19.9494 7.20411 19.9494 7.2036 19.9494 7.2031C19.9494 7.2026 19.9494 7.2021 19.9494 7.2016C19.9494 7.20109 19.9494 7.20059 19.9494 7.20009C19.9494 7.19959 19.9494 7.19909 19.9494 7.19859C19.9494 7.19809 19.9494 7.19759 19.9494 7.19709C19.9494 7.19659 19.9494 7.19609 19.9494 7.19559C19.9494 7.1951 19.9494 7.1946 19.9494 7.1941C19.9494 7.1936 19.9494 7.1931 19.9494 7.19261C19.9494 7.19211 19.9494 7.19161 19.9494 7.19112C19.9494 7.19062 19.9494 7.19012 19.9494 7.18963C19.9494 7.18913 19.9494 7.18864 19.9494 7.18814C19.9494 7.18765 19.9494 7.18715 19.9494 7.18666C19.9494 7.18616 19.9494 7.18567 19.9494 7.18518C19.9494 7.18468 19.9494 7.18419 19.9494 7.1837C19.9494 7.1832 19.9494 7.18271 19.9494 7.18222C19.9494 7.18173 19.9494 7.18124 19.9494 7.18074C19.9494 7.18025 19.9494 7.17976 19.9494 7.17927C19.9494 7.17878 19.9494 7.17829 19.9494 7.1778C19.9494 7.17731 19.9494 7.17682 19.9494 7.17633C19.9494 7.17584 19.9494 7.17535 19.9494 7.17487C19.9494 7.17438 19.9494 7.17389 19.9494 7.1734C19.9494 7.17291 19.9494 7.17243 19.9494 7.17194C19.9494 7.17145 19.9494 7.17097 19.9494 7.17048C19.9494 7.17 19.9494 7.16951 19.9494 7.16902C19.9494 7.16854 19.9494 7.16805 19.9494 7.16757C19.9494 7.16708 19.9494 7.1666 19.9494 7.16612C19.9494 7.16563 19.9494 7.16515 19.9494 7.16467C19.9494 7.16418 19.9494 7.1637 19.9494 7.16322C19.9494 7.16273 19.9494 7.16225 19.9494 7.16177C19.9494 7.16129 19.9494 7.16081 19.9494 7.16033C19.9494 7.15985 19.9494 7.15937 19.9494 7.15889C19.9494 7.15841 19.9494 7.15793 19.9494 7.15745C19.9494 7.15697 19.9494 7.15649 19.9494 7.15601C19.9494 7.15553 19.9494 7.15505 19.9494 7.15457C19.9494 7.1541 19.9494 7.15362 19.9494 7.15314C19.9494 7.15266 19.9494 7.15219 19.9494 7.15171C19.9494 7.15123 19.9494 7.15076 19.9494 7.15028C19.9494 7.14981 19.9494 7.14933 19.9494 7.14886C19.9494 7.14838 19.9494 7.14791 19.9494 7.14743C19.9494 7.14696 19.9494 7.14648 19.9494 7.14601C19.9494 7.14554 19.9494 7.14506 19.9494 7.14459C19.9494 7.14412 19.9494 7.14364 19.9494 7.14317C19.9494 7.1427 19.9494 7.14223 19.9494 7.14176C19.9494 7.14129 19.9494 7.14082 19.9494 7.14034C19.9494 7.13987 19.9494 7.1394 19.9494 7.13893C19.9494 7.13846 19.9494 7.13799 19.9494 7.13753C19.9494 7.13706 19.9494 7.13659 19.9494 7.13612C19.9494 7.13565 19.9494 7.13518 19.9494 7.13472C19.9494 7.13425 19.9494 7.13378 19.9494 7.13331C19.9494 7.13285 19.9494 7.13238 19.9494 7.13191C19.9494 7.13145 19.9494 7.13098 19.9494 7.13052C19.9494 7.13005 19.9494 7.12959 19.9494 7.12912C19.9494 7.12866 19.9494 7.12819 19.9494 7.12773C19.9494 7.12726 19.9494 7.1268 19.9494 7.12634C19.9494 7.12587 19.9494 7.12541 19.9494 7.12495C19.9494 7.12449 19.9494 7.12403 19.9494 7.12356C19.9494 7.1231 19.9494 7.12264 19.9494 7.12218C19.9494 7.12172 19.9494 7.12126 19.9494 7.1208C19.9494 7.12034 19.9494 7.11988 19.9494 7.11942C19.9494 7.11896 19.9494 7.1185 19.9494 7.11804C19.9494 7.11758 19.9494 7.11712 19.9494 7.11667C19.9494 7.11621 19.9494 7.11575 19.9494 7.11529C19.9494 7.11484 19.9494 7.11438 19.9494 7.11392C19.9494 7.11347 19.9494 7.11301 19.9494 7.11255C19.9494 7.1121 19.9494 7.11164 19.9494 7.11119C19.9494 7.11073 19.9494 7.11028 19.9494 7.10982C19.9494 7.10937 19.9494 7.10891 19.9494 7.10846C19.9494 7.10801 19.9494 7.10755 19.9494 7.1071C19.9494 7.10665 19.9494 7.1062 19.9494 7.10574C19.9494 7.10529 19.9494 7.10484 19.9494 7.10439C19.9494 7.10394 19.9494 7.10349 19.9494 7.10304C19.9494 7.10259 19.9494 7.10214 19.9494 7.10169C19.9494 7.10124 19.9494 7.10079 19.9494 7.10034C19.9494 7.09989 19.9494 7.09944 19.9494 7.09899C19.9494 7.09854 19.9494 7.09809 19.9494 7.09765C19.9494 7.0972 19.9494 7.09675 19.9494 7.0963C19.9494 7.09586 19.9494 7.09541 19.9494 7.09496C19.9494 7.09452 19.9494 7.09407 19.9494 7.09363C19.9494 7.09318 19.9494 7.09274 19.9494 7.09229C19.9494 7.09185 19.9494 7.0914 19.9494 7.09096C19.9494 7.09052 19.9494 7.09007 19.9494 7.08963C19.9494 7.08919 19.9494 7.08874 19.9494 7.0883C19.9494 7.08786 19.9494 7.08742 19.9494 7.08697C19.9494 7.08653 19.9494 7.08609 19.9494 7.08565C19.9494 7.08521 19.9494 7.08477 19.9494 7.08433C19.9494 7.08389 19.9494 7.08345 19.9494 7.08301C19.9494 7.08257 19.9494 7.08213 19.9494 7.08169C19.9494 7.08125 19.9494 7.08081 19.9494 7.08038C19.9494 7.07994 19.9494 7.0795 19.9494 7.07906C19.9494 7.07862 19.9494 7.07819 19.9494 7.07775C19.9494 7.07731 19.9494 7.07688 19.9494 7.07644C19.9494 7.07601 19.9494 7.07557 19.9494 7.07514C19.9494 7.0747 19.9494 7.07427 19.9494 7.07383C19.9494 7.0734 19.9494 7.07296 19.9494 7.07253C19.9494 7.0721 19.9494 7.07166 19.9494 7.07123C19.9494 7.0708 19.9494 7.07037 19.9494 7.06993C19.9494 7.0695 19.9494 7.06907 19.9494 7.06864C19.9494 7.06821 19.9494 7.06778 19.9494 7.06734C19.9494 7.06691 19.9494 7.06648 19.9494 7.06605C19.9494 7.06562 19.9494 7.06519 19.9494 7.06477C19.9494 7.06434 19.9494 7.06391 19.9494 7.06348C19.9494 7.06305 19.9494 7.06262 19.9494 7.06219C19.9494 7.06177 19.9494 7.06134 19.9494 7.06091C19.9494 7.06049 19.9494 7.06006 19.9494 7.05963C19.9494 7.05921 19.9494 7.05878 19.9494 7.05836C19.9494 7.05793 19.9494 7.0575 19.9494 7.05708C19.9494 7.05666 19.9494 7.05623 19.9494 7.05581C19.9494 7.05538 19.9494 7.05496 19.9494 7.05454C19.9494 7.05411 19.9494 7.05369 19.9494 7.05327C19.9494 7.05284 19.9494 7.05242 19.9494 7.052C19.9494 7.05158 19.9494 7.05116 19.9494 7.05074C19.9494 7.05032 19.9494 7.0499 19.9494 7.04947C19.9494 7.04905 19.9494 7.04863 19.9494 7.04822C19.9494 7.0478 19.9494 7.04738 19.9494 7.04696C19.9494 7.04654 19.9494 7.04612 19.9494 7.0457C19.9494 7.04528 19.9494 7.04487 19.9494 7.04445C19.9494 7.04403 19.9494 7.04361 19.9494 7.0432C19.9494 7.04278 19.9494 7.04237 19.9494 7.04195C19.9494 7.04153 19.9494 7.04112 19.9494 7.0407C19.9494 7.04029 19.9494 7.03987 19.9494 7.03946C19.9494 7.03904 19.9494 7.03863 19.9494 7.03822C19.9494 7.0378 19.9494 7.03739 19.9494 7.03698C19.9494 7.03656 19.9494 7.03615 19.9494 7.03574C19.9494 7.03533 19.9494 7.03492 19.9494 7.0345C19.9494 7.03409 19.9494 7.03368 19.9494 7.03327C19.9494 7.03286 19.9494 7.03245 19.9494 7.03204C19.9494 7.03163 19.9494 7.03122 19.9494 7.03081C19.9494 7.0304 19.9494 7.02999 19.9494 7.02958C19.9494 7.02918 19.9494 7.02877 19.9494 7.02836C19.9494 7.02795 19.9494 7.02755 19.9494 7.02714C19.9494 7.02673 19.9494 7.02632 19.9494 7.02592C19.9494 7.02551 19.9494 7.02511 19.9494 7.0247C19.9494 7.0243 19.9494 7.02389 19.9494 7.02349C19.9494 7.02308 19.9494 7.02268 19.9494 7.02227C19.9494 7.02187 19.9494 7.02146 19.9494 7.02106C19.9494 7.02066 19.9494 7.02026 19.9494 7.01985C19.9494 7.01945 19.9494 7.01905 19.9494 7.01865C19.9494 7.01824 19.9494 7.01784 19.9494 7.01744C19.9494 7.01704 19.9494 7.01664 19.9494 7.01624C19.9494 7.01584 19.9494 7.01544 19.9494 7.01504C19.9494 7.01464 19.9494 7.01424 19.9494 7.01384C19.9494 7.01344 19.9494 7.01305 19.9494 7.01265C19.9494 7.01225 19.9494 7.01185 19.9494 7.01145C19.9494 7.01106 19.9494 7.01066 19.9494 7.01026C19.9494 7.00987 19.9494 7.00947 19.9494 7.00907C19.9494 7.00868 19.9494 7.00828 19.9494 7.00789C19.9494 7.00749 19.9494 7.0071 19.9494 7.0067C19.9494 7.00631 19.9494 7.00591 19.9494 7.00552C19.9494 7.00513 19.9494 7.00473 19.9494 7.00434C19.9494 7.00395 19.9494 7.00356 19.9494 7.00316C19.9494 7.00277 19.9494 7.00238 19.9494 7.00199C19.9494 7.0016 19.9494 7.00121 19.9494 7.00081C19.9494 7.00042 19.9494 7.00003 19.9494 6.99964C19.9494 6.99925 19.9494 6.99886 19.9494 6.99848C19.9494 6.99809 19.9494 6.9977 19.9494 6.99731C19.9494 6.99692 19.9494 6.99653 19.9494 6.99614C19.9494 6.99576 19.9494 6.99537 19.9494 6.99498C19.9494 6.9946 19.9494 6.99421 19.9494 6.99382C19.9494 6.99344 19.9494 6.99305 19.9494 6.99266C19.9494 6.99228 19.9494 6.99189 19.9494 6.99151C19.9494 6.99112 19.9494 6.99074 19.9494 6.99036C19.9494 6.98997 19.9494 6.98959 19.9494 6.9892C19.9494 6.98882 19.9494 6.98844 19.9494 6.98806C19.9494 6.98767 19.9494 6.98729 19.9494 6.98691C19.9494 6.98653 19.9494 6.98615 19.9494 6.98576C19.9494 6.98538 19.9494 6.985 19.9494 6.98462C19.9494 6.98424 19.9494 6.98386 19.9494 6.98348C19.9494 6.9831 19.9494 6.98272 19.9494 6.98235C19.9494 6.98197 19.9494 6.98159 19.9494 6.98121C19.9494 6.98083 19.9494 6.98045 19.9494 6.98008C19.9494 6.9797 19.9494 6.97932 19.9494 6.97895C19.9494 6.97857 19.9494 6.97819 19.9494 6.97782C19.9494 6.97744 19.9494 6.97706 19.9494 6.97669C19.9494 6.97631 19.9494 6.97594 19.9494 6.97557C19.9494 6.97519 19.9494 6.97482 19.9494 6.97444C19.9494 6.97407 19.9494 6.9737 19.9494 6.97332C19.9494 6.97295 19.9494 6.97258 19.9494 6.97221C19.9494 6.97183 19.9494 6.97146 19.9494 6.97109C19.9494 6.97072 19.9494 6.97035 19.9494 6.96998C19.9494 6.96961 19.9494 6.96924 19.9494 6.96887C19.9494 6.9685 19.9494 6.96813 19.9494 6.96776C19.9494 6.96739 19.9494 6.96702 19.9494 6.96665C19.9494 6.96628 19.9494 6.96591 19.9494 6.96555C19.9494 6.96518 19.9494 6.96481 19.9494 6.96444C19.9494 6.96408 19.9494 6.96371 19.9494 6.96334C19.9494 6.96298 19.9494 6.96261 19.9494 6.96225C19.9494 6.96188 19.9494 6.96151 19.9494 6.96115C19.9494 6.96079 19.9494 6.96042 19.9494 6.96006C19.9494 6.95969 19.9494 6.95933 19.9494 6.95897C19.9494 6.9586 19.9494 6.95824 19.9494 6.95788C19.9494 6.95751 19.9494 6.95715 19.9494 6.95679C19.9494 6.95643 19.9494 6.95607 19.9494 6.95571C19.9494 6.95534 19.9494 6.95498 19.9494 6.95462C19.9494 6.95426 19.9494 6.9539 19.9494 6.95354C19.9494 6.95318 19.9494 6.95282 19.9494 6.95247C19.9494 6.95211 19.9494 6.95175 19.9494 6.95139C19.9494 6.95103 19.9494 6.95067 19.9494 6.95032C19.9494 6.94996 19.9494 6.9496 19.9494 6.94925C19.9494 6.94889 19.9494 6.94853 19.9494 6.94818C19.9494 6.94782 19.9494 6.94746 19.9494 6.94711C19.9494 6.94675 19.9494 6.9464 19.9494 6.94605C19.9494 6.94569 19.9494 6.94534 19.9494 6.94498C19.9494 6.94463 19.9494 6.94428 19.9494 6.94392C19.9494 6.94357 19.9494 6.94322 19.9494 6.94286C19.9494 6.94251 19.9494 6.94216 19.9494 6.94181C19.9494 6.94146 19.9494 6.94111 19.9494 6.94076C19.9494 6.94041 19.9494 6.94005 19.9494 6.9397C19.9494 6.93935 19.9494 6.93901 19.9494 6.93866C19.9494 6.93831 19.9494 6.93796 19.9494 6.93761C19.9494 6.93726 19.9494 6.93691 19.9494 6.93656C19.9494 6.93622 19.9494 6.93587 19.9494 6.93552C19.9494 6.93518 19.9494 6.93483 19.9494 6.93448C19.9494 6.93414 19.9494 6.93379 19.9494 6.93344C19.9494 6.9331 19.9494 6.93275 19.9494 6.93241C19.9494 6.93206 19.9494 6.93172 19.9494 6.93138C19.9494 6.93103 19.9494 6.93069 19.9494 6.93034C19.9494 6.93 19.9494 6.92966 19.9494 6.92931C19.9494 6.92897 19.9494 6.92863 19.9494 6.92829C19.9494 6.92795 19.9494 6.9276 19.9494 6.92726C19.9494 6.92692 19.9494 6.92658 19.9494 6.92624C19.9494 6.9259 19.9494 6.92556 19.9494 6.92522C19.9494 6.92488 19.9494 6.92454 19.9494 6.9242C19.9494 6.92386 19.9494 6.92353 19.9494 6.92319C19.9494 6.92285 19.9494 6.92251 19.9494 6.92217C19.9494 6.92184 19.9494 6.9215 19.9494 6.92116C19.9494 6.92083 19.9494 6.92049 19.9494 6.92015C19.9494 6.91982 19.9494 6.91948 19.9494 6.91915C19.9494 6.91881 19.9494 6.91848 19.9494 6.91814C19.9494 6.91781 19.9494 6.91747 19.9494 6.91714C19.9494 6.91681 19.9494 6.91647 19.9494 6.91614C19.9494 6.91581 19.9494 6.91547 19.9494 6.91514C19.9494 6.91481 19.9494 6.91448 19.9494 6.91415C19.9494 6.91381 19.9494 6.91348 19.9494 6.91315C19.9494 6.91282 19.9494 6.91249 19.9494 6.91216C19.9494 6.91183 19.9494 6.9115 19.9494 6.91117C19.9494 6.91084 19.9494 6.91051 19.9494 6.91019C19.9494 6.90986 19.9494 6.90953 19.9494 6.9092C19.9494 6.90887 19.9494 6.90855 19.9494 6.90822C19.9494 6.90789 19.9494 6.90756 19.9494 6.90724C19.9494 6.90691 19.9494 6.90659 19.9494 6.90626C19.9494 6.90593 19.9494 6.90561 19.9494 6.90528C19.9494 6.90496 19.9494 6.90464 19.9494 6.90431C19.9494 6.90399 19.9494 6.90366 19.9494 6.90334C19.9494 6.90302 19.9494 6.90269 19.9494 6.90237C19.9494 6.90205 19.9494 6.90173 19.9494 6.9014C19.9494 6.90108 19.9494 6.90076 19.9494 6.90044C19.9494 6.90012 19.9494 6.8998 19.9494 6.89948C19.9494 6.89916 19.9494 6.89884 19.9494 6.89852C19.9494 6.8982 19.9494 6.89788 19.9494 6.89756C19.9494 6.89724 19.9494 6.89692 19.9494 6.8966C19.9494 6.89628 19.9494 6.89597 19.9494 6.89565C19.9494 6.89533 19.9494 6.89501 19.9494 6.8947C19.9494 6.89438 19.9494 6.89407 19.9494 6.89375C19.9494 6.89343 19.9494 6.89312 19.9494 6.8928C19.9494 6.89249 19.9494 6.89217 19.9494 6.89186C19.9494 6.89154 19.9494 6.89123 19.9494 6.89092C19.9494 6.8906 19.9494 6.89029 19.9494 6.88997C19.9494 6.88966 19.9494 6.88935 19.9494 6.88904C19.9494 6.88872 19.9494 6.88841 19.9494 6.8881C19.9494 6.88779 19.9494 6.88748 19.9494 6.88717C19.9494 6.88686 19.9494 6.88655 19.9494 6.88624C19.9494 6.88593 19.9494 6.88562 19.9494 6.88531C19.9494 6.885 19.9494 6.88469 19.9494 6.88438C19.9494 6.88407 19.9494 6.88376 19.9494 6.88346C19.9494 6.88315 19.9494 6.88284 19.9494 6.88253C19.9494 6.88223 19.9494 6.88192 19.9494 6.88161C19.9494 6.88131 19.9494 6.881 19.9494 6.88069C19.9494 6.88039 19.9494 6.88008 19.9494 6.87978C19.9494 6.87947 19.9494 6.87917 19.9494 6.87887C19.9494 6.87856 19.9494 6.87826 19.9494 6.87795C19.9494 6.87765 19.9494 6.87735 19.9494 6.87704C19.9494 6.87674 19.9494 6.87644 19.9494 6.87614C19.9494 6.87584 19.9494 6.87553 19.9494 6.87523C19.9494 6.87493 19.9494 6.87463 19.9494 6.87433C19.9494 6.87403 19.9494 6.87373 19.9494 6.87343C19.9494 6.87313 19.9494 6.87283 19.9494 6.87253C19.9494 6.87223 19.9494 6.87193 19.9494 6.87164C19.9494 6.87134 19.9494 6.87104 19.9494 6.87074C19.9494 6.87044 19.9494 6.87015 19.9494 6.86985C19.9494 6.86955 19.9494 6.86926 19.9494 6.86896C19.9494 6.86867 19.9494 6.86837 19.9494 6.86807C19.9494 6.86778 19.9494 6.86748 19.9494 6.86719H18.9494H17.9494C17.9494 6.86748 17.9494 6.86778 17.9494 6.86807C17.9494 6.86837 17.9494 6.86867 17.9494 6.86896C17.9494 6.86926 17.9494 6.86955 17.9494 6.86985C17.9494 6.87015 17.9494 6.87044 17.9494 6.87074C17.9494 6.87104 17.9494 6.87134 17.9494 6.87164C17.9494 6.87193 17.9494 6.87223 17.9494 6.87253C17.9494 6.87283 17.9494 6.87313 17.9494 6.87343C17.9494 6.87373 17.9494 6.87403 17.9494 6.87433C17.9494 6.87463 17.9494 6.87493 17.9494 6.87523C17.9494 6.87553 17.9494 6.87584 17.9494 6.87614C17.9494 6.87644 17.9494 6.87674 17.9494 6.87704C17.9494 6.87735 17.9494 6.87765 17.9494 6.87795C17.9494 6.87826 17.9494 6.87856 17.9494 6.87887C17.9494 6.87917 17.9494 6.87947 17.9494 6.87978C17.9494 6.88008 17.9494 6.88039 17.9494 6.88069C17.9494 6.881 17.9494 6.88131 17.9494 6.88161C17.9494 6.88192 17.9494 6.88223 17.9494 6.88253C17.9494 6.88284 17.9494 6.88315 17.9494 6.88346C17.9494 6.88376 17.9494 6.88407 17.9494 6.88438C17.9494 6.88469 17.9494 6.885 17.9494 6.88531C17.9494 6.88562 17.9494 6.88593 17.9494 6.88624C17.9494 6.88655 17.9494 6.88686 17.9494 6.88717C17.9494 6.88748 17.9494 6.88779 17.9494 6.8881C17.9494 6.88841 17.9494 6.88872 17.9494 6.88904C17.9494 6.88935 17.9494 6.88966 17.9494 6.88997C17.9494 6.89029 17.9494 6.8906 17.9494 6.89092C17.9494 6.89123 17.9494 6.89154 17.9494 6.89186C17.9494 6.89217 17.9494 6.89249 17.9494 6.8928C17.9494 6.89312 17.9494 6.89343 17.9494 6.89375C17.9494 6.89407 17.9494 6.89438 17.9494 6.8947C17.9494 6.89501 17.9494 6.89533 17.9494 6.89565C17.9494 6.89597 17.9494 6.89628 17.9494 6.8966C17.9494 6.89692 17.9494 6.89724 17.9494 6.89756C17.9494 6.89788 17.9494 6.8982 17.9494 6.89852C17.9494 6.89884 17.9494 6.89916 17.9494 6.89948C17.9494 6.8998 17.9494 6.90012 17.9494 6.90044C17.9494 6.90076 17.9494 6.90108 17.9494 6.9014C17.9494 6.90173 17.9494 6.90205 17.9494 6.90237C17.9494 6.90269 17.9494 6.90302 17.9494 6.90334C17.9494 6.90366 17.9494 6.90399 17.9494 6.90431C17.9494 6.90464 17.9494 6.90496 17.9494 6.90528C17.9494 6.90561 17.9494 6.90593 17.9494 6.90626C17.9494 6.90659 17.9494 6.90691 17.9494 6.90724C17.9494 6.90756 17.9494 6.90789 17.9494 6.90822C17.9494 6.90855 17.9494 6.90887 17.9494 6.9092C17.9494 6.90953 17.9494 6.90986 17.9494 6.91019C17.9494 6.91051 17.9494 6.91084 17.9494 6.91117C17.9494 6.9115 17.9494 6.91183 17.9494 6.91216C17.9494 6.91249 17.9494 6.91282 17.9494 6.91315C17.9494 6.91348 17.9494 6.91381 17.9494 6.91415C17.9494 6.91448 17.9494 6.91481 17.9494 6.91514C17.9494 6.91547 17.9494 6.91581 17.9494 6.91614C17.9494 6.91647 17.9494 6.91681 17.9494 6.91714C17.9494 6.91747 17.9494 6.91781 17.9494 6.91814C17.9494 6.91848 17.9494 6.91881 17.9494 6.91915C17.9494 6.91948 17.9494 6.91982 17.9494 6.92015C17.9494 6.92049 17.9494 6.92083 17.9494 6.92116C17.9494 6.9215 17.9494 6.92184 17.9494 6.92217C17.9494 6.92251 17.9494 6.92285 17.9494 6.92319C17.9494 6.92353 17.9494 6.92386 17.9494 6.9242C17.9494 6.92454 17.9494 6.92488 17.9494 6.92522C17.9494 6.92556 17.9494 6.9259 17.9494 6.92624C17.9494 6.92658 17.9494 6.92692 17.9494 6.92726C17.9494 6.9276 17.9494 6.92795 17.9494 6.92829C17.9494 6.92863 17.9494 6.92897 17.9494 6.92931C17.9494 6.92966 17.9494 6.93 17.9494 6.93034C17.9494 6.93069 17.9494 6.93103 17.9494 6.93138C17.9494 6.93172 17.9494 6.93206 17.9494 6.93241C17.9494 6.93275 17.9494 6.9331 17.9494 6.93344C17.9494 6.93379 17.9494 6.93414 17.9494 6.93448C17.9494 6.93483 17.9494 6.93518 17.9494 6.93552C17.9494 6.93587 17.9494 6.93622 17.9494 6.93656C17.9494 6.93691 17.9494 6.93726 17.9494 6.93761C17.9494 6.93796 17.9494 6.93831 17.9494 6.93866C17.9494 6.93901 17.9494 6.93935 17.9494 6.9397C17.9494 6.94005 17.9494 6.94041 17.9494 6.94076C17.9494 6.94111 17.9494 6.94146 17.9494 6.94181C17.9494 6.94216 17.9494 6.94251 17.9494 6.94286C17.9494 6.94322 17.9494 6.94357 17.9494 6.94392C17.9494 6.94428 17.9494 6.94463 17.9494 6.94498C17.9494 6.94534 17.9494 6.94569 17.9494 6.94605C17.9494 6.9464 17.9494 6.94675 17.9494 6.94711C17.9494 6.94746 17.9494 6.94782 17.9494 6.94818C17.9494 6.94853 17.9494 6.94889 17.9494 6.94925C17.9494 6.9496 17.9494 6.94996 17.9494 6.95032C17.9494 6.95067 17.9494 6.95103 17.9494 6.95139C17.9494 6.95175 17.9494 6.95211 17.9494 6.95247C17.9494 6.95282 17.9494 6.95318 17.9494 6.95354C17.9494 6.9539 17.9494 6.95426 17.9494 6.95462C17.9494 6.95498 17.9494 6.95534 17.9494 6.95571C17.9494 6.95607 17.9494 6.95643 17.9494 6.95679C17.9494 6.95715 17.9494 6.95751 17.9494 6.95788C17.9494 6.95824 17.9494 6.9586 17.9494 6.95897C17.9494 6.95933 17.9494 6.95969 17.9494 6.96006C17.9494 6.96042 17.9494 6.96079 17.9494 6.96115C17.9494 6.96151 17.9494 6.96188 17.9494 6.96225C17.9494 6.96261 17.9494 6.96298 17.9494 6.96334C17.9494 6.96371 17.9494 6.96408 17.9494 6.96444C17.9494 6.96481 17.9494 6.96518 17.9494 6.96555C17.9494 6.96591 17.9494 6.96628 17.9494 6.96665C17.9494 6.96702 17.9494 6.96739 17.9494 6.96776C17.9494 6.96813 17.9494 6.9685 17.9494 6.96887C17.9494 6.96924 17.9494 6.96961 17.9494 6.96998C17.9494 6.97035 17.9494 6.97072 17.9494 6.97109C17.9494 6.97146 17.9494 6.97183 17.9494 6.97221C17.9494 6.97258 17.9494 6.97295 17.9494 6.97332C17.9494 6.9737 17.9494 6.97407 17.9494 6.97444C17.9494 6.97482 17.9494 6.97519 17.9494 6.97557C17.9494 6.97594 17.9494 6.97631 17.9494 6.97669C17.9494 6.97706 17.9494 6.97744 17.9494 6.97782C17.9494 6.97819 17.9494 6.97857 17.9494 6.97895C17.9494 6.97932 17.9494 6.9797 17.9494 6.98008C17.9494 6.98045 17.9494 6.98083 17.9494 6.98121C17.9494 6.98159 17.9494 6.98197 17.9494 6.98235C17.9494 6.98272 17.9494 6.9831 17.9494 6.98348C17.9494 6.98386 17.9494 6.98424 17.9494 6.98462C17.9494 6.985 17.9494 6.98538 17.9494 6.98576C17.9494 6.98615 17.9494 6.98653 17.9494 6.98691C17.9494 6.98729 17.9494 6.98767 17.9494 6.98806C17.9494 6.98844 17.9494 6.98882 17.9494 6.9892C17.9494 6.98959 17.9494 6.98997 17.9494 6.99036C17.9494 6.99074 17.9494 6.99112 17.9494 6.99151C17.9494 6.99189 17.9494 6.99228 17.9494 6.99266C17.9494 6.99305 17.9494 6.99344 17.9494 6.99382C17.9494 6.99421 17.9494 6.9946 17.9494 6.99498C17.9494 6.99537 17.9494 6.99576 17.9494 6.99614C17.9494 6.99653 17.9494 6.99692 17.9494 6.99731C17.9494 6.9977 17.9494 6.99809 17.9494 6.99848C17.9494 6.99886 17.9494 6.99925 17.9494 6.99964C17.9494 7.00003 17.9494 7.00042 17.9494 7.00081C17.9494 7.00121 17.9494 7.0016 17.9494 7.00199C17.9494 7.00238 17.9494 7.00277 17.9494 7.00316C17.9494 7.00356 17.9494 7.00395 17.9494 7.00434C17.9494 7.00473 17.9494 7.00513 17.9494 7.00552C17.9494 7.00591 17.9494 7.00631 17.9494 7.0067C17.9494 7.0071 17.9494 7.00749 17.9494 7.00789C17.9494 7.00828 17.9494 7.00868 17.9494 7.00907C17.9494 7.00947 17.9494 7.00987 17.9494 7.01026C17.9494 7.01066 17.9494 7.01106 17.9494 7.01145C17.9494 7.01185 17.9494 7.01225 17.9494 7.01265C17.9494 7.01305 17.9494 7.01344 17.9494 7.01384C17.9494 7.01424 17.9494 7.01464 17.9494 7.01504C17.9494 7.01544 17.9494 7.01584 17.9494 7.01624C17.9494 7.01664 17.9494 7.01704 17.9494 7.01744C17.9494 7.01784 17.9494 7.01824 17.9494 7.01865C17.9494 7.01905 17.9494 7.01945 17.9494 7.01985C17.9494 7.02026 17.9494 7.02066 17.9494 7.02106C17.9494 7.02146 17.9494 7.02187 17.9494 7.02227C17.9494 7.02268 17.9494 7.02308 17.9494 7.02349C17.9494 7.02389 17.9494 7.0243 17.9494 7.0247C17.9494 7.02511 17.9494 7.02551 17.9494 7.02592C17.9494 7.02632 17.9494 7.02673 17.9494 7.02714C17.9494 7.02755 17.9494 7.02795 17.9494 7.02836C17.9494 7.02877 17.9494 7.02918 17.9494 7.02958C17.9494 7.02999 17.9494 7.0304 17.9494 7.03081C17.9494 7.03122 17.9494 7.03163 17.9494 7.03204C17.9494 7.03245 17.9494 7.03286 17.9494 7.03327C17.9494 7.03368 17.9494 7.03409 17.9494 7.0345C17.9494 7.03492 17.9494 7.03533 17.9494 7.03574C17.9494 7.03615 17.9494 7.03656 17.9494 7.03698C17.9494 7.03739 17.9494 7.0378 17.9494 7.03822C17.9494 7.03863 17.9494 7.03904 17.9494 7.03946C17.9494 7.03987 17.9494 7.04029 17.9494 7.0407C17.9494 7.04112 17.9494 7.04153 17.9494 7.04195C17.9494 7.04237 17.9494 7.04278 17.9494 7.0432C17.9494 7.04361 17.9494 7.04403 17.9494 7.04445C17.9494 7.04487 17.9494 7.04528 17.9494 7.0457C17.9494 7.04612 17.9494 7.04654 17.9494 7.04696C17.9494 7.04738 17.9494 7.0478 17.9494 7.04822C17.9494 7.04863 17.9494 7.04905 17.9494 7.04947C17.9494 7.0499 17.9494 7.05032 17.9494 7.05074C17.9494 7.05116 17.9494 7.05158 17.9494 7.052C17.9494 7.05242 17.9494 7.05284 17.9494 7.05327C17.9494 7.05369 17.9494 7.05411 17.9494 7.05454C17.9494 7.05496 17.9494 7.05538 17.9494 7.05581C17.9494 7.05623 17.9494 7.05666 17.9494 7.05708C17.9494 7.0575 17.9494 7.05793 17.9494 7.05836C17.9494 7.05878 17.9494 7.05921 17.9494 7.05963C17.9494 7.06006 17.9494 7.06049 17.9494 7.06091C17.9494 7.06134 17.9494 7.06177 17.9494 7.06219C17.9494 7.06262 17.9494 7.06305 17.9494 7.06348C17.9494 7.06391 17.9494 7.06434 17.9494 7.06477C17.9494 7.06519 17.9494 7.06562 17.9494 7.06605C17.9494 7.06648 17.9494 7.06691 17.9494 7.06734C17.9494 7.06778 17.9494 7.06821 17.9494 7.06864C17.9494 7.06907 17.9494 7.0695 17.9494 7.06993C17.9494 7.07037 17.9494 7.0708 17.9494 7.07123C17.9494 7.07166 17.9494 7.0721 17.9494 7.07253C17.9494 7.07296 17.9494 7.0734 17.9494 7.07383C17.9494 7.07427 17.9494 7.0747 17.9494 7.07514C17.9494 7.07557 17.9494 7.07601 17.9494 7.07644C17.9494 7.07688 17.9494 7.07731 17.9494 7.07775C17.9494 7.07819 17.9494 7.07862 17.9494 7.07906C17.9494 7.0795 17.9494 7.07994 17.9494 7.08038C17.9494 7.08081 17.9494 7.08125 17.9494 7.08169C17.9494 7.08213 17.9494 7.08257 17.9494 7.08301C17.9494 7.08345 17.9494 7.08389 17.9494 7.08433C17.9494 7.08477 17.9494 7.08521 17.9494 7.08565C17.9494 7.08609 17.9494 7.08653 17.9494 7.08697C17.9494 7.08742 17.9494 7.08786 17.9494 7.0883C17.9494 7.08874 17.9494 7.08919 17.9494 7.08963C17.9494 7.09007 17.9494 7.09052 17.9494 7.09096C17.9494 7.0914 17.9494 7.09185 17.9494 7.09229C17.9494 7.09274 17.9494 7.09318 17.9494 7.09363C17.9494 7.09407 17.9494 7.09452 17.9494 7.09496C17.9494 7.09541 17.9494 7.09586 17.9494 7.0963C17.9494 7.09675 17.9494 7.0972 17.9494 7.09765C17.9494 7.09809 17.9494 7.09854 17.9494 7.09899C17.9494 7.09944 17.9494 7.09989 17.9494 7.10034C17.9494 7.10079 17.9494 7.10124 17.9494 7.10169C17.9494 7.10214 17.9494 7.10259 17.9494 7.10304C17.9494 7.10349 17.9494 7.10394 17.9494 7.10439C17.9494 7.10484 17.9494 7.10529 17.9494 7.10574C17.9494 7.1062 17.9494 7.10665 17.9494 7.1071C17.9494 7.10755 17.9494 7.10801 17.9494 7.10846C17.9494 7.10891 17.9494 7.10937 17.9494 7.10982C17.9494 7.11028 17.9494 7.11073 17.9494 7.11119C17.9494 7.11164 17.9494 7.1121 17.9494 7.11255C17.9494 7.11301 17.9494 7.11347 17.9494 7.11392C17.9494 7.11438 17.9494 7.11484 17.9494 7.11529C17.9494 7.11575 17.9494 7.11621 17.9494 7.11667C17.9494 7.11712 17.9494 7.11758 17.9494 7.11804C17.9494 7.1185 17.9494 7.11896 17.9494 7.11942C17.9494 7.11988 17.9494 7.12034 17.9494 7.1208C17.9494 7.12126 17.9494 7.12172 17.9494 7.12218C17.9494 7.12264 17.9494 7.1231 17.9494 7.12356C17.9494 7.12403 17.9494 7.12449 17.9494 7.12495C17.9494 7.12541 17.9494 7.12587 17.9494 7.12634C17.9494 7.1268 17.9494 7.12726 17.9494 7.12773C17.9494 7.12819 17.9494 7.12866 17.9494 7.12912C17.9494 7.12959 17.9494 7.13005 17.9494 7.13052C17.9494 7.13098 17.9494 7.13145 17.9494 7.13191C17.9494 7.13238 17.9494 7.13285 17.9494 7.13331C17.9494 7.13378 17.9494 7.13425 17.9494 7.13472C17.9494 7.13518 17.9494 7.13565 17.9494 7.13612C17.9494 7.13659 17.9494 7.13706 17.9494 7.13753C17.9494 7.13799 17.9494 7.13846 17.9494 7.13893C17.9494 7.1394 17.9494 7.13987 17.9494 7.14034C17.9494 7.14082 17.9494 7.14129 17.9494 7.14176C17.9494 7.14223 17.9494 7.1427 17.9494 7.14317C17.9494 7.14364 17.9494 7.14412 17.9494 7.14459C17.9494 7.14506 17.9494 7.14554 17.9494 7.14601C17.9494 7.14648 17.9494 7.14696 17.9494 7.14743C17.9494 7.14791 17.9494 7.14838 17.9494 7.14886C17.9494 7.14933 17.9494 7.14981 17.9494 7.15028C17.9494 7.15076 17.9494 7.15123 17.9494 7.15171C17.9494 7.15219 17.9494 7.15266 17.9494 7.15314C17.9494 7.15362 17.9494 7.1541 17.9494 7.15457C17.9494 7.15505 17.9494 7.15553 17.9494 7.15601C17.9494 7.15649 17.9494 7.15697 17.9494 7.15745C17.9494 7.15793 17.9494 7.15841 17.9494 7.15889C17.9494 7.15937 17.9494 7.15985 17.9494 7.16033C17.9494 7.16081 17.9494 7.16129 17.9494 7.16177C17.9494 7.16225 17.9494 7.16273 17.9494 7.16322C17.9494 7.1637 17.9494 7.16418 17.9494 7.16467C17.9494 7.16515 17.9494 7.16563 17.9494 7.16612C17.9494 7.1666 17.9494 7.16708 17.9494 7.16757C17.9494 7.16805 17.9494 7.16854 17.9494 7.16902C17.9494 7.16951 17.9494 7.17 17.9494 7.17048C17.9494 7.17097 17.9494 7.17145 17.9494 7.17194C17.9494 7.17243 17.9494 7.17291 17.9494 7.1734C17.9494 7.17389 17.9494 7.17438 17.9494 7.17487C17.9494 7.17535 17.9494 7.17584 17.9494 7.17633C17.9494 7.17682 17.9494 7.17731 17.9494 7.1778C17.9494 7.17829 17.9494 7.17878 17.9494 7.17927C17.9494 7.17976 17.9494 7.18025 17.9494 7.18074C17.9494 7.18124 17.9494 7.18173 17.9494 7.18222C17.9494 7.18271 17.9494 7.1832 17.9494 7.1837C17.9494 7.18419 17.9494 7.18468 17.9494 7.18518C17.9494 7.18567 17.9494 7.18616 17.9494 7.18666C17.9494 7.18715 17.9494 7.18765 17.9494 7.18814C17.9494 7.18864 17.9494 7.18913 17.9494 7.18963C17.9494 7.19012 17.9494 7.19062 17.9494 7.19112C17.9494 7.19161 17.9494 7.19211 17.9494 7.19261C17.9494 7.1931 17.9494 7.1936 17.9494 7.1941C17.9494 7.1946 17.9494 7.1951 17.9494 7.19559C17.9494 7.19609 17.9494 7.19659 17.9494 7.19709C17.9494 7.19759 17.9494 7.19809 17.9494 7.19859C17.9494 7.19909 17.9494 7.19959 17.9494 7.20009C17.9494 7.20059 17.9494 7.20109 17.9494 7.2016C17.9494 7.2021 17.9494 7.2026 17.9494 7.2031C17.9494 7.2036 17.9494 7.20411 17.9494 7.20461C17.9494 7.20511 17.9494 7.20562 17.9494 7.20612C17.9494 7.20663 17.9494 7.20713 17.9494 7.20763C17.9494 7.20814 17.9494 7.20864 17.9494 7.20915C17.9494 7.20965 17.9494 7.21016 17.9494 7.21067C17.9494 7.21117 17.9494 7.21168 17.9494 7.21219C17.9494 7.21269 17.9494 7.2132 17.9494 7.21371C17.9494 7.21421 17.9494 7.21472 17.9494 7.21523C17.9494 7.21574 17.9494 7.21625 17.9494 7.21676C17.9494 7.21727 17.9494 7.21778 17.9494 7.21829C17.9494 7.21879 17.9494 7.21931 17.9494 7.21982C17.9494 7.22033 17.9494 7.22084 17.9494 7.22135C17.9494 7.22186 17.9494 7.22237 17.9494 7.22288C17.9494 7.2234 17.9494 7.22391 17.9494 7.22442C17.9494 7.22493 17.9494 7.22545 17.9494 7.22596C17.9494 7.22647 17.9494 7.22699 17.9494 7.2275C17.9494 7.22802 17.9494 7.22853 17.9494 7.22905C17.9494 7.22956 17.9494 7.23008 17.9494 7.23059C17.9494 7.23111 17.9494 7.23162 17.9494 7.23214C17.9494 7.23266 17.9494 7.23317 17.9494 7.23369C17.9494 7.23421 17.9494 7.23472 17.9494 7.23524C17.9494 7.23576 17.9494 7.23628 17.9494 7.2368C17.9494 7.23732 17.9494 7.23784 17.9494 7.23835C17.9494 7.23887 17.9494 7.23939 17.9494 7.23991C17.9494 7.24043 17.9494 7.24095 17.9494 7.24148C17.9494 7.242 17.9494 7.24252 17.9494 7.24304C17.9494 7.24356 17.9494 7.24408 17.9494 7.24461C17.9494 7.24513 17.9494 7.24565 17.9494 7.24617C17.9494 7.2467 17.9494 7.24722 17.9494 7.24774C17.9494 7.24827 17.9494 7.24879 17.9494 7.24932C17.9494 7.24984 17.9494 7.25037 17.9494 7.25089C17.9494 7.25142 17.9494 7.25194 17.9494 7.25247C17.9494 7.25299 17.9494 7.25352 17.9494 7.25405C17.9494 7.25457 17.9494 7.2551 17.9494 7.25563C17.9494 7.25616 17.9494 7.25668 17.9494 7.25721C17.9494 7.25774 17.9494 7.25827 17.9494 7.2588C17.9494 7.25933 17.9494 7.25986 17.9494 7.26039C17.9494 7.26092 17.9494 7.26145 17.9494 7.26198C17.9494 7.26251 17.9494 7.26304 17.9494 7.26357C17.9494 7.2641 17.9494 7.26463 17.9494 7.26516C17.9494 7.2657 17.9494 7.26623 17.9494 7.26676C17.9494 7.26729 17.9494 7.26783 17.9494 7.26836C17.9494 7.26889 17.9494 7.26943 17.9494 7.26996C17.9494 7.2705 17.9494 7.27103 17.9494 7.27157C17.9494 7.2721 17.9494 7.27264 17.9494 7.27317C17.9494 7.27371 17.9494 7.27424 17.9494 7.27478C17.9494 7.27532 17.9494 7.27585 17.9494 7.27639C17.9494 7.27693 17.9494 7.27747 17.9494 7.278C17.9494 7.27854 17.9494 7.27908 17.9494 7.27962C17.9494 7.28016 17.9494 7.2807 17.9494 7.28124C17.9494 7.28177 17.9494 7.28231 17.9494 7.28285C17.9494 7.28339 17.9494 7.28394 17.9494 7.28448C17.9494 7.28502 17.9494 7.28556 17.9494 7.2861C17.9494 7.28664 17.9494 7.28718 17.9494 7.28773C17.9494 7.28827 17.9494 7.28881 17.9494 7.28935C17.9494 7.2899 17.9494 7.29044 17.9494 7.29098C17.9494 7.29153 17.9494 7.29207 17.9494 7.29262C17.9494 7.29316 17.9494 7.29371 17.9494 7.29425C17.9494 7.2948 17.9494 7.29534 17.9494 7.29589C17.9494 7.29643 17.9494 7.29698 17.9494 7.29753C17.9494 7.29807 17.9494 7.29862 17.9494 7.29917C17.9494 7.29972 17.9494 7.30026 17.9494 7.30081C17.9494 7.30136 17.9494 7.30191 17.9494 7.30246C17.9494 7.30301 17.9494 7.30356 17.9494 7.30411C17.9494 7.30466 17.9494 7.30521 17.9494 7.30576C17.9494 7.30631 17.9494 7.30686 17.9494 7.30741C17.9494 7.30796 17.9494 7.30851 17.9494 7.30906C17.9494 7.30962 17.9494 7.31017 17.9494 7.31072C17.9494 7.31127 17.9494 7.31183 17.9494 7.31238C17.9494 7.31293 17.9494 7.31349 17.9494 7.31404C17.9494 7.3146 17.9494 7.31515 17.9494 7.31571C17.9494 7.31626 17.9494 7.31682 17.9494 7.31737C17.9494 7.31793 17.9494 7.31848 17.9494 7.31904C17.9494 7.3196 17.9494 7.32015 17.9494 7.32071C17.9494 7.32127 17.9494 7.32182 17.9494 7.32238C17.9494 7.32294 17.9494 7.3235 17.9494 7.32406C17.9494 7.32462 17.9494 7.32517 17.9494 7.32573C17.9494 7.32629 17.9494 7.32685 17.9494 7.32741C17.9494 7.32797 17.9494 7.32853 17.9494 7.32909C17.9494 7.32966 17.9494 7.33022 17.9494 7.33078C17.9494 7.33134 17.9494 7.3319 17.9494 7.33246C17.9494 7.33303 17.9494 7.33359 17.9494 7.33415C17.9494 7.33471 17.9494 7.33528 17.9494 7.33584C17.9494 7.33641 17.9494 7.33697 17.9494 7.33753C17.9494 7.3381 17.9494 7.33866 17.9494 7.33923C17.9494 7.33979 17.9494 7.34036 17.9494 7.34093C17.9494 7.34149 17.9494 7.34206 17.9494 7.34263C17.9494 7.34319 17.9494 7.34376 17.9494 7.34433C17.9494 7.34489 17.9494 7.34546 17.9494 7.34603C17.9494 7.3466 17.9494 7.34717 17.9494 7.34774C17.9494 7.3483 17.9494 7.34887 17.9494 7.34944C17.9494 7.35001 17.9494 7.35058 17.9494 7.35115C17.9494 7.35172 17.9494 7.3523 17.9494 7.35287C17.9494 7.35344 17.9494 7.35401 17.9494 7.35458C17.9494 7.35515 17.9494 7.35573 17.9494 7.3563C17.9494 7.35687 17.9494 7.35744 17.9494 7.35802C17.9494 7.35859 17.9494 7.35916 17.9494 7.35974C17.9494 7.36031 17.9494 7.36089 17.9494 7.36146C17.9494 7.36204 17.9494 7.36261 17.9494 7.36319C17.9494 7.36376 17.9494 7.36434 17.9494 7.36492C17.9494 7.36549 17.9494 7.36607 17.9494 7.36665C17.9494 7.36722 17.9494 7.3678 17.9494 7.36838C17.9494 7.36896 17.9494 7.36953 17.9494 7.37011C17.9494 7.37069 17.9494 7.37127 17.9494 7.37185C17.9494 7.37243 17.9494 7.37301 17.9494 7.37359C17.9494 7.37417 17.9494 7.37475 17.9494 7.37533C17.9494 7.37591 17.9494 7.37649 17.9494 7.37707C17.9494 7.37766 17.9494 7.37824 17.9494 7.37882C17.9494 7.3794 17.9494 7.37998 17.9494 7.38057C17.9494 7.38115 17.9494 7.38173 17.9494 7.38232C17.9494 7.3829 17.9494 7.38349 17.9494 7.38407C17.9494 7.38465 17.9494 7.38524 17.9494 7.38582C17.9494 7.38641 17.9494 7.387 17.9494 7.38758C17.9494 7.38817 17.9494 7.38875 17.9494 7.38934C17.9494 7.38993 17.9494 7.39051 17.9494 7.3911C17.9494 7.39169 17.9494 7.39228 17.9494 7.39287C17.9494 7.39345 17.9494 7.39404 17.9494 7.39463C17.9494 7.39522 17.9494 7.39581 17.9494 7.3964C17.9494 7.39699 17.9494 7.39758 17.9494 7.39817C17.9494 7.39876 17.9494 7.39935 17.9494 7.39994C17.9494 7.40053 17.9494 7.40112 17.9494 7.40172C17.9494 7.40231 17.9494 7.4029 17.9494 7.40349C17.9494 7.40409 17.9494 7.40468 17.9494 7.40527C17.9494 7.40586 17.9494 7.40646 17.9494 7.40705C17.9494 7.40765 17.9494 7.40824 17.9494 7.40884C17.9494 7.40943 17.9494 7.41003 17.9494 7.41062C17.9494 7.41122 17.9494 7.41181 17.9494 7.41241C17.9494 7.41301 17.9494 7.4136 17.9494 7.4142C17.9494 7.4148 17.9494 7.41539 17.9494 7.41599C17.9494 7.41659 17.9494 7.41719 17.9494 7.41779C17.9494 7.41839 17.9494 7.41898 17.9494 7.41958C17.9494 7.42018 17.9494 7.42078 17.9494 7.42138C17.9494 7.42198 17.9494 7.42258 17.9494 7.42318C17.9494 7.42378 17.9494 7.42439 17.9494 7.42499C17.9494 7.42559 17.9494 7.42619 17.9494 7.42679C17.9494 7.4274 17.9494 7.428 17.9494 7.4286C17.9494 7.4292 17.9494 7.42981 17.9494 7.43041C17.9494 7.43101 17.9494 7.43162 17.9494 7.43222C17.9494 7.43283 17.9494 7.43343 17.9494 7.43404C17.9494 7.43464 17.9494 7.43525 17.9494 7.43585C17.9494 7.43646 17.9494 7.43707 17.9494 7.43767C17.9494 7.43828 17.9494 7.43889 17.9494 7.43949C17.9494 7.4401 17.9494 7.44071 17.9494 7.44132C17.9494 7.44193 17.9494 7.44253 17.9494 7.44314C17.9494 7.44375 17.9494 7.44436 17.9494 7.44497C17.9494 7.44558 17.9494 7.44619 17.9494 7.4468C17.9494 7.44741 17.9494 7.44802 17.9494 7.44863C17.9494 7.44924 17.9494 7.44986 17.9494 7.45047C17.9494 7.45108 17.9494 7.45169 17.9494 7.4523C17.9494 7.45292 17.9494 7.45353 17.9494 7.45414C17.9494 7.45476 17.9494 7.45537 17.9494 7.45598C17.9494 7.4566 17.9494 7.45721 17.9494 7.45783C17.9494 7.45844 17.9494 7.45906 17.9494 7.45967C17.9494 7.46029 17.9494 7.46091 17.9494 7.46152C17.9494 7.46214 17.9494 7.46275 17.9494 7.46337C17.9494 7.46399 17.9494 7.46461 17.9494 7.46522C17.9494 7.46584 17.9494 7.46646 17.9494 7.46708C17.9494 7.4677 17.9494 7.46832 17.9494 7.46893C17.9494 7.46955 17.9494 7.47017 17.9494 7.47079C17.9494 7.47141 17.9494 7.47203 17.9494 7.47265C17.9494 7.47328 17.9494 7.4739 17.9494 7.47452C17.9494 7.47514 17.9494 7.47576 17.9494 7.47638C17.9494 7.47701 17.9494 7.47763 17.9494 7.47825C17.9494 7.47887 17.9494 7.4795 17.9494 7.48012C17.9494 7.48075 17.9494 7.48137 17.9494 7.48199C17.9494 7.48262 17.9494 7.48324 17.9494 7.48387C17.9494 7.48449 17.9494 7.48512 17.9494 7.48574C17.9494 7.48637 17.9494 7.487 17.9494 7.48762C17.9494 7.48825 17.9494 7.48888 17.9494 7.4895C17.9494 7.49013 17.9494 7.49076 17.9494 7.49139C17.9494 7.49202 17.9494 7.49264 17.9494 7.49327C17.9494 7.4939 17.9494 7.49453 17.9494 7.49516C17.9494 7.49579 17.9494 7.49642 17.9494 7.49705C17.9494 7.49768 17.9494 7.49831 17.9494 7.49894C17.9494 7.49957 17.9494 7.50021 17.9494 7.50084C17.9494 7.50147 17.9494 7.5021 17.9494 7.50273C17.9494 7.50337 17.9494 7.504 17.9494 7.50463C17.9494 7.50527 17.9494 7.5059 17.9494 7.50653C17.9494 7.50717 17.9494 7.5078 17.9494 7.50844C17.9494 7.50907 17.9494 7.50971 17.9494 7.51034C17.9494 7.51098 17.9494 7.51161 17.9494 7.51225C17.9494 7.51289 17.9494 7.51352 17.9494 7.51416C17.9494 7.5148 17.9494 7.51544 17.9494 7.51607C17.9494 7.51671 17.9494 7.51735 17.9494 7.51799C17.9494 7.51863 17.9494 7.51926 17.9494 7.5199C17.9494 7.52054 17.9494 7.52118 17.9494 7.52182C17.9494 7.52246 17.9494 7.5231 17.9494 7.52374C17.9494 7.52438 17.9494 7.52503 17.9494 7.52567C17.9494 7.52631 17.9494 7.52695 17.9494 7.52759C17.9494 7.52823 17.9494 7.52888 17.9494 7.52952C17.9494 7.53016 17.9494 7.53081 17.9494 7.53145C17.9494 7.53209 17.9494 7.53274 17.9494 7.53338C17.9494 7.53403 17.9494 7.53467 17.9494 7.53532C17.9494 7.53596 17.9494 7.53661 17.9494 7.53725C17.9494 7.5379 17.9494 7.53855 17.9494 7.53919C17.9494 7.53984 17.9494 7.54049 17.9494 7.54113C17.9494 7.54178 17.9494 7.54243 17.9494 7.54308C17.9494 7.54372 17.9494 7.54437 17.9494 7.54502C17.9494 7.54567 17.9494 7.54632 17.9494 7.54697C17.9494 7.54762 17.9494 7.54827 17.9494 7.54892C17.9494 7.54957 17.9494 7.55022 17.9494 7.55087C17.9494 7.55152 17.9494 7.55217 17.9494 7.55283C17.9494 7.55348 17.9494 7.55413 17.9494 7.55478C17.9494 7.55543 17.9494 7.55609 17.9494 7.55674C17.9494 7.55739 17.9494 7.55805 17.9494 7.5587C17.9494 7.55936 17.9494 7.56001 17.9494 7.56066C17.9494 7.56132 17.9494 7.56197 17.9494 7.56263C17.9494 7.56329 17.9494 7.56394 17.9494 7.5646C17.9494 7.56525 17.9494 7.56591 17.9494 7.56657C17.9494 7.56722 17.9494 7.56788 17.9494 7.56854C17.9494 7.5692 17.9494 7.56986 17.9494 7.57051C17.9494 7.57117 17.9494 7.57183 17.9494 7.57249C17.9494 7.57315 17.9494 7.57381 17.9494 7.57447C17.9494 7.57513 17.9494 7.57579 17.9494 7.57645C17.9494 7.57711 17.9494 7.57777 17.9494 7.57843C17.9494 7.57909 17.9494 7.57976 17.9494 7.58042C17.9494 7.58108 17.9494 7.58174 17.9494 7.58241C17.9494 7.58307 17.9494 7.58373 17.9494 7.5844C17.9494 7.58506 17.9494 7.58572 17.9494 7.58639C17.9494 7.58705 17.9494 7.58772 17.9494 7.58838C17.9494 7.58905 17.9494 7.58971 17.9494 7.59038C17.9494 7.59104 17.9494 7.59171 17.9494 7.59238C17.9494 7.59304 17.9494 7.59371 17.9494 7.59438C17.9494 7.59505 17.9494 7.59571 17.9494 7.59638C17.9494 7.59705 17.9494 7.59772 17.9494 7.59839C17.9494 7.59906 17.9494 7.59973 17.9494 7.60039C17.9494 7.60106 17.9494 7.60173 17.9494 7.6024C17.9494 7.60307 17.9494 7.60375 17.9494 7.60442C17.9494 7.60509 17.9494 7.60576 17.9494 7.60643C17.9494 7.6071 17.9494 7.60777 17.9494 7.60845C17.9494 7.60912 17.9494 7.60979 17.9494 7.61047H18.9494ZM18.9494 6.86719L18.338 7.65848L18.6935 7.93316L19.3049 7.14188L19.9164 6.35059L19.5609 6.07591L18.9494 6.86719ZM19.3049 7.14188L19.211 6.1463C18.9249 6.17329 18.5284 6.21105 18.022 6.25954L18.1173 7.25499L18.2126 8.25043C18.7187 8.20198 19.1141 8.16432 19.3988 8.13746L19.3049 7.14188ZM18.1173 7.25499L18.0316 6.25867C17.5129 6.30328 16.9664 6.36438 16.3923 6.44167L16.5257 7.43273L16.6591 8.42379C17.2053 8.35026 17.7199 8.29287 18.203 8.25131L18.1173 7.25499ZM16.5257 7.43273L16.4017 6.44045C15.8096 6.51446 15.2629 6.61264 14.7643 6.73727L15.0069 7.70741L15.2494 8.67756C15.6557 8.57598 16.1215 8.49103 16.6498 8.425L16.5257 7.43273ZM15.0069 7.70741L14.769 6.73612C14.4227 6.82093 14.0806 6.95154 13.7437 7.11999L14.1909 8.01442L14.6381 8.90885C14.8613 8.79722 15.0632 8.72316 15.2447 8.67871L15.0069 7.70741ZM14.1909 8.01442L13.7437 7.11999C13.3252 7.3292 12.9705 7.62473 12.686 7.99612L13.4799 8.60419L14.2738 9.21227C14.3771 9.07737 14.4964 8.97971 14.6381 8.90885L14.1909 8.01442ZM13.4799 8.60419L12.6779 8.00693C12.3304 8.47349 12.1971 9.02515 12.1971 9.58176H13.1971H14.1971C14.1971 9.34123 14.2524 9.24118 14.282 9.20146L13.4799 8.60419ZM13.1971 9.58176H12.1971C12.1971 10.034 12.3113 10.4666 12.5094 10.8705L13.4072 10.4301L14.305 9.98964C14.2231 9.82262 14.1971 9.68967 14.1971 9.58176H13.1971ZM13.4072 10.4301L12.5094 10.8705C12.7513 11.3636 13.1392 11.7373 13.6018 12.0103L14.1101 11.1491L14.6183 10.2879C14.4239 10.1731 14.3431 10.0674 14.305 9.98964L13.4072 10.4301ZM14.1101 11.1491L13.6079 12.0139C14.1516 12.3296 14.8034 12.44 15.4754 12.44V11.44V10.44C14.9949 10.44 14.7364 10.3564 14.6122 10.2843L14.1101 11.1491ZM23.0535 11.5369L23.6047 10.7025L23.6047 10.7025L23.0535 11.5369ZM21.7204 9.92108L20.8031 10.3193L20.8043 10.3219L21.7204 9.92108ZM21.2438 7.51352L20.2439 7.49618L20.2436 7.51372L20.2439 7.53127L21.2438 7.51352ZM21.7204 5.08171L20.8069 4.6749L20.8043 4.68089L21.7204 5.08171ZM23.0616 3.48205L23.602 4.3235L23.6074 4.31997L23.0616 3.48205ZM27.392 3.49013L26.8678 4.34183L26.8764 4.34698L27.392 3.49013ZM28.7412 5.07363L29.1323 5.99396L30.027 5.61373L29.6722 4.70867L28.7412 5.07363ZM28.0948 5.34832L27.1771 5.74543L27.5716 6.65726L28.486 6.26865L28.0948 5.34832ZM26.9718 4.04759L26.4493 4.9002L26.4533 4.90267L26.9718 4.04759ZM23.4171 4.08799L23.9824 4.91286L23.9887 4.90852L23.4171 4.08799ZM22.3425 5.46951L23.2698 5.84383L23.271 5.8409L22.3425 5.46951ZM21.9709 7.51352L20.971 7.49963L20.9708 7.51339L20.971 7.52715L21.9709 7.51352ZM22.8111 10.3654L22.0147 10.9702L22.0147 10.9702L22.8111 10.3654ZM26.9395 10.9956L26.4264 10.1373L26.4264 10.1373L26.9395 10.9956ZM28.0787 9.69487L28.4807 8.77922L27.5825 8.38493L27.171 9.27527L28.0787 9.69487ZM28.7412 9.98572L29.6301 10.4438L30.1176 9.49787L29.1432 9.07007L28.7412 9.98572ZM25.2348 12.1186V11.1186C24.5179 11.1186 23.9938 10.9595 23.6047 10.7025L23.0535 11.5369L22.5023 12.3713C23.2874 12.8899 24.2175 13.1186 25.2348 13.1186V12.1186ZM23.0535 11.5369L23.6047 10.7025C23.1898 10.4285 22.8665 10.0458 22.6366 9.52026L21.7204 9.92108L20.8043 10.3219C21.1776 11.1752 21.743 11.8697 22.5023 12.3713L23.0535 11.5369ZM21.7204 9.92108L22.6377 9.52288C22.3977 8.96991 22.2579 8.30087 22.2436 7.49577L21.2438 7.51352L20.2439 7.53127C20.262 8.54665 20.44 9.48265 20.8031 10.3193L21.7204 9.92108ZM21.2438 7.51352L22.2436 7.53085C22.258 6.70065 22.3989 6.02577 22.6366 5.48253L21.7204 5.08171L20.8043 4.68089C20.4387 5.51649 20.2618 6.46281 20.2439 7.49618L21.2438 7.51352ZM21.7204 5.08171L22.634 5.48851C22.8684 4.96207 23.1924 4.58648 23.6019 4.32348L23.0616 3.48205L22.5212 2.64063C21.7566 3.13168 21.1865 3.82253 20.8069 4.67491L21.7204 5.08171ZM23.0616 3.48205L23.6074 4.31997C23.9982 4.06537 24.5221 3.90844 25.2348 3.90844V2.90844V1.90844C24.2241 1.90844 23.2991 2.13392 22.5158 2.64414L23.0616 3.48205ZM25.2348 2.90844V3.90844C25.8753 3.90844 26.4096 4.05981 26.8679 4.34179L27.392 3.49013L27.9161 2.63847C27.1139 2.14486 26.2102 1.90844 25.2348 1.90844V2.90844ZM27.392 3.49013L26.8764 4.34698C27.3283 4.61887 27.6289 4.97624 27.8101 5.43859L28.7412 5.07363L29.6722 4.70867C29.3256 3.82451 28.7268 3.12621 27.9075 2.63328L27.392 3.49013ZM28.7412 5.07363L28.35 4.1533L27.7037 4.42799L28.0948 5.34832L28.486 6.26865L29.1323 5.99396L28.7412 5.07363ZM28.0948 5.34832L29.0126 4.95121C28.6906 4.20695 28.1797 3.61055 27.4904 3.19251L26.9718 4.04759L26.4533 4.90267C26.7765 5.09864 27.0144 5.36939 27.1771 5.74543L28.0948 5.34832ZM26.9718 4.04759L27.4944 3.19499C26.8181 2.7805 26.0539 2.58708 25.2348 2.58708V3.58708V4.58708C25.73 4.58708 26.1238 4.70067 26.4493 4.90019L26.9718 4.04759ZM25.2348 3.58708V2.58708C24.3501 2.58708 23.5308 2.79004 22.8454 3.26746L23.4171 4.08799L23.9887 4.90852C24.2621 4.71806 24.6546 4.58708 25.2348 4.58708V3.58708ZM23.4171 4.08799L22.8517 3.26313C22.1932 3.71448 21.717 4.34067 21.4141 5.09812L22.3425 5.46951L23.271 5.8409C23.442 5.41342 23.6822 5.11859 23.9824 4.91284L23.4171 4.08799ZM22.3425 5.46951L21.4152 5.09519C21.1229 5.81949 20.9831 6.6274 20.971 7.49963L21.9709 7.51352L22.9708 7.5274C22.9802 6.84845 23.0882 6.29369 23.2698 5.84383L22.3425 5.46951ZM21.9709 7.51352L20.971 7.52715C20.9891 8.85828 21.3058 10.0367 22.0147 10.9702L22.8111 10.3654L23.6075 9.76065C23.2284 9.26144 22.985 8.53862 22.9708 7.49988L21.9709 7.51352ZM22.8111 10.3654L22.0147 10.9702C22.7851 11.9847 23.9177 12.44 25.2348 12.44V11.44V10.44C24.4083 10.44 23.9251 10.1789 23.6075 9.76065L22.8111 10.3654ZM25.2348 11.44V12.44C26.036 12.44 26.7854 12.2528 27.4527 11.8539L26.9395 10.9956L26.4264 10.1373C26.1027 10.3308 25.7156 10.44 25.2348 10.44V11.44ZM26.9395 10.9956L27.4527 11.8539C28.1363 11.4452 28.646 10.8509 28.9864 10.1145L28.0787 9.69487L27.171 9.27527C26.9836 9.6807 26.7338 9.95354 26.4264 10.1373L26.9395 10.9956ZM28.0787 9.69487L27.6767 10.6105L28.3392 10.9014L28.7412 9.98572L29.1432 9.07007L28.4807 8.77922L28.0787 9.69487ZM28.7412 9.98572L27.8523 9.5276C27.5639 10.0871 27.2061 10.4704 26.791 10.7232L27.3112 11.5773L27.8314 12.4313C28.6012 11.9625 29.1967 11.2847 29.6301 10.4438L28.7412 9.98572ZM27.3112 11.5773L26.791 10.7232C26.3764 10.9758 25.8696 11.1186 25.2348 11.1186V12.1186V13.1186C26.1836 13.1186 27.061 12.9006 27.8314 12.4313L27.3112 11.5773ZM30.4388 11.8762H29.4388V12.8762H30.4388V11.8762ZM30.4388 0.242343V-0.757657H29.4388V0.242343H30.4388ZM31.1174 0.242343H32.1174V-0.757657H31.1174V0.242343ZM31.1174 7.35194H30.1174V9.70317L31.8111 8.07226L31.1174 7.35194ZM35.4801 3.15081V2.15081H35.0769L34.7865 2.43049L35.4801 3.15081ZM36.4981 3.15081L37.1897 3.87312L38.9885 2.15081H36.4981V3.15081ZM31.9415 7.51352L31.2499 6.79121L30.4403 7.56641L31.3025 8.28271L31.9415 7.51352ZM37.1929 11.8762V12.8762H39.9615L37.8319 11.107L37.1929 11.8762ZM36.0295 11.8762L35.3795 12.6362L35.6602 12.8762H36.0295V11.8762ZM31.1174 7.6751L31.7674 6.91514L30.1174 5.50398V7.6751H31.1174ZM31.1174 11.8762V12.8762H32.1174V11.8762H31.1174ZM30.4388 11.8762H31.4388V0.242343H30.4388H29.4388V11.8762H30.4388ZM30.4388 0.242343V1.24234H31.1174V0.242343V-0.757657H30.4388V0.242343ZM31.1174 0.242343H30.1174V7.35194H31.1174H32.1174V0.242343H31.1174ZM31.1174 7.35194L31.8111 8.07226L36.1738 3.87113L35.4801 3.15081L34.7865 2.43049L30.4238 6.63161L31.1174 7.35194ZM35.4801 3.15081V4.15081H36.4981V3.15081V2.15081H35.4801V3.15081ZM36.4981 3.15081L35.8065 2.4285L31.2499 6.79121L31.9415 7.51352L32.6331 8.23582L37.1897 3.87312L36.4981 3.15081ZM31.9415 7.51352L31.3025 8.28271L36.5539 12.6454L37.1929 11.8762L37.8319 11.107L32.5805 6.74433L31.9415 7.51352ZM37.1929 11.8762V10.8762H36.0295V11.8762V12.8762H37.1929V11.8762ZM36.0295 11.8762L36.6795 11.1163L31.7674 6.91514L31.1174 7.6751L30.4675 8.43506L35.3795 12.6362L36.0295 11.8762ZM31.1174 7.6751H30.1174V11.8762H31.1174H32.1174V7.6751H31.1174ZM31.1174 11.8762V10.8762H30.4388V11.8762V12.8762H31.1174V11.8762Z" fill="white" mask="url(#path-1-inside-1_41_1437)"/>
</svg>
