<?xml version="1.0" encoding="utf-8"?>
<!-- Generator: Adobe Illustrator 24.0.0, SVG Export Plug-In . SVG Version: 6.00 Build 0)  -->
<svg version="1.1" id="Layer_1" xmlns="http://www.w3.org/2000/svg" xmlns:xlink="http://www.w3.org/1999/xlink" x="0px" y="0px"
	 viewBox="0 0 150 75" style="enable-background:new 0 0 150 75;" xml:space="preserve">
<style type="text/css">
	.st0{fill-rule:evenodd;clip-rule:evenodd;fill:#F59930;}
	.st1{fill-rule:evenodd;clip-rule:evenodd;fill:#19BEE3;}
	.st2{fill-rule:evenodd;clip-rule:evenodd;fill:#FBD14D;}
	.st3{fill-rule:evenodd;clip-rule:evenodd;}
	.st4{fill-rule:evenodd;clip-rule:evenodd;fill:#FFFFFF;}
	.st5{fill-rule:evenodd;clip-rule:evenodd;fill:#C7D442;}
	.st6{fill-rule:evenodd;clip-rule:evenodd;fill:#A5CF51;}
</style>
<g>
	<path class="st0" d="M33.5,22.4c-1.7,0.2-3.2,1.3-3.4,2.8c-0.4,2.1,1.1,3.9,1.3,4.9c0.4,2.2-3.5,1.9-7.2,5.2
		c-0.9,0.8-2.1,2.1-2.3,3.9c-0.1,1.7,0.9,3.7,1.7,4.6c1,1.1,2.1,1.8,4.2,2c5.2,0.4,11.8-3.4,15.7-6.2c0.6-0.4,1.2-0.9,1.7-1.4
		c1.3-1.2,2.2-1.4,1.6-4.3C45.6,29.1,39.5,21.7,33.5,22.4L33.5,22.4z"/>
	<path class="st1" d="M52,15.5c-0.3-0.4-0.7-1.8-0.9-2.4c-3.8-9.4-8.9-3.6-6.8,6.4c0.8,3.8,2.1,6.6,3.7,9.8c0.7,1.4,1.7,3.2,2.7,4
		c1.9,1.4,3.6-0.5,4.3-1.6c2.9-4.5,6.1-13.9,6.6-20.3c0.1-1.9,0.1-4.3-0.8-5.8c-1.2-2-2.9,0.1-3.8,1.4C55.4,9,52.3,15.2,52,15.5
		L52,15.5z"/>
	<path class="st2" d="M71.6,27c-4.3,0.6-9.4,3.2-13.1,5.4c-1.4,0.8-2.7,1.5-3.4,2.8c-1.5,2.8,1.3,7,2.5,8.8c1.3,2,3.8,5,6.6,5.7
		c3.5,0.9,7.4-1.7,7.9-4c0.3-1.4-0.4-2.4-1.1-3.4c-0.3-0.4-0.5-0.5-0.8-0.8c-1.2-1.3-3.3-1.7-1-3c2.5-1.4,5.4-3.7,6.7-5.6
		c1-1.4,1.4-3.1,0.2-4.4c-0.3-0.4-1.2-1-1.8-1.2C73.5,26.9,72.5,26.9,71.6,27L71.6,27z"/>
	<path class="st3" d="M80.1,60v1.1c1.9,0,1.9,0.2,2-1.6c0.1-1.2,0.2-2.3,0.2-3.4l1.6,3.7h1.2c0.5-1.3,1.1-2.4,1.6-3.8
		c0.6,4.7-0.5,5.4,2.2,5.1V60c-0.4-0.2-0.4,0.2-0.6-0.3l-0.5-6.1h-1.5L84.5,58c-0.3-0.4-1.7-4.4-2.1-4.5c-0.4,0-1-0.1-1.3,0.1
		l-0.4,5.1C80.6,60.3,80.7,59.7,80.1,60L80.1,60z"/>
	<path class="st3" d="M114.4,56.8c1.8-0.8,2.5,2.5,1,3.1C113.5,60.7,112.8,57.5,114.4,56.8L114.4,56.8z M115.5,54.7
		c0.6,0,0.8-0.2,0.6,1.4c-0.9-1.1-4-0.9-4,2.2c0,1.2,0.5,2.1,1.3,2.5c1.1,0.6,2.2,0.2,2.8-0.5c0.3,0.8,0,0.7,1.9,0.7v-1.1h-0.6
		c-0.1-1,0-3,0-4.1c0-2.4,0.3-2.2-2-2.2L115.5,54.7L115.5,54.7z"/>
	<path class="st3" d="M95.2,54.5l0.6,0.2V61h1.3c0.1-0.9-0.1-2.3,0.1-3.1c0.2-0.6,1.2-1.7,2-1c0.5,0.4,0.3,2.2,0.3,2.9
		c0,0.5-0.1,1,0.4,1.2c0.3,0.1,1.3,0.1,1.6,0v-1.1l-0.6-0.1c-0.2-1.4,0.3-3.1-0.6-3.9c-0.4-0.4-1.1-0.5-1.8-0.4
		c-0.7,0.2-1,0.5-1.4,0.9c0-3.2,0.4-3-2-3L95.2,54.5L95.2,54.5z"/>
	<path class="st3" d="M126.2,58.6c0,0.6-0.2,1-0.5,1.3C124.4,60.9,122.8,58.5,126.2,58.6L126.2,58.6z M123.2,57.2
		c1.5,0,1.1,0.1,1.3-0.5c1-0.3,1.6-0.2,1.6,1c-1.6,0-3.7,0.3-3.3,2.2c0.3,1.7,2.9,1.7,3.4,0.5c0.1,0.3,0.1,0.6,0.6,0.7
		c0.3,0.1,1,0,1.4,0V60h-0.6c-0.2-1.6,0.4-3.5-1-4.1c-0.6-0.3-1.6-0.3-2.2-0.1C123.3,55.9,123.1,56.2,123.2,57.2L123.2,57.2z"/>
	<path class="st3" d="M93,58.6c-0.1,1-1.1,2.1-1.8,1.3c-0.4-0.4-0.2-0.9,0.3-1.1C91.9,58.6,92.4,58.6,93,58.6L93,58.6z M90,57.2
		c1.5,0,1.1,0.1,1.3-0.5c1-0.3,1.6-0.2,1.6,1c-1.6,0-3.7,0.3-3.3,2.2c0.3,1.7,2.8,1.7,3.4,0.5c0.4,0.8-0.1,0.7,2,0.7v-1.2h-0.6
		c-0.2-1.6,0.4-3.4-1-4.1c-0.6-0.3-1.6-0.3-2.2-0.1C90.1,55.8,89.9,56.2,90,57.2L90,57.2z"/>
	<path class="st3" d="M107.2,56.6c0-0.5,0-0.8-0.5-0.9c-0.3-0.1-1.1,0-1.4,0v1.1c0.8,0.1,0.6-0.3,0.6,1.8c0,0.8,0,1.7,0,2.4h1.3
		c0.1-0.9-0.1-2.4,0.1-3.1c0.2-0.7,1-1.6,1.9-1.1c0.6,0.3,0.4,2.1,0.4,2.9c0,1.7,0.4,1.3,2,1.3v-1.2H111c-0.2-1.3,0.3-3.1-0.6-4
		c-0.4-0.4-1.2-0.5-1.8-0.3C107.8,55.8,107.5,56.2,107.2,56.6L107.2,56.6z"/>
	<path class="st3" d="M78.6,58.9c-0.4,2.6-3.8,2.1-3.3-1.1C75.7,55.4,79,55.9,78.6,58.9L78.6,58.9z M73.8,54.1
		c0.3,0.4,0.4-0.1,0.6,0.3v6.7h0.7v-0.7c0,0,0,0,0.1,0c0,0.1,1.2,1.4,2.8,0.6c2.3-1.2,1.4-6.1-1.6-5.3c-0.6,0.2-0.8,0.5-1.2,0.8
		c0-3,0.3-2.9-1.4-2.9V54.1L73.8,54.1z"/>
	<path class="st3" d="M64.3,60.1l-0.4-0.6c-0.4,0.2-1.6,1.5-3.5,0.8c-1-0.4-1.9-1.5-1.9-2.9c-0.1-3.2,3.3-3.8,4.7-2.7
		c0.3,0.3,0.3,0.5,0.3,1h0.7c0-1.1-0.2-1.5-1.1-1.9c-2.4-1-5.1,0.2-5.4,3.1C57.4,60.5,61.1,62.7,64.3,60.1L64.3,60.1z"/>
	<path class="st4" d="M78.6,58.9c0.5-3-2.9-3.5-3.3-1.1C74.7,61,78.2,61.5,78.6,58.9L78.6,58.9z"/>
	<path class="st3" d="M67.4,56.4H68c0.3,1.3-0.3,3.5,0.5,4.4c0.6,0.6,1.9,0.6,2.8-0.1c0.3-0.3,0.3-0.4,0.6-0.7
		c0.1,1.2,0.1,1.1,1.4,1.1v-0.6c-0.9,0-0.7,0.1-0.7-2c0-0.9,0-1.8,0-2.7h-0.7c0,0.8,0.1,2.6-0.1,3.3c-0.2,0.8-1,1.6-2.1,1.4
		c-1.5-0.2-0.7-3-0.9-4.3c-0.1-0.6-0.8-0.4-1.4-0.4L67.4,56.4L67.4,56.4z"/>
	<path class="st3" d="M120.6,56.9c0-0.5,0.1-1-0.4-1.2c-0.3-0.1-1.2,0-1.6,0c0,1.3-0.1,1,0.2,1.1c0.4,0.1,0.5,0,0.5,0.5
		c0,0.4,0,0.9,0,1.3c0,0.8-0.1,1.8,0,2.5h1.3c0.2-1.9-0.5-4.2,1.9-4.1v-1.3c-0.6,0-1,0.1-1.3,0.4C121,56.2,120.7,56.6,120.6,56.9
		L120.6,56.9z"/>
	<path class="st3" d="M102.1,56.8c0.9,0.1,0.7,0,0.6,2.8c0,0.5-0.1,1.2,0.3,1.4c0.3,0.1,1.3,0.1,1.7,0v-1.1l-0.6-0.1
		c-0.1-0.9,0-2.2,0-3.1c0-1-0.1-1.3-2-1.1V56.8L102.1,56.8z"/>
	<path class="st4" d="M114.4,56.8c-1.6,0.7-0.9,3.9,1,3.1C116.9,59.3,116.2,56,114.4,56.8L114.4,56.8z"/>
	<path class="st3" d="M64.9,54.2c0.5,0,0.6-0.1,0.7,0.4v5.6c0,1,0.4,0.9,1.4,0.9v-0.6h-0.6c-0.4-1.1,0.3-5.9-0.3-6.7
		c-0.4-0.1-0.8-0.1-1.2-0.1V54.2L64.9,54.2z"/>
	<path class="st4" d="M93,58.6c-0.5,0-1.1,0-1.5,0.2c-0.5,0.2-0.7,0.7-0.3,1.1C91.9,60.7,92.9,59.7,93,58.6L93,58.6z"/>
	<path class="st4" d="M126.2,58.6c-3.4-0.1-1.8,2.3-0.5,1.3C126,59.6,126.2,59.2,126.2,58.6L126.2,58.6z"/>
	<polygon class="st3" points="102.8,54.8 104,54.8 104,53.5 102.8,53.5 	"/>
	<path class="st5" d="M45.3,54.8L45.3,54.8L45.3,54.8z"/>
	<path class="st6" d="M51.9,39.8c3.2,5.5,4.3,12.3,2.4,21c-0.7,3-1.1,4.5-3,7c-5,6.8-7.1-1.2-6.1-13c-11.3,17.3-16,2.6-6.9-7.1
		C39.7,46.2,50.2,36.9,51.9,39.8L51.9,39.8z"/>
</g>
</svg>
