<?xml version="1.0" encoding="utf-8"?>
<!-- Generator: Adobe Illustrator 24.0.0, SVG Export Plug-In . SVG Version: 6.00 Build 0)  -->
<svg version="1.1" id="Layer_1" xmlns="http://www.w3.org/2000/svg" xmlns:xlink="http://www.w3.org/1999/xlink" x="0px" y="0px"
	 viewBox="0 0 150 75" style="enable-background:new 0 0 150 75;" xml:space="preserve">
<style type="text/css">
	.st0{fill:#550044;}
</style>
<g id="XMLID_1_">
	<path id="XMLID_46_" class="st0" d="M6.8,30.9h2.7c1.8,0,3.1,0.2,3.9,0.6c0.9,0.4,1.6,1.2,2.1,2.1c0.6,1,0.8,2.1,0.8,3.4
		c0,0.9-0.1,1.8-0.4,2.6c-0.3,0.8-0.7,1.4-1.3,1.9s-1.1,0.9-1.8,1.1c-0.6,0.2-1.7,0.3-3.3,0.3H6.9L6.8,30.9L6.8,30.9L6.8,30.9z
		 M9.1,33.1v7.6h1.1c1,0,1.8-0.1,2.3-0.4c0.5-0.2,0.9-0.6,1.2-1.2c0.3-0.6,0.4-1.3,0.4-2.1c0-1.3-0.4-2.3-1.1-3
		c-0.6-0.6-1.7-1-3.1-1L9.1,33.1L9.1,33.1z"/>
	<path id="XMLID_49_" class="st0" d="M34.8,34H37v9h-2.2v-0.9c-0.4,0.4-0.9,0.7-1.3,0.9c-0.4,0.2-0.9,0.3-1.4,0.3
		c-1.2,0-2.2-0.4-3-1.3c-0.9-0.9-1.3-2-1.3-3.3c0-1.4,0.4-2.5,1.2-3.4c0.8-0.9,1.8-1.3,3-1.3c0.5,0,1,0.1,1.5,0.3s0.9,0.5,1.3,0.9
		V34L34.8,34L34.8,34z M32.4,35.9c-0.7,0-1.3,0.3-1.7,0.7c-0.4,0.5-0.7,1.1-0.7,1.9c0,0.8,0.2,1.4,0.7,1.9c0.4,0.5,1,0.7,1.7,0.7
		s1.3-0.3,1.8-0.7c0.5-0.5,0.7-1.1,0.7-1.9c0-0.8-0.2-1.4-0.7-1.9C33.7,36.1,33.1,35.9,32.4,35.9"/>
	<path id="XMLID_50_" class="st0" d="M39.1,34h2.2v1c0.5-0.4,1-0.7,1.4-0.9c0.4-0.1,0.8-0.3,1.3-0.3c0.9,0,1.6,0.3,2.2,0.9
		c0.5,0.5,0.8,1.3,0.8,2.4V43h-2.2v-3.9c0-1.1,0-1.8-0.1-2.1s-0.3-0.6-0.5-0.8s-0.5-0.3-0.9-0.3s-0.9,0.1-1.2,0.4
		c-0.3,0.3-0.6,0.7-0.7,1.3c-0.1,0.3-0.1,0.9-0.1,1.8V43h-2.2V34L39.1,34z"/>
	<path id="XMLID_53_" class="st0" d="M59.6,34h2.2v9h-2.2v-0.9c-0.4,0.4-0.9,0.7-1.3,0.9c-0.4,0.2-0.9,0.3-1.4,0.3
		c-1.2,0-2.2-0.4-3-1.3c-0.9-0.9-1.3-2-1.3-3.3c0-1.4,0.4-2.5,1.2-3.4s1.8-1.3,3-1.3c0.5,0,1,0.1,1.5,0.3s0.9,0.5,1.3,0.9V34z
		 M57.2,35.9c-0.7,0-1.3,0.3-1.7,0.7c-0.4,0.5-0.7,1.1-0.7,1.9c0,0.8,0.2,1.4,0.7,1.9c0.4,0.5,1,0.7,1.7,0.7s1.3-0.3,1.8-0.7
		c0.4-0.5,0.7-1.1,0.7-1.9c0-0.8-0.2-1.4-0.7-1.9C58.5,36.1,57.9,35.9,57.2,35.9"/>
	<path id="XMLID_54_" class="st0" d="M73.2,34h2.2v1c0.4-0.4,0.8-0.7,1.3-0.9s1-0.3,1.5-0.3c0.6,0,1.1,0.1,1.5,0.4
		c0.4,0.3,0.8,0.7,1.1,1.2c0.3-0.5,0.8-0.9,1.3-1.2s1.1-0.4,1.7-0.4s1.2,0.1,1.7,0.4s0.8,0.7,1,1.2s0.3,1.3,0.3,2.3V43h-2.2v-4.5
		c0-1-0.1-1.7-0.4-2.1c-0.3-0.4-0.6-0.5-1.1-0.5c-0.4,0-0.7,0.1-1,0.3s-0.5,0.5-0.7,0.9c-0.1,0.4-0.2,1-0.2,1.9v4h-2.3v-4.3
		c0-0.8,0-1.4-0.2-1.7c-0.1-0.4-0.3-0.6-0.5-0.8s-0.5-0.3-0.9-0.3s-0.7,0.1-1,0.3s-0.5,0.5-0.7,0.9c-0.1,0.4-0.2,1-0.2,1.9v4h-2.2
		L73.2,34L73.2,34L73.2,34z"/>
	<path id="XMLID_55_" class="st0" d="M89.8,30.4c0.4,0,0.7,0.1,1,0.4s0.4,0.6,0.4,1c0,0.4-0.1,0.7-0.4,1s-0.6,0.4-1,0.4
		s-0.7-0.1-1-0.4c-0.3-0.3-0.4-0.6-0.4-1c0-0.4,0.1-0.7,0.4-1C89,30.5,89.4,30.4,89.8,30.4"/>
	<rect id="XMLID_56_" x="88.6" y="34" class="st0" width="2.2" height="9"/>
	<path id="XMLID_59_" class="st0" d="M95.8,48.6h-2.5c0,0.1,0,0.3,0.1,0.4c0,0.1,0.1,0.2,0.2,0.3s0.2,0.1,0.3,0.2
		c0.1,0,0.3,0.1,0.4,0.1c0.2,0,0.4-0.1,0.6-0.2c0.2-0.1,0.3-0.3,0.4-0.5h0.4c-0.1,0.1-0.1,0.3-0.2,0.4c-0.1,0.2-0.3,0.3-0.5,0.4
		c-0.2,0.1-0.4,0.1-0.6,0.1c-0.4,0-0.7-0.1-1-0.4c-0.3-0.3-0.4-0.6-0.4-1c0-0.3,0.1-0.5,0.2-0.7s0.3-0.4,0.5-0.5s0.4-0.2,0.7-0.2
		c0.2,0,0.5,0.1,0.7,0.2c0.2,0.1,0.4,0.3,0.5,0.5s0.2,0.4,0.2,0.7L95.8,48.6 M95.5,48.2c0-0.1-0.1-0.3-0.1-0.4
		c0-0.1-0.1-0.2-0.2-0.3s-0.2-0.1-0.3-0.2c-0.1,0-0.3-0.1-0.4-0.1s-0.3,0-0.4,0.1c-0.1,0-0.2,0.1-0.3,0.2c-0.1,0.1-0.1,0.2-0.2,0.3
		c0,0.1-0.1,0.2-0.1,0.4H95.5L95.5,48.2z"/>
	<path id="XMLID_60_" class="st0" d="M96.2,49h0.3c0,0.1,0,0.2,0,0.3s0.1,0.1,0.2,0.2c0.1,0,0.1,0.1,0.3,0.1c0.1,0,0.3,0,0.4-0.1
		s0.1-0.2,0.1-0.3s0-0.2-0.1-0.3s-0.2-0.1-0.4-0.3c-0.2-0.1-0.3-0.1-0.4-0.1c-0.1-0.1-0.2-0.1-0.3-0.3c-0.1-0.1-0.1-0.2-0.1-0.3
		c0-0.2,0.1-0.4,0.2-0.6S96.8,47,97,47c0.1,0,0.3,0,0.4,0.1s0.2,0.2,0.3,0.3c0,0.1,0.1,0.2,0.1,0.3h-0.3c0-0.1-0.1-0.3-0.1-0.3
		c-0.1-0.1-0.1-0.1-0.3-0.1s-0.2,0-0.3,0.1c-0.1,0.1-0.1,0.2-0.1,0.3l0.1,0.2l0.1,0.1c0,0,0.1,0.1,0.3,0.1c0.2,0.1,0.3,0.1,0.4,0.2
		c0.1,0.1,0.2,0.2,0.3,0.3C98,48.7,98,48.9,98,49s0,0.3-0.1,0.4c-0.1,0.1-0.1,0.2-0.3,0.3c-0.1,0.1-0.3,0.1-0.4,0.1s-0.3,0-0.4-0.1
		s-0.2-0.1-0.3-0.2c-0.1-0.1-0.1-0.1-0.1-0.3C96.2,49.2,96.2,49.1,96.2,49"/>
	<polygon id="XMLID_61_" class="st0" points="98.6,49.8 98.6,47.4 98,47.4 98,47.1 98.6,47.1 98.6,46.1 98.9,46.1 98.9,47.1 
		99.6,47.1 99.6,47.4 98.9,47.4 98.9,49.8 	"/>
	<path id="XMLID_64_" class="st0" d="M102.5,47.1v2.7h-0.3v-0.5l0,0c-0.1,0.1-0.1,0.2-0.2,0.2c-0.1,0.1-0.2,0.1-0.4,0.2
		s-0.3,0.1-0.5,0.1c-0.3,0-0.5-0.1-0.7-0.2c-0.2-0.1-0.4-0.3-0.5-0.5s-0.2-0.4-0.2-0.7s0.1-0.5,0.2-0.7s0.3-0.4,0.5-0.5
		s0.5-0.2,0.7-0.2s0.3,0,0.5,0.1c0.1,0,0.3,0.1,0.4,0.2c0.1,0.1,0.1,0.1,0.2,0.3l0,0v-0.5L102.5,47.1z M99.9,48.4
		c0,0.2,0,0.4,0.1,0.6c0.1,0.2,0.2,0.3,0.4,0.4c0.2,0.1,0.4,0.1,0.6,0.1s0.4,0,0.6-0.1s0.3-0.2,0.4-0.4s0.1-0.4,0.1-0.6
		c0-0.2,0-0.4-0.1-0.6s-0.2-0.3-0.4-0.4c-0.2-0.1-0.3-0.1-0.6-0.1c-0.1,0-0.2,0-0.3,0c-0.1,0-0.2,0.1-0.3,0.1
		c-0.1,0-0.2,0.1-0.3,0.2c-0.1,0.1-0.1,0.2-0.2,0.3C99.9,48.1,99.9,48.3,99.9,48.4"/>
	<path id="XMLID_67_" class="st0" d="M103.1,49.8v-3.7h0.3v1.5l0,0c0.1-0.1,0.1-0.2,0.2-0.2c0.1-0.1,0.1-0.1,0.2-0.1
		s0.2-0.1,0.3-0.1c0.1,0,0.2,0,0.3,0c0.2,0,0.4,0,0.6,0.1s0.3,0.2,0.4,0.3s0.2,0.3,0.3,0.4c0.1,0.2,0.1,0.4,0.1,0.6
		c0,0.3-0.1,0.5-0.2,0.7s-0.3,0.4-0.5,0.5s-0.5,0.2-0.7,0.2s-0.3,0-0.4-0.1c-0.1,0-0.3-0.1-0.4-0.2c-0.1-0.1-0.1-0.1-0.3-0.3l0,0
		v0.5L103.1,49.8L103.1,49.8L103.1,49.8z M103.4,48.4c0,0.2,0,0.4,0.1,0.6c0.1,0.2,0.2,0.3,0.4,0.4c0.2,0.1,0.4,0.1,0.6,0.1
		s0.4,0,0.6-0.1s0.3-0.2,0.4-0.4s0.1-0.4,0.1-0.6c0-0.2,0-0.4-0.1-0.6c-0.1-0.2-0.2-0.3-0.4-0.4c-0.2-0.1-0.4-0.1-0.6-0.1
		s-0.4,0-0.6,0.1s-0.3,0.2-0.4,0.4C103.4,48,103.4,48.2,103.4,48.4"/>
	<rect id="XMLID_68_" x="106.4" y="46.1" class="st0" width="0.3" height="3.7"/>
	<path id="XMLID_71_" class="st0" d="M107.4,46.1h0.3v0.6h-0.3V46.1z M107.4,47.1h0.3v2.7h-0.3V47.1z"/>
	<path id="XMLID_72_" class="st0" d="M108.2,49h0.3c0,0.1,0,0.2,0,0.3s0.1,0.1,0.2,0.2c0.1,0,0.1,0.1,0.3,0.1c0.1,0,0.3,0,0.4-0.1
		s0.1-0.2,0.1-0.3s0-0.2-0.1-0.3s-0.2-0.1-0.4-0.3c-0.2-0.1-0.3-0.1-0.4-0.1c-0.1-0.1-0.2-0.1-0.3-0.3c-0.1-0.1-0.1-0.2-0.1-0.3
		c0-0.2,0.1-0.4,0.2-0.6s0.3-0.2,0.6-0.2c0.1,0,0.3,0,0.4,0.1s0.2,0.2,0.3,0.3c0,0.1,0.1,0.2,0.1,0.3h-0.3c0-0.1-0.1-0.3-0.1-0.3
		c-0.1-0.1-0.1-0.1-0.3-0.1s-0.2,0-0.3,0.1c-0.1,0.1-0.1,0.2-0.1,0.3l0.1,0.2l0.1,0.1c0,0,0.1,0.1,0.3,0.1c0.2,0.1,0.3,0.1,0.4,0.2
		c0.1,0.1,0.2,0.2,0.3,0.3c0.1,0.1,0.1,0.3,0.1,0.4s0,0.3-0.1,0.4c-0.1,0.1-0.1,0.2-0.3,0.3c-0.1,0.1-0.3,0.1-0.4,0.1
		s-0.3,0-0.4-0.1s-0.2-0.1-0.3-0.2c-0.1-0.1-0.1-0.1-0.1-0.3C108.2,49.2,108.2,49.1,108.2,49"/>
	<path id="XMLID_73_" class="st0" d="M110.3,49.8v-3.7h0.3v1.3l0,0c0.1-0.1,0.2-0.2,0.3-0.3c0.1-0.1,0.3-0.1,0.5-0.1s0.3,0,0.5,0.1
		s0.3,0.1,0.4,0.3c0.1,0.1,0.1,0.2,0.2,0.3c0.1,0.2,0.1,0.4,0.1,0.6v1.5h-0.3v-1.5c0-0.3-0.1-0.6-0.2-0.7c-0.1-0.2-0.4-0.3-0.6-0.3
		c-0.1,0-0.3,0-0.4,0.1s-0.2,0.1-0.3,0.2c0,0.1-0.1,0.1-0.1,0.3s0,0.2,0,0.4v1.5L110.3,49.8L110.3,49.8z"/>
	<path id="XMLID_76_" class="st0" d="M115.9,48.6h-2.5c0,0.1,0,0.3,0.1,0.4c0,0.1,0.1,0.2,0.2,0.3s0.2,0.1,0.3,0.2
		c0.1,0,0.3,0.1,0.4,0.1c0.2,0,0.4-0.1,0.6-0.2c0.2-0.1,0.3-0.3,0.4-0.5h0.4c-0.1,0.1-0.1,0.3-0.2,0.4c-0.1,0.2-0.3,0.3-0.5,0.4
		c-0.2,0.1-0.4,0.1-0.6,0.1c-0.4,0-0.7-0.1-1-0.4c-0.3-0.3-0.4-0.6-0.4-1c0-0.3,0.1-0.5,0.2-0.7s0.3-0.4,0.5-0.5s0.4-0.2,0.7-0.2
		c0.2,0,0.5,0.1,0.7,0.2s0.4,0.3,0.5,0.5s0.2,0.4,0.2,0.7L115.9,48.6 M115.5,48.2c0-0.1-0.1-0.3-0.1-0.4c0-0.1-0.1-0.2-0.2-0.3
		s-0.2-0.1-0.3-0.2c-0.1,0-0.3-0.1-0.4-0.1s-0.3,0-0.4,0.1c-0.1,0-0.2,0.1-0.3,0.2c-0.1,0.1-0.1,0.2-0.2,0.3s-0.1,0.2-0.1,0.4H115.5
		L115.5,48.2z"/>
	<path id="XMLID_79_" class="st0" d="M119.1,46.1v3.7h-0.3v-0.5l0,0c-0.1,0.1-0.1,0.2-0.2,0.3s-0.2,0.1-0.4,0.2
		c-0.1,0-0.3,0.1-0.5,0.1c-0.4,0-0.7-0.1-1-0.4c-0.3-0.3-0.4-0.6-0.4-1c0-0.3,0.1-0.5,0.2-0.7s0.3-0.4,0.5-0.5s0.4-0.2,0.7-0.2
		c0.3,0,0.5,0,0.7,0.1c0.1,0.1,0.3,0.2,0.4,0.4l0,0v-1.4L119.1,46.1L119.1,46.1z M118.8,48.4c0-0.2,0-0.4-0.1-0.5
		c-0.1-0.2-0.2-0.3-0.4-0.4c-0.2-0.1-0.4-0.1-0.6-0.1s-0.4,0-0.6,0.1s-0.3,0.2-0.4,0.4s-0.1,0.4-0.1,0.6c0,0.2,0,0.4,0.1,0.6
		s0.2,0.3,0.4,0.4c0.2,0.1,0.4,0.1,0.6,0.1s0.4,0,0.6-0.1s0.3-0.2,0.4-0.4C118.8,48.8,118.8,48.6,118.8,48.4"/>
	<polygon id="XMLID_80_" class="st0" points="121.3,49.8 121.3,46.4 120.7,46.4 120.7,46.1 121.7,46.1 121.7,49.8 	"/>
	<path id="XMLID_83_" class="st0" d="M123.5,49.8h-0.4l0.9-1.2l0,0c-0.1,0-0.2,0.1-0.3,0.1c-0.2,0-0.3,0-0.5-0.1s-0.3-0.1-0.4-0.3
		c-0.1-0.1-0.2-0.2-0.3-0.3c-0.1-0.2-0.1-0.4-0.1-0.6c0-0.2,0.1-0.4,0.1-0.6c0.1-0.2,0.3-0.4,0.4-0.5c0.2-0.1,0.4-0.1,0.6-0.1
		s0.4,0.1,0.6,0.2c0.2,0.1,0.3,0.3,0.4,0.5s0.1,0.4,0.1,0.6c0,0.1,0,0.3-0.1,0.4c-0.1,0.1-0.2,0.4-0.4,0.6L123.5,49.8z M124.4,47.3
		c0-0.1,0-0.3-0.1-0.4c-0.1-0.1-0.2-0.3-0.3-0.4c-0.1-0.1-0.3-0.1-0.4-0.1s-0.3,0-0.4,0.1s-0.3,0.2-0.3,0.3
		c-0.1,0.1-0.1,0.3-0.1,0.5s0,0.3,0.1,0.5c0.1,0.1,0.2,0.3,0.3,0.3s0.3,0.1,0.4,0.1s0.3,0,0.4-0.1c0.1,0,0.2-0.1,0.3-0.2
		c0.1-0.1,0.1-0.2,0.2-0.3C124.4,47.5,124.4,47.4,124.4,47.3"/>
	<path id="XMLID_84_" class="st0" d="M125.1,49.8v-0.3l1.3-1.2c0.2-0.2,0.3-0.3,0.4-0.4c0.1-0.1,0.1-0.2,0.2-0.3
		c0-0.1,0.1-0.2,0.1-0.3s0-0.3-0.1-0.4c-0.1-0.1-0.1-0.2-0.3-0.3c-0.1-0.1-0.3-0.1-0.4-0.1s-0.2,0-0.3,0c-0.1,0-0.1,0.1-0.2,0.1
		l-0.1,0.2c0,0.1-0.1,0.1-0.1,0.2c0,0.1,0,0.2,0,0.3h-0.4c0-0.2,0-0.3,0-0.4c0-0.1,0.1-0.3,0.2-0.4c0.1-0.1,0.2-0.2,0.4-0.3
		s0.3-0.1,0.5-0.1c0.4,0,0.7,0.1,0.9,0.4c0.2,0.2,0.3,0.4,0.3,0.7c0,0.1,0,0.2,0,0.3s-0.1,0.2-0.1,0.2l-0.1,0.2
		c-0.1,0.1-0.3,0.3-0.4,0.4l-1.2,1.1h1.8v0.3L125.1,49.8L125.1,49.8L125.1,49.8z"/>
	<polygon id="XMLID_85_" class="st0" points="128.1,49.8 129.6,46.4 127.9,46.4 127.9,46.1 130,46.1 130,46.4 128.5,49.8 	"/>
	<path id="XMLID_89_" class="st0" d="M96,36c0.7,0,1.2-0.1,1.6-0.3c0.9-0.5,1.1-1.2,1.1-2c0-1-0.6-1.7-1.1-1.9
		c-0.3-0.2-0.7-0.3-1.7-0.3h-1.8V36H96L96,36z M96.4,42.1c0.6,0,1.2-0.1,1.6-0.2c0.8-0.4,1.4-1,1.5-2.3c0-1.1-0.6-1.9-1.5-2.4
		c-0.6-0.3-1-0.3-1.9-0.3h-1.9v5.2H96.4L96.4,42.1L96.4,42.1z M95.9,30.5c1,0,1.7,0.2,2.2,0.4c1.2,0.6,1.5,1.9,1.5,2.8
		c0,0.3,0,1.7-1.3,2.6c1.9,0.8,2.1,2.7,2.1,3.2c0,1.6-0.8,2.6-2.1,3.1c-0.6,0.2-1.2,0.3-2,0.3h-3.2V30.5H95.9"/>
	<path id="XMLID_92_" class="st0" d="M102.2,38.4c0,1.9,1.3,3.8,3.9,3.8c2.2,0,3.8-1.8,3.8-3.8c0-2.2-1.6-3.8-3.8-3.8
		C103.9,34.6,102.2,36.1,102.2,38.4 M106.1,43.2c-1.5,0-2.7-0.6-3.5-1.5s-1.3-2.1-1.3-3.3s0.4-2.4,1.3-3.3c0.8-0.9,2-1.5,3.5-1.5
		c1.7,0,3.1,0.8,3.8,1.8v-1.6h0.9v8.9V43h-0.9v-1.6C109,42.5,107.7,43.2,106.1,43.2L106.1,43.2z"/>
	<path id="XMLID_93_" class="st0" d="M120.3,43v-4.8c0-1.5-0.4-2.3-1-2.8c-0.6-0.6-1.4-0.7-2.3-0.7c-2.1,0-3.2,1.2-3.2,3.2V43h-0.9
		v-9.1h0.9V35c0.7-0.9,2-1.3,3.1-1.3h0.1c1.2,0,2.1,0.3,2.8,0.9c0.9,0.8,1.3,2,1.3,3.6V43H120.3z"/>
	<path id="XMLID_94_" class="st0" d="M18.2,30.6c2.1-0.1,2.2,1.3,2.2,1.4v3c0.4-0.4,0.9-0.7,1.3-0.9s0.9-0.3,1.3-0.3
		c0.9,0,1.6,0.3,2.2,0.9c0.5,0.5,0.8,1.3,0.8,2.4V43h-2.2v-3.9c0-1,0-1.8-0.1-2.1c-0.1-0.4-0.3-0.6-0.5-0.8s-0.5-0.3-0.9-0.3
		s-0.9,0.1-1.2,0.4c-0.3,0.3-0.6,0.7-0.7,1.2c-0.1,0.3-0.1,0.9-0.1,1.8V43h-2.2L18.2,30.6"/>
	<path id="XMLID_95_" class="st0" d="M72.2,43l-3.4-4.7l3-4.2c0,0-2.2-0.4-3.1,0.7c-0.7,0.9-1.2,1.7-1.2,1.7L65.8,34h-2.6l3.1,4.3
		L62.7,43c0,0,2.2,0.4,3.1-0.7c0.5-0.7,0.4-0.5,1.6-2.2l2.1,2.9H72.2L72.2,43z"/>
	<path id="XMLID_96_" class="st0" d="M51,32c0-0.1-0.1-1.6-2.2-1.5v12.4H51V32z"/>
	<path id="XMLID_97_" class="st0" d="M126.4,38.4l3.4-4.4h-1.2l-4.4,5.8v-4v-2V32l0,0v-0.9c0-0.1,0-0.7-0.9-0.6V43h0.9v-1.8l1.6-2.2
		l3,3.9h1.2L126.4,38.4z"/>
	<path id="XMLID_98_" class="st0" d="M139.9,32.9L139.9,32.9v0.2c0.9,1.8,0.3,3.2,0,4.1v0.1c-0.2,0.7-0.3,1.4-0.3,2.1
		c0,1.4,0.3,2.8,0.7,3.8l0,0v0.1l0,0c-0.1,0.3-0.3,0.6-0.4,1.1v0.3l-1.3-3l0,0l0,0l-1.3,3.1v-0.3c-0.1-0.4-0.2-0.8-0.4-1.1l0,0
		c0.6-1.4,0.9-3.4,0.5-5.4C137.8,37.1,138.9,34.9,139.9,32.9"/>
	<path id="XMLID_106_" class="st0" d="M142.4,27c0,0,0,0-0.1,0.1s-0.3,0.1-0.3,0.1c0.1,0,0.1-0.1,0.2-0.2
		C142.3,26.9,142.4,27,142.4,27 M142.6,26.2l0.1,0.3c0,0,0.1,0.3-0.1,0.3s-0.2-0.3-0.2-0.3L142.6,26.2z M142.6,27.4l-0.1-0.2
		c0,0-0.1-0.2,0.1-0.2c0.3,0,0.1,0.2,0.1,0.2L142.6,27.4z M143.2,26.2c-0.1,0.1,0,0.4-0.1,0.5s-0.2,0.1-0.2,0.1c0.1-0.1,0-0.2,0-0.4
		C142.9,26.2,143.2,26.2,143.2,26.2 M142,26.2c0,0,0.3,0,0.3,0.2s0,0.2,0,0.4c0,0-0.1,0-0.2-0.1C142,26.6,142.1,26.3,142,26.2
		 M142.8,27c0,0,0.1,0,0.2,0.1c0.1,0.1,0.1,0.1,0.2,0.2c0,0-0.2,0.1-0.3-0.1C142.8,27,142.8,27,142.8,27"/>
	<path id="XMLID_107_" class="st0" d="M138.5,42.6l-1.1,2.5c0,0-0.9,2.5,1.1,2.5s1.1-2.5,1.1-2.5L138.5,42.6z"/>
	<path id="XMLID_108_" class="st0" d="M138.5,50.8l1-1.5c0,0,0.8-1.4-1-1.4s-1,1.4-1,1.4L138.5,50.8z"/>
	<path id="XMLID_112_" class="st0" d="M142.4,42.5c0,0-1.8-0.1-2.2,1.8c-0.1,1.4,0.3,1.8-0.3,3c0,0,1-0.1,1.5-0.8
		C142.2,45.4,141.8,42.9,142.4,42.5"/>
	<path id="XMLID_113_" class="st0" d="M134.6,42.5c0,0,1.8-0.1,2.1,1.8c0.1,1.4-0.3,1.8,0.3,3c0,0-1-0.1-1.5-0.8
		C134.8,45.4,135.2,42.9,134.6,42.5"/>
	<path id="XMLID_114_" class="st0" d="M139.7,47.8c0,0,1-0.2,1.5,0.5c0.6,0.7,0.5,1,1.2,1.3c0,0-1.2,0.6-1.9-0.6
		C139.9,47.8,139.7,47.8,139.7,47.8"/>
	<path id="XMLID_115_" class="st0" d="M137.4,47.8c0,0-1-0.2-1.5,0.5c-0.6,0.7-0.5,1-1.2,1.3c0,0,1.2,0.6,1.9-0.6
		C137.2,47.8,137.4,47.8,137.4,47.8"/>
	<path id="XMLID_116_" class="st0" d="M138.9,24.9c0.7,0.2,0.7,0.8,0.7,0.9c-0.2-0.1-0.5-0.2-0.9-0.2s-0.7,0-0.9,0.2h-0.1
		c0.1-0.7,0.7-1,0.7-1v-0.6c0.2-0.2,0.3,0,0.3,0v0.7H138.9z"/>
	<path id="XMLID_117_" class="st0" d="M138.7,25.9c0,0,0.7-0.1,0.8,0.4c0.1,0.6,0,0.6,0.5,1.1c0.5,0.6,0.2,0.9,0.1,0.9
		c-0.1,0-0.5-0.4-0.7-0.4c-0.2,0.1-0.4,0.5-0.7,0.4c-0.4,0-0.6-0.6-0.8-0.5c-0.2,0-0.5,0.3-0.6,0.4c-0.1,0-0.5-0.1-0.2-0.7
		s0.4-0.1,0.7-0.9C138.2,26.1,138.2,26,138.7,25.9"/>
	<path id="XMLID_124_" class="st0" d="M134.3,27c0,0,0,0-0.1,0.1s-0.3,0.1-0.3,0.1c0.1,0,0.1-0.1,0.2-0.2
		C134.2,26.9,134.3,27,134.3,27 M134.5,26.2l0.1,0.3c0,0,0.1,0.3-0.1,0.3s-0.1-0.3-0.1-0.3L134.5,26.2z M134.5,27.4l-0.1-0.2
		c0,0-0.1-0.2,0.1-0.2s0.1,0.2,0.1,0.2L134.5,27.4z M135,26.2c-0.1,0.1,0,0.4-0.1,0.5s-0.2,0.1-0.2,0.1c0.1-0.1,0-0.2,0-0.4
		C134.8,26.2,135,26.2,135,26.2 M133.9,26.2c0,0,0.3,0,0.3,0.2s0,0.2,0,0.4c0,0-0.1,0-0.2-0.1C133.9,26.6,134,26.3,133.9,26.2
		 M134.7,27c0,0,0.1,0,0.2,0.1s0.1,0.1,0.2,0.2c0,0-0.2,0.1-0.3-0.1C134.7,27,134.7,27,134.7,27"/>
	<path id="XMLID_125_" class="st0" d="M137.1,37.2L137.1,37.2c-0.3-0.9-0.9-2.4,0-4.1V33c0.1-0.2,0.2-0.3,0.3-0.6s-0.1-0.7-0.2-0.9
		l2.6-2.5l1.2,0.4v0.1C140.2,31.3,138,36,137.1,37.2"/>
	<path id="XMLID_128_" class="st0" d="M143.2,28.1c-0.1-0.4-0.5-0.7-0.6-0.5c0,0-0.2,0.2-0.1,0.5c0.1,0.3,0.1,0.7,0,1
		c-0.1,0.2-0.8,0.8-1.2,1l-0.1,0.1c-0.1,0.4-0.4,0.8-0.6,1.3l0.1,0.3v0.1l0,0c0.1,0,0.4-0.1,0.8-0.3v-0.1c0-0.1,0-0.2-0.1-0.4l0,0
		c0.1,0,0.3-0.1,0.4-0.2c0.4-0.4,1-1.2,1.2-2c0.1-0.4,0.1-0.4,0.1-0.4C143.2,28.5,143.2,28.3,143.2,28.1 M141.5,32
		c-0.3,0.1-0.7,0.3-0.8,0.3l0.1,0.4c0,0.1,0,0.3,0.1,0.5c0.2,0.7,0.9,1.6,1,2.1s0.1,1.1,0.3,1.3c0.1,0.1,0.4-0.6,0.4-0.9
		c0-0.3,0.2,0.1,0.3-0.1l0,0c0-0.2-0.6-0.5-0.9-1.5C141.9,33.2,141.6,32.3,141.5,32"/>
	<path id="XMLID_148_" class="st0" d="M136.2,31.9V32l0,0v0.2c0,0.1-0.1,0.2-0.1,0.2c-0.3,0.4-1.1,1.7-1.3,1.8
		c-0.3,0-0.7-0.4-0.7-0.4c-0.6-0.4-1.3,0.1-1.4,0.3c-0.1,0.2,0.3,0.2,0.7,0.3s0.8,0.4,1.5,0.1c0.6-0.3,1.3-1,1.7-1.4
		c0,0,0.1-0.1,0.1-0.2c0-0.1,0.1-0.4,0.1-0.6v-0.1C136.5,32.1,136.2,31.9,136.2,31.9 M139.3,28.8c-1.1-0.1-2.2,0.2-2.6,0.7
		c-0.1,0.1-0.2,0.5-0.3,0.9c-0.3-0.1-0.6-0.4-0.6-0.4c-0.4-0.2-1-0.8-1.2-1c-0.1-0.2,0-0.7,0-1c0.1-0.3-0.1-0.5-0.1-0.5
		c-0.1-0.1-0.5,0.1-0.6,0.5c0,0.1,0,0.3,0,0.3s0,0,0.1,0.4c0.3,0.9,0.8,1.6,1.2,2c0.1,0.1,0.4,0.3,1,0.5c0,0.1,0,0.3-0.1,0.3
		c0.1,0.1,0.7,0.3,0.7,0.3c0-0.3,0.1-0.8,0.1-0.9l0,0L139.3,28.8L139.3,28.8z"/>
</g>
</svg>
