<?xml version="1.0" encoding="utf-8"?>
<!-- Generator: Adobe Illustrator 24.0.0, SVG Export Plug-In . SVG Version: 6.00 Build 0)  -->
<svg version="1.1" id="layer" xmlns="http://www.w3.org/2000/svg" xmlns:xlink="http://www.w3.org/1999/xlink" x="0px" y="0px"
	 viewBox="0 0 150 75" style="enable-background:new 0 0 150 75;" xml:space="preserve">
<style type="text/css">
	.st0{fill:#00DE00;}
</style>
<g>
	<path d="M43.2,24.8v-9.9H30C17.6,14.9,7.4,25,7.4,37.5v22.6h9.9V45.6h16.2v-9.9H17.4c0.9-6.1,6.2-10.8,12.6-10.8L43.2,24.8
		L43.2,24.8z M83.9,24.8v-9.9H68.3c-12.4,0-22.6,10.1-22.6,22.6s10.1,22.6,22.6,22.6h15.6v-9.9H68.3c-7,0-12.7-5.7-12.7-12.7
		s5.7-12.7,12.7-12.7L83.9,24.8L83.9,24.8z M103.1,17.2l-1-0.9c-0.9-0.9-2.2-1.4-3.6-1.4c-3,0-5.4,2.4-5.4,5.4V60h9.9V30.4
		c0,0,7.6,7,9.3,8.5s3.3,2.6,5.6,2.6V30.6L103.1,17.2z"/>
	<path class="st0" d="M132.6,17.2l1-0.9c0.9-0.9,2.2-1.4,3.6-1.4c3,0,5.4,2.4,5.4,5.4V60h-9.9V30.4c0,0-7.6,7-9.3,8.5
		c-1.6,1.5-3.3,2.6-5.6,2.6V30.6L132.6,17.2z"/>
</g>
</svg>
