<?xml version="1.0" encoding="utf-8"?>
<!-- Generator: Adobe Illustrator 24.0.0, SVG Export Plug-In . SVG Version: 6.00 Build 0)  -->
<svg version="1.1"
	 id="svg8" inkscape:version="0.92.3 (2405546, 2018-03-11)" sodipodi:docname="icici.svg" xmlns:cc="http://creativecommons.org/ns#" xmlns:dc="http://purl.org/dc/elements/1.1/" xmlns:inkscape="http://www.inkscape.org/namespaces/inkscape" xmlns:rdf="http://www.w3.org/1999/02/22-rdf-syntax-ns#" xmlns:sodipodi="http://sodipodi.sourceforge.net/DTD/sodipodi-0.dtd" xmlns:svg="http://www.w3.org/2000/svg"
	 xmlns="http://www.w3.org/2000/svg" xmlns:xlink="http://www.w3.org/1999/xlink" x="0px" y="0px" viewBox="0 0 150 75"
	 style="enable-background:new 0 0 150 75;" xml:space="preserve">
<style type="text/css">
	.st0{fill:#004A7F;}
	.st1{fill:#F06321;}
	.st2{fill:#AE282E;}
	.st3{fill:#FFFFFF;}
</style>
<sodipodi:namedview  bordercolor="#666666" borderopacity="1.0" fit-margin-bottom="0.5" fit-margin-left="0.5" fit-margin-right="0.5" fit-margin-top="0.5" id="base" inkscape:current-layer="layer1" inkscape:cx="330.91744" inkscape:cy="38.906283" inkscape:document-units="px" inkscape:pageopacity="0" inkscape:pageshadow="2" inkscape:window-height="1001" inkscape:window-maximized="1" inkscape:window-width="1920" inkscape:window-x="-9" inkscape:window-y="-9" inkscape:zoom="1.4" pagecolor="#00ffff" showgrid="false" units="px">
	</sodipodi:namedview>
<g id="layer1" transform="translate(-122.10512,-47.344444)" inkscape:groupmode="layer" inkscape:label="Layer 1">
	<g id="g651" transform="matrix(0.96229857,0,0,0.96229857,4.6085251,2.3884509)">
		<path id="path150" inkscape:connector-curvature="0" class="st0" d="M155.2,96.7h4.8l3.7-13.9H159L155.2,96.7z"/>
		<path id="path152" inkscape:connector-curvature="0" class="st0" d="M179.6,96.7h4.8l3.7-13.9h-4.8L179.6,96.7z"/>
		<path id="path154" inkscape:connector-curvature="0" class="st0" d="M204.1,96.7h4.7l3.7-13.9h-4.8L204.1,96.7z"/>
		<path id="path156" inkscape:connector-curvature="0" class="st0" d="M175.2,87.6h4.8c0.7-3.1-1.4-4.7-6-4.7
			c-5.4,0-9.1,2.7-10.3,7.2c-1.1,4.2,1.1,6.7,6.2,6.7c5.1,0,8.2-1.6,9.4-5.2h-4.8c-0.7,1.6-1.9,2.4-3.6,2.4c-2.3,0-3.2-1.4-2.5-4.1
			c0.7-2.8,2.5-4.3,4.8-4.3C174.7,85.6,175.3,86.2,175.2,87.6"/>
		<path id="path158" inkscape:connector-curvature="0" class="st0" d="M199.7,87.6h4.8c0.7-3.1-1.4-4.7-6.1-4.7
			c-5.4,0-9.1,2.7-10.3,7.2c-1.1,4.2,1.1,6.7,6.2,6.7c5.1,0,8.1-1.6,9.4-5.2h-4.8c-0.7,1.6-1.9,2.4-3.6,2.4c-2.3,0-3.2-1.4-2.5-4.1
			c0.7-2.8,2.5-4.3,4.8-4.3C199.1,85.6,199.8,86.2,199.7,87.6"/>
		<path id="path160" inkscape:connector-curvature="0" class="st1" d="M136.8,75.1c6.4-6.3,14.1-7.9,17.1-3.6c3.1,4.3,0.4,13-6,19.3
			c-6.4,6.4-14.1,8-17.2,3.6C127.8,90,130.5,81.4,136.8,75.1"/>
		<path id="path162" inkscape:connector-curvature="0" class="st2" d="M141,71.7c-0.7,0.5-1.4,1.1-2.1,1.8
			c-5.6,5.5-7.9,13.1-5.1,16.9c2.8,3.8,9.7,2.4,15.4-3.2c3.1-3,5.1-6.4,6-9.7c0.2-2.4-0.1-4.5-1.2-6.1
			C151.5,68.1,146.3,68.4,141,71.7"/>
		<path id="path164" inkscape:connector-curvature="0" class="st3" d="M149.1,72.4L149.1,72.4c0,0.9-0.5,1.9-1.4,2.7
			c-1.3,1.2-2.9,1.7-3.6,1c-0.8-0.7-0.3-2.4,0.9-3.7c1.3-1.3,3-1.7,3.7-0.9C148.9,71.8,149.1,72,149.1,72.4 M144.2,93.9
			c-3,2.2-6.1,3.4-9.1,2.9c1.3,0,2.3-1.4,3.1-3.2c0.8-1.9,1.3-3.7,1.7-5.4c0.6-2.7,0.7-4.5,0.3-5c-0.5-0.7-1.6-0.5-2.9,0.2
			c-0.7,0.4-1.5,0.1-0.5-1.1s5-4.1,6.4-4.6c1.6-0.4,3.4,0.2,2.8,1.9C145.6,81,140.1,95.4,144.2,93.9"/>
		<path id="path166" inkscape:connector-curvature="0" class="st0" d="M219.7,94.5l1.1-4h2.6v-2.1h-2l0.9-3.4h1.1v-2.1h-3.6
			l-3.7,13.9h7.2v-2.2L219.7,94.5z M223.3,90.5h0.5c2.4,0,3.5,0.4,3,2.1c-0.4,1.4-1.5,2-3.6,2v2.2c2,0,3.4-0.2,4.9-1.2
			c1-0.7,1.7-1.6,2-2.8c0.5-1.9-0.3-3.2-2.5-3.5c2.1-0.4,3.4-1.5,3.8-3.1c0.4-1.3,0-2.2-0.8-2.8c-0.7-0.5-2-0.6-3.7-0.6h-3.6v2.1
			h1.8c2.2,0,3.3,0.3,2.9,1.7c-0.4,1.4-1.6,1.7-3.9,1.7h-0.8L223.3,90.5z"/>
		<path id="path168" inkscape:connector-curvature="0" class="st0" d="M236.4,87v1.7c-0.4,0.2-0.7,0.5-0.8,1h-2.8
			C233.2,88.3,234.5,87.4,236.4,87 M236.4,95.2c-0.3,0.1-0.7,0.1-1.1,0.1c-1.3,0-1.8-0.5-1.5-1.5c0.3-1.1,1.1-1.4,2.6-1.6v-1.6
			c-3.2,0.2-5,1.1-5.6,3.2c-0.5,1.9,0.7,3.2,3.2,3.2c0.8,0,1.6-0.1,2.3-0.4v-1.4H236.4z M239.1,92.3L239.1,92.3
			c-0.4,1.5-1.4,2.5-2.7,2.9v1.4c0.7-0.3,1.3-0.7,1.9-1.2l-0.2,1.4h2.8c0.1-0.7,0.3-1.4,0.5-2.2l1.1-3.9c0.1-0.3,0.1-0.7,0.1-1v-0.5
			c-0.1-1.6-1.4-2.4-4-2.4c-0.8,0-1.5,0.1-2.2,0.2v1.7c0.4-0.2,0.9-0.3,1.6-0.3c1.4,0,2,0.7,1.6,2.1v0.1h-1.5c-0.6,0-1.1,0-1.6,0
			v1.6L239.1,92.3z"/>
		<path id="path170" inkscape:connector-curvature="0" class="st0" d="M243.4,96.8h2.9l1.4-5c0.5-1.8,2.1-3,3.8-3s2.3,1,1.7,2.9
			l-1.4,5.1h2.9l1.6-5.9c0.7-2.5-0.6-4-3.4-4c-1.8,0-3.3,0.7-4.5,2l0.3-1.7h-2.8c-0.3,1.5-0.5,2.5-0.6,2.9L243.4,96.8z"/>
		<path id="path172" inkscape:connector-curvature="0" class="st0" d="M257.2,96.8h2.8l1.4-5.2l3.8,5.2h3.9l-4.3-5.6l5.8-4.2H267
			l-5.4,3.9l2.1-8.1h-2.8L257.2,96.8z"/>
	</g>
</g>
</svg>
