<?xml version="1.0" encoding="utf-8"?>
<!-- Generator: Adobe Illustrator 24.0.0, SVG Export Plug-In . SVG Version: 6.00 Build 0)  -->
<svg version="1.1" id="Layer_1" xmlns="http://www.w3.org/2000/svg" xmlns:xlink="http://www.w3.org/1999/xlink" x="0px" y="0px"
	 viewBox="0 0 150 75" style="enable-background:new 0 0 150 75;" xml:space="preserve">
<style type="text/css">
	.st0{fill:#9D1D27;}
	.st1{fill:#FEFEFE;}
</style>
<g>
	<path class="st0" d="M6,62.1h138V12.9H6V62.1z"/>
	<path class="st1" d="M16.4,23.3h28.3v28.4H16.4V23.3L16.4,23.3z M47,20.9H14V54h33V20.9L47,20.9z"/>
	<path class="st1" d="M19.5,31.9h22v-5.5h-22V31.9z M19.5,48.5H25V43h-5.5V48.5z M19.5,40.2h13.7v-5.5H19.5V40.2z"/>
	<path class="st1" d="M61,28.3v7.1h2c2.2,0,2.7-0.8,2.7-3.6c0-3-0.3-3.5-2.9-3.5C62.8,28.3,61,28.3,61,28.3z M63.3,26.4
		c3.4,0,4.6,1.5,4.6,5.4c0,3.7-1.3,5.5-4.7,5.5h-4.5V26.4H63.3L63.3,26.4z M54.4,37.3h2.2V26.4h-2.2V37.3z M69.7,26.4h7.6v1.9h-5.4
		v2.5h4.7v1.9h-4.7v4.6h-2.2V26.4z M87.7,33.7c-0.2,2.1-1.3,3.8-4.7,3.8c-3.3,0-4.9-1.6-4.9-5.6c0-3.9,1.6-5.7,4.9-5.7
		c2.7,0,4.3,1.1,4.7,3.6h-2.2c-0.3-1-0.6-1.7-2.4-1.7s-2.7,1.1-2.7,4c0,2.3,0.6,3.5,2.7,3.5c1.5,0,2.2-0.5,2.4-1.9L87.7,33.7
		L87.7,33.7z M93.7,26.4h7.6v1.9h-5.4v2.5h4.7v1.9h-4.7v4.6h-2.2V26.4z M102.7,37.3h2.2V26.4h-2.2V37.3z M109.3,28.3v2.9h2
		c1.8,0,2.4-0.2,2.4-1.5c0-1.1-0.4-1.3-2.3-1.3h-2.1V28.3z M107.1,26.4h4.7c2.3,0,4.2,0.1,4.2,3.3c0,2.1-0.9,2.9-2.1,3.2l2.8,4.4
		H114l-2.7-4.3h-2v4.3h-2.2L107.1,26.4L107.1,26.4z M119.5,33.9c0.1,1.1,0.3,1.7,2.4,1.7c1.1,0,2-0.2,2-1.3c0-0.7-0.3-1-1.3-1.3
		l-2.6-0.7c-1.3-0.4-2.5-1-2.5-3c0-1.6,0.7-3.2,4.1-3.2c3.2,0,4.2,1.5,4.2,3.4h-2.2c-0.1-0.9-0.2-1.5-2.1-1.5
		c-1.1,0-1.7,0.2-1.7,1.1c0,0.8,0.5,1,1.1,1.2l2.4,0.7c1.5,0.4,2.8,1,2.8,3.2c0,3-2.6,3.4-4.2,3.4c-3.5,0-4.5-1.4-4.6-3.7
		L119.5,33.9z M129.9,28.3h-3.3v-1.9h8.8v1.9h-3.2v8.9H130L129.9,28.3L129.9,28.3z M56.7,48.8v2.9h2c2,0,2.5-0.2,2.5-1.4
		c0-1.3-0.4-1.5-2.1-1.5H56.7z M56.7,44.5v2.4h2.5c1.3,0,1.7-0.2,1.7-1.3c0-0.9-0.2-1.1-2.1-1.1C58.8,44.5,56.7,44.5,56.7,44.5z
		 M59.7,42.6c2.1,0,3.3,0.8,3.3,2.8c0,1.7-0.8,2-1.2,2.2c1.3,0.5,1.7,1.5,1.7,2.7c0,1.8-0.8,3.1-3.8,3.1h-5.2V42.6H59.7z M69.6,49.8
		L68.1,50c-0.8,0.1-1.4,0.3-1.4,1.1c0,0.6,0.3,0.9,1.2,0.9c1.3,0,1.6-0.7,1.6-1.7L69.6,49.8L69.6,49.8z M64.9,47.9
		c0.1-2.1,1.3-2.6,3.4-2.6c2.2,0,3.4,0.6,3.4,2.3v5.8h-2v-0.6c-0.4,0.4-1.2,0.8-2.4,0.8c-1.9,0-2.6-0.8-2.6-2.2
		c0-1.8,1.1-2.4,2.3-2.6l2.6-0.4V48c0-0.8-0.4-1-1.4-1s-1.3,0.2-1.4,0.9H64.9L64.9,47.9z M78.7,48.9c0-1.2,0-1.9-1.4-1.9
		c-1.5,0-1.7,0.8-1.7,2.7v3.8h-2.1v-8h2v1c0.6-0.8,1.2-1.2,2.7-1.2c2,0,2.6,0.9,2.6,3.3v4.9h-2.1V48.9L78.7,48.9z M82.8,42.6h2.1
		v5.8l2.6-3h2.6l-2.8,3l2.9,5h-2.4l-2-3.4l-0.9,1v2.5h-2.1V42.6z"/>
</g>
</svg>
