<?xml version="1.0" encoding="utf-8"?>
<!-- Generator: Adobe Illustrator 24.0.0, SVG Export Plug-In . SVG Version: 6.00 Build 0)  -->
<svg version="1.1" id="layer" xmlns="http://www.w3.org/2000/svg" xmlns:xlink="http://www.w3.org/1999/xlink" x="0px" y="0px"
	 viewBox="0 0 150 75" style="enable-background:new 0 0 150 75;" xml:space="preserve">
<style type="text/css">
	.st0{fill:#001B94;}
</style>
<path id="Combined-Shape" class="st0" d="M138.5,33.2c0,0.6-0.5,1.1-1.1,1.1s-1.1-0.5-1.1-1.1s0.5-1.1,1.1-1.1
	C138,32.1,138.5,32.6,138.5,33.2z M135.1,29.8c0,0.6-0.5,1.1-1.1,1.1s-1.1-0.5-1.1-1.1s0.5-1.1,1.1-1.1
	C134.6,28.6,135.1,29.2,135.1,29.8z M138.5,29.8c0,0.6-0.5,1.1-1.1,1.1s-1.1-0.5-1.1-1.1s0.5-1.1,1.1-1.1
	C138,28.6,138.5,29.2,138.5,29.8z M131.7,29.8c0,0.6-0.5,1.1-1.1,1.1s-1.1-0.5-1.1-1.1s0.5-1.1,1.1-1.1
	C131.2,28.6,131.7,29.2,131.7,29.8z M140.5,26.1c0.4,0.4,0.4,1.2,0,1.6s-1.2,0.4-1.6,0c-0.4-0.4-0.4-1.2,0-1.6
	C139.3,25.7,140,25.7,140.5,26.1z M143.3,23.9c0.4,0.4,0.4,1.2,0,1.6s-1.2,0.4-1.6,0c-0.4-0.4-0.4-1.2,0-1.6
	C142.1,23.4,142.9,23.4,143.3,23.9z M127.7,29.8c0,0.6-0.5,1.1-1.1,1.1s-1.1-0.5-1.1-1.1s0.5-1.1,1.1-1.1
	C127.2,28.6,127.7,29.2,127.7,29.8z M124.3,29.8c0,0.6-0.5,1.1-1.1,1.1s-1.1-0.5-1.1-1.1s0.5-1.1,1.1-1.1
	C123.8,28.6,124.3,29.2,124.3,29.8z M137.4,35.5c0.6,0,1.1,0.5,1.1,1.1s-0.5,1.1-1.1,1.1s-1.1-0.5-1.1-1.1
	C136.2,36,136.8,35.5,137.4,35.5z M124.9,46.9c0,0.6-0.5,1.1-1.1,1.1s-1.1-0.5-1.1-1.1s0.5-1.1,1.1-1.1
	C124.4,45.8,124.9,46.3,124.9,46.9z M121.5,43.5c0,0.6-0.5,1.1-1.1,1.1s-1.1-0.5-1.1-1.1s0.5-1.1,1.1-1.1S121.5,42.9,121.5,43.5z
	 M124.9,43.5c0,0.6-0.5,1.1-1.1,1.1s-1.1-0.5-1.1-1.1s0.5-1.1,1.1-1.1S124.9,42.9,124.9,43.5z M118.1,43.5c0,0.6-0.5,1.1-1.1,1.1
	s-1.1-0.5-1.1-1.1s0.5-1.1,1.1-1.1C117.5,42.4,118.1,42.9,118.1,43.5z M123.7,49.2c0.6,0,1.1,0.5,1.1,1.1s-0.5,1.1-1.1,1.1
	s-1.1-0.5-1.1-1.1S123.1,49.2,123.7,49.2z M137.4,38.9c0.6,0,1.1,0.5,1.1,1.1s-0.5,1.1-1.1,1.1s-1.1-0.5-1.1-1.1
	C136.2,39.4,136.8,38.9,137.4,38.9z M137.4,42.9c0.6,0,1.1,0.5,1.1,1.1s-0.5,1.1-1.1,1.1s-1.1-0.5-1.1-1.1
	C136.2,43.4,136.8,42.9,137.4,42.9z M130,38.3c0,0.6-0.5,1.1-1.1,1.1s-1.1-0.5-1.1-1.1s0.5-1.1,1.1-1.1S130,37.7,130,38.3z
	 M131.9,34.7c0.4,0.4,0.4,1.2,0,1.6c-0.4,0.4-1.2,0.4-1.6,0s-0.4-1.2,0-1.6C130.8,34.3,131.5,34.3,131.9,34.7z M134.8,32.4
	c0.4,0.4,0.4,1.2,0,1.6c-0.4,0.4-1.2,0.4-1.6,0c-0.4-0.4-0.4-1.2,0-1.6C133.6,32,134.3,32,134.8,32.4z M127.4,39.8
	c0.4,0.4,0.4,1.2,0,1.6c-0.4,0.4-1.2,0.4-1.6,0s-0.4-1.2,0-1.6S126.9,39.4,127.4,39.8z M82.4,48.1c-2.7,2.2-5.8,3.4-9.3,3.4
	c-3.8,0-7.2-1.4-10-4c-2.8-2.7-4.2-6-4.2-9.9s1.4-7.2,4.2-9.9c2.8-2.7,6.1-4.1,10-4.1c2.3,0,4.3,0.4,6,1.1s3.5,2,5.2,3.7l0.1,0.1
	l-2.7,2.9l-0.2-0.1c-1.7-1.4-3-2.4-4-2.9c-1.4-0.7-2.9-1.1-4.5-1.1c-2.9,0-5.2,1-7.1,3S63,34.7,63,37.5s1,5.2,2.9,7.2s4.3,3,7.1,3
	c2.6,0,4.9-0.8,6.7-2.3c1.9-1.6,2.9-3.6,2.9-6.1h-9.3v-3.8h13.5V38C86.8,42.3,85.4,45.6,82.4,48.1z M105.6,48.7
	c-1.9,1.8-4.2,2.7-6.8,2.7c-2.6,0-4.9-0.9-6.8-2.7s-2.9-4.2-2.9-7s0.9-5.1,2.8-6.9c1.9-1.9,4.2-2.8,6.8-2.8c2.6,0,4.9,0.9,6.8,2.8
	c1.9,1.8,2.9,4.1,2.9,6.9C108.5,44.5,107.5,46.8,105.6,48.7z M102.9,37.3c-1.1-1.1-2.4-1.7-4.1-1.7s-3.1,0.6-4.2,1.7
	c-1.1,1.1-1.6,2.6-1.6,4.4c0,1.8,0.5,3.3,1.6,4.4c1.1,1.1,2.4,1.7,4.1,1.7s3.1-0.6,4.1-1.7s1.6-2.6,1.6-4.4
	C104.5,39.9,104,38.4,102.9,37.3z M56.1,30.1c-0.4,0.4-0.9,0.6-1.6,0.6c-0.7,0-1.2-0.2-1.6-0.6c-0.4-0.5-0.6-1-0.6-1.6
	s0.2-1.1,0.6-1.6c0.4-0.4,1-0.6,1.6-0.6c0.7,0,1.2,0.2,1.6,0.7c0.4,0.4,0.6,0.9,0.6,1.5C56.7,29.1,56.5,29.7,56.1,30.1z M52.5,51
	V32.4h3.8V51H52.5z M47.3,48.6c-1.8,1.9-4,2.8-6.8,2.8c-2.9,0-5.3-1-7.1-3c-1.7-1.9-2.5-4.3-2.5-7.1c0-2.6,0.9-4.8,2.6-6.5
	c1.8-1.8,3.9-2.7,6.4-2.7c1.9,0,3.7,0.4,5.3,1.3l0.1,0.1v4.1L45,37.4c-0.6-0.4-1.4-0.8-2.2-1.1s-1.6-0.5-2.3-0.5
	c-1.8,0-3.2,0.5-4.2,1.6c-1.1,1.1-1.6,2.6-1.6,4.4c0,1.8,0.5,3.3,1.6,4.4c1.1,1.1,2.5,1.7,4.3,1.7c1.6,0,3-0.6,4-1.8s1.6-3,1.6-5.4
	V24H50v17.2C50,44.2,49.1,46.7,47.3,48.6z M24.8,51V40.2c0-1.3-0.4-2.4-1.2-3.2c-0.8-0.9-1.8-1.3-3-1.3c-1.1,0-2.1,0.4-3,1.3
	c-0.8,0.8-1.2,1.9-1.2,3.2V51h-3.8V40.2c0-2.4,0.8-4.4,2.2-5.9c1.5-1.5,3.4-2.3,5.7-2.3s4.2,0.8,5.7,2.3s2.3,3.5,2.3,5.9V51H24.8z
	 M6.4,51V24h4v27H6.4L6.4,51z"/>
</svg>
