<svg width="25" height="25" viewBox="0 0 25 25" fill="none" xmlns="http://www.w3.org/2000/svg">
<path d="M17.541 2.70264H7.54102C4.77959 2.70264 2.54102 4.94121 2.54102 7.70264V17.7026C2.54102 20.4641 4.77959 22.7026 7.54102 22.7026H17.541C20.3024 22.7026 22.541 20.4641 22.541 17.7026V7.70264C22.541 4.94121 20.3024 2.70264 17.541 2.70264Z" stroke="black" stroke-width="2" stroke-linecap="round" stroke-linejoin="round"/>
<path d="M16.5407 12.0724C16.6641 12.9047 16.522 13.7547 16.1345 14.5015C15.747 15.2483 15.1339 15.8539 14.3823 16.2321C13.6308 16.6104 12.7792 16.742 11.9485 16.6084C11.1178 16.4747 10.3505 16.0825 9.75556 15.4876C9.16064 14.8927 8.76845 14.1253 8.63479 13.2947C8.50113 12.464 8.63279 11.6123 9.01105 10.8608C9.38931 10.1093 9.99491 9.49619 10.7417 9.10869C11.4885 8.72119 12.3385 8.57904 13.1707 8.70245C14.0196 8.82833 14.8056 9.22391 15.4124 9.83076C16.0193 10.4376 16.4148 11.2235 16.5407 12.0724Z" stroke="black" stroke-width="2" stroke-linecap="round" stroke-linejoin="round"/>
<path d="M18.041 7.20264H18.051" stroke="black" stroke-width="2" stroke-linecap="round" stroke-linejoin="round"/>
</svg>
