<?xml version="1.0" encoding="utf-8"?>
<!-- Generator: Adobe Illustrator 24.0.0, SVG Export Plug-In . SVG Version: 6.00 Build 0)  -->
<svg version="1.1" id="Layer_1" xmlns="http://www.w3.org/2000/svg" xmlns:xlink="http://www.w3.org/1999/xlink" x="0px" y="0px"
	 viewBox="0 0 150 75" style="enable-background:new 0 0 150 75;" xml:space="preserve">
<style type="text/css">
	.st0{fill:#FEFEFE;}
	.st1{fill:#EE3F44;}
</style>
<g>
	<path class="st0" d="M75,50.2c-22.6,0-45.3,0-67.9,0c-0.3,0-0.3-0.1-0.3-0.3c0-8.3,0-16.6,0-24.8c0-0.3,0-0.3,0.3-0.3
		c45.3,0,90.6,0,135.9,0c0.3,0,0.3,0,0.3,0.3c0,8.3,0,16.6,0,24.8c0,0.3-0.1,0.3-0.3,0.3C120.3,50.2,97.6,50.2,75,50.2z"/>
	<path class="st1" d="M74.2,35c2.3-2.8,8.1-2.9,10.1,0.4c0.3-0.3,0.6-0.7,1-0.9c1.7-1.3,3.5-1.7,5.6-1.5c1.3,0.1,2.4,0.5,3.4,1.3
		c1.2,1,1.7,2.4,1.9,4c0.1,0.8,0.1,1.7,0.1,2.5c0,2.4,0,4.8,0,7.2c0,0.3-0.1,0.4-0.4,0.4c-0.9,0-1.9,0-2.8,0c-0.3,0-0.3-0.1-0.3-0.4
		c0-2.6,0-5.1,0-7.7c0-0.6,0-1.1-0.2-1.7c-0.4-1.7-1.6-2.6-3.4-2.5c-2.1,0.1-3.6,1.5-3.7,3.7c-0.1,1.2,0,2.5-0.1,3.7
		c0,1.5,0,3,0,4.6c0,0.3-0.1,0.4-0.4,0.3c-1,0-1.9,0-2.9,0c-0.3,0-0.4-0.1-0.3-0.3c0-2.6,0-5.2,0-7.8c0-0.5,0-1.1-0.2-1.6
		c-0.4-1.7-1.7-2.6-3.4-2.5c-2.2,0.1-3.7,1.6-3.8,3.9c-0.1,2.6,0,5.2,0,7.9c0,0.6,0.1,0.5-0.5,0.5c-0.9,0-1.8,0-2.8,0
		c-0.2,0-0.3-0.1-0.3-0.3c0-4.9,0-9.8,0-14.6c0-0.2,0.1-0.3,0.3-0.3c0.9,0,1.9,0,2.8,0c0.3,0,0.3,0.1,0.3,0.3
		C74.2,33.9,74.2,34.4,74.2,35z"/>
	<path d="M50.4,48.6c-2.2,0-4.3-0.6-6-2.1c-1.6-1.4-2.3-3.2-2.4-5.2c-0.1-1.9,0.3-3.7,1.5-5.2c1.6-2.2,3.9-3.1,6.6-3.1
		c2.5,0.1,4.7,1,6.2,3.1c0.9,1.3,1.3,2.7,1.3,4.2c0,0.2-0.1,0.3-0.3,0.3c-2.3,0.4-4.6,0.9-7,1.4c-1.4,0.3-2.8,0.6-4.2,0.8
		c-0.3,0.1-0.2,0.2-0.1,0.3c0.6,1.3,1.7,2,3.1,2.3c2,0.4,3.8,0.1,5.4-1.4c0.1-0.1,0.2-0.1,0.3,0c0.5,0.6,1.1,1.3,1.6,1.9
		c0.2,0.2,0.1,0.3,0,0.4c-0.9,1-2,1.6-3.3,2C52.2,48.5,51.3,48.6,50.4,48.6z"/>
	<path class="st1" d="M120.5,48.5c-2.3,0-4.3-0.6-6-2.1c-1.5-1.4-2.3-3.2-2.4-5.2c-0.1-2.2,0.5-4.1,2-5.8c1.2-1.4,2.8-2.1,4.7-2.4
		c2-0.3,3.9,0,5.6,1.1c2.3,1.4,3.3,3.6,3.4,6.2c0,0.3-0.1,0.3-0.3,0.3c-1.8,0.3-3.6,0.7-5.4,1c-1.9,0.4-3.8,0.7-5.7,1.1
		c-0.2,0-0.3,0.1-0.2,0.3c0.6,1.3,1.7,2,3.1,2.3c2,0.4,3.8,0.1,5.4-1.4c0.2-0.1,0.2-0.1,0.3,0c0.5,0.6,1,1.2,1.5,1.8
		c0.2,0.2,0.2,0.3,0,0.5c-1,1.1-2.2,1.7-3.7,2C122,48.5,121.3,48.6,120.5,48.5z"/>
	<path d="M18.6,35c0.7-0.8,1.6-1.4,2.5-1.7c1.8-0.6,3.6-0.6,5.4,0c2.2,0.8,3.3,2.5,3.6,4.7c0.1,0.6,0.1,1.2,0.1,1.8
		c0,2.7,0,5.4,0,8.1c0,0.3-0.1,0.4-0.4,0.4c-1,0-1.9,0-2.9,0c-0.3,0-0.3-0.1-0.3-0.4c0-2.6,0-5.3,0-7.9c0-0.5-0.1-1-0.2-1.5
		c-0.3-1.4-1.2-2.2-2.6-2.4s-2.7,0-3.8,0.9c-0.9,0.8-1.3,2-1.3,3.2c0,2.6,0,5.1,0,7.7c0,0.3-0.1,0.4-0.4,0.4c-1,0-1.9,0-2.9,0
		c-0.2,0-0.3,0-0.3-0.3c0-4.9,0-9.7,0-14.6c0-0.3,0.1-0.3,0.3-0.3c0.9,0,1.9,0,2.8,0c0.2,0,0.3,0.1,0.3,0.3
		C18.6,33.9,18.6,34.4,18.6,35z"/>
	<path class="st1" d="M135.2,48.6c-2.1,0-4.2-0.4-6.1-1.5c-0.3-0.2-0.4-0.3-0.2-0.6c0.4-0.7,0.7-1.4,1-2.1c0.1-0.2,0.2-0.2,0.4-0.1
		c2.1,1.2,4.4,1.6,6.8,1.2c0.4-0.1,0.7-0.2,1-0.5c0.7-0.6,0.5-1.7-0.4-2.1c-0.9-0.4-1.9-0.5-2.9-0.7s-1.9-0.3-2.8-0.6
		c-1.5-0.5-2.6-1.4-2.8-3c-0.3-1.8,0.3-3.3,1.8-4.4c1-0.7,2-1,3.2-1.1c2.3-0.3,4.5,0,6.6,0.8c0.8,0.3,0.8,0.3,0.4,1
		c-0.3,0.6-0.6,1.2-0.9,1.7c-0.1,0.2-0.2,0.3-0.5,0.2c-1.7-0.9-3.5-1.2-5.4-0.9c-0.5,0.1-1,0.3-1.4,0.6c-0.7,0.7-0.6,1.7,0.3,2.1
		c0.8,0.4,1.6,0.5,2.4,0.7c1.1,0.2,2.3,0.4,3.4,0.7c0.4,0.1,0.7,0.3,1.1,0.5c2.4,1.3,2.2,4.8,0.6,6.2c-1,0.9-2.2,1.4-3.6,1.6
		C136.7,48.5,135.9,48.6,135.2,48.6z"/>
	<path d="M40.8,45c0.3,0.8,0.6,1.6,0.9,2.3c0.1,0.2,0,0.3-0.1,0.4c-0.7,0.5-1.5,0.7-2.4,0.8c-1.1,0.1-2.1,0.1-3.1-0.3
		c-1.8-0.6-2.7-1.9-2.9-3.7c-0.1-0.5-0.1-1-0.1-1.4c0-5.5,0-11,0-16.5c0-0.3,0.1-0.4,0.4-0.4c1,0,1.9,0,2.9,0c0.3,0,0.3,0.1,0.3,0.3
		c0,2,0,4,0,6.1c0,0.3,0.1,0.4,0.4,0.4c1.1,0,2.3,0,3.4,0c0.2,0,0.3,0.1,0.3,0.3c0,0.8,0,1.5,0,2.3c0,0.2-0.1,0.3-0.3,0.3
		c-1.2,0-2.3,0-3.5,0c-0.3,0-0.3,0.1-0.3,0.3c0,2.4,0,4.9,0,7.3c0,1.5,0.8,2.2,2.2,2.2C39.5,45.6,40,45.4,40.8,45z"/>
	<path class="st1" d="M106.2,37.3c0-3.6,0-7.1,0-10.7c0-0.3,0.1-0.5,0.4-0.5c1,0,1.9,0,2.9,0c0.2,0,0.3,0.1,0.3,0.3
		c0,0.1,0,0.1,0,0.2c0,7.1,0,14.2,0,21.3c0,0.4-0.1,0.5-0.5,0.5c-0.9,0-1.8,0-2.8,0c-0.3,0-0.4-0.1-0.4-0.4
		C106.2,44.4,106.2,40.8,106.2,37.3z"/>
	<path d="M63.3,35.2c0.6-0.8,1.4-1.3,2.3-1.7s1.9-0.5,2.9-0.5c0.2,0,0.2,0,0.2,0.2c0,1,0,2,0,2.9c0,0.3-0.2,0.2-0.3,0.2
		c-0.7-0.1-1.5,0-2.2,0.2c-1.5,0.5-2.4,1.6-2.6,3.1c-0.1,0.5-0.1,0.9-0.1,1.4c0,2.3,0,4.6,0,7c0,0.3-0.1,0.4-0.4,0.4c-1,0-2,0-3,0
		c-0.2,0-0.3-0.1-0.3-0.3c0-4.9,0-9.8,0-14.7c0-0.2,0.1-0.3,0.3-0.3c0.9,0,1.9,0,2.8,0c0.3,0,0.3,0.1,0.3,0.3
		C63.3,34,63.3,34.6,63.3,35.2z"/>
	<path d="M8.3,40.7c0-2.4,0-4.8,0-7.2c0-0.3,0.1-0.4,0.4-0.4c1,0,1.9,0,2.9,0c0.2,0,0.3,0.1,0.3,0.3c0,4.9,0,9.8,0,14.6
		c0,0.2-0.1,0.3-0.3,0.3c-1,0-2,0-2.9,0c-0.3,0-0.3-0.1-0.3-0.3C8.3,45.6,8.3,43.1,8.3,40.7z"/>
	<path class="st1" d="M103.1,40.8c0,2.4,0,4.8,0,7.2c0,0.3-0.1,0.4-0.4,0.4c-1,0-1.9,0-2.9,0c-0.2,0-0.3-0.1-0.3-0.3
		c0-4.9,0-9.8,0-14.6c0-0.2,0-0.3,0.3-0.3c1,0,2,0,3.1,0c0.3,0,0.3,0.2,0.3,0.3C103.1,35.9,103.1,38.3,103.1,40.8z"/>
	<path class="st1" d="M21,29.7c-1.8,0-3.7,0-5.5,0c-0.3,0-0.4-0.1-0.4-0.3c0-1,0-1.9,0-2.9c0-0.3,0-0.4,0.3-0.4c3.7,0,7.4,0,11.1,0
		c0.3,0,0.3,0.1,0.3,0.3c0,1,0,1.9,0,2.9c0,0.3-0.1,0.3-0.4,0.3C24.7,29.7,22.9,29.7,21,29.7z"/>
	<path class="st1" d="M10.1,29.9c-1.1,0-2-0.9-2-2S9,26,10.1,26s2,0.8,2,1.9C12.1,29.1,11.2,29.9,10.1,29.9z"/>
	<path class="st1" d="M103.2,28c0,1.1-0.9,2-2,2s-2-0.9-2-2s0.9-1.9,2-1.9C102.4,26,103.2,26.9,103.2,28z"/>
	<path class="st0" d="M45.5,40.2c0.1-1.9,0.8-3.4,2.6-4.1c2.2-0.9,5-0.1,5.9,2.4c0.1,0.3,0,0.4-0.2,0.4c-2.6,0.5-5.3,1-7.9,1.5
		C45.6,40.6,45.5,40.5,45.5,40.2z"/>
	<path class="st0" d="M119.8,35.8c2.1,0,3.7,1.1,4.2,2.8c0.1,0.3,0,0.3-0.2,0.4c-2.6,0.5-5.3,1-7.9,1.5c-0.3,0.1-0.4,0-0.3-0.3
		c0.1-1.8,0.9-3.3,2.6-4.1C118.7,35.9,119.3,35.8,119.8,35.8z"/>
</g>
</svg>
