<svg width="25" height="25" viewBox="0 0 25 25" fill="none" xmlns="http://www.w3.org/2000/svg">
<path d="M16.541 8.70264C18.1323 8.70264 19.6584 9.33478 20.7837 10.46C21.9089 11.5852 22.541 13.1113 22.541 14.7026V21.7026H18.541V14.7026C18.541 14.1722 18.3303 13.6635 17.9552 13.2884C17.5802 12.9134 17.0714 12.7026 16.541 12.7026C16.0106 12.7026 15.5019 12.9134 15.1268 13.2884C14.7517 13.6635 14.541 14.1722 14.541 14.7026V21.7026H10.541V14.7026C10.541 13.1113 11.1732 11.5852 12.2984 10.46C13.4236 9.33478 14.9497 8.70264 16.541 8.70264Z" stroke="black" stroke-width="2" stroke-linecap="round" stroke-linejoin="round"/>
<path d="M6.54102 9.70264H2.54102V21.7026H6.54102V9.70264Z" stroke="black" stroke-width="2" stroke-linecap="round" stroke-linejoin="round"/>
<path d="M4.54102 6.70264C5.64559 6.70264 6.54102 5.80721 6.54102 4.70264C6.54102 3.59807 5.64559 2.70264 4.54102 2.70264C3.43645 2.70264 2.54102 3.59807 2.54102 4.70264C2.54102 5.80721 3.43645 6.70264 4.54102 6.70264Z" stroke="black" stroke-width="2" stroke-linecap="round" stroke-linejoin="round"/>
</svg>
