<?xml version="1.0" encoding="utf-8"?>
<!-- Generator: Adobe Illustrator 24.0.0, SVG Export Plug-In . SVG Version: 6.00 Build 0)  -->
<svg version="1.1"
	 id="svg3409" inkscape:version="0.91 r13725" sodipodi:docname="MasterCard 2016.svg" xmlns:cc="http://creativecommons.org/ns#" xmlns:dc="http://purl.org/dc/elements/1.1/" xmlns:inkscape="http://www.inkscape.org/namespaces/inkscape" xmlns:rdf="http://www.w3.org/1999/02/22-rdf-syntax-ns#" xmlns:sodipodi="http://sodipodi.sourceforge.net/DTD/sodipodi-0.dtd" xmlns:svg="http://www.w3.org/2000/svg"
	 xmlns="http://www.w3.org/2000/svg" xmlns:xlink="http://www.w3.org/1999/xlink" x="0px" y="0px" viewBox="0 0 150 75"
	 style="enable-background:new 0 0 150 75;" xml:space="preserve">
<style type="text/css">
	.st0{fill:#FF5A00;}
	.st1{fill:#EB001B;}
	.st2{fill:#F79E1B;}
</style>
<g>
	<path id="XMLID_1775_" inkscape:connector-curvature="0" d="M50.3,67.4v-4c0-1.5-0.9-2.5-2.5-2.5c-0.8,0-1.7,0.3-2.3,1.1
		c-0.5-0.7-1.1-1.1-2.1-1.1c-0.7,0-1.3,0.2-1.9,0.9V61h-1.4v6.4h1.4v-3.5c0-1.1,0.6-1.7,1.5-1.7s1.4,0.6,1.4,1.7v3.5h1.4v-3.5
		c0-1.1,0.7-1.7,1.5-1.7c0.9,0,1.4,0.6,1.4,1.7v3.5H50.3L50.3,67.4z M71,61.1h-2.3v-1.9h-1.4v1.9H66v1.3h1.3v2.9
		c0,1.5,0.6,2.3,2.2,2.3c0.6,0,1.3-0.2,1.7-0.5l-0.4-1.2c-0.4,0.3-0.9,0.3-1.2,0.3c-0.7,0-0.9-0.4-0.9-1.1v-2.9H71V61.1L71,61.1z
		 M82.9,60.9c-0.8,0-1.3,0.4-1.7,0.9V61h-1.4v6.4h1.4v-3.6c0-1.1,0.5-1.7,1.3-1.7c0.3,0,0.6,0.1,0.9,0.1l0.4-1.3
		C83.5,60.9,83.1,60.9,82.9,60.9L82.9,60.9z M65,61.6c-0.7-0.5-1.6-0.7-2.6-0.7c-1.6,0-2.7,0.8-2.7,2.1c0,1.1,0.8,1.7,2.2,1.9
		l0.7,0.1c0.7,0.1,1.1,0.3,1.1,0.7c0,0.5-0.5,0.8-1.5,0.8s-1.7-0.3-2.1-0.7l-0.7,1.1c0.7,0.5,1.7,0.8,2.7,0.8c1.9,0,2.9-0.9,2.9-2.1
		c0-1.1-0.9-1.7-2.2-1.9l-0.7-0.1C61.5,63.5,61,63.4,61,63c0-0.5,0.5-0.7,1.2-0.7c0.8,0,1.6,0.3,2,0.5L65,61.6L65,61.6z M102.1,60.9
		c-0.8,0-1.3,0.4-1.7,0.9V61H99v6.4h1.4v-3.6c0-1.1,0.5-1.7,1.3-1.7c0.3,0,0.6,0.1,0.9,0.1L103,61C102.7,60.9,102.4,60.9,102.1,60.9
		L102.1,60.9z M84.2,64.3c0,1.9,1.3,3.3,3.4,3.3c0.9,0,1.6-0.2,2.3-0.7l-0.7-1.1c-0.5,0.4-1.1,0.6-1.7,0.6c-1.1,0-1.9-0.8-1.9-2.1
		c0-1.2,0.8-2,1.9-2.1c0.6,0,1.1,0.2,1.7,0.6l0.7-1.1c-0.7-0.5-1.3-0.7-2.3-0.7C85.6,60.9,84.2,62.3,84.2,64.3L84.2,64.3L84.2,64.3z
		 M97.2,64.3v-3.2h-1.4v0.8c-0.5-0.6-1.1-0.9-2-0.9c-1.8,0-3.2,1.4-3.2,3.3s1.4,3.3,3.2,3.3c0.9,0,1.6-0.3,2-0.9v0.8h1.4V64.3
		L97.2,64.3z M92,64.3c0-1.1,0.7-2.1,1.9-2.1c1.1,0,1.9,0.9,1.9,2.1c0,1.1-0.8,2.1-1.9,2.1C92.8,66.2,92,65.4,92,64.3L92,64.3z
		 M75.3,60.9c-1.9,0-3.2,1.3-3.2,3.3c0,2,1.3,3.3,3.3,3.3c0.9,0,1.9-0.3,2.6-0.9l-0.7-1c-0.5,0.4-1.2,0.7-1.9,0.7
		c-0.9,0-1.7-0.4-1.9-1.5h4.7c0-0.2,0-0.3,0-0.5C78.3,62.3,77.1,60.9,75.3,60.9L75.3,60.9L75.3,60.9z M75.3,62.1
		c0.9,0,1.5,0.5,1.6,1.5h-3.3C73.7,62.8,74.3,62.1,75.3,62.1L75.3,62.1z M110,64.3v-5.7h-1.4v3.3c-0.5-0.6-1.1-0.9-2-0.9
		c-1.8,0-3.2,1.4-3.2,3.3s1.4,3.3,3.2,3.3c0.9,0,1.6-0.3,2-0.9v0.8h1.4V64.3L110,64.3z M104.9,64.3c0-1.1,0.7-2.1,1.9-2.1
		c1.1,0,1.9,0.9,1.9,2.1c0,1.1-0.8,2.1-1.9,2.1C105.6,66.2,104.9,65.4,104.9,64.3L104.9,64.3z M58.2,64.3v-3.2h-1.4v0.8
		c-0.5-0.6-1.1-0.9-2-0.9c-1.8,0-3.2,1.4-3.2,3.3s1.4,3.3,3.2,3.3c0.9,0,1.6-0.3,2-0.9v0.8h1.4V64.3L58.2,64.3z M53,64.3
		c0-1.1,0.7-2.1,1.9-2.1c1.1,0,1.9,0.9,1.9,2.1c0,1.1-0.8,2.1-1.9,2.1C53.7,66.2,53,65.4,53,64.3z"/>
	<g>
		<rect id="rect19" x="64.5" y="12.5" class="st0" width="21" height="37.7"/>
		<path id="XMLID_330_" inkscape:connector-curvature="0" class="st1" d="M65.9,31.4c0-7.7,3.6-14.4,9.1-18.8
			c-4.1-3.2-9.2-5.1-14.8-5.1c-13.2,0-24,10.7-24,24s10.7,24,24,24c5.6,0,10.7-1.9,14.8-5.1C69.5,45.9,65.9,39,65.9,31.4z"/>
		<path id="path22" inkscape:connector-curvature="0" class="st2" d="M113.7,31.4c0,13.2-10.7,24-24,24c-5.6,0-10.7-1.9-14.8-5.1
			c5.6-4.4,9.1-11.2,9.1-18.8s-3.5-14.6-9-19c4.1-3.2,9.2-5.1,14.8-5.1C103,7.4,113.7,18.2,113.7,31.4z"/>
	</g>
</g>
</svg>
