<?xml version="1.0" encoding="utf-8"?>
<!-- Generator: Adobe Illustrator 24.0.0, SVG Export Plug-In . SVG Version: 6.00 Build 0)  -->
<svg version="1.1" id="Layer_1" xmlns="http://www.w3.org/2000/svg" xmlns:xlink="http://www.w3.org/1999/xlink" x="0px" y="0px"
	 viewBox="0 0 150 75" style="enable-background:new 0 0 150 75;" xml:space="preserve">
<style type="text/css">
	.st0{fill:#46175B;}
</style>
<g>
	<path class="st0" d="M137,33.5c-0.1,0.3-0.1,0.6-0.1,1c-0.1,0.4-0.2,0.5-0.7,0.5c-1.7,0-3.4,0-5.1,0c-2.2,0-4.3,0-6.5,0
		c-0.6,0-0.6,0.1-0.3,0.6c0.7,1.3,2,1.7,3.3,1.8c1.4,0.1,2.8-0.1,3.9-1.2c0.2-0.2,0.3-0.1,0.5,0c1.2,0.7,2.4,1.4,3.6,2.1
		c0.4,0.2,0.3,0.4,0.1,0.6c-1.3,1.6-3,2.6-5,3c-2.9,0.6-5.7,0.3-8.3-1.3c-2.5-1.6-3.9-4-4.2-6.9c-0.2-1.7,0.1-3.4,0.8-5
		c1.3-3,3.7-4.7,6.8-5.3c2.5-0.5,4.8-0.1,6.9,1.3c2.4,1.6,3.7,3.9,4.1,6.8c0,0.2,0,0.3,0.1,0.5C137,32.5,137,33,137,33.5z
		 M127.7,30.9c1.1,0,2.2,0,3.4,0c0.4,0,0.5-0.1,0.3-0.5s-0.4-0.8-0.7-1.1c-0.9-1-2-1.3-3.3-1.2c-1.6,0.1-2.7,0.8-3.4,2.3
		c-0.2,0.4-0.1,0.5,0.4,0.5C125.5,30.9,126.6,30.9,127.7,30.9z"/>
	<path class="st0" d="M137,57c-0.3,1.4-1.2,2.1-2.6,2.2c-1.5,0.2-2.9-0.1-3.8-1.5c-0.4-0.5-0.3-0.6,0.2-0.9c0,0,0.1,0,0.1-0.1
		c0.2-0.1,0.5-0.3,0.7-0.4c0.3,0,0.4,0.4,0.5,0.6c0.6,0.6,1.6,0.8,2.3,0.5c0.3-0.1,0.6-0.3,0.6-0.7s-0.2-0.7-0.5-0.8
		c-0.4-0.2-0.9-0.3-1.3-0.5c-0.5-0.1-0.9-0.3-1.3-0.5c-1-0.5-1.5-1.3-1.4-2.4c0.1-1,0.7-1.7,1.6-2.1c1.5-0.6,3.2-0.1,4.2,1.3
		c0.2,0.3,0.3,0.5-0.1,0.7c-0.1,0-0.2,0.1-0.2,0.1c-0.2,0.1-0.5,0.3-0.7,0.4c-0.3,0-0.3-0.4-0.5-0.5c-0.5-0.4-1.1-0.6-1.7-0.4
		c-0.3,0.1-0.5,0.3-0.6,0.6c0,0.4,0.1,0.6,0.4,0.8c0.4,0.3,0.9,0.4,1.4,0.5c0.5,0.2,1,0.3,1.5,0.6c0.7,0.4,1.1,1,1.2,1.8
		C137,56.5,137,56.7,137,57z"/>
	<path class="st0" d="M114.5,15.8c0.6,0.2,1.2,0.4,1.7,0.8c1.1,1,1.4,2.5,0.7,3.9c-0.6,1.3-2.1,2-3.5,1.7s-2.5-1.5-2.6-2.9
		c-0.1-1.5,0.8-2.8,2.2-3.4c0.2-0.1,0.4-0.1,0.5-0.2C113.8,15.8,114.1,15.8,114.5,15.8z"/>
	<path class="st0" d="M64.5,27.7c1.9,0,3.8,0,5.7,0c0.6,0,0.6,0,0.6,0.6c0,1.9,0,3.8-0.5,5.6c-1.3,4.1-4.1,6.7-8.2,7.8
		c-4.1,1-8,0.5-11.6-1.9c-3.4-2.3-5.2-5.5-5.6-9.5c-0.3-3.4,0.6-6.5,2.7-9.2c2.2-2.9,5.2-4.5,8.9-4.9c3.7-0.4,7,0.5,9.9,2.7
		c0.9,0.7,1.7,1.6,2.4,2.5c0.2,0.3,0.2,0.5-0.1,0.7c-1.4,0.8-2.7,1.5-4.1,2.3c-0.2,0.1-0.4,0.2-0.7-0.1c-1.1-1.5-2.7-2.2-4.4-2.5
		c-2.4-0.4-4.5,0.1-6.4,1.7c-1.3,1.1-2,2.5-2.3,4.1c-0.4,2.4-0.1,4.6,1.5,6.5c1.3,1.5,2.9,2.2,4.8,2.4c1.5,0.2,3,0.1,4.4-0.4
		s2.5-1.5,3.1-2.8c0.2-0.5,0.2-0.5-0.3-0.5c-1.8,0-3.7,0-5.5,0c-0.6,0-0.6,0-0.6-0.6c0-1.3,0-2.5,0-3.8c0-0.6,0-0.6,0.6-0.6
		C60.7,27.7,62.6,27.7,64.5,27.7z"/>
	<path class="st0" d="M39.5,29.2c0.1,7.1-5.6,13.1-13.1,13.1c-7.2,0-13.1-5.6-13.1-13.1c0-7.7,6.2-13.1,13.2-13.1
		C33.8,16.2,39.6,22.1,39.5,29.2z M19.1,28.9c0,2.3,0.6,4.1,2,5.5c1.9,1.9,4.2,2.5,6.8,2c1.6-0.3,2.9-0.9,4-2.2
		c2.2-2.6,2.5-5.5,1.2-8.5c-1.7-3.9-6.4-5.1-9.9-3.4C20.3,23.8,19.2,26.2,19.1,28.9z"/>
	<path class="st0" d="M83.6,35c-2,0-3.9,0-5.9,0c-0.5,0-0.5,0.1-0.3,0.5c0.4,0.8,1.1,1.3,1.9,1.6c1.6,0.5,3.2,0.5,4.7-0.3
		c0.1,0,0.2-0.1,0.2-0.1c0.5-0.7,1-0.4,1.6,0c1,0.6,2,1.2,3,1.7c0.3,0.2,0.4,0.3,0.1,0.7c-1.6,1.9-3.6,2.9-6.1,3.2
		c-2.1,0.2-4.1,0-6-0.8c-3-1.3-4.7-3.6-5.3-6.8c-0.4-2.6,0-5.1,1.5-7.3c1.7-2.4,4.1-3.6,7-3.9c1.5-0.1,3,0,4.4,0.6
		c2.9,1.2,4.6,3.4,5.4,6.4c0.3,1.3,0.4,2.7,0.2,4c0,0.4,0,0.5-0.6,0.5C87.5,35,85.6,35,83.6,35z M80.9,30.9c1.1,0,2.2,0,3.4,0
		c0.5,0,0.5-0.1,0.3-0.5c-0.2-0.6-0.5-1.1-1-1.5c-1-0.8-2.2-0.9-3.4-0.8c-1.3,0.2-2.3,0.9-2.9,2.1c-0.3,0.6-0.2,0.7,0.4,0.7
		C78.8,30.9,79.9,30.9,80.9,30.9z"/>
	<path class="st0" d="M97.4,25.2c0.5-0.5,1.1-1,1.8-1.3c2.5-1.1,6.1-0.8,8.1,1.5c1,1.1,1.5,2.5,1.7,4c0.2,1.2,0.1,2.3,0.1,3.5
		c0,2.8,0,5.5,0,8.3c0,0.6,0,0.6-0.6,0.6c-1.4,0-2.8,0-4.2,0c-0.6,0-0.6,0-0.6-0.6c0-3.2,0-6.5,0-9.7c0-0.6-0.1-1.2-0.4-1.8
		c-0.2-0.4-0.5-0.7-0.9-1c-2.2-1.3-4.9,0.2-5,2.7c0,3.2,0,6.4,0,9.6c0,0.8,0,0.8-0.8,0.8c-1.4,0-2.7,0-4.1,0c-0.4,0-0.6-0.1-0.6-0.6
		c0-5.6,0-11.2,0-16.9c0-0.4,0.1-0.6,0.6-0.6c1.4,0,2.9,0,4.3,0c0.5,0,0.6,0.2,0.6,0.6c0,0.3,0,0.5,0,0.8
		C97.3,25.2,97.3,25.2,97.4,25.2z"/>
	<path class="st0" d="M116.7,32.8c0,2.8,0,5.6,0,8.3c0,0.6,0,0.6-0.6,0.6c-1.4,0-2.8,0-4.2,0c-0.4,0-0.6-0.1-0.6-0.6
		c0-5.6,0-11.3,0-16.9c0-0.4,0.1-0.5,0.5-0.5c1.4,0,2.8,0,4.3,0c0.5,0,0.6,0.2,0.6,0.6C116.7,27.2,116.7,30,116.7,32.8z"/>
	<path class="st0" d="M81.6,54.7c0-1.3,0-2.5,0-3.8c0-0.4,0.1-0.6,0.6-0.6c1,0,2,0,3,0c1.3,0,2.4,0.9,2.7,2.1
		c0.3,1.2-0.1,2.4-1.2,3.1c-0.3,0.2-0.3,0.4-0.1,0.6c0.5,0.8,1,1.6,1.5,2.5c0.2,0.4,0.2,0.4-0.3,0.5c-1.3,0.1-1.3,0.1-2-1.1
		c-0.3-0.5-0.6-1.1-1-1.7c-0.2-0.3-1-0.5-1.3-0.3c-0.2,0.1-0.1,0.3-0.1,0.4c0,0.7,0,1.4,0,2.1c0,0.4-0.2,0.5-0.5,0.5
		c-1.2,0.1-1.3,0.1-1.3-1.2C81.6,56.9,81.6,55.8,81.6,54.7z M83.4,53.3c0,0.3,0,0.6,0,0.9c0,0.2,0.1,0.4,0.3,0.4c0.5,0,1,0,1.5,0
		s0.9-0.5,1-1c0.1-0.6-0.1-1.1-0.6-1.4c-0.3-0.2-0.7-0.1-1-0.1C83.3,52,83.3,52,83.4,53.3z"/>
	<path class="st0" d="M98.5,59.1c-0.9,0-0.9,0-1.1-0.8c-0.3-0.9-0.2-0.8-1.1-0.8c-0.8,0-1.5,0-2.3,0c-0.4,0-0.5,0.1-0.7,0.5
		c-0.4,1.3-0.1,1.1-1.6,1.1c-0.6,0-0.6,0-0.4-0.6c0.9-2.6,1.8-5.2,2.7-7.7c0.1-0.3,0.3-0.5,0.6-0.5c0.4,0,0.8,0,1.2,0
		c0.4,0,0.6,0.1,0.7,0.5c0.6,1.9,1.3,3.7,2,5.6c0.2,0.7,0.5,1.4,0.7,2s0.2,0.7-0.5,0.7C98.6,59.1,98.6,59.1,98.5,59.1z M95.3,52.6
		L95.3,52.6c-0.4,1-0.7,1.9-1.1,2.9c-0.1,0.2,0,0.3,0.2,0.3c0.6,0,1.1,0,1.7,0c0.2,0,0.3-0.1,0.2-0.3C96,54.6,95.7,53.6,95.3,52.6z"
		/>
	<path class="st0" d="M113.1,54.7c0-1.3,0-2.6,0-3.8c0-0.4,0.1-0.6,0.5-0.6c1.4,0,2.9,0,4.3,0c0.4,0,0.5,0.1,0.5,0.5
		c0,1.4,0.1,1.2-1.2,1.2c-0.7,0-1.4,0-2.1,0c-0.3,0-0.4,0.1-0.4,0.4c0,1.7-0.2,1.3,1.3,1.4c0.5,0,1.1,0,1.6,0c0.3,0,0.5,0.1,0.5,0.5
		c0,1.4,0.1,1.2-1.1,1.2c-0.6,0-1.2,0-1.8,0c-0.3,0-0.4,0.1-0.4,0.4c0,1.8-0.2,1.5,1.4,1.5c0.6,0,1.2,0,1.9,0c0.3,0,0.5,0.1,0.5,0.4
		c0,1.4,0.1,1.2-1.2,1.2c-1.2,0-2.5,0-3.7,0c-0.4,0-0.6-0.1-0.6-0.6C113.1,57.3,113.1,56,113.1,54.7z"/>
	<path class="st0" d="M105.6,56.8c0.2-0.8,0.5-1.5,0.7-2.3c0.4-1.2,0.8-2.5,1.2-3.8c0.1-0.3,0.2-0.4,0.5-0.4c0.4,0,0.8,0,1.2,0
		c0.3,0,0.4,0.1,0.3,0.4c-0.2,0.6-0.4,1.1-0.6,1.7c-0.7,2.1-1.4,4.1-2.1,6.2c-0.1,0.4-0.4,0.6-0.8,0.6c-1.9-0.1-1.4,0.3-2-1.4
		c-0.8-2.3-1.5-4.5-2.3-6.8c-0.2-0.6-0.2-0.6,0.4-0.6c1.6,0,1.2-0.3,1.7,1.3c0.6,1.7,1.1,3.4,1.6,5.1
		C105.6,56.7,105.6,56.8,105.6,56.8z"/>
	<path class="st0" d="M73.9,55.5c0-1,0-2,0-3c0-0.4-0.1-0.6-0.5-0.5c-0.4,0-0.8,0-1.2,0c-0.1,0-0.2,0-0.3,0
		c-0.5-0.3-0.2-0.8-0.3-1.3c-0.1-0.3,0.1-0.4,0.4-0.4c1.9,0,3.8,0,5.7,0h0.1c0.5,0.4,0.1,0.9,0.2,1.3c0,0.3-0.2,0.3-0.4,0.3
		c-0.5,0-0.9,0-1.4,0c-0.4,0-0.5,0.1-0.5,0.5c0,1.9,0,3.9,0,5.8c0,0.7,0,0.7-0.7,0.7c-1.1,0-1.1,0-1.1-1.1
		C73.9,57.2,73.9,56.4,73.9,55.5z"/>
	<path class="st0" d="M124.1,53.9c0,1,0,2,0,3c0,0.4,0.2,0.6,0.6,0.6c0.7,0,1.5,0,2.3,0c0.3,0,0.5,0.1,0.5,0.5
		c0,1.4,0.1,1.2-1.2,1.2c-1.1,0-2.2,0-3.3,0c-0.4,0-0.6-0.1-0.6-0.6c0-2.6,0-5.1,0-7.7c0-0.4,0.1-0.5,0.5-0.5c1.5,0,1.2-0.2,1.3,1.2
		C124.1,52.3,124.1,53.1,124.1,53.9z"/>
</g>
</svg>
