<svg width="52" height="16" viewBox="0 0 52 16" fill="none" xmlns="http://www.w3.org/2000/svg">
<mask id="path-1-inside-1_41_1296" fill="white">
<path d="M5.21897 12.1186C4.06097 12.1186 3.09417 11.8601 2.31858 11.343C1.54837 10.8259 0.969371 10.1123 0.581575 9.20204C0.19378 8.2918 -0.00011837 7.24421 -0.00011837 6.05928C-0.00011837 4.87435 0.19378 3.82676 0.581575 2.91652C0.969371 2.00628 1.54837 1.29262 2.31858 0.775562C3.09417 0.258501 4.06097 -2.9385e-05 5.21897 -2.9385e-05C6.37697 -2.9385e-05 7.34107 0.258501 8.11128 0.775562C8.88687 1.29262 9.46857 2.00628 9.85636 2.91652C10.2442 3.82676 10.4381 4.87435 10.4381 6.05928C10.4381 7.24421 10.2442 8.2918 9.85636 9.20204C9.46857 10.1123 8.88687 10.8259 8.11128 11.343C7.34107 11.8601 6.37697 12.1186 5.21897 12.1186ZM5.21897 11.44C6.21539 11.44 7.04484 11.211 7.70733 10.7532C8.3752 10.29 8.8761 9.65447 9.21003 8.84656C9.54397 8.03866 9.71094 7.10956 9.71094 6.05928C9.71094 5.009 9.54397 4.07991 9.21003 3.272C8.8761 2.4587 8.3752 1.82315 7.70733 1.36533C7.04484 0.90752 6.21539 0.678613 5.21897 0.678613C4.22255 0.678613 3.3931 0.90752 2.73061 1.36533C2.07351 1.82315 1.578 2.4587 1.24406 3.272C0.910125 4.07991 0.737771 5.009 0.726999 6.05928C0.716227 7.10956 0.877809 8.03866 1.21174 8.84656C1.54568 9.65447 2.04658 10.29 2.71445 10.7532C3.38771 11.211 4.22255 11.44 5.21897 11.44ZM12.0548 11.8762V3.15081H12.6849V5.23522L12.4749 4.96053C12.5664 4.72354 12.6822 4.50271 12.8223 4.29804C12.9623 4.09337 13.0996 3.9264 13.2343 3.79714C13.4713 3.56554 13.7514 3.39049 14.0745 3.272C14.4031 3.14812 14.7316 3.0781 15.0602 3.06194C15.3887 3.0404 15.6796 3.07002 15.9327 3.15081V3.79714C15.5718 3.71635 15.1894 3.70288 14.7855 3.75674C14.3815 3.80522 14.0045 3.99104 13.6544 4.3142C13.3474 4.59966 13.1293 4.92821 13 5.29985C12.8761 5.67149 12.8007 6.05659 12.7738 6.45516C12.7469 6.84834 12.7334 7.22267 12.7334 7.57815V11.8762H12.0548ZM19.5937 12.1186C18.915 12.1186 18.3522 12.0001 17.9051 11.7631C17.4581 11.5261 17.1242 11.2137 16.9033 10.8259C16.6825 10.4381 16.5721 10.018 16.5721 9.5656C16.5721 9.05393 16.6825 8.63112 16.9033 8.29719C17.1296 7.95787 17.4231 7.69126 17.784 7.49736C18.1448 7.30346 18.5326 7.16342 18.9473 7.07725C19.4536 6.97491 19.9949 6.88604 20.5712 6.81064C21.1529 6.72985 21.6888 6.66252 22.179 6.60866C22.6691 6.5548 23.0354 6.51171 23.2777 6.47939L23.0354 6.64098C23.0623 5.61224 22.8738 4.84742 22.4698 4.34652C22.0713 3.84023 21.3657 3.58708 20.3531 3.58708C19.6206 3.58708 19.0308 3.75136 18.5838 4.07991C18.1421 4.40307 17.8324 4.90128 17.6547 5.57454L16.9114 5.38064C17.1053 4.57273 17.5012 3.95872 18.099 3.53861C18.7023 3.1185 19.4644 2.90844 20.3854 2.90844C21.1933 2.90844 21.8666 3.07271 22.4052 3.40126C22.9438 3.72981 23.3101 4.17416 23.5039 4.73431C23.5794 4.94975 23.6332 5.21098 23.6655 5.51798C23.6978 5.82499 23.714 6.12391 23.714 6.41476V11.8762H23.0838V9.48481L23.407 9.50097C23.1754 10.3304 22.7149 10.9741 22.0255 11.4319C21.3361 11.8897 20.5255 12.1186 19.5937 12.1186ZM19.5614 11.44C20.1915 11.44 20.7463 11.3268 21.2256 11.1006C21.7104 10.8744 22.1009 10.5486 22.3971 10.1231C22.6987 9.69218 22.8899 9.17781 22.9707 8.57996C23.0138 8.27834 23.0354 7.95517 23.0354 7.61047C23.0354 7.26576 23.0354 7.018 23.0354 6.86719L23.3908 7.14188C23.1054 7.16881 22.7095 7.20651 22.2032 7.25499C21.7023 7.29807 21.1718 7.35732 20.6116 7.43273C20.0515 7.50274 19.5452 7.59431 19.0928 7.70741C18.8289 7.77205 18.5569 7.87438 18.2768 8.01442C17.9967 8.15446 17.7597 8.35105 17.5658 8.60419C17.3773 8.85734 17.2831 9.18319 17.2831 9.58176C17.2831 9.86184 17.3531 10.1446 17.4931 10.4301C17.6331 10.7155 17.8674 10.9552 18.196 11.1491C18.5299 11.343 18.985 11.44 19.5614 11.44ZM32.2939 11.8762V7.25499C32.2939 6.6302 32.2292 6.0916 32.1 5.63917C31.9761 5.18135 31.7903 4.80433 31.5425 4.5081C31.2948 4.20648 30.9931 3.98296 30.6377 3.83753C30.2876 3.69211 29.8863 3.6194 29.4339 3.6194C28.9006 3.6194 28.4455 3.71365 28.0685 3.90217C27.6969 4.08529 27.3952 4.33844 27.1636 4.6616C26.932 4.98476 26.7624 5.3564 26.6547 5.77651C26.5469 6.19663 26.4931 6.64098 26.4931 7.10956L25.8629 7.12572C25.8629 6.1293 26.0272 5.32678 26.3557 4.71815C26.6843 4.10414 27.1179 3.6571 27.6565 3.37703C28.2005 3.09695 28.7929 2.95691 29.4339 2.95691C29.8755 2.95691 30.2795 3.01885 30.6457 3.14273C31.0174 3.26661 31.3459 3.44705 31.6314 3.68403C31.9222 3.91563 32.1673 4.20109 32.3666 4.54041C32.5659 4.87974 32.7167 5.26753 32.819 5.7038C32.9213 6.13469 32.9725 6.60866 32.9725 7.12572V11.8762H32.2939ZM25.8144 11.8762V3.15081H26.4446V4.92821H26.4931V11.8762H25.8144ZM38.4056 15.9966C37.9854 15.9966 37.5626 15.9373 37.1371 15.8188C36.7116 15.7003 36.3104 15.4983 35.9334 15.2129C35.5617 14.9328 35.2439 14.5477 34.98 14.0576L35.5779 13.6536C35.8687 14.2515 36.2781 14.6743 36.8059 14.922C37.3337 15.1752 37.867 15.3018 38.4056 15.3018C39.1865 15.3018 39.7952 15.1536 40.2314 14.8574C40.6731 14.5666 40.9828 14.1303 41.1605 13.5486C41.3383 12.9723 41.4271 12.2532 41.4271 11.3915V9.16165H41.4918V3.15081H42.1219V11.3915C42.1219 11.6554 42.1166 11.9112 42.1058 12.159C42.095 12.4067 42.0735 12.6518 42.0411 12.8942C41.955 13.5998 41.7665 14.1815 41.4756 14.6393C41.1902 15.0971 40.7943 15.4364 40.288 15.6572C39.7817 15.8834 39.1542 15.9966 38.4056 15.9966ZM38.3894 12.1186C37.5653 12.1186 36.8705 11.9166 36.305 11.5127C35.7448 11.1033 35.3194 10.5513 35.0285 9.85645C34.7377 9.15626 34.5922 8.3699 34.5922 7.49736C34.5922 6.64098 34.735 5.86538 35.0204 5.17058C35.3059 4.47578 35.7206 3.9264 36.2646 3.52245C36.814 3.11311 37.4792 2.90844 38.2601 2.90844C39.0734 2.90844 39.7575 3.10772 40.3122 3.50629C40.8724 3.89947 41.2952 4.44347 41.5806 5.13827C41.8661 5.82768 42.0088 6.61405 42.0088 7.49736C42.0088 8.36451 41.8661 9.14818 41.5806 9.84837C41.3006 10.5432 40.8912 11.0952 40.3526 11.5046C39.814 11.9139 39.1596 12.1186 38.3894 12.1186ZM38.3894 11.44C39.0734 11.44 39.6444 11.2676 40.1022 10.9229C40.5654 10.5782 40.9128 10.1096 41.1444 9.51713C41.376 8.91928 41.4918 8.24602 41.4918 7.49736C41.4918 6.73792 41.3733 6.06467 41.1363 5.47759C40.9047 4.88512 40.5573 4.42192 40.0941 4.08799C39.6363 3.75405 39.068 3.58708 38.3894 3.58708C37.6946 3.58708 37.1183 3.75944 36.6605 4.10414C36.2081 4.44347 35.8714 4.90936 35.6506 5.50183C35.4298 6.08891 35.3194 6.75408 35.3194 7.49736C35.3194 8.24602 35.4352 8.91928 35.6668 9.51713C35.8984 10.1096 36.2404 10.5782 36.6928 10.9229C37.1506 11.2676 37.7161 11.44 38.3894 11.44ZM47.8932 12.1186C47.0691 12.1186 46.3582 11.9328 45.7603 11.5611C45.1678 11.1895 44.71 10.659 44.3869 9.96956C44.0637 9.28014 43.9021 8.46146 43.9021 7.51352C43.9021 6.56018 44.061 5.73881 44.3788 5.0494C44.7019 4.35998 45.1598 3.83215 45.7522 3.4659C46.3501 3.09426 47.0637 2.90844 47.8932 2.90844C48.728 2.90844 49.4417 3.09695 50.0341 3.47398C50.6266 3.851 51.079 4.39768 51.3914 5.11403C51.7092 5.83037 51.8681 6.69484 51.8681 7.70741H51.141V7.4812C51.1087 6.22625 50.8124 5.26484 50.2523 4.59697C49.6975 3.92371 48.9111 3.58708 47.8932 3.58708C46.8591 3.58708 46.0565 3.93179 45.4856 4.6212C44.9147 5.30523 44.6292 6.26934 44.6292 7.51352C44.6292 8.7577 44.9147 9.72449 45.4856 10.4139C46.0565 11.0979 46.8591 11.44 47.8932 11.44C48.6149 11.44 49.2478 11.2703 49.7918 10.931C50.3358 10.5916 50.7693 10.1042 51.0925 9.46865L51.658 9.79182C51.3026 10.5351 50.799 11.1087 50.1472 11.5127C49.4955 11.9166 48.7442 12.1186 47.8932 12.1186ZM44.3384 7.70741V7.02877H51.448V7.70741H44.3384Z"/>
</mask>
<path d="M5.21897 12.1186C4.06097 12.1186 3.09417 11.8601 2.31858 11.343C1.54837 10.8259 0.969371 10.1123 0.581575 9.20204C0.19378 8.2918 -0.00011837 7.24421 -0.00011837 6.05928C-0.00011837 4.87435 0.19378 3.82676 0.581575 2.91652C0.969371 2.00628 1.54837 1.29262 2.31858 0.775562C3.09417 0.258501 4.06097 -2.9385e-05 5.21897 -2.9385e-05C6.37697 -2.9385e-05 7.34107 0.258501 8.11128 0.775562C8.88687 1.29262 9.46857 2.00628 9.85636 2.91652C10.2442 3.82676 10.4381 4.87435 10.4381 6.05928C10.4381 7.24421 10.2442 8.2918 9.85636 9.20204C9.46857 10.1123 8.88687 10.8259 8.11128 11.343C7.34107 11.8601 6.37697 12.1186 5.21897 12.1186ZM5.21897 11.44C6.21539 11.44 7.04484 11.211 7.70733 10.7532C8.3752 10.29 8.8761 9.65447 9.21003 8.84656C9.54397 8.03866 9.71094 7.10956 9.71094 6.05928C9.71094 5.009 9.54397 4.07991 9.21003 3.272C8.8761 2.4587 8.3752 1.82315 7.70733 1.36533C7.04484 0.90752 6.21539 0.678613 5.21897 0.678613C4.22255 0.678613 3.3931 0.90752 2.73061 1.36533C2.07351 1.82315 1.578 2.4587 1.24406 3.272C0.910125 4.07991 0.737771 5.009 0.726999 6.05928C0.716227 7.10956 0.877809 8.03866 1.21174 8.84656C1.54568 9.65447 2.04658 10.29 2.71445 10.7532C3.38771 11.211 4.22255 11.44 5.21897 11.44ZM12.0548 11.8762V3.15081H12.6849V5.23522L12.4749 4.96053C12.5664 4.72354 12.6822 4.50271 12.8223 4.29804C12.9623 4.09337 13.0996 3.9264 13.2343 3.79714C13.4713 3.56554 13.7514 3.39049 14.0745 3.272C14.4031 3.14812 14.7316 3.0781 15.0602 3.06194C15.3887 3.0404 15.6796 3.07002 15.9327 3.15081V3.79714C15.5718 3.71635 15.1894 3.70288 14.7855 3.75674C14.3815 3.80522 14.0045 3.99104 13.6544 4.3142C13.3474 4.59966 13.1293 4.92821 13 5.29985C12.8761 5.67149 12.8007 6.05659 12.7738 6.45516C12.7469 6.84834 12.7334 7.22267 12.7334 7.57815V11.8762H12.0548ZM19.5937 12.1186C18.915 12.1186 18.3522 12.0001 17.9051 11.7631C17.4581 11.5261 17.1242 11.2137 16.9033 10.8259C16.6825 10.4381 16.5721 10.018 16.5721 9.5656C16.5721 9.05393 16.6825 8.63112 16.9033 8.29719C17.1296 7.95787 17.4231 7.69126 17.784 7.49736C18.1448 7.30346 18.5326 7.16342 18.9473 7.07725C19.4536 6.97491 19.9949 6.88604 20.5712 6.81064C21.1529 6.72985 21.6888 6.66252 22.179 6.60866C22.6691 6.5548 23.0354 6.51171 23.2777 6.47939L23.0354 6.64098C23.0623 5.61224 22.8738 4.84742 22.4698 4.34652C22.0713 3.84023 21.3657 3.58708 20.3531 3.58708C19.6206 3.58708 19.0308 3.75136 18.5838 4.07991C18.1421 4.40307 17.8324 4.90128 17.6547 5.57454L16.9114 5.38064C17.1053 4.57273 17.5012 3.95872 18.099 3.53861C18.7023 3.1185 19.4644 2.90844 20.3854 2.90844C21.1933 2.90844 21.8666 3.07271 22.4052 3.40126C22.9438 3.72981 23.3101 4.17416 23.5039 4.73431C23.5794 4.94975 23.6332 5.21098 23.6655 5.51798C23.6978 5.82499 23.714 6.12391 23.714 6.41476V11.8762H23.0838V9.48481L23.407 9.50097C23.1754 10.3304 22.7149 10.9741 22.0255 11.4319C21.3361 11.8897 20.5255 12.1186 19.5937 12.1186ZM19.5614 11.44C20.1915 11.44 20.7463 11.3268 21.2256 11.1006C21.7104 10.8744 22.1009 10.5486 22.3971 10.1231C22.6987 9.69218 22.8899 9.17781 22.9707 8.57996C23.0138 8.27834 23.0354 7.95517 23.0354 7.61047C23.0354 7.26576 23.0354 7.018 23.0354 6.86719L23.3908 7.14188C23.1054 7.16881 22.7095 7.20651 22.2032 7.25499C21.7023 7.29807 21.1718 7.35732 20.6116 7.43273C20.0515 7.50274 19.5452 7.59431 19.0928 7.70741C18.8289 7.77205 18.5569 7.87438 18.2768 8.01442C17.9967 8.15446 17.7597 8.35105 17.5658 8.60419C17.3773 8.85734 17.2831 9.18319 17.2831 9.58176C17.2831 9.86184 17.3531 10.1446 17.4931 10.4301C17.6331 10.7155 17.8674 10.9552 18.196 11.1491C18.5299 11.343 18.985 11.44 19.5614 11.44ZM32.2939 11.8762V7.25499C32.2939 6.6302 32.2292 6.0916 32.1 5.63917C31.9761 5.18135 31.7903 4.80433 31.5425 4.5081C31.2948 4.20648 30.9931 3.98296 30.6377 3.83753C30.2876 3.69211 29.8863 3.6194 29.4339 3.6194C28.9006 3.6194 28.4455 3.71365 28.0685 3.90217C27.6969 4.08529 27.3952 4.33844 27.1636 4.6616C26.932 4.98476 26.7624 5.3564 26.6547 5.77651C26.5469 6.19663 26.4931 6.64098 26.4931 7.10956L25.8629 7.12572C25.8629 6.1293 26.0272 5.32678 26.3557 4.71815C26.6843 4.10414 27.1179 3.6571 27.6565 3.37703C28.2005 3.09695 28.7929 2.95691 29.4339 2.95691C29.8755 2.95691 30.2795 3.01885 30.6457 3.14273C31.0174 3.26661 31.3459 3.44705 31.6314 3.68403C31.9222 3.91563 32.1673 4.20109 32.3666 4.54041C32.5659 4.87974 32.7167 5.26753 32.819 5.7038C32.9213 6.13469 32.9725 6.60866 32.9725 7.12572V11.8762H32.2939ZM25.8144 11.8762V3.15081H26.4446V4.92821H26.4931V11.8762H25.8144ZM38.4056 15.9966C37.9854 15.9966 37.5626 15.9373 37.1371 15.8188C36.7116 15.7003 36.3104 15.4983 35.9334 15.2129C35.5617 14.9328 35.2439 14.5477 34.98 14.0576L35.5779 13.6536C35.8687 14.2515 36.2781 14.6743 36.8059 14.922C37.3337 15.1752 37.867 15.3018 38.4056 15.3018C39.1865 15.3018 39.7952 15.1536 40.2314 14.8574C40.6731 14.5666 40.9828 14.1303 41.1605 13.5486C41.3383 12.9723 41.4271 12.2532 41.4271 11.3915V9.16165H41.4918V3.15081H42.1219V11.3915C42.1219 11.6554 42.1166 11.9112 42.1058 12.159C42.095 12.4067 42.0735 12.6518 42.0411 12.8942C41.955 13.5998 41.7665 14.1815 41.4756 14.6393C41.1902 15.0971 40.7943 15.4364 40.288 15.6572C39.7817 15.8834 39.1542 15.9966 38.4056 15.9966ZM38.3894 12.1186C37.5653 12.1186 36.8705 11.9166 36.305 11.5127C35.7448 11.1033 35.3194 10.5513 35.0285 9.85645C34.7377 9.15626 34.5922 8.3699 34.5922 7.49736C34.5922 6.64098 34.735 5.86538 35.0204 5.17058C35.3059 4.47578 35.7206 3.9264 36.2646 3.52245C36.814 3.11311 37.4792 2.90844 38.2601 2.90844C39.0734 2.90844 39.7575 3.10772 40.3122 3.50629C40.8724 3.89947 41.2952 4.44347 41.5806 5.13827C41.8661 5.82768 42.0088 6.61405 42.0088 7.49736C42.0088 8.36451 41.8661 9.14818 41.5806 9.84837C41.3006 10.5432 40.8912 11.0952 40.3526 11.5046C39.814 11.9139 39.1596 12.1186 38.3894 12.1186ZM38.3894 11.44C39.0734 11.44 39.6444 11.2676 40.1022 10.9229C40.5654 10.5782 40.9128 10.1096 41.1444 9.51713C41.376 8.91928 41.4918 8.24602 41.4918 7.49736C41.4918 6.73792 41.3733 6.06467 41.1363 5.47759C40.9047 4.88512 40.5573 4.42192 40.0941 4.08799C39.6363 3.75405 39.068 3.58708 38.3894 3.58708C37.6946 3.58708 37.1183 3.75944 36.6605 4.10414C36.2081 4.44347 35.8714 4.90936 35.6506 5.50183C35.4298 6.08891 35.3194 6.75408 35.3194 7.49736C35.3194 8.24602 35.4352 8.91928 35.6668 9.51713C35.8984 10.1096 36.2404 10.5782 36.6928 10.9229C37.1506 11.2676 37.7161 11.44 38.3894 11.44ZM47.8932 12.1186C47.0691 12.1186 46.3582 11.9328 45.7603 11.5611C45.1678 11.1895 44.71 10.659 44.3869 9.96956C44.0637 9.28014 43.9021 8.46146 43.9021 7.51352C43.9021 6.56018 44.061 5.73881 44.3788 5.0494C44.7019 4.35998 45.1598 3.83215 45.7522 3.4659C46.3501 3.09426 47.0637 2.90844 47.8932 2.90844C48.728 2.90844 49.4417 3.09695 50.0341 3.47398C50.6266 3.851 51.079 4.39768 51.3914 5.11403C51.7092 5.83037 51.8681 6.69484 51.8681 7.70741H51.141V7.4812C51.1087 6.22625 50.8124 5.26484 50.2523 4.59697C49.6975 3.92371 48.9111 3.58708 47.8932 3.58708C46.8591 3.58708 46.0565 3.93179 45.4856 4.6212C44.9147 5.30523 44.6292 6.26934 44.6292 7.51352C44.6292 8.7577 44.9147 9.72449 45.4856 10.4139C46.0565 11.0979 46.8591 11.44 47.8932 11.44C48.6149 11.44 49.2478 11.2703 49.7918 10.931C50.3358 10.5916 50.7693 10.1042 51.0925 9.46865L51.658 9.79182C51.3026 10.5351 50.799 11.1087 50.1472 11.5127C49.4955 11.9166 48.7442 12.1186 47.8932 12.1186ZM44.3384 7.70741V7.02877H51.448V7.70741H44.3384Z" fill="#C85C1A"/>
<path d="M2.31858 11.343L1.7612 12.1733L1.76388 12.1751L2.31858 11.343ZM0.581575 9.20204L1.50156 8.8101L1.50156 8.8101L0.581575 9.20204ZM0.581575 2.91652L-0.338412 2.52457L-0.338412 2.52457L0.581575 2.91652ZM2.31858 0.775562L1.76388 -0.0564927L1.7612 -0.0546975L2.31858 0.775562ZM8.11128 0.775562L7.5539 1.60583L7.55658 1.60761L8.11128 0.775562ZM9.85636 9.20204L8.93637 8.8101L8.93637 8.8101L9.85636 9.20204ZM8.11128 11.343L7.55658 10.5109L7.5539 10.5127L8.11128 11.343ZM7.70733 10.7532L8.27584 11.5759L8.27722 11.5749L7.70733 10.7532ZM9.21003 8.84656L8.28587 8.46458L8.28587 8.46458L9.21003 8.84656ZM9.21003 3.272L8.28497 3.65182L8.28587 3.65399L9.21003 3.272ZM7.70733 1.36533L7.13881 2.18801L7.14193 2.19015L7.70733 1.36533ZM2.73061 1.36533L2.16209 0.542655L2.15896 0.544841L2.73061 1.36533ZM1.24406 3.272L2.16823 3.65399L2.16912 3.65182L1.24406 3.272ZM1.21174 8.84656L2.13591 8.46458L2.13591 8.46458L1.21174 8.84656ZM2.71445 10.7532L2.14453 11.575L2.15214 11.5802L2.71445 10.7532ZM5.21897 12.1186V11.1186C4.21038 11.1186 3.44875 10.8946 2.87328 10.511L2.31858 11.343L1.76388 12.1751C2.73959 12.8255 3.91156 13.1186 5.21897 13.1186V12.1186ZM2.31858 11.343L2.87596 10.5127C2.27736 10.1109 1.81876 9.55463 1.50156 8.8101L0.581575 9.20204L-0.338412 9.59399C0.11998 10.6699 0.819386 11.541 1.7612 12.1733L2.31858 11.343ZM0.581575 9.20204L1.50156 8.8101C1.17591 8.04573 0.999882 7.13561 0.999882 6.05928H-0.00011837H-1.00012C-1.00012 7.35282 -0.788355 8.53788 -0.338412 9.59399L0.581575 9.20204ZM-0.00011837 6.05928H0.999882C0.999882 4.98295 1.17591 4.07284 1.50156 3.30847L0.581575 2.91652L-0.338412 2.52457C-0.788355 3.58069 -1.00012 4.76574 -1.00012 6.05928H-0.00011837ZM0.581575 2.91652L1.50156 3.30847C1.81876 2.56393 2.27736 2.00768 2.87595 1.60582L2.31858 0.775562L1.7612 -0.0546975C0.819386 0.57757 0.11998 1.44862 -0.338412 2.52457L0.581575 2.91652ZM2.31858 0.775562L2.87328 1.60761C3.44875 1.22397 4.21038 0.999971 5.21897 0.999971V-2.9385e-05V-1.00003C3.91156 -1.00003 2.73959 -0.706965 1.76388 -0.0564884L2.31858 0.775562ZM5.21897 -2.9385e-05V0.999971C6.22788 0.999971 6.98527 1.22408 7.5539 1.60582L8.11128 0.775562L8.66866 -0.0546974C7.69688 -0.707081 6.52606 -1.00003 5.21897 -1.00003V-2.9385e-05ZM8.11128 0.775562L7.55658 1.60761C8.16002 2.0099 8.61997 2.5658 8.93637 3.30847L9.85636 2.91652L10.7763 2.52457C10.3172 1.44675 9.61373 0.575343 8.66598 -0.0564884L8.11128 0.775562ZM9.85636 2.91652L8.93637 3.30847C9.26202 4.07284 9.43806 4.98295 9.43806 6.05928H10.4381H11.4381C11.4381 4.76574 11.2263 3.58069 10.7763 2.52457L9.85636 2.91652ZM10.4381 6.05928H9.43806C9.43806 7.13561 9.26202 8.04573 8.93637 8.8101L9.85636 9.20204L10.7763 9.59399C11.2263 8.53788 11.4381 7.35282 11.4381 6.05928H10.4381ZM9.85636 9.20204L8.93637 8.8101C8.61997 9.55276 8.16002 10.1087 7.55658 10.511L8.11128 11.343L8.66598 12.1751C9.61373 11.5432 10.3172 10.6718 10.7763 9.59399L9.85636 9.20204ZM8.11128 11.343L7.5539 10.5127C6.98527 10.8945 6.22788 11.1186 5.21897 11.1186V12.1186V13.1186C6.52606 13.1186 7.69688 12.8256 8.66866 12.1733L8.11128 11.343ZM5.21897 11.44V12.44C6.36986 12.44 7.41027 12.1741 8.27584 11.5759L7.70733 10.7532L7.13881 9.93055C6.67941 10.248 6.06091 10.44 5.21897 10.44V11.44ZM7.70733 10.7532L8.27722 11.5749C9.11499 10.9939 9.73267 10.2 10.1342 9.22855L9.21003 8.84656L8.28587 8.46458C8.01953 9.10893 7.6354 9.58614 7.13743 9.93151L7.70733 10.7532ZM9.21003 8.84656L10.1342 9.22855C10.5272 8.27775 10.7109 7.21482 10.7109 6.05928H9.71094H8.71094C8.71094 7.00431 8.56074 7.79957 8.28587 8.46458L9.21003 8.84656ZM9.71094 6.05928H10.7109C10.7109 4.90375 10.5272 3.84082 10.1342 2.89001L9.21003 3.272L8.28587 3.65399C8.56074 4.319 8.71094 5.11425 8.71094 6.05928H9.71094ZM9.21003 3.272L10.1351 2.89217C9.73379 1.91481 9.11507 1.11793 8.27273 0.540517L7.70733 1.36533L7.14193 2.19015C7.63533 2.52837 8.01841 3.00259 8.28498 3.65182L9.21003 3.272ZM7.70733 1.36533L8.27584 0.542661C7.41027 -0.055495 6.36986 -0.321387 5.21897 -0.321387V0.678613V1.67861C6.06091 1.67861 6.67941 1.87054 7.13881 2.18801L7.70733 1.36533ZM5.21897 0.678613V-0.321387C4.06807 -0.321387 3.02767 -0.055495 2.1621 0.542661L2.73061 1.36533L3.29913 2.18801C3.75853 1.87054 4.37702 1.67861 5.21897 1.67861V0.678613ZM2.73061 1.36533L2.15896 0.544841C1.32887 1.12318 0.718527 1.91914 0.319002 2.89217L1.24406 3.272L2.16912 3.65182C2.43746 2.99827 2.81816 2.52312 3.30227 2.18583L2.73061 1.36533ZM1.24406 3.272L0.319893 2.89001C-0.0715416 3.83703 -0.261125 4.89624 -0.272948 6.04903L0.726999 6.05928L1.72695 6.06954C1.73667 5.12176 1.89179 4.32278 2.16823 3.65399L1.24406 3.272ZM0.726999 6.05928L-0.272948 6.04903C-0.284828 7.20728 -0.106997 8.27394 0.287577 9.22855L1.21174 8.84656L2.13591 8.46458C1.86261 7.80337 1.71728 7.01185 1.72695 6.06954L0.726999 6.05928ZM1.21174 8.84656L0.287577 9.22855C0.689113 10.2 1.30679 10.9939 2.14455 11.5749L2.71445 10.7532L3.28435 9.93151C2.78638 9.58614 2.40225 9.10893 2.13591 8.46458L1.21174 8.84656ZM2.71445 10.7532L2.15214 11.5802C3.02517 12.1738 4.06737 12.44 5.21897 12.44V11.44V10.44C4.37772 10.44 3.75025 10.2483 3.27676 9.9263L2.71445 10.7532ZM12.0548 11.8762H11.0548V12.8762H12.0548V11.8762ZM12.0548 3.15081V2.15081H11.0548V3.15081H12.0548ZM12.6849 3.15081H13.6849V2.15081H12.6849V3.15081ZM12.6849 5.23522L11.8906 5.84267L13.6849 8.18914V5.23522H12.6849ZM12.4749 4.96053L11.5421 4.60013L11.3401 5.12284L11.6805 5.56798L12.4749 4.96053ZM12.8223 4.29804L13.6476 4.86273L13.6476 4.86273L12.8223 4.29804ZM13.2343 3.79714L13.9269 4.51856L13.9332 4.51233L13.2343 3.79714ZM14.0745 3.272L14.4188 4.21091L14.4273 4.2077L14.0745 3.272ZM15.0602 3.06194L15.1093 4.06073L15.1175 4.06033L15.1256 4.0598L15.0602 3.06194ZM15.9327 3.15081H16.9327V2.42027L16.2368 2.19815L15.9327 3.15081ZM15.9327 3.79714L15.7142 4.77298L16.9327 5.04578V3.79714H15.9327ZM14.7855 3.75674L14.9046 4.74971L14.9176 4.74797L14.7855 3.75674ZM13.6544 4.3142L12.9761 3.57939L12.9735 3.58186L13.6544 4.3142ZM13 5.29985L12.0554 4.9713L12.0513 4.98362L13 5.29985ZM12.7738 6.45516L13.7715 6.52349L13.7715 6.52257L12.7738 6.45516ZM12.7334 11.8762V12.8762H13.7334V11.8762H12.7334ZM12.0548 11.8762H13.0548V3.15081H12.0548H11.0548V11.8762H12.0548ZM12.0548 3.15081V4.15081H12.6849V3.15081V2.15081H12.0548V3.15081ZM12.6849 3.15081H11.6849V5.23522H12.6849H13.6849V3.15081H12.6849ZM12.6849 5.23522L13.4793 4.62777L13.2692 4.35308L12.4749 4.96053L11.6805 5.56798L11.8906 5.84267L12.6849 5.23522ZM12.4749 4.96053L13.4077 5.32093C13.4721 5.15419 13.5522 5.00213 13.6476 4.86273L12.8223 4.29804L11.997 3.73336C11.8123 4.00329 11.6608 4.29289 11.5421 4.60013L12.4749 4.96053ZM12.8223 4.29804L13.6476 4.86273C13.7607 4.69746 13.8548 4.58768 13.9268 4.51853L13.2343 3.79714L12.5418 3.07575C12.3445 3.26512 12.164 3.48929 11.997 3.73336L12.8223 4.29804ZM13.2343 3.79714L13.9332 4.51233C14.0652 4.38336 14.2231 4.28264 14.4188 4.21087L14.0745 3.272L13.7303 2.33312C13.2797 2.49834 12.8774 2.74771 12.5354 3.08195L13.2343 3.79714ZM14.0745 3.272L14.4273 4.2077C14.6651 4.11804 14.8914 4.07145 15.1093 4.06073L15.0602 3.06194L15.0111 2.06315C14.5718 2.08475 14.141 2.1782 13.7217 2.3363L14.0745 3.272ZM15.0602 3.06194L15.1256 4.0598C15.3581 4.04455 15.5195 4.06864 15.6287 4.10347L15.9327 3.15081L16.2368 2.19815C15.8396 2.07141 15.4193 2.03624 14.9947 2.06409L15.0602 3.06194ZM15.9327 3.15081H14.9327V3.79714H15.9327H16.9327V3.15081H15.9327ZM15.9327 3.79714L16.1512 2.8213C15.6641 2.71225 15.1622 2.69766 14.6533 2.76552L14.7855 3.75674L14.9176 4.74797C15.2166 4.70811 15.4796 4.72045 15.7142 4.77298L15.9327 3.79714ZM14.7855 3.75674L14.6663 2.76387C14.0194 2.8415 13.4535 3.13872 12.9761 3.5794L13.6544 4.3142L14.3327 5.049C14.5555 4.84336 14.7436 4.76894 14.9046 4.74962L14.7855 3.75674ZM13.6544 4.3142L12.9735 3.58186C12.555 3.97094 12.2419 4.43555 12.0555 4.97133L13 5.29985L13.9445 5.62837C14.0167 5.42087 14.1398 5.22838 14.3354 5.04654L13.6544 4.3142ZM13 5.29985L12.0513 4.98362C11.9001 5.43736 11.8086 5.90618 11.7761 6.38774L12.7738 6.45516L13.7715 6.52257C13.7928 6.207 13.8522 5.90561 13.9487 5.61608L13 5.29985ZM12.7738 6.45516L11.7761 6.38682C11.7478 6.80034 11.7334 7.19758 11.7334 7.57815H12.7334H13.7334C13.7334 7.24776 13.7459 6.89633 13.7715 6.52349L12.7738 6.45516ZM12.7334 7.57815H11.7334V11.8762H12.7334H13.7334V7.57815H12.7334ZM12.7334 11.8762V10.8762H12.0548V11.8762V12.8762H12.7334V11.8762ZM16.9033 10.8259L17.7723 10.3311L17.7723 10.3311L16.9033 10.8259ZM16.9033 8.29719L16.0713 7.74248L16.0692 7.7456L16.9033 8.29719ZM17.784 7.49736L17.3106 6.61646L17.3106 6.61647L17.784 7.49736ZM18.9473 7.07725L18.7492 6.09705L18.7439 6.09816L18.9473 7.07725ZM20.5712 6.81064L20.701 7.80222L20.7088 7.80113L20.5712 6.81064ZM22.179 6.60866L22.2882 7.60268L22.2882 7.60268L22.179 6.60866ZM23.2777 6.47939L23.8324 7.31144L23.1456 5.48817L23.2777 6.47939ZM23.0354 6.64098L22.0357 6.61481L21.9852 8.54292L23.5901 7.47303L23.0354 6.64098ZM22.4698 4.34652L21.684 4.96512L21.6914 4.97427L22.4698 4.34652ZM18.5838 4.07991L19.1743 4.88694L19.176 4.88569L18.5838 4.07991ZM17.6547 5.57454L17.4023 6.54215L18.3671 6.79384L18.6216 5.82979L17.6547 5.57454ZM16.9114 5.38064L15.939 5.14727L15.7102 6.10074L16.659 6.34826L16.9114 5.38064ZM18.099 3.53861L17.5275 2.71799L17.5241 2.72042L18.099 3.53861ZM23.5039 4.73431L22.559 5.06142L22.5601 5.06466L23.5039 4.73431ZM23.6655 5.51798L24.66 5.4133L24.66 5.4133L23.6655 5.51798ZM23.714 11.8762V12.8762H24.714V11.8762H23.714ZM23.0838 11.8762H22.0838V12.8762H23.0838V11.8762ZM23.0838 9.48481L23.1338 8.48606L22.0838 8.43356V9.48481H23.0838ZM23.407 9.50097L24.3702 9.7699L24.7067 8.56471L23.4569 8.50222L23.407 9.50097ZM22.0255 11.4319L22.5787 12.2649L22.5787 12.2649L22.0255 11.4319ZM21.2256 11.1006L20.8028 10.1944L20.7989 10.1963L21.2256 11.1006ZM22.3971 10.1231L21.5779 9.5496L21.5764 9.55169L22.3971 10.1231ZM22.9707 8.57996L21.9808 8.43853L21.9797 8.44604L22.9707 8.57996ZM23.0354 6.86719L23.6468 6.07591L22.0354 4.8307V6.86719H23.0354ZM23.3908 7.14188L23.4848 8.13746L26.0068 7.89953L24.0023 6.35059L23.3908 7.14188ZM22.2032 7.25499L22.2889 8.25135L22.2985 8.25043L22.2032 7.25499ZM20.6116 7.43273L20.7357 8.42505L20.745 8.42379L20.6116 7.43273ZM19.0928 7.70741L19.3306 8.67872L19.3353 8.67756L19.0928 7.70741ZM18.2768 8.01442L17.8296 7.11999L17.8296 7.11999L18.2768 8.01442ZM17.5658 8.60419L16.7719 7.99606L16.7638 8.00693L17.5658 8.60419ZM17.4931 10.4301L16.5953 10.8705L16.5953 10.8705L17.4931 10.4301ZM18.196 11.1491L17.6877 12.0103L17.6939 12.0139L18.196 11.1491ZM19.5937 12.1186V11.1186C19.0249 11.1186 18.6355 11.0185 18.3735 10.8796L17.9051 11.7631L17.4368 12.6466C18.0689 12.9817 18.8051 13.1186 19.5937 13.1186V12.1186ZM17.9051 11.7631L18.3735 10.8796C18.0711 10.7193 17.8871 10.5326 17.7723 10.3311L16.9033 10.8259L16.0344 11.3208C16.3612 11.8948 16.8451 12.333 17.4368 12.6466L17.9051 11.7631ZM16.9033 10.8259L17.7723 10.3311C17.6386 10.0963 17.5721 9.84703 17.5721 9.5656H16.5721H15.5721C15.5721 10.189 15.7264 10.78 16.0344 11.3208L16.9033 10.8259ZM16.5721 9.5656H17.5721C17.5721 9.19589 17.6513 8.97909 17.7375 8.84878L16.9033 8.29719L16.0692 7.7456C15.7137 8.28315 15.5721 8.91197 15.5721 9.5656H16.5721ZM16.9033 8.29719L17.7354 8.85189C17.8702 8.64972 18.0403 8.49486 18.2573 8.37825L17.784 7.49736L17.3106 6.61647C16.8059 6.88765 16.3889 7.26601 16.0713 7.74249L16.9033 8.29719ZM17.784 7.49736L18.2573 8.37825C18.5305 8.23143 18.8271 8.1236 19.1508 8.05633L18.9473 7.07725L18.7439 6.09816C18.2382 6.20324 17.7591 6.37549 17.3106 6.61646L17.784 7.49736ZM18.9473 7.07725L19.1455 8.05742C19.6265 7.96019 20.1448 7.87496 20.701 7.80218L20.5712 6.81064L20.4415 5.81909C19.8451 5.89713 19.2808 5.98963 18.7492 6.09707L18.9473 7.07725ZM20.5712 6.81064L20.7088 7.80113C21.2828 7.72141 21.8091 7.65532 22.2882 7.60268L22.179 6.60866L22.0697 5.61464C21.5686 5.66972 21.0231 5.73828 20.4337 5.82014L20.5712 6.81064ZM22.179 6.60866L22.2882 7.60268C22.78 7.54864 23.1556 7.50453 23.4099 7.47062L23.2777 6.47939L23.1456 5.48817C22.9151 5.51889 22.5583 5.56096 22.0697 5.61464L22.179 6.60866ZM23.2777 6.47939L22.723 5.64734L22.4807 5.80893L23.0354 6.64098L23.5901 7.47303L23.8324 7.31144L23.2777 6.47939ZM23.0354 6.64098L24.035 6.66714C24.0647 5.53487 23.8679 4.48714 23.2482 3.71876L22.4698 4.34652L21.6914 4.97427C21.8797 5.2077 22.0599 5.68961 22.0357 6.61481L23.0354 6.64098ZM22.4698 4.34652L23.2556 3.72796C22.5799 2.86974 21.4956 2.58708 20.3531 2.58708V3.58708V4.58708C21.2357 4.58708 21.5626 4.81072 21.6841 4.96508L22.4698 4.34652ZM20.3531 3.58708V2.58708C19.4754 2.58708 18.6579 2.78441 17.9916 3.27412L18.5838 4.07991L19.176 4.88569C19.4038 4.7183 19.7658 4.58708 20.3531 4.58708V3.58708ZM18.5838 4.07991L17.9933 3.27288C17.3211 3.76471 16.9078 4.48591 16.6878 5.31928L17.6547 5.57454L18.6216 5.82979C18.757 5.31665 18.9632 5.04143 19.1743 4.88694L18.5838 4.07991ZM17.6547 5.57454L17.9071 4.60692L17.1638 4.41302L16.9114 5.38064L16.659 6.34826L17.4023 6.54215L17.6547 5.57454ZM16.9114 5.38064L17.8838 5.61401C18.0292 5.00827 18.3028 4.61766 18.674 4.3568L18.099 3.53861L17.5241 2.72042C16.6996 3.29979 16.1814 4.13719 15.939 5.14727L16.9114 5.38064ZM18.099 3.53861L18.6705 4.35921C19.068 4.08243 19.6168 3.90844 20.3854 3.90844V2.90844V1.90844C19.312 1.90844 18.3366 2.15456 17.5275 2.718L18.099 3.53861ZM20.3854 2.90844V3.90844C21.0604 3.90844 21.541 4.04548 21.8844 4.25497L22.4052 3.40126L22.926 2.54756C22.1922 2.09995 21.3263 1.90844 20.3854 1.90844V2.90844ZM22.4052 3.40126L21.8844 4.25497C22.2385 4.47096 22.4461 4.7355 22.559 5.06142L23.5039 4.73431L24.4489 4.4072C24.174 3.61283 23.6491 2.98866 22.926 2.54756L22.4052 3.40126ZM23.5039 4.73431L22.5601 5.06466C22.6028 5.18666 22.6442 5.36757 22.671 5.62267L23.6655 5.51798L24.66 5.4133C24.6223 5.05439 24.5559 4.71285 24.4478 4.40396L23.5039 4.73431ZM23.6655 5.51798L22.671 5.62267C22.6999 5.897 22.714 6.16094 22.714 6.41476H23.714H24.714C24.714 6.08689 24.6958 5.75297 24.66 5.4133L23.6655 5.51798ZM23.714 6.41476H22.714V11.8762H23.714H24.714V6.41476H23.714ZM23.714 11.8762V10.8762H23.0838V11.8762V12.8762H23.714V11.8762ZM23.0838 11.8762H24.0838V9.48481H23.0838H22.0838V11.8762H23.0838ZM23.0838 9.48481L23.0339 10.4836L23.3571 10.4997L23.407 9.50097L23.4569 8.50222L23.1338 8.48606L23.0838 9.48481ZM23.407 9.50097L22.4438 9.23204C22.2739 9.84059 21.9531 10.2795 21.4723 10.5988L22.0255 11.4319L22.5787 12.2649C23.4767 11.6686 24.0769 10.8203 24.3702 9.7699L23.407 9.50097ZM22.0255 11.4319L21.4723 10.5988C20.9669 10.9344 20.3543 11.1186 19.5937 11.1186V12.1186V13.1186C20.6966 13.1186 21.7052 12.845 22.5787 12.2649L22.0255 11.4319ZM19.5614 11.44V12.44C20.3115 12.44 21.0167 12.305 21.6524 12.005L21.2256 11.1006L20.7989 10.1963C20.4758 10.3487 20.0715 10.44 19.5614 10.44V11.44ZM21.2256 11.1006L21.6485 12.0068C22.2878 11.7085 22.8175 11.2694 23.2178 10.6944L22.3971 10.1231L21.5764 9.55169C21.3842 9.82773 21.133 10.0403 20.8028 10.1944L21.2256 11.1006ZM22.3971 10.1231L23.2163 10.6965C23.6221 10.1169 23.8627 9.44647 23.9617 8.71387L22.9707 8.57996L21.9797 8.44604C21.9172 8.90915 21.7754 9.26747 21.5779 9.5496L22.3971 10.1231ZM22.9707 8.57996L23.9607 8.72138C24.0113 8.3673 24.0354 7.99646 24.0354 7.61047H23.0354H22.0354C22.0354 7.91389 22.0164 8.18938 21.9808 8.43853L22.9707 8.57996ZM23.0354 7.61047H24.0354C24.0354 7.60979 24.0354 7.60912 24.0354 7.60845C24.0354 7.60777 24.0354 7.6071 24.0354 7.60643C24.0354 7.60576 24.0354 7.60509 24.0354 7.60442C24.0354 7.60375 24.0354 7.60307 24.0354 7.6024C24.0354 7.60173 24.0354 7.60106 24.0354 7.60039C24.0354 7.59973 24.0354 7.59906 24.0354 7.59839C24.0354 7.59772 24.0354 7.59705 24.0354 7.59638C24.0354 7.59571 24.0354 7.59505 24.0354 7.59438C24.0354 7.59371 24.0354 7.59304 24.0354 7.59238C24.0354 7.59171 24.0354 7.59104 24.0354 7.59038C24.0354 7.58971 24.0354 7.58905 24.0354 7.58838C24.0354 7.58772 24.0354 7.58705 24.0354 7.58639C24.0354 7.58572 24.0354 7.58506 24.0354 7.5844C24.0354 7.58373 24.0354 7.58307 24.0354 7.58241C24.0354 7.58174 24.0354 7.58108 24.0354 7.58042C24.0354 7.57976 24.0354 7.57909 24.0354 7.57843C24.0354 7.57777 24.0354 7.57711 24.0354 7.57645C24.0354 7.57579 24.0354 7.57513 24.0354 7.57447C24.0354 7.57381 24.0354 7.57315 24.0354 7.57249C24.0354 7.57183 24.0354 7.57117 24.0354 7.57051C24.0354 7.56986 24.0354 7.5692 24.0354 7.56854C24.0354 7.56788 24.0354 7.56722 24.0354 7.56657C24.0354 7.56591 24.0354 7.56525 24.0354 7.5646C24.0354 7.56394 24.0354 7.56329 24.0354 7.56263C24.0354 7.56197 24.0354 7.56132 24.0354 7.56066C24.0354 7.56001 24.0354 7.55936 24.0354 7.5587C24.0354 7.55805 24.0354 7.55739 24.0354 7.55674C24.0354 7.55609 24.0354 7.55543 24.0354 7.55478C24.0354 7.55413 24.0354 7.55348 24.0354 7.55283C24.0354 7.55217 24.0354 7.55152 24.0354 7.55087C24.0354 7.55022 24.0354 7.54957 24.0354 7.54892C24.0354 7.54827 24.0354 7.54762 24.0354 7.54697C24.0354 7.54632 24.0354 7.54567 24.0354 7.54502C24.0354 7.54437 24.0354 7.54372 24.0354 7.54308C24.0354 7.54243 24.0354 7.54178 24.0354 7.54113C24.0354 7.54049 24.0354 7.53984 24.0354 7.53919C24.0354 7.53855 24.0354 7.5379 24.0354 7.53725C24.0354 7.53661 24.0354 7.53596 24.0354 7.53532C24.0354 7.53467 24.0354 7.53403 24.0354 7.53338C24.0354 7.53274 24.0354 7.53209 24.0354 7.53145C24.0354 7.53081 24.0354 7.53016 24.0354 7.52952C24.0354 7.52888 24.0354 7.52823 24.0354 7.52759C24.0354 7.52695 24.0354 7.52631 24.0354 7.52567C24.0354 7.52503 24.0354 7.52438 24.0354 7.52374C24.0354 7.5231 24.0354 7.52246 24.0354 7.52182C24.0354 7.52118 24.0354 7.52054 24.0354 7.5199C24.0354 7.51926 24.0354 7.51863 24.0354 7.51799C24.0354 7.51735 24.0354 7.51671 24.0354 7.51607C24.0354 7.51544 24.0354 7.5148 24.0354 7.51416C24.0354 7.51352 24.0354 7.51289 24.0354 7.51225C24.0354 7.51161 24.0354 7.51098 24.0354 7.51034C24.0354 7.50971 24.0354 7.50907 24.0354 7.50844C24.0354 7.5078 24.0354 7.50717 24.0354 7.50653C24.0354 7.5059 24.0354 7.50527 24.0354 7.50463C24.0354 7.504 24.0354 7.50337 24.0354 7.50273C24.0354 7.5021 24.0354 7.50147 24.0354 7.50084C24.0354 7.50021 24.0354 7.49957 24.0354 7.49894C24.0354 7.49831 24.0354 7.49768 24.0354 7.49705C24.0354 7.49642 24.0354 7.49579 24.0354 7.49516C24.0354 7.49453 24.0354 7.4939 24.0354 7.49327C24.0354 7.49264 24.0354 7.49202 24.0354 7.49139C24.0354 7.49076 24.0354 7.49013 24.0354 7.4895C24.0354 7.48888 24.0354 7.48825 24.0354 7.48762C24.0354 7.487 24.0354 7.48637 24.0354 7.48574C24.0354 7.48512 24.0354 7.48449 24.0354 7.48387C24.0354 7.48324 24.0354 7.48262 24.0354 7.48199C24.0354 7.48137 24.0354 7.48075 24.0354 7.48012C24.0354 7.4795 24.0354 7.47887 24.0354 7.47825C24.0354 7.47763 24.0354 7.47701 24.0354 7.47638C24.0354 7.47576 24.0354 7.47514 24.0354 7.47452C24.0354 7.4739 24.0354 7.47328 24.0354 7.47265C24.0354 7.47203 24.0354 7.47141 24.0354 7.47079C24.0354 7.47017 24.0354 7.46955 24.0354 7.46893C24.0354 7.46832 24.0354 7.4677 24.0354 7.46708C24.0354 7.46646 24.0354 7.46584 24.0354 7.46522C24.0354 7.46461 24.0354 7.46399 24.0354 7.46337C24.0354 7.46275 24.0354 7.46214 24.0354 7.46152C24.0354 7.46091 24.0354 7.46029 24.0354 7.45967C24.0354 7.45906 24.0354 7.45844 24.0354 7.45783C24.0354 7.45721 24.0354 7.4566 24.0354 7.45598C24.0354 7.45537 24.0354 7.45476 24.0354 7.45414C24.0354 7.45353 24.0354 7.45292 24.0354 7.4523C24.0354 7.45169 24.0354 7.45108 24.0354 7.45047C24.0354 7.44986 24.0354 7.44924 24.0354 7.44863C24.0354 7.44802 24.0354 7.44741 24.0354 7.4468C24.0354 7.44619 24.0354 7.44558 24.0354 7.44497C24.0354 7.44436 24.0354 7.44375 24.0354 7.44314C24.0354 7.44253 24.0354 7.44193 24.0354 7.44132C24.0354 7.44071 24.0354 7.4401 24.0354 7.43949C24.0354 7.43889 24.0354 7.43828 24.0354 7.43767C24.0354 7.43707 24.0354 7.43646 24.0354 7.43585C24.0354 7.43525 24.0354 7.43464 24.0354 7.43404C24.0354 7.43343 24.0354 7.43283 24.0354 7.43222C24.0354 7.43162 24.0354 7.43101 24.0354 7.43041C24.0354 7.42981 24.0354 7.4292 24.0354 7.4286C24.0354 7.428 24.0354 7.4274 24.0354 7.42679C24.0354 7.42619 24.0354 7.42559 24.0354 7.42499C24.0354 7.42439 24.0354 7.42378 24.0354 7.42318C24.0354 7.42258 24.0354 7.42198 24.0354 7.42138C24.0354 7.42078 24.0354 7.42018 24.0354 7.41958C24.0354 7.41898 24.0354 7.41839 24.0354 7.41779C24.0354 7.41719 24.0354 7.41659 24.0354 7.41599C24.0354 7.41539 24.0354 7.4148 24.0354 7.4142C24.0354 7.4136 24.0354 7.41301 24.0354 7.41241C24.0354 7.41181 24.0354 7.41122 24.0354 7.41062C24.0354 7.41003 24.0354 7.40943 24.0354 7.40884C24.0354 7.40824 24.0354 7.40765 24.0354 7.40705C24.0354 7.40646 24.0354 7.40586 24.0354 7.40527C24.0354 7.40468 24.0354 7.40409 24.0354 7.40349C24.0354 7.4029 24.0354 7.40231 24.0354 7.40172C24.0354 7.40112 24.0354 7.40053 24.0354 7.39994C24.0354 7.39935 24.0354 7.39876 24.0354 7.39817C24.0354 7.39758 24.0354 7.39699 24.0354 7.3964C24.0354 7.39581 24.0354 7.39522 24.0354 7.39463C24.0354 7.39404 24.0354 7.39345 24.0354 7.39287C24.0354 7.39228 24.0354 7.39169 24.0354 7.3911C24.0354 7.39051 24.0354 7.38993 24.0354 7.38934C24.0354 7.38875 24.0354 7.38817 24.0354 7.38758C24.0354 7.387 24.0354 7.38641 24.0354 7.38582C24.0354 7.38524 24.0354 7.38465 24.0354 7.38407C24.0354 7.38349 24.0354 7.3829 24.0354 7.38232C24.0354 7.38173 24.0354 7.38115 24.0354 7.38057C24.0354 7.37998 24.0354 7.3794 24.0354 7.37882C24.0354 7.37824 24.0354 7.37766 24.0354 7.37707C24.0354 7.37649 24.0354 7.37591 24.0354 7.37533C24.0354 7.37475 24.0354 7.37417 24.0354 7.37359C24.0354 7.37301 24.0354 7.37243 24.0354 7.37185C24.0354 7.37127 24.0354 7.37069 24.0354 7.37011C24.0354 7.36953 24.0354 7.36896 24.0354 7.36838C24.0354 7.3678 24.0354 7.36722 24.0354 7.36665C24.0354 7.36607 24.0354 7.36549 24.0354 7.36492C24.0354 7.36434 24.0354 7.36376 24.0354 7.36319C24.0354 7.36261 24.0354 7.36204 24.0354 7.36146C24.0354 7.36089 24.0354 7.36031 24.0354 7.35974C24.0354 7.35916 24.0354 7.35859 24.0354 7.35802C24.0354 7.35744 24.0354 7.35687 24.0354 7.3563C24.0354 7.35573 24.0354 7.35515 24.0354 7.35458C24.0354 7.35401 24.0354 7.35344 24.0354 7.35287C24.0354 7.3523 24.0354 7.35172 24.0354 7.35115C24.0354 7.35058 24.0354 7.35001 24.0354 7.34944C24.0354 7.34887 24.0354 7.3483 24.0354 7.34774C24.0354 7.34717 24.0354 7.3466 24.0354 7.34603C24.0354 7.34546 24.0354 7.34489 24.0354 7.34433C24.0354 7.34376 24.0354 7.34319 24.0354 7.34263C24.0354 7.34206 24.0354 7.34149 24.0354 7.34093C24.0354 7.34036 24.0354 7.33979 24.0354 7.33923C24.0354 7.33866 24.0354 7.3381 24.0354 7.33753C24.0354 7.33697 24.0354 7.33641 24.0354 7.33584C24.0354 7.33528 24.0354 7.33471 24.0354 7.33415C24.0354 7.33359 24.0354 7.33303 24.0354 7.33246C24.0354 7.3319 24.0354 7.33134 24.0354 7.33078C24.0354 7.33022 24.0354 7.32966 24.0354 7.32909C24.0354 7.32853 24.0354 7.32797 24.0354 7.32741C24.0354 7.32685 24.0354 7.32629 24.0354 7.32573C24.0354 7.32517 24.0354 7.32462 24.0354 7.32406C24.0354 7.3235 24.0354 7.32294 24.0354 7.32238C24.0354 7.32182 24.0354 7.32127 24.0354 7.32071C24.0354 7.32015 24.0354 7.3196 24.0354 7.31904C24.0354 7.31848 24.0354 7.31793 24.0354 7.31737C24.0354 7.31682 24.0354 7.31626 24.0354 7.31571C24.0354 7.31515 24.0354 7.3146 24.0354 7.31404C24.0354 7.31349 24.0354 7.31293 24.0354 7.31238C24.0354 7.31183 24.0354 7.31127 24.0354 7.31072C24.0354 7.31017 24.0354 7.30962 24.0354 7.30906C24.0354 7.30851 24.0354 7.30796 24.0354 7.30741C24.0354 7.30686 24.0354 7.30631 24.0354 7.30576C24.0354 7.30521 24.0354 7.30466 24.0354 7.30411C24.0354 7.30356 24.0354 7.30301 24.0354 7.30246C24.0354 7.30191 24.0354 7.30136 24.0354 7.30081C24.0354 7.30026 24.0354 7.29972 24.0354 7.29917C24.0354 7.29862 24.0354 7.29807 24.0354 7.29753C24.0354 7.29698 24.0354 7.29643 24.0354 7.29589C24.0354 7.29534 24.0354 7.2948 24.0354 7.29425C24.0354 7.29371 24.0354 7.29316 24.0354 7.29262C24.0354 7.29207 24.0354 7.29153 24.0354 7.29098C24.0354 7.29044 24.0354 7.2899 24.0354 7.28935C24.0354 7.28881 24.0354 7.28827 24.0354 7.28773C24.0354 7.28718 24.0354 7.28664 24.0354 7.2861C24.0354 7.28556 24.0354 7.28502 24.0354 7.28448C24.0354 7.28394 24.0354 7.28339 24.0354 7.28285C24.0354 7.28231 24.0354 7.28177 24.0354 7.28124C24.0354 7.2807 24.0354 7.28016 24.0354 7.27962C24.0354 7.27908 24.0354 7.27854 24.0354 7.278C24.0354 7.27747 24.0354 7.27693 24.0354 7.27639C24.0354 7.27585 24.0354 7.27532 24.0354 7.27478C24.0354 7.27424 24.0354 7.27371 24.0354 7.27317C24.0354 7.27264 24.0354 7.2721 24.0354 7.27157C24.0354 7.27103 24.0354 7.2705 24.0354 7.26996C24.0354 7.26943 24.0354 7.26889 24.0354 7.26836C24.0354 7.26783 24.0354 7.26729 24.0354 7.26676C24.0354 7.26623 24.0354 7.2657 24.0354 7.26516C24.0354 7.26463 24.0354 7.2641 24.0354 7.26357C24.0354 7.26304 24.0354 7.26251 24.0354 7.26198C24.0354 7.26145 24.0354 7.26092 24.0354 7.26039C24.0354 7.25986 24.0354 7.25933 24.0354 7.2588C24.0354 7.25827 24.0354 7.25774 24.0354 7.25721C24.0354 7.25668 24.0354 7.25616 24.0354 7.25563C24.0354 7.2551 24.0354 7.25457 24.0354 7.25405C24.0354 7.25352 24.0354 7.25299 24.0354 7.25247C24.0354 7.25194 24.0354 7.25142 24.0354 7.25089C24.0354 7.25037 24.0354 7.24984 24.0354 7.24932C24.0354 7.24879 24.0354 7.24827 24.0354 7.24774C24.0354 7.24722 24.0354 7.2467 24.0354 7.24617C24.0354 7.24565 24.0354 7.24513 24.0354 7.24461C24.0354 7.24408 24.0354 7.24356 24.0354 7.24304C24.0354 7.24252 24.0354 7.242 24.0354 7.24148C24.0354 7.24095 24.0354 7.24043 24.0354 7.23991C24.0354 7.23939 24.0354 7.23887 24.0354 7.23835C24.0354 7.23784 24.0354 7.23732 24.0354 7.2368C24.0354 7.23628 24.0354 7.23576 24.0354 7.23524C24.0354 7.23472 24.0354 7.23421 24.0354 7.23369C24.0354 7.23317 24.0354 7.23266 24.0354 7.23214C24.0354 7.23162 24.0354 7.23111 24.0354 7.23059C24.0354 7.23008 24.0354 7.22956 24.0354 7.22905C24.0354 7.22853 24.0354 7.22802 24.0354 7.2275C24.0354 7.22699 24.0354 7.22647 24.0354 7.22596C24.0354 7.22545 24.0354 7.22493 24.0354 7.22442C24.0354 7.22391 24.0354 7.2234 24.0354 7.22288C24.0354 7.22237 24.0354 7.22186 24.0354 7.22135C24.0354 7.22084 24.0354 7.22033 24.0354 7.21982C24.0354 7.21931 24.0354 7.21879 24.0354 7.21829C24.0354 7.21778 24.0354 7.21727 24.0354 7.21676C24.0354 7.21625 24.0354 7.21574 24.0354 7.21523C24.0354 7.21472 24.0354 7.21421 24.0354 7.21371C24.0354 7.2132 24.0354 7.21269 24.0354 7.21219C24.0354 7.21168 24.0354 7.21117 24.0354 7.21067C24.0354 7.21016 24.0354 7.20965 24.0354 7.20915C24.0354 7.20864 24.0354 7.20814 24.0354 7.20763C24.0354 7.20713 24.0354 7.20663 24.0354 7.20612C24.0354 7.20562 24.0354 7.20511 24.0354 7.20461C24.0354 7.20411 24.0354 7.2036 24.0354 7.2031C24.0354 7.2026 24.0354 7.2021 24.0354 7.2016C24.0354 7.20109 24.0354 7.20059 24.0354 7.20009C24.0354 7.19959 24.0354 7.19909 24.0354 7.19859C24.0354 7.19809 24.0354 7.19759 24.0354 7.19709C24.0354 7.19659 24.0354 7.19609 24.0354 7.19559C24.0354 7.1951 24.0354 7.1946 24.0354 7.1941C24.0354 7.1936 24.0354 7.1931 24.0354 7.19261C24.0354 7.19211 24.0354 7.19161 24.0354 7.19112C24.0354 7.19062 24.0354 7.19012 24.0354 7.18963C24.0354 7.18913 24.0354 7.18864 24.0354 7.18814C24.0354 7.18765 24.0354 7.18715 24.0354 7.18666C24.0354 7.18616 24.0354 7.18567 24.0354 7.18518C24.0354 7.18468 24.0354 7.18419 24.0354 7.1837C24.0354 7.1832 24.0354 7.18271 24.0354 7.18222C24.0354 7.18173 24.0354 7.18124 24.0354 7.18074C24.0354 7.18025 24.0354 7.17976 24.0354 7.17927C24.0354 7.17878 24.0354 7.17829 24.0354 7.1778C24.0354 7.17731 24.0354 7.17682 24.0354 7.17633C24.0354 7.17584 24.0354 7.17535 24.0354 7.17487C24.0354 7.17438 24.0354 7.17389 24.0354 7.1734C24.0354 7.17291 24.0354 7.17243 24.0354 7.17194C24.0354 7.17145 24.0354 7.17097 24.0354 7.17048C24.0354 7.17 24.0354 7.16951 24.0354 7.16902C24.0354 7.16854 24.0354 7.16805 24.0354 7.16757C24.0354 7.16708 24.0354 7.1666 24.0354 7.16612C24.0354 7.16563 24.0354 7.16515 24.0354 7.16467C24.0354 7.16418 24.0354 7.1637 24.0354 7.16322C24.0354 7.16273 24.0354 7.16225 24.0354 7.16177C24.0354 7.16129 24.0354 7.16081 24.0354 7.16033C24.0354 7.15985 24.0354 7.15937 24.0354 7.15889C24.0354 7.15841 24.0354 7.15793 24.0354 7.15745C24.0354 7.15697 24.0354 7.15649 24.0354 7.15601C24.0354 7.15553 24.0354 7.15505 24.0354 7.15457C24.0354 7.1541 24.0354 7.15362 24.0354 7.15314C24.0354 7.15266 24.0354 7.15219 24.0354 7.15171C24.0354 7.15123 24.0354 7.15076 24.0354 7.15028C24.0354 7.14981 24.0354 7.14933 24.0354 7.14886C24.0354 7.14838 24.0354 7.14791 24.0354 7.14743C24.0354 7.14696 24.0354 7.14648 24.0354 7.14601C24.0354 7.14554 24.0354 7.14506 24.0354 7.14459C24.0354 7.14412 24.0354 7.14364 24.0354 7.14317C24.0354 7.1427 24.0354 7.14223 24.0354 7.14176C24.0354 7.14129 24.0354 7.14082 24.0354 7.14034C24.0354 7.13987 24.0354 7.1394 24.0354 7.13893C24.0354 7.13846 24.0354 7.13799 24.0354 7.13753C24.0354 7.13706 24.0354 7.13659 24.0354 7.13612C24.0354 7.13565 24.0354 7.13518 24.0354 7.13472C24.0354 7.13425 24.0354 7.13378 24.0354 7.13331C24.0354 7.13285 24.0354 7.13238 24.0354 7.13191C24.0354 7.13145 24.0354 7.13098 24.0354 7.13052C24.0354 7.13005 24.0354 7.12959 24.0354 7.12912C24.0354 7.12866 24.0354 7.12819 24.0354 7.12773C24.0354 7.12726 24.0354 7.1268 24.0354 7.12634C24.0354 7.12587 24.0354 7.12541 24.0354 7.12495C24.0354 7.12449 24.0354 7.12403 24.0354 7.12356C24.0354 7.1231 24.0354 7.12264 24.0354 7.12218C24.0354 7.12172 24.0354 7.12126 24.0354 7.1208C24.0354 7.12034 24.0354 7.11988 24.0354 7.11942C24.0354 7.11896 24.0354 7.1185 24.0354 7.11804C24.0354 7.11758 24.0354 7.11712 24.0354 7.11667C24.0354 7.11621 24.0354 7.11575 24.0354 7.11529C24.0354 7.11484 24.0354 7.11438 24.0354 7.11392C24.0354 7.11347 24.0354 7.11301 24.0354 7.11255C24.0354 7.1121 24.0354 7.11164 24.0354 7.11119C24.0354 7.11073 24.0354 7.11028 24.0354 7.10982C24.0354 7.10937 24.0354 7.10891 24.0354 7.10846C24.0354 7.10801 24.0354 7.10755 24.0354 7.1071C24.0354 7.10665 24.0354 7.1062 24.0354 7.10574C24.0354 7.10529 24.0354 7.10484 24.0354 7.10439C24.0354 7.10394 24.0354 7.10349 24.0354 7.10304C24.0354 7.10259 24.0354 7.10214 24.0354 7.10169C24.0354 7.10124 24.0354 7.10079 24.0354 7.10034C24.0354 7.09989 24.0354 7.09944 24.0354 7.09899C24.0354 7.09854 24.0354 7.09809 24.0354 7.09765C24.0354 7.0972 24.0354 7.09675 24.0354 7.0963C24.0354 7.09586 24.0354 7.09541 24.0354 7.09496C24.0354 7.09452 24.0354 7.09407 24.0354 7.09363C24.0354 7.09318 24.0354 7.09274 24.0354 7.09229C24.0354 7.09185 24.0354 7.0914 24.0354 7.09096C24.0354 7.09052 24.0354 7.09007 24.0354 7.08963C24.0354 7.08919 24.0354 7.08874 24.0354 7.0883C24.0354 7.08786 24.0354 7.08742 24.0354 7.08697C24.0354 7.08653 24.0354 7.08609 24.0354 7.08565C24.0354 7.08521 24.0354 7.08477 24.0354 7.08433C24.0354 7.08389 24.0354 7.08345 24.0354 7.08301C24.0354 7.08257 24.0354 7.08213 24.0354 7.08169C24.0354 7.08125 24.0354 7.08081 24.0354 7.08038C24.0354 7.07994 24.0354 7.0795 24.0354 7.07906C24.0354 7.07862 24.0354 7.07819 24.0354 7.07775C24.0354 7.07731 24.0354 7.07688 24.0354 7.07644C24.0354 7.07601 24.0354 7.07557 24.0354 7.07514C24.0354 7.0747 24.0354 7.07427 24.0354 7.07383C24.0354 7.0734 24.0354 7.07296 24.0354 7.07253C24.0354 7.0721 24.0354 7.07166 24.0354 7.07123C24.0354 7.0708 24.0354 7.07037 24.0354 7.06993C24.0354 7.0695 24.0354 7.06907 24.0354 7.06864C24.0354 7.06821 24.0354 7.06778 24.0354 7.06734C24.0354 7.06691 24.0354 7.06648 24.0354 7.06605C24.0354 7.06562 24.0354 7.06519 24.0354 7.06477C24.0354 7.06434 24.0354 7.06391 24.0354 7.06348C24.0354 7.06305 24.0354 7.06262 24.0354 7.06219C24.0354 7.06177 24.0354 7.06134 24.0354 7.06091C24.0354 7.06049 24.0354 7.06006 24.0354 7.05963C24.0354 7.05921 24.0354 7.05878 24.0354 7.05836C24.0354 7.05793 24.0354 7.0575 24.0354 7.05708C24.0354 7.05666 24.0354 7.05623 24.0354 7.05581C24.0354 7.05538 24.0354 7.05496 24.0354 7.05454C24.0354 7.05411 24.0354 7.05369 24.0354 7.05327C24.0354 7.05284 24.0354 7.05242 24.0354 7.052C24.0354 7.05158 24.0354 7.05116 24.0354 7.05074C24.0354 7.05032 24.0354 7.0499 24.0354 7.04947C24.0354 7.04905 24.0354 7.04863 24.0354 7.04822C24.0354 7.0478 24.0354 7.04738 24.0354 7.04696C24.0354 7.04654 24.0354 7.04612 24.0354 7.0457C24.0354 7.04528 24.0354 7.04487 24.0354 7.04445C24.0354 7.04403 24.0354 7.04361 24.0354 7.0432C24.0354 7.04278 24.0354 7.04237 24.0354 7.04195C24.0354 7.04153 24.0354 7.04112 24.0354 7.0407C24.0354 7.04029 24.0354 7.03987 24.0354 7.03946C24.0354 7.03904 24.0354 7.03863 24.0354 7.03822C24.0354 7.0378 24.0354 7.03739 24.0354 7.03698C24.0354 7.03656 24.0354 7.03615 24.0354 7.03574C24.0354 7.03533 24.0354 7.03492 24.0354 7.0345C24.0354 7.03409 24.0354 7.03368 24.0354 7.03327C24.0354 7.03286 24.0354 7.03245 24.0354 7.03204C24.0354 7.03163 24.0354 7.03122 24.0354 7.03081C24.0354 7.0304 24.0354 7.02999 24.0354 7.02958C24.0354 7.02918 24.0354 7.02877 24.0354 7.02836C24.0354 7.02795 24.0354 7.02755 24.0354 7.02714C24.0354 7.02673 24.0354 7.02632 24.0354 7.02592C24.0354 7.02551 24.0354 7.02511 24.0354 7.0247C24.0354 7.0243 24.0354 7.02389 24.0354 7.02349C24.0354 7.02308 24.0354 7.02268 24.0354 7.02227C24.0354 7.02187 24.0354 7.02146 24.0354 7.02106C24.0354 7.02066 24.0354 7.02026 24.0354 7.01985C24.0354 7.01945 24.0354 7.01905 24.0354 7.01865C24.0354 7.01824 24.0354 7.01784 24.0354 7.01744C24.0354 7.01704 24.0354 7.01664 24.0354 7.01624C24.0354 7.01584 24.0354 7.01544 24.0354 7.01504C24.0354 7.01464 24.0354 7.01424 24.0354 7.01384C24.0354 7.01344 24.0354 7.01305 24.0354 7.01265C24.0354 7.01225 24.0354 7.01185 24.0354 7.01145C24.0354 7.01106 24.0354 7.01066 24.0354 7.01026C24.0354 7.00987 24.0354 7.00947 24.0354 7.00907C24.0354 7.00868 24.0354 7.00828 24.0354 7.00789C24.0354 7.00749 24.0354 7.0071 24.0354 7.0067C24.0354 7.00631 24.0354 7.00591 24.0354 7.00552C24.0354 7.00513 24.0354 7.00473 24.0354 7.00434C24.0354 7.00395 24.0354 7.00356 24.0354 7.00316C24.0354 7.00277 24.0354 7.00238 24.0354 7.00199C24.0354 7.0016 24.0354 7.00121 24.0354 7.00081C24.0354 7.00042 24.0354 7.00003 24.0354 6.99964C24.0354 6.99925 24.0354 6.99886 24.0354 6.99848C24.0354 6.99809 24.0354 6.9977 24.0354 6.99731C24.0354 6.99692 24.0354 6.99653 24.0354 6.99614C24.0354 6.99576 24.0354 6.99537 24.0354 6.99498C24.0354 6.9946 24.0354 6.99421 24.0354 6.99382C24.0354 6.99344 24.0354 6.99305 24.0354 6.99266C24.0354 6.99228 24.0354 6.99189 24.0354 6.99151C24.0354 6.99112 24.0354 6.99074 24.0354 6.99036C24.0354 6.98997 24.0354 6.98959 24.0354 6.9892C24.0354 6.98882 24.0354 6.98844 24.0354 6.98806C24.0354 6.98767 24.0354 6.98729 24.0354 6.98691C24.0354 6.98653 24.0354 6.98615 24.0354 6.98576C24.0354 6.98538 24.0354 6.985 24.0354 6.98462C24.0354 6.98424 24.0354 6.98386 24.0354 6.98348C24.0354 6.9831 24.0354 6.98272 24.0354 6.98235C24.0354 6.98197 24.0354 6.98159 24.0354 6.98121C24.0354 6.98083 24.0354 6.98045 24.0354 6.98008C24.0354 6.9797 24.0354 6.97932 24.0354 6.97895C24.0354 6.97857 24.0354 6.97819 24.0354 6.97782C24.0354 6.97744 24.0354 6.97706 24.0354 6.97669C24.0354 6.97631 24.0354 6.97594 24.0354 6.97557C24.0354 6.97519 24.0354 6.97482 24.0354 6.97444C24.0354 6.97407 24.0354 6.9737 24.0354 6.97332C24.0354 6.97295 24.0354 6.97258 24.0354 6.97221C24.0354 6.97183 24.0354 6.97146 24.0354 6.97109C24.0354 6.97072 24.0354 6.97035 24.0354 6.96998C24.0354 6.96961 24.0354 6.96924 24.0354 6.96887C24.0354 6.9685 24.0354 6.96813 24.0354 6.96776C24.0354 6.96739 24.0354 6.96702 24.0354 6.96665C24.0354 6.96628 24.0354 6.96591 24.0354 6.96555C24.0354 6.96518 24.0354 6.96481 24.0354 6.96444C24.0354 6.96408 24.0354 6.96371 24.0354 6.96334C24.0354 6.96298 24.0354 6.96261 24.0354 6.96225C24.0354 6.96188 24.0354 6.96151 24.0354 6.96115C24.0354 6.96079 24.0354 6.96042 24.0354 6.96006C24.0354 6.95969 24.0354 6.95933 24.0354 6.95897C24.0354 6.9586 24.0354 6.95824 24.0354 6.95788C24.0354 6.95751 24.0354 6.95715 24.0354 6.95679C24.0354 6.95643 24.0354 6.95607 24.0354 6.95571C24.0354 6.95534 24.0354 6.95498 24.0354 6.95462C24.0354 6.95426 24.0354 6.9539 24.0354 6.95354C24.0354 6.95318 24.0354 6.95282 24.0354 6.95247C24.0354 6.95211 24.0354 6.95175 24.0354 6.95139C24.0354 6.95103 24.0354 6.95067 24.0354 6.95032C24.0354 6.94996 24.0354 6.9496 24.0354 6.94925C24.0354 6.94889 24.0354 6.94853 24.0354 6.94818C24.0354 6.94782 24.0354 6.94746 24.0354 6.94711C24.0354 6.94675 24.0354 6.9464 24.0354 6.94605C24.0354 6.94569 24.0354 6.94534 24.0354 6.94498C24.0354 6.94463 24.0354 6.94428 24.0354 6.94392C24.0354 6.94357 24.0354 6.94322 24.0354 6.94286C24.0354 6.94251 24.0354 6.94216 24.0354 6.94181C24.0354 6.94146 24.0354 6.94111 24.0354 6.94076C24.0354 6.94041 24.0354 6.94005 24.0354 6.9397C24.0354 6.93935 24.0354 6.93901 24.0354 6.93866C24.0354 6.93831 24.0354 6.93796 24.0354 6.93761C24.0354 6.93726 24.0354 6.93691 24.0354 6.93656C24.0354 6.93622 24.0354 6.93587 24.0354 6.93552C24.0354 6.93518 24.0354 6.93483 24.0354 6.93448C24.0354 6.93414 24.0354 6.93379 24.0354 6.93344C24.0354 6.9331 24.0354 6.93275 24.0354 6.93241C24.0354 6.93206 24.0354 6.93172 24.0354 6.93138C24.0354 6.93103 24.0354 6.93069 24.0354 6.93034C24.0354 6.93 24.0354 6.92966 24.0354 6.92931C24.0354 6.92897 24.0354 6.92863 24.0354 6.92829C24.0354 6.92795 24.0354 6.9276 24.0354 6.92726C24.0354 6.92692 24.0354 6.92658 24.0354 6.92624C24.0354 6.9259 24.0354 6.92556 24.0354 6.92522C24.0354 6.92488 24.0354 6.92454 24.0354 6.9242C24.0354 6.92386 24.0354 6.92353 24.0354 6.92319C24.0354 6.92285 24.0354 6.92251 24.0354 6.92217C24.0354 6.92184 24.0354 6.9215 24.0354 6.92116C24.0354 6.92083 24.0354 6.92049 24.0354 6.92015C24.0354 6.91982 24.0354 6.91948 24.0354 6.91915C24.0354 6.91881 24.0354 6.91848 24.0354 6.91814C24.0354 6.91781 24.0354 6.91747 24.0354 6.91714C24.0354 6.91681 24.0354 6.91647 24.0354 6.91614C24.0354 6.91581 24.0354 6.91547 24.0354 6.91514C24.0354 6.91481 24.0354 6.91448 24.0354 6.91415C24.0354 6.91381 24.0354 6.91348 24.0354 6.91315C24.0354 6.91282 24.0354 6.91249 24.0354 6.91216C24.0354 6.91183 24.0354 6.9115 24.0354 6.91117C24.0354 6.91084 24.0354 6.91051 24.0354 6.91019C24.0354 6.90986 24.0354 6.90953 24.0354 6.9092C24.0354 6.90887 24.0354 6.90855 24.0354 6.90822C24.0354 6.90789 24.0354 6.90756 24.0354 6.90724C24.0354 6.90691 24.0354 6.90659 24.0354 6.90626C24.0354 6.90593 24.0354 6.90561 24.0354 6.90528C24.0354 6.90496 24.0354 6.90464 24.0354 6.90431C24.0354 6.90399 24.0354 6.90366 24.0354 6.90334C24.0354 6.90302 24.0354 6.90269 24.0354 6.90237C24.0354 6.90205 24.0354 6.90173 24.0354 6.9014C24.0354 6.90108 24.0354 6.90076 24.0354 6.90044C24.0354 6.90012 24.0354 6.8998 24.0354 6.89948C24.0354 6.89916 24.0354 6.89884 24.0354 6.89852C24.0354 6.8982 24.0354 6.89788 24.0354 6.89756C24.0354 6.89724 24.0354 6.89692 24.0354 6.8966C24.0354 6.89628 24.0354 6.89597 24.0354 6.89565C24.0354 6.89533 24.0354 6.89501 24.0354 6.8947C24.0354 6.89438 24.0354 6.89407 24.0354 6.89375C24.0354 6.89343 24.0354 6.89312 24.0354 6.8928C24.0354 6.89249 24.0354 6.89217 24.0354 6.89186C24.0354 6.89154 24.0354 6.89123 24.0354 6.89092C24.0354 6.8906 24.0354 6.89029 24.0354 6.88997C24.0354 6.88966 24.0354 6.88935 24.0354 6.88904C24.0354 6.88872 24.0354 6.88841 24.0354 6.8881C24.0354 6.88779 24.0354 6.88748 24.0354 6.88717C24.0354 6.88686 24.0354 6.88655 24.0354 6.88624C24.0354 6.88593 24.0354 6.88562 24.0354 6.88531C24.0354 6.885 24.0354 6.88469 24.0354 6.88438C24.0354 6.88407 24.0354 6.88376 24.0354 6.88346C24.0354 6.88315 24.0354 6.88284 24.0354 6.88253C24.0354 6.88223 24.0354 6.88192 24.0354 6.88161C24.0354 6.88131 24.0354 6.881 24.0354 6.88069C24.0354 6.88039 24.0354 6.88008 24.0354 6.87978C24.0354 6.87947 24.0354 6.87917 24.0354 6.87887C24.0354 6.87856 24.0354 6.87826 24.0354 6.87795C24.0354 6.87765 24.0354 6.87735 24.0354 6.87704C24.0354 6.87674 24.0354 6.87644 24.0354 6.87614C24.0354 6.87584 24.0354 6.87553 24.0354 6.87523C24.0354 6.87493 24.0354 6.87463 24.0354 6.87433C24.0354 6.87403 24.0354 6.87373 24.0354 6.87343C24.0354 6.87313 24.0354 6.87283 24.0354 6.87253C24.0354 6.87223 24.0354 6.87193 24.0354 6.87164C24.0354 6.87134 24.0354 6.87104 24.0354 6.87074C24.0354 6.87044 24.0354 6.87015 24.0354 6.86985C24.0354 6.86955 24.0354 6.86926 24.0354 6.86896C24.0354 6.86867 24.0354 6.86837 24.0354 6.86807C24.0354 6.86778 24.0354 6.86748 24.0354 6.86719H23.0354H22.0354C22.0354 6.86748 22.0354 6.86778 22.0354 6.86807C22.0354 6.86837 22.0354 6.86867 22.0354 6.86896C22.0354 6.86926 22.0354 6.86955 22.0354 6.86985C22.0354 6.87015 22.0354 6.87044 22.0354 6.87074C22.0354 6.87104 22.0354 6.87134 22.0354 6.87164C22.0354 6.87193 22.0354 6.87223 22.0354 6.87253C22.0354 6.87283 22.0354 6.87313 22.0354 6.87343C22.0354 6.87373 22.0354 6.87403 22.0354 6.87433C22.0354 6.87463 22.0354 6.87493 22.0354 6.87523C22.0354 6.87553 22.0354 6.87584 22.0354 6.87614C22.0354 6.87644 22.0354 6.87674 22.0354 6.87704C22.0354 6.87735 22.0354 6.87765 22.0354 6.87795C22.0354 6.87826 22.0354 6.87856 22.0354 6.87887C22.0354 6.87917 22.0354 6.87947 22.0354 6.87978C22.0354 6.88008 22.0354 6.88039 22.0354 6.88069C22.0354 6.881 22.0354 6.88131 22.0354 6.88161C22.0354 6.88192 22.0354 6.88223 22.0354 6.88253C22.0354 6.88284 22.0354 6.88315 22.0354 6.88346C22.0354 6.88376 22.0354 6.88407 22.0354 6.88438C22.0354 6.88469 22.0354 6.885 22.0354 6.88531C22.0354 6.88562 22.0354 6.88593 22.0354 6.88624C22.0354 6.88655 22.0354 6.88686 22.0354 6.88717C22.0354 6.88748 22.0354 6.88779 22.0354 6.8881C22.0354 6.88841 22.0354 6.88872 22.0354 6.88904C22.0354 6.88935 22.0354 6.88966 22.0354 6.88997C22.0354 6.89029 22.0354 6.8906 22.0354 6.89092C22.0354 6.89123 22.0354 6.89154 22.0354 6.89186C22.0354 6.89217 22.0354 6.89249 22.0354 6.8928C22.0354 6.89312 22.0354 6.89343 22.0354 6.89375C22.0354 6.89407 22.0354 6.89438 22.0354 6.8947C22.0354 6.89501 22.0354 6.89533 22.0354 6.89565C22.0354 6.89597 22.0354 6.89628 22.0354 6.8966C22.0354 6.89692 22.0354 6.89724 22.0354 6.89756C22.0354 6.89788 22.0354 6.8982 22.0354 6.89852C22.0354 6.89884 22.0354 6.89916 22.0354 6.89948C22.0354 6.8998 22.0354 6.90012 22.0354 6.90044C22.0354 6.90076 22.0354 6.90108 22.0354 6.9014C22.0354 6.90173 22.0354 6.90205 22.0354 6.90237C22.0354 6.90269 22.0354 6.90302 22.0354 6.90334C22.0354 6.90366 22.0354 6.90399 22.0354 6.90431C22.0354 6.90464 22.0354 6.90496 22.0354 6.90528C22.0354 6.90561 22.0354 6.90593 22.0354 6.90626C22.0354 6.90659 22.0354 6.90691 22.0354 6.90724C22.0354 6.90756 22.0354 6.90789 22.0354 6.90822C22.0354 6.90855 22.0354 6.90887 22.0354 6.9092C22.0354 6.90953 22.0354 6.90986 22.0354 6.91019C22.0354 6.91051 22.0354 6.91084 22.0354 6.91117C22.0354 6.9115 22.0354 6.91183 22.0354 6.91216C22.0354 6.91249 22.0354 6.91282 22.0354 6.91315C22.0354 6.91348 22.0354 6.91381 22.0354 6.91415C22.0354 6.91448 22.0354 6.91481 22.0354 6.91514C22.0354 6.91547 22.0354 6.91581 22.0354 6.91614C22.0354 6.91647 22.0354 6.91681 22.0354 6.91714C22.0354 6.91747 22.0354 6.91781 22.0354 6.91814C22.0354 6.91848 22.0354 6.91881 22.0354 6.91915C22.0354 6.91948 22.0354 6.91982 22.0354 6.92015C22.0354 6.92049 22.0354 6.92083 22.0354 6.92116C22.0354 6.9215 22.0354 6.92184 22.0354 6.92217C22.0354 6.92251 22.0354 6.92285 22.0354 6.92319C22.0354 6.92353 22.0354 6.92386 22.0354 6.9242C22.0354 6.92454 22.0354 6.92488 22.0354 6.92522C22.0354 6.92556 22.0354 6.9259 22.0354 6.92624C22.0354 6.92658 22.0354 6.92692 22.0354 6.92726C22.0354 6.9276 22.0354 6.92795 22.0354 6.92829C22.0354 6.92863 22.0354 6.92897 22.0354 6.92931C22.0354 6.92966 22.0354 6.93 22.0354 6.93034C22.0354 6.93069 22.0354 6.93103 22.0354 6.93138C22.0354 6.93172 22.0354 6.93206 22.0354 6.93241C22.0354 6.93275 22.0354 6.9331 22.0354 6.93344C22.0354 6.93379 22.0354 6.93414 22.0354 6.93448C22.0354 6.93483 22.0354 6.93518 22.0354 6.93552C22.0354 6.93587 22.0354 6.93622 22.0354 6.93656C22.0354 6.93691 22.0354 6.93726 22.0354 6.93761C22.0354 6.93796 22.0354 6.93831 22.0354 6.93866C22.0354 6.93901 22.0354 6.93935 22.0354 6.9397C22.0354 6.94005 22.0354 6.94041 22.0354 6.94076C22.0354 6.94111 22.0354 6.94146 22.0354 6.94181C22.0354 6.94216 22.0354 6.94251 22.0354 6.94286C22.0354 6.94322 22.0354 6.94357 22.0354 6.94392C22.0354 6.94428 22.0354 6.94463 22.0354 6.94498C22.0354 6.94534 22.0354 6.94569 22.0354 6.94605C22.0354 6.9464 22.0354 6.94675 22.0354 6.94711C22.0354 6.94746 22.0354 6.94782 22.0354 6.94818C22.0354 6.94853 22.0354 6.94889 22.0354 6.94925C22.0354 6.9496 22.0354 6.94996 22.0354 6.95032C22.0354 6.95067 22.0354 6.95103 22.0354 6.95139C22.0354 6.95175 22.0354 6.95211 22.0354 6.95247C22.0354 6.95282 22.0354 6.95318 22.0354 6.95354C22.0354 6.9539 22.0354 6.95426 22.0354 6.95462C22.0354 6.95498 22.0354 6.95534 22.0354 6.95571C22.0354 6.95607 22.0354 6.95643 22.0354 6.95679C22.0354 6.95715 22.0354 6.95751 22.0354 6.95788C22.0354 6.95824 22.0354 6.9586 22.0354 6.95897C22.0354 6.95933 22.0354 6.95969 22.0354 6.96006C22.0354 6.96042 22.0354 6.96079 22.0354 6.96115C22.0354 6.96151 22.0354 6.96188 22.0354 6.96225C22.0354 6.96261 22.0354 6.96298 22.0354 6.96334C22.0354 6.96371 22.0354 6.96408 22.0354 6.96444C22.0354 6.96481 22.0354 6.96518 22.0354 6.96555C22.0354 6.96591 22.0354 6.96628 22.0354 6.96665C22.0354 6.96702 22.0354 6.96739 22.0354 6.96776C22.0354 6.96813 22.0354 6.9685 22.0354 6.96887C22.0354 6.96924 22.0354 6.96961 22.0354 6.96998C22.0354 6.97035 22.0354 6.97072 22.0354 6.97109C22.0354 6.97146 22.0354 6.97183 22.0354 6.97221C22.0354 6.97258 22.0354 6.97295 22.0354 6.97332C22.0354 6.9737 22.0354 6.97407 22.0354 6.97444C22.0354 6.97482 22.0354 6.97519 22.0354 6.97557C22.0354 6.97594 22.0354 6.97631 22.0354 6.97669C22.0354 6.97706 22.0354 6.97744 22.0354 6.97782C22.0354 6.97819 22.0354 6.97857 22.0354 6.97895C22.0354 6.97932 22.0354 6.9797 22.0354 6.98008C22.0354 6.98045 22.0354 6.98083 22.0354 6.98121C22.0354 6.98159 22.0354 6.98197 22.0354 6.98235C22.0354 6.98272 22.0354 6.9831 22.0354 6.98348C22.0354 6.98386 22.0354 6.98424 22.0354 6.98462C22.0354 6.985 22.0354 6.98538 22.0354 6.98576C22.0354 6.98615 22.0354 6.98653 22.0354 6.98691C22.0354 6.98729 22.0354 6.98767 22.0354 6.98806C22.0354 6.98844 22.0354 6.98882 22.0354 6.9892C22.0354 6.98959 22.0354 6.98997 22.0354 6.99036C22.0354 6.99074 22.0354 6.99112 22.0354 6.99151C22.0354 6.99189 22.0354 6.99228 22.0354 6.99266C22.0354 6.99305 22.0354 6.99344 22.0354 6.99382C22.0354 6.99421 22.0354 6.9946 22.0354 6.99498C22.0354 6.99537 22.0354 6.99576 22.0354 6.99614C22.0354 6.99653 22.0354 6.99692 22.0354 6.99731C22.0354 6.9977 22.0354 6.99809 22.0354 6.99848C22.0354 6.99886 22.0354 6.99925 22.0354 6.99964C22.0354 7.00003 22.0354 7.00042 22.0354 7.00081C22.0354 7.00121 22.0354 7.0016 22.0354 7.00199C22.0354 7.00238 22.0354 7.00277 22.0354 7.00316C22.0354 7.00356 22.0354 7.00395 22.0354 7.00434C22.0354 7.00473 22.0354 7.00513 22.0354 7.00552C22.0354 7.00591 22.0354 7.00631 22.0354 7.0067C22.0354 7.0071 22.0354 7.00749 22.0354 7.00789C22.0354 7.00828 22.0354 7.00868 22.0354 7.00907C22.0354 7.00947 22.0354 7.00987 22.0354 7.01026C22.0354 7.01066 22.0354 7.01106 22.0354 7.01145C22.0354 7.01185 22.0354 7.01225 22.0354 7.01265C22.0354 7.01305 22.0354 7.01344 22.0354 7.01384C22.0354 7.01424 22.0354 7.01464 22.0354 7.01504C22.0354 7.01544 22.0354 7.01584 22.0354 7.01624C22.0354 7.01664 22.0354 7.01704 22.0354 7.01744C22.0354 7.01784 22.0354 7.01824 22.0354 7.01865C22.0354 7.01905 22.0354 7.01945 22.0354 7.01985C22.0354 7.02026 22.0354 7.02066 22.0354 7.02106C22.0354 7.02146 22.0354 7.02187 22.0354 7.02227C22.0354 7.02268 22.0354 7.02308 22.0354 7.02349C22.0354 7.02389 22.0354 7.0243 22.0354 7.0247C22.0354 7.02511 22.0354 7.02551 22.0354 7.02592C22.0354 7.02632 22.0354 7.02673 22.0354 7.02714C22.0354 7.02755 22.0354 7.02795 22.0354 7.02836C22.0354 7.02877 22.0354 7.02918 22.0354 7.02958C22.0354 7.02999 22.0354 7.0304 22.0354 7.03081C22.0354 7.03122 22.0354 7.03163 22.0354 7.03204C22.0354 7.03245 22.0354 7.03286 22.0354 7.03327C22.0354 7.03368 22.0354 7.03409 22.0354 7.0345C22.0354 7.03492 22.0354 7.03533 22.0354 7.03574C22.0354 7.03615 22.0354 7.03656 22.0354 7.03698C22.0354 7.03739 22.0354 7.0378 22.0354 7.03822C22.0354 7.03863 22.0354 7.03904 22.0354 7.03946C22.0354 7.03987 22.0354 7.04029 22.0354 7.0407C22.0354 7.04112 22.0354 7.04153 22.0354 7.04195C22.0354 7.04237 22.0354 7.04278 22.0354 7.0432C22.0354 7.04361 22.0354 7.04403 22.0354 7.04445C22.0354 7.04487 22.0354 7.04528 22.0354 7.0457C22.0354 7.04612 22.0354 7.04654 22.0354 7.04696C22.0354 7.04738 22.0354 7.0478 22.0354 7.04822C22.0354 7.04863 22.0354 7.04905 22.0354 7.04947C22.0354 7.0499 22.0354 7.05032 22.0354 7.05074C22.0354 7.05116 22.0354 7.05158 22.0354 7.052C22.0354 7.05242 22.0354 7.05284 22.0354 7.05327C22.0354 7.05369 22.0354 7.05411 22.0354 7.05454C22.0354 7.05496 22.0354 7.05538 22.0354 7.05581C22.0354 7.05623 22.0354 7.05666 22.0354 7.05708C22.0354 7.0575 22.0354 7.05793 22.0354 7.05836C22.0354 7.05878 22.0354 7.05921 22.0354 7.05963C22.0354 7.06006 22.0354 7.06049 22.0354 7.06091C22.0354 7.06134 22.0354 7.06177 22.0354 7.06219C22.0354 7.06262 22.0354 7.06305 22.0354 7.06348C22.0354 7.06391 22.0354 7.06434 22.0354 7.06477C22.0354 7.06519 22.0354 7.06562 22.0354 7.06605C22.0354 7.06648 22.0354 7.06691 22.0354 7.06734C22.0354 7.06778 22.0354 7.06821 22.0354 7.06864C22.0354 7.06907 22.0354 7.0695 22.0354 7.06993C22.0354 7.07037 22.0354 7.0708 22.0354 7.07123C22.0354 7.07166 22.0354 7.0721 22.0354 7.07253C22.0354 7.07296 22.0354 7.0734 22.0354 7.07383C22.0354 7.07427 22.0354 7.0747 22.0354 7.07514C22.0354 7.07557 22.0354 7.07601 22.0354 7.07644C22.0354 7.07688 22.0354 7.07731 22.0354 7.07775C22.0354 7.07819 22.0354 7.07862 22.0354 7.07906C22.0354 7.0795 22.0354 7.07994 22.0354 7.08038C22.0354 7.08081 22.0354 7.08125 22.0354 7.08169C22.0354 7.08213 22.0354 7.08257 22.0354 7.08301C22.0354 7.08345 22.0354 7.08389 22.0354 7.08433C22.0354 7.08477 22.0354 7.08521 22.0354 7.08565C22.0354 7.08609 22.0354 7.08653 22.0354 7.08697C22.0354 7.08742 22.0354 7.08786 22.0354 7.0883C22.0354 7.08874 22.0354 7.08919 22.0354 7.08963C22.0354 7.09007 22.0354 7.09052 22.0354 7.09096C22.0354 7.0914 22.0354 7.09185 22.0354 7.09229C22.0354 7.09274 22.0354 7.09318 22.0354 7.09363C22.0354 7.09407 22.0354 7.09452 22.0354 7.09496C22.0354 7.09541 22.0354 7.09586 22.0354 7.0963C22.0354 7.09675 22.0354 7.0972 22.0354 7.09765C22.0354 7.09809 22.0354 7.09854 22.0354 7.09899C22.0354 7.09944 22.0354 7.09989 22.0354 7.10034C22.0354 7.10079 22.0354 7.10124 22.0354 7.10169C22.0354 7.10214 22.0354 7.10259 22.0354 7.10304C22.0354 7.10349 22.0354 7.10394 22.0354 7.10439C22.0354 7.10484 22.0354 7.10529 22.0354 7.10574C22.0354 7.1062 22.0354 7.10665 22.0354 7.1071C22.0354 7.10755 22.0354 7.10801 22.0354 7.10846C22.0354 7.10891 22.0354 7.10937 22.0354 7.10982C22.0354 7.11028 22.0354 7.11073 22.0354 7.11119C22.0354 7.11164 22.0354 7.1121 22.0354 7.11255C22.0354 7.11301 22.0354 7.11347 22.0354 7.11392C22.0354 7.11438 22.0354 7.11484 22.0354 7.11529C22.0354 7.11575 22.0354 7.11621 22.0354 7.11667C22.0354 7.11712 22.0354 7.11758 22.0354 7.11804C22.0354 7.1185 22.0354 7.11896 22.0354 7.11942C22.0354 7.11988 22.0354 7.12034 22.0354 7.1208C22.0354 7.12126 22.0354 7.12172 22.0354 7.12218C22.0354 7.12264 22.0354 7.1231 22.0354 7.12356C22.0354 7.12403 22.0354 7.12449 22.0354 7.12495C22.0354 7.12541 22.0354 7.12587 22.0354 7.12634C22.0354 7.1268 22.0354 7.12726 22.0354 7.12773C22.0354 7.12819 22.0354 7.12866 22.0354 7.12912C22.0354 7.12959 22.0354 7.13005 22.0354 7.13052C22.0354 7.13098 22.0354 7.13145 22.0354 7.13191C22.0354 7.13238 22.0354 7.13285 22.0354 7.13331C22.0354 7.13378 22.0354 7.13425 22.0354 7.13472C22.0354 7.13518 22.0354 7.13565 22.0354 7.13612C22.0354 7.13659 22.0354 7.13706 22.0354 7.13753C22.0354 7.13799 22.0354 7.13846 22.0354 7.13893C22.0354 7.1394 22.0354 7.13987 22.0354 7.14034C22.0354 7.14082 22.0354 7.14129 22.0354 7.14176C22.0354 7.14223 22.0354 7.1427 22.0354 7.14317C22.0354 7.14364 22.0354 7.14412 22.0354 7.14459C22.0354 7.14506 22.0354 7.14554 22.0354 7.14601C22.0354 7.14648 22.0354 7.14696 22.0354 7.14743C22.0354 7.14791 22.0354 7.14838 22.0354 7.14886C22.0354 7.14933 22.0354 7.14981 22.0354 7.15028C22.0354 7.15076 22.0354 7.15123 22.0354 7.15171C22.0354 7.15219 22.0354 7.15266 22.0354 7.15314C22.0354 7.15362 22.0354 7.1541 22.0354 7.15457C22.0354 7.15505 22.0354 7.15553 22.0354 7.15601C22.0354 7.15649 22.0354 7.15697 22.0354 7.15745C22.0354 7.15793 22.0354 7.15841 22.0354 7.15889C22.0354 7.15937 22.0354 7.15985 22.0354 7.16033C22.0354 7.16081 22.0354 7.16129 22.0354 7.16177C22.0354 7.16225 22.0354 7.16273 22.0354 7.16322C22.0354 7.1637 22.0354 7.16418 22.0354 7.16467C22.0354 7.16515 22.0354 7.16563 22.0354 7.16612C22.0354 7.1666 22.0354 7.16708 22.0354 7.16757C22.0354 7.16805 22.0354 7.16854 22.0354 7.16902C22.0354 7.16951 22.0354 7.17 22.0354 7.17048C22.0354 7.17097 22.0354 7.17145 22.0354 7.17194C22.0354 7.17243 22.0354 7.17291 22.0354 7.1734C22.0354 7.17389 22.0354 7.17438 22.0354 7.17487C22.0354 7.17535 22.0354 7.17584 22.0354 7.17633C22.0354 7.17682 22.0354 7.17731 22.0354 7.1778C22.0354 7.17829 22.0354 7.17878 22.0354 7.17927C22.0354 7.17976 22.0354 7.18025 22.0354 7.18074C22.0354 7.18124 22.0354 7.18173 22.0354 7.18222C22.0354 7.18271 22.0354 7.1832 22.0354 7.1837C22.0354 7.18419 22.0354 7.18468 22.0354 7.18518C22.0354 7.18567 22.0354 7.18616 22.0354 7.18666C22.0354 7.18715 22.0354 7.18765 22.0354 7.18814C22.0354 7.18864 22.0354 7.18913 22.0354 7.18963C22.0354 7.19012 22.0354 7.19062 22.0354 7.19112C22.0354 7.19161 22.0354 7.19211 22.0354 7.19261C22.0354 7.1931 22.0354 7.1936 22.0354 7.1941C22.0354 7.1946 22.0354 7.1951 22.0354 7.19559C22.0354 7.19609 22.0354 7.19659 22.0354 7.19709C22.0354 7.19759 22.0354 7.19809 22.0354 7.19859C22.0354 7.19909 22.0354 7.19959 22.0354 7.20009C22.0354 7.20059 22.0354 7.20109 22.0354 7.2016C22.0354 7.2021 22.0354 7.2026 22.0354 7.2031C22.0354 7.2036 22.0354 7.20411 22.0354 7.20461C22.0354 7.20511 22.0354 7.20562 22.0354 7.20612C22.0354 7.20663 22.0354 7.20713 22.0354 7.20763C22.0354 7.20814 22.0354 7.20864 22.0354 7.20915C22.0354 7.20965 22.0354 7.21016 22.0354 7.21067C22.0354 7.21117 22.0354 7.21168 22.0354 7.21219C22.0354 7.21269 22.0354 7.2132 22.0354 7.21371C22.0354 7.21421 22.0354 7.21472 22.0354 7.21523C22.0354 7.21574 22.0354 7.21625 22.0354 7.21676C22.0354 7.21727 22.0354 7.21778 22.0354 7.21829C22.0354 7.21879 22.0354 7.21931 22.0354 7.21982C22.0354 7.22033 22.0354 7.22084 22.0354 7.22135C22.0354 7.22186 22.0354 7.22237 22.0354 7.22288C22.0354 7.2234 22.0354 7.22391 22.0354 7.22442C22.0354 7.22493 22.0354 7.22545 22.0354 7.22596C22.0354 7.22647 22.0354 7.22699 22.0354 7.2275C22.0354 7.22802 22.0354 7.22853 22.0354 7.22905C22.0354 7.22956 22.0354 7.23008 22.0354 7.23059C22.0354 7.23111 22.0354 7.23162 22.0354 7.23214C22.0354 7.23266 22.0354 7.23317 22.0354 7.23369C22.0354 7.23421 22.0354 7.23472 22.0354 7.23524C22.0354 7.23576 22.0354 7.23628 22.0354 7.2368C22.0354 7.23732 22.0354 7.23784 22.0354 7.23835C22.0354 7.23887 22.0354 7.23939 22.0354 7.23991C22.0354 7.24043 22.0354 7.24095 22.0354 7.24148C22.0354 7.242 22.0354 7.24252 22.0354 7.24304C22.0354 7.24356 22.0354 7.24408 22.0354 7.24461C22.0354 7.24513 22.0354 7.24565 22.0354 7.24617C22.0354 7.2467 22.0354 7.24722 22.0354 7.24774C22.0354 7.24827 22.0354 7.24879 22.0354 7.24932C22.0354 7.24984 22.0354 7.25037 22.0354 7.25089C22.0354 7.25142 22.0354 7.25194 22.0354 7.25247C22.0354 7.25299 22.0354 7.25352 22.0354 7.25405C22.0354 7.25457 22.0354 7.2551 22.0354 7.25563C22.0354 7.25616 22.0354 7.25668 22.0354 7.25721C22.0354 7.25774 22.0354 7.25827 22.0354 7.2588C22.0354 7.25933 22.0354 7.25986 22.0354 7.26039C22.0354 7.26092 22.0354 7.26145 22.0354 7.26198C22.0354 7.26251 22.0354 7.26304 22.0354 7.26357C22.0354 7.2641 22.0354 7.26463 22.0354 7.26516C22.0354 7.2657 22.0354 7.26623 22.0354 7.26676C22.0354 7.26729 22.0354 7.26783 22.0354 7.26836C22.0354 7.26889 22.0354 7.26943 22.0354 7.26996C22.0354 7.2705 22.0354 7.27103 22.0354 7.27157C22.0354 7.2721 22.0354 7.27264 22.0354 7.27317C22.0354 7.27371 22.0354 7.27424 22.0354 7.27478C22.0354 7.27532 22.0354 7.27585 22.0354 7.27639C22.0354 7.27693 22.0354 7.27747 22.0354 7.278C22.0354 7.27854 22.0354 7.27908 22.0354 7.27962C22.0354 7.28016 22.0354 7.2807 22.0354 7.28124C22.0354 7.28177 22.0354 7.28231 22.0354 7.28285C22.0354 7.28339 22.0354 7.28394 22.0354 7.28448C22.0354 7.28502 22.0354 7.28556 22.0354 7.2861C22.0354 7.28664 22.0354 7.28718 22.0354 7.28773C22.0354 7.28827 22.0354 7.28881 22.0354 7.28935C22.0354 7.2899 22.0354 7.29044 22.0354 7.29098C22.0354 7.29153 22.0354 7.29207 22.0354 7.29262C22.0354 7.29316 22.0354 7.29371 22.0354 7.29425C22.0354 7.2948 22.0354 7.29534 22.0354 7.29589C22.0354 7.29643 22.0354 7.29698 22.0354 7.29753C22.0354 7.29807 22.0354 7.29862 22.0354 7.29917C22.0354 7.29972 22.0354 7.30026 22.0354 7.30081C22.0354 7.30136 22.0354 7.30191 22.0354 7.30246C22.0354 7.30301 22.0354 7.30356 22.0354 7.30411C22.0354 7.30466 22.0354 7.30521 22.0354 7.30576C22.0354 7.30631 22.0354 7.30686 22.0354 7.30741C22.0354 7.30796 22.0354 7.30851 22.0354 7.30906C22.0354 7.30962 22.0354 7.31017 22.0354 7.31072C22.0354 7.31127 22.0354 7.31183 22.0354 7.31238C22.0354 7.31293 22.0354 7.31349 22.0354 7.31404C22.0354 7.3146 22.0354 7.31515 22.0354 7.31571C22.0354 7.31626 22.0354 7.31682 22.0354 7.31737C22.0354 7.31793 22.0354 7.31848 22.0354 7.31904C22.0354 7.3196 22.0354 7.32015 22.0354 7.32071C22.0354 7.32127 22.0354 7.32182 22.0354 7.32238C22.0354 7.32294 22.0354 7.3235 22.0354 7.32406C22.0354 7.32462 22.0354 7.32517 22.0354 7.32573C22.0354 7.32629 22.0354 7.32685 22.0354 7.32741C22.0354 7.32797 22.0354 7.32853 22.0354 7.32909C22.0354 7.32966 22.0354 7.33022 22.0354 7.33078C22.0354 7.33134 22.0354 7.3319 22.0354 7.33246C22.0354 7.33303 22.0354 7.33359 22.0354 7.33415C22.0354 7.33471 22.0354 7.33528 22.0354 7.33584C22.0354 7.33641 22.0354 7.33697 22.0354 7.33753C22.0354 7.3381 22.0354 7.33866 22.0354 7.33923C22.0354 7.33979 22.0354 7.34036 22.0354 7.34093C22.0354 7.34149 22.0354 7.34206 22.0354 7.34263C22.0354 7.34319 22.0354 7.34376 22.0354 7.34433C22.0354 7.34489 22.0354 7.34546 22.0354 7.34603C22.0354 7.3466 22.0354 7.34717 22.0354 7.34774C22.0354 7.3483 22.0354 7.34887 22.0354 7.34944C22.0354 7.35001 22.0354 7.35058 22.0354 7.35115C22.0354 7.35172 22.0354 7.3523 22.0354 7.35287C22.0354 7.35344 22.0354 7.35401 22.0354 7.35458C22.0354 7.35515 22.0354 7.35573 22.0354 7.3563C22.0354 7.35687 22.0354 7.35744 22.0354 7.35802C22.0354 7.35859 22.0354 7.35916 22.0354 7.35974C22.0354 7.36031 22.0354 7.36089 22.0354 7.36146C22.0354 7.36204 22.0354 7.36261 22.0354 7.36319C22.0354 7.36376 22.0354 7.36434 22.0354 7.36492C22.0354 7.36549 22.0354 7.36607 22.0354 7.36665C22.0354 7.36722 22.0354 7.3678 22.0354 7.36838C22.0354 7.36896 22.0354 7.36953 22.0354 7.37011C22.0354 7.37069 22.0354 7.37127 22.0354 7.37185C22.0354 7.37243 22.0354 7.37301 22.0354 7.37359C22.0354 7.37417 22.0354 7.37475 22.0354 7.37533C22.0354 7.37591 22.0354 7.37649 22.0354 7.37707C22.0354 7.37766 22.0354 7.37824 22.0354 7.37882C22.0354 7.3794 22.0354 7.37998 22.0354 7.38057C22.0354 7.38115 22.0354 7.38173 22.0354 7.38232C22.0354 7.3829 22.0354 7.38349 22.0354 7.38407C22.0354 7.38465 22.0354 7.38524 22.0354 7.38582C22.0354 7.38641 22.0354 7.387 22.0354 7.38758C22.0354 7.38817 22.0354 7.38875 22.0354 7.38934C22.0354 7.38993 22.0354 7.39051 22.0354 7.3911C22.0354 7.39169 22.0354 7.39228 22.0354 7.39287C22.0354 7.39345 22.0354 7.39404 22.0354 7.39463C22.0354 7.39522 22.0354 7.39581 22.0354 7.3964C22.0354 7.39699 22.0354 7.39758 22.0354 7.39817C22.0354 7.39876 22.0354 7.39935 22.0354 7.39994C22.0354 7.40053 22.0354 7.40112 22.0354 7.40172C22.0354 7.40231 22.0354 7.4029 22.0354 7.40349C22.0354 7.40409 22.0354 7.40468 22.0354 7.40527C22.0354 7.40586 22.0354 7.40646 22.0354 7.40705C22.0354 7.40765 22.0354 7.40824 22.0354 7.40884C22.0354 7.40943 22.0354 7.41003 22.0354 7.41062C22.0354 7.41122 22.0354 7.41181 22.0354 7.41241C22.0354 7.41301 22.0354 7.4136 22.0354 7.4142C22.0354 7.4148 22.0354 7.41539 22.0354 7.41599C22.0354 7.41659 22.0354 7.41719 22.0354 7.41779C22.0354 7.41839 22.0354 7.41898 22.0354 7.41958C22.0354 7.42018 22.0354 7.42078 22.0354 7.42138C22.0354 7.42198 22.0354 7.42258 22.0354 7.42318C22.0354 7.42378 22.0354 7.42439 22.0354 7.42499C22.0354 7.42559 22.0354 7.42619 22.0354 7.42679C22.0354 7.4274 22.0354 7.428 22.0354 7.4286C22.0354 7.4292 22.0354 7.42981 22.0354 7.43041C22.0354 7.43101 22.0354 7.43162 22.0354 7.43222C22.0354 7.43283 22.0354 7.43343 22.0354 7.43404C22.0354 7.43464 22.0354 7.43525 22.0354 7.43585C22.0354 7.43646 22.0354 7.43707 22.0354 7.43767C22.0354 7.43828 22.0354 7.43889 22.0354 7.43949C22.0354 7.4401 22.0354 7.44071 22.0354 7.44132C22.0354 7.44193 22.0354 7.44253 22.0354 7.44314C22.0354 7.44375 22.0354 7.44436 22.0354 7.44497C22.0354 7.44558 22.0354 7.44619 22.0354 7.4468C22.0354 7.44741 22.0354 7.44802 22.0354 7.44863C22.0354 7.44924 22.0354 7.44986 22.0354 7.45047C22.0354 7.45108 22.0354 7.45169 22.0354 7.4523C22.0354 7.45292 22.0354 7.45353 22.0354 7.45414C22.0354 7.45476 22.0354 7.45537 22.0354 7.45598C22.0354 7.4566 22.0354 7.45721 22.0354 7.45783C22.0354 7.45844 22.0354 7.45906 22.0354 7.45967C22.0354 7.46029 22.0354 7.46091 22.0354 7.46152C22.0354 7.46214 22.0354 7.46275 22.0354 7.46337C22.0354 7.46399 22.0354 7.46461 22.0354 7.46522C22.0354 7.46584 22.0354 7.46646 22.0354 7.46708C22.0354 7.4677 22.0354 7.46832 22.0354 7.46893C22.0354 7.46955 22.0354 7.47017 22.0354 7.47079C22.0354 7.47141 22.0354 7.47203 22.0354 7.47265C22.0354 7.47328 22.0354 7.4739 22.0354 7.47452C22.0354 7.47514 22.0354 7.47576 22.0354 7.47638C22.0354 7.47701 22.0354 7.47763 22.0354 7.47825C22.0354 7.47887 22.0354 7.4795 22.0354 7.48012C22.0354 7.48075 22.0354 7.48137 22.0354 7.48199C22.0354 7.48262 22.0354 7.48324 22.0354 7.48387C22.0354 7.48449 22.0354 7.48512 22.0354 7.48574C22.0354 7.48637 22.0354 7.487 22.0354 7.48762C22.0354 7.48825 22.0354 7.48888 22.0354 7.4895C22.0354 7.49013 22.0354 7.49076 22.0354 7.49139C22.0354 7.49202 22.0354 7.49264 22.0354 7.49327C22.0354 7.4939 22.0354 7.49453 22.0354 7.49516C22.0354 7.49579 22.0354 7.49642 22.0354 7.49705C22.0354 7.49768 22.0354 7.49831 22.0354 7.49894C22.0354 7.49957 22.0354 7.50021 22.0354 7.50084C22.0354 7.50147 22.0354 7.5021 22.0354 7.50273C22.0354 7.50337 22.0354 7.504 22.0354 7.50463C22.0354 7.50527 22.0354 7.5059 22.0354 7.50653C22.0354 7.50717 22.0354 7.5078 22.0354 7.50844C22.0354 7.50907 22.0354 7.50971 22.0354 7.51034C22.0354 7.51098 22.0354 7.51161 22.0354 7.51225C22.0354 7.51289 22.0354 7.51352 22.0354 7.51416C22.0354 7.5148 22.0354 7.51544 22.0354 7.51607C22.0354 7.51671 22.0354 7.51735 22.0354 7.51799C22.0354 7.51863 22.0354 7.51926 22.0354 7.5199C22.0354 7.52054 22.0354 7.52118 22.0354 7.52182C22.0354 7.52246 22.0354 7.5231 22.0354 7.52374C22.0354 7.52438 22.0354 7.52503 22.0354 7.52567C22.0354 7.52631 22.0354 7.52695 22.0354 7.52759C22.0354 7.52823 22.0354 7.52888 22.0354 7.52952C22.0354 7.53016 22.0354 7.53081 22.0354 7.53145C22.0354 7.53209 22.0354 7.53274 22.0354 7.53338C22.0354 7.53403 22.0354 7.53467 22.0354 7.53532C22.0354 7.53596 22.0354 7.53661 22.0354 7.53725C22.0354 7.5379 22.0354 7.53855 22.0354 7.53919C22.0354 7.53984 22.0354 7.54049 22.0354 7.54113C22.0354 7.54178 22.0354 7.54243 22.0354 7.54308C22.0354 7.54372 22.0354 7.54437 22.0354 7.54502C22.0354 7.54567 22.0354 7.54632 22.0354 7.54697C22.0354 7.54762 22.0354 7.54827 22.0354 7.54892C22.0354 7.54957 22.0354 7.55022 22.0354 7.55087C22.0354 7.55152 22.0354 7.55217 22.0354 7.55283C22.0354 7.55348 22.0354 7.55413 22.0354 7.55478C22.0354 7.55543 22.0354 7.55609 22.0354 7.55674C22.0354 7.55739 22.0354 7.55805 22.0354 7.5587C22.0354 7.55936 22.0354 7.56001 22.0354 7.56066C22.0354 7.56132 22.0354 7.56197 22.0354 7.56263C22.0354 7.56329 22.0354 7.56394 22.0354 7.5646C22.0354 7.56525 22.0354 7.56591 22.0354 7.56657C22.0354 7.56722 22.0354 7.56788 22.0354 7.56854C22.0354 7.5692 22.0354 7.56986 22.0354 7.57051C22.0354 7.57117 22.0354 7.57183 22.0354 7.57249C22.0354 7.57315 22.0354 7.57381 22.0354 7.57447C22.0354 7.57513 22.0354 7.57579 22.0354 7.57645C22.0354 7.57711 22.0354 7.57777 22.0354 7.57843C22.0354 7.57909 22.0354 7.57976 22.0354 7.58042C22.0354 7.58108 22.0354 7.58174 22.0354 7.58241C22.0354 7.58307 22.0354 7.58373 22.0354 7.5844C22.0354 7.58506 22.0354 7.58572 22.0354 7.58639C22.0354 7.58705 22.0354 7.58772 22.0354 7.58838C22.0354 7.58905 22.0354 7.58971 22.0354 7.59038C22.0354 7.59104 22.0354 7.59171 22.0354 7.59238C22.0354 7.59304 22.0354 7.59371 22.0354 7.59438C22.0354 7.59505 22.0354 7.59571 22.0354 7.59638C22.0354 7.59705 22.0354 7.59772 22.0354 7.59839C22.0354 7.59906 22.0354 7.59973 22.0354 7.60039C22.0354 7.60106 22.0354 7.60173 22.0354 7.6024C22.0354 7.60307 22.0354 7.60375 22.0354 7.60442C22.0354 7.60509 22.0354 7.60576 22.0354 7.60643C22.0354 7.6071 22.0354 7.60777 22.0354 7.60845C22.0354 7.60912 22.0354 7.60979 22.0354 7.61047H23.0354ZM23.0354 6.86719L22.4239 7.65848L22.7794 7.93316L23.3908 7.14188L24.0023 6.35059L23.6468 6.07591L23.0354 6.86719ZM23.3908 7.14188L23.2969 6.1463C23.0108 6.17329 22.6144 6.21105 22.1079 6.25954L22.2032 7.25499L22.2985 8.25043C22.8046 8.20198 23.2 8.16432 23.4848 8.13746L23.3908 7.14188ZM22.2032 7.25499L22.1175 6.25867C21.5989 6.30328 21.0523 6.36438 20.4782 6.44167L20.6116 7.43273L20.745 8.42379C21.2913 8.35026 21.8058 8.29287 22.2889 8.25131L22.2032 7.25499ZM20.6116 7.43273L20.4876 6.44045C19.8955 6.51446 19.3488 6.61264 18.8502 6.73727L19.0928 7.70741L19.3353 8.67756C19.7416 8.57598 20.2074 8.49103 20.7357 8.425L20.6116 7.43273ZM19.0928 7.70741L18.8549 6.73612C18.5086 6.82093 18.1665 6.95154 17.8296 7.11999L18.2768 8.01442L18.724 8.90885C18.9472 8.79722 19.1491 8.72316 19.3306 8.67871L19.0928 7.70741ZM18.2768 8.01442L17.8296 7.11999C17.4111 7.3292 17.0564 7.62473 16.7719 7.99612L17.5658 8.60419L18.3597 9.21227C18.463 9.07737 18.5823 8.97971 18.724 8.90885L18.2768 8.01442ZM17.5658 8.60419L16.7638 8.00693C16.4163 8.47349 16.2831 9.02515 16.2831 9.58176H17.2831H18.2831C18.2831 9.34123 18.3383 9.24118 18.3679 9.20146L17.5658 8.60419ZM17.2831 9.58176H16.2831C16.2831 10.034 16.3972 10.4666 16.5953 10.8705L17.4931 10.4301L18.3909 9.98964C18.309 9.82262 18.2831 9.68967 18.2831 9.58176H17.2831ZM17.4931 10.4301L16.5953 10.8705C16.8372 11.3636 17.2251 11.7373 17.6877 12.0103L18.196 11.1491L18.7042 10.2879C18.5098 10.1731 18.4291 10.0674 18.3909 9.98964L17.4931 10.4301ZM18.196 11.1491L17.6939 12.0139C18.2375 12.3296 18.8893 12.44 19.5614 12.44V11.44V10.44C19.0808 10.44 18.8224 10.3564 18.6981 10.2843L18.196 11.1491ZM32.2939 11.8762H31.2939V12.8762H32.2939V11.8762ZM32.1 5.63917L31.1346 5.90039L31.1384 5.91389L32.1 5.63917ZM31.5425 4.5081L30.7698 5.14286L30.7754 5.14965L31.5425 4.5081ZM30.6377 3.83753L30.254 4.76104L30.259 4.76308L30.6377 3.83753ZM28.0685 3.90217L28.5105 4.79919L28.5157 4.79659L28.0685 3.90217ZM26.6547 5.77651L27.6233 6.02489L27.6233 6.02489L26.6547 5.77651ZM26.4931 7.10956L26.5187 8.10923L27.4931 8.08425V7.10956H26.4931ZM25.8629 7.12572H24.8629V8.15169L25.8885 8.12539L25.8629 7.12572ZM26.3557 4.71815L27.2357 5.19319L27.2374 5.18995L26.3557 4.71815ZM27.6565 3.37703L27.1987 2.48794L27.1951 2.48981L27.6565 3.37703ZM30.6457 3.14273L30.3253 4.09002L30.3295 4.09142L30.6457 3.14273ZM31.6314 3.68403L30.9926 4.45344L31.0005 4.45996L31.0085 4.46631L31.6314 3.68403ZM32.819 5.7038L31.8454 5.93217L31.8461 5.93487L32.819 5.7038ZM32.9725 11.8762V12.8762H33.9725V11.8762H32.9725ZM25.8144 11.8762H24.8144V12.8762H25.8144V11.8762ZM25.8144 3.15081V2.15081H24.8144V3.15081H25.8144ZM26.4446 3.15081H27.4446V2.15081H26.4446V3.15081ZM26.4446 4.92821H25.4446V5.92821H26.4446V4.92821ZM26.4931 4.92821H27.4931V3.92821H26.4931V4.92821ZM26.4931 11.8762V12.8762H27.4931V11.8762H26.4931ZM32.2939 11.8762H33.2939V7.25499H32.2939H31.2939V11.8762H32.2939ZM32.2939 7.25499H33.2939C33.2939 6.56571 33.2231 5.92995 33.0615 5.36445L32.1 5.63917L31.1384 5.91389C31.2354 6.25325 31.2939 6.6947 31.2939 7.25499H32.2939ZM32.1 5.63917L33.0653 5.37797C32.912 4.81166 32.6688 4.29606 32.3096 3.86654L31.5425 4.5081L30.7754 5.14965C30.9117 5.3126 31.0402 5.55105 31.1347 5.90036L32.1 5.63917ZM31.5425 4.5081L32.3152 3.87336C31.964 3.44581 31.5278 3.12124 31.0163 2.91199L30.6377 3.83753L30.259 4.76308C30.4585 4.84468 30.6255 4.96715 30.7698 5.14284L31.5425 4.5081ZM30.6377 3.83753L31.0213 2.91404C30.5285 2.70934 29.993 2.6194 29.4339 2.6194V3.6194V4.6194C29.7796 4.6194 30.0466 4.67488 30.254 4.76103L30.6377 3.83753ZM29.4339 3.6194V2.6194C28.7854 2.6194 28.169 2.73388 27.6213 3.00774L28.0685 3.90217L28.5157 4.79659C28.722 4.69343 29.0159 4.6194 29.4339 4.6194V3.6194ZM28.0685 3.90217L27.6265 3.00515C27.1137 3.25784 26.6824 3.61647 26.3508 4.07908L27.1636 4.6616L27.9765 5.24412C28.1081 5.06041 28.28 4.91275 28.5105 4.79918L28.0685 3.90217ZM27.1636 4.6616L26.3508 4.07908C26.0407 4.51179 25.8217 4.99889 25.686 5.52814L26.6547 5.77651L27.6233 6.02489C27.7031 5.71391 27.8234 5.45773 27.9765 5.24412L27.1636 4.6616ZM26.6547 5.77651L25.686 5.52814C25.5559 6.03563 25.4931 6.56388 25.4931 7.10956H26.4931H27.4931C27.4931 6.71807 27.538 6.35762 27.6233 6.02489L26.6547 5.77651ZM26.4931 7.10956L26.4674 6.10989L25.8373 6.12605L25.8629 7.12572L25.8885 8.12539L26.5187 8.10923L26.4931 7.10956ZM25.8629 7.12572H26.8629C26.8629 6.22682 27.013 5.60569 27.2357 5.19318L26.3557 4.71815L25.4758 4.24313C25.0414 5.04787 24.8629 6.03178 24.8629 7.12572H25.8629ZM26.3557 4.71815L27.2374 5.18995C27.4854 4.72663 27.7833 4.43818 28.1178 4.26424L27.6565 3.37703L27.1951 2.48981C26.4524 2.87602 25.8832 3.48166 25.474 4.24636L26.3557 4.71815ZM27.6565 3.37703L28.1142 4.26611C28.5099 4.06242 28.9444 3.95691 29.4339 3.95691V2.95691V1.95691C28.6415 1.95691 27.8911 2.13149 27.1987 2.48794L27.6565 3.37703ZM29.4339 2.95691V3.95691C29.7818 3.95691 30.0758 4.00562 30.3253 4.09001L30.6457 3.14273L30.9661 2.19545C30.4831 2.03209 29.9692 1.95691 29.4339 1.95691V2.95691ZM30.6457 3.14273L30.3295 4.09142C30.5901 4.17828 30.8079 4.30006 30.9926 4.45344L31.6314 3.68403L32.2701 2.91462C31.884 2.59403 31.4446 2.35494 30.962 2.19405L30.6457 3.14273ZM31.6314 3.68403L31.0085 4.46631C31.1977 4.61704 31.3635 4.80713 31.5043 5.04684L32.3666 4.54041L33.2289 4.03399C32.9711 3.59506 32.6467 3.21422 32.2543 2.90175L31.6314 3.68403ZM32.3666 4.54041L31.5043 5.04684C31.6462 5.28853 31.7629 5.58033 31.8454 5.93217L32.819 5.7038L33.7926 5.47543C33.6704 4.95473 33.4855 4.47094 33.2289 4.03399L32.3666 4.54041ZM32.819 5.7038L31.8461 5.93487C31.9277 6.27868 31.9725 6.67385 31.9725 7.12572H32.9725H33.9725C33.9725 6.54347 33.915 5.99069 33.7919 5.47273L32.819 5.7038ZM32.9725 7.12572H31.9725V11.8762H32.9725H33.9725V7.12572H32.9725ZM32.9725 11.8762V10.8762H32.2939V11.8762V12.8762H32.9725V11.8762ZM25.8144 11.8762H26.8144V3.15081H25.8144H24.8144V11.8762H25.8144ZM25.8144 3.15081V4.15081H26.4446V3.15081V2.15081H25.8144V3.15081ZM26.4446 3.15081H25.4446V4.92821H26.4446H27.4446V3.15081H26.4446ZM26.4446 4.92821V5.92821H26.4931V4.92821V3.92821H26.4446V4.92821ZM26.4931 4.92821H25.4931V11.8762H26.4931H27.4931V4.92821H26.4931ZM26.4931 11.8762V10.8762H25.8144V11.8762V12.8762H26.4931V11.8762ZM37.1371 15.8188L36.8689 16.7822L36.8689 16.7822L37.1371 15.8188ZM35.9334 15.2129L36.537 14.4156L36.5352 14.4143L35.9334 15.2129ZM34.98 14.0576L34.4202 13.229L33.6708 13.7353L34.0996 14.5317L34.98 14.0576ZM35.5779 13.6536L36.4771 13.2162L35.973 12.1798L35.018 12.825L35.5779 13.6536ZM36.8059 14.922L37.2383 14.0203L37.2308 14.0168L36.8059 14.922ZM40.2314 14.8574L39.6814 14.0222L39.6755 14.0261L39.6697 14.0301L40.2314 14.8574ZM41.1605 13.5486L40.2049 13.2539L40.2042 13.2564L41.1605 13.5486ZM41.4271 9.16165V8.16165H40.4271V9.16165H41.4271ZM41.4918 9.16165V10.1616H42.4918V9.16165H41.4918ZM41.4918 3.15081V2.15081H40.4918V3.15081H41.4918ZM42.1219 3.15081H43.1219V2.15081H42.1219V3.15081ZM42.1058 12.159L41.1067 12.1155L41.1067 12.1156L42.1058 12.159ZM42.0411 12.8942L41.0499 12.762L41.0485 12.7729L42.0411 12.8942ZM41.4756 14.6393L40.6315 14.103L40.6271 14.1102L41.4756 14.6393ZM40.288 15.6572L39.8882 14.7406L39.88 14.7442L40.288 15.6572ZM36.305 11.5127L35.7149 12.3201L35.7238 12.3264L36.305 11.5127ZM35.0285 9.85645L34.105 10.2401L34.1061 10.2426L35.0285 9.85645ZM35.0204 5.17058L34.0955 4.79055L34.0955 4.79055L35.0204 5.17058ZM36.2646 3.52245L36.8608 4.3253L36.8621 4.32433L36.2646 3.52245ZM40.3122 3.50629L39.7287 4.31847L39.7377 4.32478L40.3122 3.50629ZM41.5806 5.13827L40.6557 5.5183L40.6567 5.52083L41.5806 5.13827ZM41.5806 9.84837L40.6546 9.47085L40.6532 9.4745L41.5806 9.84837ZM40.1022 10.9229L39.5051 10.1206L39.5007 10.124L40.1022 10.9229ZM41.1444 9.51713L42.0757 9.88121L42.0768 9.87836L41.1444 9.51713ZM41.1363 5.47759L40.2049 5.84169L40.209 5.85191L41.1363 5.47759ZM40.0941 4.08799L39.5048 4.89591L39.5093 4.89916L40.0941 4.08799ZM36.6605 4.10414L37.2605 4.90415L37.262 4.90301L36.6605 4.10414ZM35.6506 5.50183L36.5866 5.85389L36.5876 5.85108L35.6506 5.50183ZM35.6668 9.51713L34.7343 9.87836L34.7354 9.88121L35.6668 9.51713ZM36.6928 10.9229L36.0867 11.7183L36.0913 11.7218L36.6928 10.9229ZM38.4056 15.9966V14.9966C38.0807 14.9966 37.7481 14.9509 37.4054 14.8555L37.1371 15.8188L36.8689 16.7822C37.3772 16.9237 37.8902 16.9966 38.4056 16.9966V15.9966ZM37.1371 15.8188L37.4054 14.8555C37.1095 14.7731 36.8208 14.6305 36.537 14.4156L35.9334 15.2129L35.3297 16.0101C35.7999 16.3662 36.3138 16.6276 36.8689 16.7822L37.1371 15.8188ZM35.9334 15.2129L36.5352 14.4143C36.2991 14.2364 36.0693 13.9712 35.8605 13.5835L34.98 14.0576L34.0996 14.5317C34.4186 15.1243 34.8243 15.6293 35.3315 16.0115L35.9334 15.2129ZM34.98 14.0576L35.5399 14.8862L36.1377 14.4822L35.5779 13.6536L35.018 12.825L34.4202 13.229L34.98 14.0576ZM35.5779 13.6536L34.6786 14.0911C35.0547 14.8641 35.6176 15.4689 36.381 15.8273L36.8059 14.922L37.2308 14.0168C36.9385 13.8796 36.6827 13.6388 36.4771 13.2162L35.5779 13.6536ZM36.8059 14.922L36.3735 15.8237C37.0244 16.1359 37.7046 16.3018 38.4056 16.3018V15.3018V14.3018C38.0293 14.3018 37.6431 14.2145 37.2383 14.0204L36.8059 14.922ZM38.4056 15.3018V16.3018C39.2958 16.3018 40.1292 16.1356 40.7932 15.6847L40.2314 14.8574L39.6697 14.0301C39.4611 14.1717 39.0772 14.3018 38.4056 14.3018V15.3018ZM40.2314 14.8574L40.7814 15.6926C41.4464 15.2547 41.8819 14.61 42.1169 13.8408L41.1605 13.5486L40.2042 13.2564C40.0837 13.6506 39.8998 13.8784 39.6814 14.0222L40.2314 14.8574ZM41.1605 13.5486L42.1161 13.8433C42.3329 13.1403 42.4271 12.3141 42.4271 11.3915H41.4271H40.4271C40.4271 12.1924 40.3436 12.8043 40.2049 13.2539L41.1605 13.5486ZM41.4271 11.3915H42.4271V9.16165H41.4271H40.4271V11.3915H41.4271ZM41.4271 9.16165V10.1616H41.4918V9.16165V8.16165H41.4271V9.16165ZM41.4918 9.16165H42.4918V3.15081H41.4918H40.4918V9.16165H41.4918ZM41.4918 3.15081V4.15081H42.1219V3.15081V2.15081H41.4918V3.15081ZM42.1219 3.15081H41.1219V11.3915H42.1219H43.1219V3.15081H42.1219ZM42.1219 11.3915H41.1219C41.1219 11.6418 41.1168 11.8831 41.1067 12.1155L42.1058 12.159L43.1048 12.2024C43.1163 11.9393 43.1219 11.669 43.1219 11.3915H42.1219ZM42.1058 12.159L41.1067 12.1156C41.0972 12.3341 41.0783 12.5495 41.0499 12.762L42.0411 12.8942L43.0324 13.0263C43.0687 12.7541 43.0928 12.4794 43.1048 12.2024L42.1058 12.159ZM42.0411 12.8942L41.0485 12.7729C40.975 13.3748 40.8219 13.8034 40.6315 14.103L41.4756 14.6393L42.3197 15.1755C42.7111 14.5595 42.9349 13.8247 43.0338 13.0154L42.0411 12.8942ZM41.4756 14.6393L40.6271 14.1102C40.4512 14.3921 40.2139 14.5986 39.8882 14.7406L40.288 15.6572L40.6878 16.5738C41.3747 16.2742 41.9291 15.802 42.3242 15.1684L41.4756 14.6393ZM40.288 15.6572L39.88 14.7442C39.5387 14.8967 39.0601 14.9966 38.4056 14.9966V15.9966V16.9966C39.2483 16.9966 40.0247 16.8701 40.6959 16.5702L40.288 15.6572ZM38.3894 12.1186V11.1186C37.734 11.1186 37.2525 10.9605 36.8862 10.6989L36.305 11.5127L35.7238 12.3264C36.4886 12.8727 37.3966 13.1186 38.3894 13.1186V12.1186ZM36.305 11.5127L36.895 10.7053C36.4945 10.4126 36.1777 10.0119 35.9509 9.47031L35.0285 9.85645L34.1061 10.2426C34.461 11.0906 34.9952 11.7941 35.715 12.3201L36.305 11.5127ZM35.0285 9.85645L35.952 9.47284C35.7187 8.91118 35.5922 8.25792 35.5922 7.49736H34.5922H33.5922C33.5922 8.48188 33.7566 9.40134 34.105 10.2401L35.0285 9.85645ZM34.5922 7.49736H35.5922C35.5922 6.75319 35.7159 6.10912 35.9454 5.55061L35.0204 5.17058L34.0955 4.79055C33.754 5.62164 33.5922 6.52876 33.5922 7.49736H34.5922ZM35.0204 5.17058L35.9454 5.55061C36.1695 5.00523 36.4783 4.60933 36.8608 4.3253L36.2646 3.52245L35.6684 2.7196C34.9629 3.24348 34.4423 3.94633 34.0955 4.79055L35.0204 5.17058ZM36.2646 3.52245L36.8621 4.32433C37.2152 4.06123 37.663 3.90844 38.2601 3.90844V2.90844V1.90844C37.2953 1.90844 36.4128 2.16499 35.6671 2.72057L36.2646 3.52245ZM38.2601 2.90844V3.90844C38.905 3.90844 39.3745 4.06391 39.7288 4.31842L40.3122 3.50629L40.8957 2.69416C40.1404 2.15154 39.2419 1.90844 38.2601 1.90844V2.90844ZM40.3122 3.50629L39.7377 4.32478C40.1265 4.59766 40.4354 4.98222 40.6557 5.51829L41.5806 5.13827L42.5056 4.75824C42.1549 3.90471 41.6183 3.20129 40.8867 2.6878L40.3122 3.50629ZM41.5806 5.13827L40.6567 5.52083C40.8836 6.06882 41.0088 6.72162 41.0088 7.49736H42.0088H43.0088C43.0088 6.50647 42.8486 5.58654 42.5046 4.7557L41.5806 5.13827ZM42.0088 7.49736H41.0088C41.0088 8.2539 40.8846 8.90681 40.6546 9.47085L41.5806 9.84837L42.5066 10.2259C42.8476 9.38955 43.0088 8.47512 43.0088 7.49736H42.0088ZM41.5806 9.84837L40.6532 9.4745C40.4331 10.0205 40.1275 10.4196 39.7475 10.7084L40.3526 11.5046L40.9577 12.3007C41.6549 11.7708 42.1681 11.0658 42.5081 10.2222L41.5806 9.84837ZM40.3526 11.5046L39.7475 10.7084C39.4066 10.9676 38.9727 11.1186 38.3894 11.1186V12.1186V13.1186C39.3465 13.1186 40.2215 12.8603 40.9577 12.3007L40.3526 11.5046ZM38.3894 11.44V12.44C39.2471 12.44 40.0408 12.2208 40.7037 11.7218L40.1022 10.9229L39.5007 10.124C39.2479 10.3143 38.8997 10.44 38.3894 10.44V11.44ZM40.1022 10.9229L40.6992 11.7251C41.3277 11.2574 41.7831 10.6298 42.0757 9.88121L41.1444 9.51713L40.213 9.15305C40.0424 9.58938 39.803 9.89901 39.5052 10.1207L40.1022 10.9229ZM41.1444 9.51713L42.0768 9.87836C42.3599 9.14772 42.4918 8.3492 42.4918 7.49736H41.4918H40.4918C40.4918 8.14284 40.3921 8.69083 40.2119 9.1559L41.1444 9.51713ZM41.4918 7.49736H42.4918C42.4918 6.63465 42.3571 5.83048 42.0636 5.10327L41.1363 5.47759L40.209 5.85191C40.3894 6.29885 40.4918 6.84119 40.4918 7.49736H41.4918ZM41.1363 5.47759L42.0677 5.11351C41.7742 4.3629 41.3157 3.73589 40.6789 3.27681L40.0941 4.08799L39.5093 4.89916C39.7989 5.10795 40.0351 5.40734 40.2049 5.84167L41.1363 5.47759ZM40.0941 4.08799L40.6834 3.28007C40.0227 2.79819 39.2369 2.58708 38.3894 2.58708V3.58708V4.58708C38.8992 4.58708 39.2498 4.70991 39.5048 4.8959L40.0941 4.08799ZM38.3894 3.58708V2.58708C37.5249 2.58708 36.7245 2.8042 36.059 3.30527L36.6605 4.10414L37.262 4.90301C37.5121 4.71467 37.8643 4.58708 38.3894 4.58708V3.58708ZM36.6605 4.10414L36.0605 3.30414C35.4372 3.77159 34.9931 4.40255 34.7136 5.15257L35.6506 5.50183L36.5876 5.85108C36.7497 5.41616 36.9789 5.11534 37.2605 4.90414L36.6605 4.10414ZM35.6506 5.50183L34.7146 5.14976C34.4444 5.86809 34.3194 6.65558 34.3194 7.49736H35.3194H36.3194C36.3194 6.85259 36.4151 6.30972 36.5866 5.85389L35.6506 5.50183ZM35.3194 7.49736H34.3194C34.3194 8.3492 34.4512 9.14772 34.7343 9.87836L35.6668 9.51713L36.5992 9.1559C36.4191 8.69083 36.3194 8.14284 36.3194 7.49736H35.3194ZM35.6668 9.51713L34.7354 9.88121C35.0257 10.6238 35.4716 11.2496 36.0868 11.7183L36.6928 10.9229L37.2988 10.1275C37.0092 9.90675 36.771 9.59539 36.5981 9.15305L35.6668 9.51713ZM36.6928 10.9229L36.0913 11.7218C36.7514 12.2188 37.5384 12.44 38.3894 12.44V11.44V10.44C37.8939 10.44 37.5498 10.3164 37.2943 10.124L36.6928 10.9229ZM45.7603 11.5611L45.2289 12.4083L45.2324 12.4104L45.7603 11.5611ZM44.3869 9.96956L43.4814 10.394L43.4814 10.394L44.3869 9.96956ZM44.3788 5.0494L43.4733 4.62495L43.4706 4.63079L44.3788 5.0494ZM45.7522 3.4659L46.2781 4.31649L46.2802 4.31518L45.7522 3.4659ZM50.0341 3.47398L50.571 2.63031L50.571 2.63031L50.0341 3.47398ZM51.3914 5.11403L50.4748 5.51377L50.4773 5.51953L51.3914 5.11403ZM51.8681 7.70741V8.70741H52.8681V7.70741H51.8681ZM51.141 7.70741H50.141V8.70741H51.141V7.70741ZM51.141 7.4812H52.141V7.46833L52.1406 7.45546L51.141 7.4812ZM50.2523 4.59697L49.4805 5.23292L49.4861 5.23958L50.2523 4.59697ZM45.4856 4.6212L46.2533 5.26199L46.2558 5.25902L45.4856 4.6212ZM45.4856 10.4139L44.7154 11.0517L44.7179 11.0547L45.4856 10.4139ZM49.7918 10.931L49.2625 10.0825L49.2625 10.0825L49.7918 10.931ZM51.0925 9.46865L51.5886 8.60041L50.677 8.07948L50.2011 9.01541L51.0925 9.46865ZM51.658 9.79182L52.5602 10.2233L52.9612 9.38474L52.1542 8.92357L51.658 9.79182ZM44.3384 7.70741H43.3384V8.70741H44.3384V7.70741ZM44.3384 7.02877V6.02877H43.3384V7.02877H44.3384ZM51.448 7.02877H52.448V6.02877H51.448V7.02877ZM51.448 7.70741V8.70741H52.448V7.70741H51.448ZM47.8932 12.1186V11.1186C47.2234 11.1186 46.7022 10.9692 46.2882 10.7119L45.7603 11.5611L45.2324 12.4104C46.0141 12.8963 46.9149 13.1186 47.8932 13.1186V12.1186ZM45.7603 11.5611L46.2917 10.714C45.8763 10.4534 45.5415 10.0767 45.2923 9.54512L44.3869 9.96956L43.4814 10.394C43.8786 11.2413 44.4594 11.9255 45.2289 12.4083L45.7603 11.5611ZM44.3869 9.96956L45.2923 9.54512C45.0447 9.01696 44.9021 8.34977 44.9021 7.51352H43.9021H42.9021C42.9021 8.57315 43.0827 9.54333 43.4814 10.394L44.3869 9.96956ZM43.9021 7.51352H44.9021C44.9021 6.66884 45.0431 5.99708 45.287 5.468L44.3788 5.0494L43.4706 4.63079C43.0789 5.48055 42.9021 6.45153 42.9021 7.51352H43.9021ZM44.3788 5.0494L45.2842 5.47383C45.5329 4.94327 45.8662 4.57111 46.278 4.31649L45.7522 3.4659L45.2264 2.6153C44.4534 3.09319 43.871 3.77669 43.4733 4.62496L44.3788 5.0494ZM45.7522 3.4659L46.2802 4.31518C46.6932 4.05845 47.2166 3.90844 47.8932 3.90844V2.90844V1.90844C46.9109 1.90844 46.007 2.13006 45.2243 2.61661L45.7522 3.4659ZM47.8932 2.90844V3.90844C48.5742 3.90844 49.0934 4.06063 49.4973 4.31764L50.0341 3.47398L50.571 2.63031C49.7899 2.13327 48.8818 1.90844 47.8932 1.90844V2.90844ZM50.0341 3.47398L49.4973 4.31764C49.9031 4.5759 50.2326 4.9585 50.4748 5.51376L51.3914 5.11403L52.3081 4.7143C51.9254 3.83687 51.3501 3.1261 50.571 2.63031L50.0341 3.47398ZM51.3914 5.11403L50.4773 5.51953C50.7245 6.07671 50.8681 6.79539 50.8681 7.70741H51.8681H52.8681C52.8681 6.59428 52.6939 5.58404 52.3055 4.70853L51.3914 5.11403ZM51.8681 7.70741V6.70741H51.141V7.70741V8.70741H51.8681V7.70741ZM51.141 7.70741H52.141V7.4812H51.141H50.141V7.70741H51.141ZM51.141 7.4812L52.1406 7.45546C52.105 6.07119 51.7759 4.85745 51.0185 3.95436L50.2523 4.59697L49.4861 5.23958C49.8489 5.67223 50.1123 6.38131 50.1413 7.50694L51.141 7.4812ZM50.2523 4.59697L51.024 3.96104C50.2466 3.01753 49.1543 2.58708 47.8932 2.58708V3.58708V4.58708C48.668 4.58708 49.1485 4.82989 49.4805 5.23289L50.2523 4.59697ZM47.8932 3.58708V2.58708C46.6129 2.58708 45.507 3.02753 44.7154 3.98339L45.4856 4.6212L46.2558 5.25902C46.6061 4.83605 47.1052 4.58708 47.8932 4.58708V3.58708ZM45.4856 4.6212L44.7179 3.98043C43.947 4.90404 43.6292 6.12704 43.6292 7.51352H44.6292H45.6292C45.6292 6.41164 45.8824 5.70642 46.2533 5.26198L45.4856 4.6212ZM44.6292 7.51352H43.6292C43.6292 8.90062 43.9472 10.1241 44.7154 11.0517L45.4856 10.4139L46.2558 9.77609C45.8821 9.32488 45.6292 8.61477 45.6292 7.51352H44.6292ZM45.4856 10.4139L44.7179 11.0547C45.5104 12.0042 46.6156 12.44 47.8932 12.44V11.44V10.44C47.1025 10.44 46.6027 10.1917 46.2533 9.77313L45.4856 10.4139ZM47.8932 11.44V12.44C48.7779 12.44 49.5989 12.2298 50.321 11.7794L49.7918 10.931L49.2625 10.0825C48.8966 10.3107 48.452 10.44 47.8932 10.44V11.44ZM49.7918 10.931L50.321 11.7794C51.0363 11.3333 51.5877 10.701 51.9839 9.9219L51.0925 9.46865L50.2011 9.01541C49.9509 9.50741 49.6352 9.85003 49.2625 10.0825L49.7918 10.931ZM51.0925 9.46865L50.5964 10.3369L51.1619 10.6601L51.658 9.79182L52.1542 8.92357L51.5886 8.60041L51.0925 9.46865ZM51.658 9.79182L50.7559 9.36036C50.4765 9.94455 50.0974 10.3671 49.6204 10.6627L50.1472 11.5127L50.6741 12.3626C51.5005 11.8504 52.1286 11.1256 52.5602 10.2233L51.658 9.79182ZM50.1472 11.5127L49.6204 10.6627C49.1439 10.958 48.5791 11.1186 47.8932 11.1186V12.1186V13.1186C48.9092 13.1186 49.8471 12.8752 50.6741 12.3626L50.1472 11.5127ZM44.3384 7.70741H45.3384V7.02877H44.3384H43.3384V7.70741H44.3384ZM44.3384 7.02877V8.02877H51.448V7.02877V6.02877H44.3384V7.02877ZM51.448 7.02877H50.448V7.70741H51.448H52.448V7.02877H51.448ZM51.448 7.70741V6.70741H44.3384V7.70741V8.70741H51.448V7.70741Z" fill="white" mask="url(#path-1-inside-1_41_1296)"/>
</svg>
