<?xml version="1.0" encoding="utf-8"?>
<!-- Generator: Adobe Illustrator 24.0.0, SVG Export Plug-In . SVG Version: 6.00 Build 0)  -->
<svg version="1.1" id="layer" xmlns="http://www.w3.org/2000/svg" xmlns:xlink="http://www.w3.org/1999/xlink" x="0px" y="0px"
	 viewBox="0 0 150 75" style="enable-background:new 0 0 150 75;" xml:space="preserve">
<path d="M12.5,39.8l1,1.1h-1.1l-0.6-0.6c-0.6,0.3-1.2,0.4-1.7,0.4c-1,0-1.8-0.3-2.5-1s-1-1.5-1-2.4s0.3-1.7,1-2.4s1.6-1,2.5-1
	s1.8,0.3,2.5,1c0.7,0.6,1,1.4,1,2.3C13.6,38.3,13.3,39.2,12.5,39.8z M11.2,39.7l-1.4-1.5h1.1l1,1.1c0.5-0.5,0.8-1.1,0.8-1.8
	s-0.3-1.3-0.8-1.8S10.8,35,10,35c-0.7,0-1.3,0.2-1.8,0.7c-0.5,0.4-0.7,1-0.7,1.8c0,0.7,0.3,1.3,0.8,1.8S9.4,40,10.2,40
	C10.5,39.8,10.8,39.8,11.2,39.7z M17.9,34h0.9v4.2c0,0.6,0.1,1.1,0.4,1.4c0.3,0.3,0.7,0.5,1.3,0.5c0.5,0,1-0.2,1.3-0.5
	s0.4-0.7,0.4-1.3V34h0.9v4.3c0,0.8-0.2,1.5-0.7,2S21.3,41,20.5,41s-1.4-0.3-1.9-0.8S17.9,39,17.9,38L17.9,34z M28.6,34h0.9v7h-0.9
	V34z M35,33.7l5.2,5.3v-5h0.9v7.3L35.9,36v5H35V33.7z M45.2,34h4.3v1h-1.7v6h-0.9v-6h-1.7L45.2,34L45.2,34z M54.2,34h3.9v1h-2.9v1.7
	h2.9v0.9h-2.9V40h2.9v1h-3.9V34z M66.9,34.9l-0.7,0.6c-0.2-0.2-0.4-0.3-0.5-0.4C65.5,35,65.3,35,65,35c-0.3,0-0.6,0.1-0.8,0.2
	c-0.2,0.1-0.3,0.3-0.3,0.6c0,0.2,0.1,0.4,0.3,0.5c0.2,0.2,0.5,0.3,0.9,0.5s0.7,0.3,1,0.5s0.4,0.3,0.6,0.5c0.1,0.2,0.3,0.4,0.3,0.6
	c0.1,0.2,0.1,0.4,0.1,0.7c0,0.5-0.2,1-0.6,1.4C66,40.8,65.6,41,65,41c-0.5,0-1-0.1-1.4-0.4c-0.4-0.3-0.7-0.7-1-1.3l0.9-0.3
	c0.3,0.7,0.8,1.1,1.5,1.1c0.3,0,0.6-0.1,0.8-0.3c0.2-0.2,0.3-0.4,0.3-0.7c0-0.2-0.1-0.4-0.2-0.5c-0.1-0.2-0.3-0.3-0.4-0.4
	c-0.2-0.1-0.4-0.2-0.8-0.4c-0.4-0.1-0.6-0.3-0.8-0.4c-0.2-0.1-0.4-0.3-0.5-0.4c-0.1-0.2-0.2-0.3-0.3-0.5C63,36.1,63,35.9,63,35.7
	c0-0.5,0.2-0.9,0.6-1.2C64,34.2,64.4,34,65,34c0.4,0,0.7,0.1,1.1,0.2C66.3,34.4,66.6,34.6,66.9,34.9L66.9,34.9z M75.5,34.9l-0.7,0.6
	c-0.2-0.2-0.4-0.3-0.5-0.4C74.1,35,73.9,35,73.6,35c-0.3,0-0.6,0.1-0.8,0.2c-0.2,0.1-0.3,0.3-0.3,0.6c0,0.2,0.1,0.4,0.3,0.5
	c0.2,0.2,0.5,0.3,0.9,0.5s0.7,0.3,1,0.5s0.4,0.3,0.6,0.5c0.1,0.2,0.3,0.4,0.3,0.6c0.1,0.2,0.1,0.4,0.1,0.7c0,0.5-0.2,1-0.6,1.4
	s-0.9,0.6-1.4,0.6s-1-0.1-1.4-0.4c-0.4-0.3-0.7-0.7-1-1.3l0.9-0.3c0.3,0.7,0.8,1.1,1.5,1.1c0.3,0,0.6-0.1,0.8-0.3
	c0.2-0.2,0.3-0.4,0.3-0.7c0-0.2-0.1-0.4-0.2-0.5c-0.1-0.2-0.3-0.3-0.4-0.4c-0.2-0.1-0.4-0.2-0.8-0.4c-0.4-0.1-0.6-0.3-0.8-0.4
	c-0.2-0.1-0.4-0.3-0.5-0.4c-0.1-0.2-0.2-0.3-0.3-0.5c-0.1-0.2-0.1-0.4-0.1-0.5c0-0.5,0.2-0.9,0.6-1.2s0.8-0.5,1.4-0.5
	c0.4,0,0.7,0.1,1.1,0.2C74.9,34.4,75.2,34.6,75.5,34.9L75.5,34.9z M80.2,34h3.9v1h-2.9v1.7h2.9v0.9h-2.9V40h2.9v1h-3.9V34z
	 M88.7,33.7l5.2,5.3v-5h0.9v7.3L89.6,36v5h-0.9V33.7L88.7,33.7z M98.9,34h4.3v0.9h-1.7v6h-0.9v-6h-1.7L98.9,34L98.9,34z M108,34h0.9
	v7H108V34z M116.1,34l3.2,7h-1l-0.8-1.7h-2.9l-0.8,1.7h-1L116.1,34z M116.1,36.1l-1.1,2.4h2.2L116.1,36.1z M123.7,34h0.9v6.1h2.3V41
	h-3.2L123.7,34L123.7,34z M130.9,34h0.9v6h2.3v1h-3.2V34L130.9,34z M137.9,34h1.1l1.7,2.8l1.7-2.8h1.1l-2.3,3.8V41h-1v-3.2L137.9,34
	z"/>
</svg>
