<?xml version="1.0" encoding="utf-8"?>
<!-- Generator: Adobe Illustrator 24.0.0, SVG Export Plug-In . SVG Version: 6.00 Build 0)  -->
<svg version="1.1"
	 id="svg1601" inkscape:version="1.0 (4035a4fb49, 2020-05-01)" sodipodi:docname="RuPay Logo.svg" xmlns:cc="http://creativecommons.org/ns#" xmlns:dc="http://purl.org/dc/elements/1.1/" xmlns:inkscape="http://www.inkscape.org/namespaces/inkscape" xmlns:rdf="http://www.w3.org/1999/02/22-rdf-syntax-ns#" xmlns:sodipodi="http://sodipodi.sourceforge.net/DTD/sodipodi-0.dtd" xmlns:svg="http://www.w3.org/2000/svg"
	 xmlns="http://www.w3.org/2000/svg" xmlns:xlink="http://www.w3.org/1999/xlink" x="0px" y="0px" viewBox="0 0 150 75"
	 style="enable-background:new 0 0 150 75;" xml:space="preserve">
<style type="text/css">
	.st0{fill:#008C44;}
	.st1{fill:#F47920;}
	.st2{fill:#1B3281;}
</style>
<sodipodi:namedview  bordercolor="#666666" borderopacity="1.0" id="base" inkscape:current-layer="layer1" inkscape:cx="97.769874" inkscape:cy="-63.808685" inkscape:document-rotation="0" inkscape:document-units="mm" inkscape:pageopacity="0.0" inkscape:pageshadow="2" inkscape:window-height="1030" inkscape:window-maximized="0" inkscape:window-width="1375" inkscape:window-x="244" inkscape:window-y="0" inkscape:zoom="1.979899" pagecolor="#ffffff" showgrid="false">
	</sodipodi:namedview>
<g id="layer1" inkscape:groupmode="layer" inkscape:label="Layer 1">
	<g id="g234" transform="matrix(0.35277777,0,0,-0.35277777,67.797845,1.4031532)">
		<path id="path236" class="st0" d="M178.6-62.4l20.1-40l-42.3-40L178.6-62.4z"/>
	</g>
	<g id="g238" transform="matrix(0.35277777,0,0,-0.35277777,64.991459,1.4031532)">
		<path id="path240" class="st1" d="M172.6-62.4l20.1-40l-42.3-40L172.6-62.4z"/>
	</g>
	<g id="g242" transform="matrix(0.35277777,0,0,-0.35277777,0.01611121,14.573442)">
		<path id="path244" class="st2" d="M34.2-90.4l20.1,72.3h32.1c10,0,16.7-1.6,20.1-4.9c3.4-3.2,4-8.5,2-16c-1.2-4.4-3.1-8.1-5.7-11
			c-2.6-2.9-5.9-5.2-10.1-6.9c3.5-0.8,5.8-2.5,6.8-5c1-2.5,0.9-6.2-0.3-11L96.7-83v-0.3c-0.7-2.8-0.5-4.3,0.7-4.5l-0.7-2.7H74.9
			c0.1,1.7,0.2,3.2,0.4,4.5c0.2,1.3,0.4,2.3,0.5,3l2,7.2c1,3.8,1.1,6.4,0.1,7.9c-1,1.5-3.1,2.3-6.5,2.3h-9.1l-7-24.9L34.2-90.4
			L34.2-90.4z M66.9-49.2h9.8c3.4,0,5.9,0.5,7.5,1.5c1.6,1,2.7,2.7,3.4,5.2c0.7,2.5,0.5,4.3-0.5,5.3s-3.4,1.5-7.2,1.5h-9.2
			L66.9-49.2z"/>
	</g>
	<g id="g246" transform="matrix(0.35277777,0,0,-0.35277777,26.966392,3.8309332)">
		<path id="path248" class="st2" d="M91.6-67.5l-14.8-53.3h-18L61-113c-3.2-3.1-6.4-5.5-9.7-7c-3.2-1.5-6.7-2.3-10.2-2.3
			c-3,0-5.5,0.5-7.6,1.6s-3.6,2.7-4.7,4.8c-0.9,1.9-1.3,4.2-1.2,6.9c0.2,2.7,1.1,7.3,2.9,13.7l7.7,27.7H58l-7.6-27.5
			c-1.1-4-1.4-6.9-0.8-8.4c0.6-1.6,2.1-2.4,4.5-2.4c2.5,0,4.6,0.9,6.3,2.7c1.7,1.8,3.1,4.5,4.1,8.1L72-67.5H91.6z"/>
	</g>
	<g id="g250" transform="matrix(0.35277777,0,0,-0.35277777,25.52981,14.573442)">
		<path id="path252" class="st2" d="M88.6-90.4l20,72.3h27.6c6.1,0,10.8-0.4,14.1-1.1c3.4-0.8,6-2,7.9-3.7c2.4-2.3,3.9-5.1,4.6-8.4
			c0.6-3.4,0.2-7.3-1-11.9c-2.2-8.1-6.2-14.3-11.8-18.6c-5.6-4.3-12.6-6.4-20.9-6.4h-12.9l-6.1-22.1H88.6V-90.4z M121.1-50.6h6.9
			c4.5,0,7.6,0.6,9.5,1.6c1.8,1.1,3.1,3,3.8,5.7c0.8,2.8,0.6,4.7-0.6,5.8c-1.1,1.1-4,1.6-8.6,1.6h-6.9L121.1-50.6z"/>
	</g>
	<g id="g254" transform="matrix(0.35277777,0,0,-0.35277777,44.934987,14.573442)">
		<path id="path256" class="st2" d="M129.9-90.4l0.2,5.1c-3.2-2.4-6.4-4.2-9.6-5.3c-3.2-1.1-6.6-1.7-10.3-1.7
			c-5.6,0-9.5,1.5-11.7,4.4s-2.6,7.1-1.1,12.5c1.4,5.3,4,9.2,7.7,11.7c3.7,2.5,9.9,4.3,18.5,5.5c1.1,0.2,2.6,0.3,4.4,0.5
			c6.4,0.7,10,2.4,10.8,5.2c0.4,1.5,0.2,2.6-0.8,3.3c-0.9,0.7-2.6,1.1-5.1,1.1c-2,0-3.7-0.4-5-1.3c-1.3-0.9-2.4-2.2-3-4h-19.2
			c1.7,6,5.3,10.5,10.6,13.6c5.3,3.1,12.3,4.6,20.9,4.6c4.1,0,7.7-0.4,10.9-1.2s5.6-1.9,7.1-3.3c1.9-1.7,3-3.6,3.3-5.8
			c0.4-2.1,0-5.2-1.2-9.2l-8.2-29.7c-0.3-1-0.3-1.8-0.2-2.6c0.2-0.8,0.5-1.4,1.1-1.9l-0.4-1.5C149.6-90.4,129.9-90.4,129.9-90.4z
			 M134.7-66.6c-2.1-0.8-4.8-1.6-8.2-2.5c-5.3-1.4-8.3-3.3-8.9-5.7c-0.4-1.5-0.3-2.7,0.5-3.6c0.7-0.8,2-1.3,3.8-1.3
			c3.3,0,5.9,0.8,7.8,2.5c2,1.6,3.4,4.2,4.4,7.8c0.2,0.8,0.3,1.3,0.4,1.7L134.7-66.6z"/>
	</g>
	<g id="g258" transform="matrix(0.35277777,0,0,-0.35277777,48.940953,18.806421)">
		<path id="path260" class="st2" d="M138.4-99.4l4.4,15.8h5.6c1.9,0,3.4,0.4,4.4,1c1.1,0.7,1.8,1.9,2.2,3.5c0.2,0.7,0.3,1.4,0.4,2.3
			c0.1,0.9,0.1,1.8,0,2.9l-3,48.8h19.9L172-57.5l17.4,32.4h18.5l-30.7-53.1c-3.5-5.9-6-10-7.6-12.2s-3.1-3.9-4.6-5.1
			c-1.9-1.6-4-2.7-6.3-3.4c-2.3-0.7-5.8-1-10.5-1c-1.3,0-2.9,0-4.6,0.1C142-99.7,140.3-99.6,138.4-99.4"/>
	</g>
</g>
</svg>
