<?xml version="1.0" encoding="utf-8"?>
<!-- Generator: Adobe Illustrator 24.0.0, SVG Export Plug-In . SVG Version: 6.00 Build 0)  -->
<svg version="1.1" id="layer" xmlns="http://www.w3.org/2000/svg" xmlns:xlink="http://www.w3.org/1999/xlink" x="0px" y="0px"
	 viewBox="0 0 150 75" style="enable-background:new 0 0 150 75;" xml:space="preserve">
<style type="text/css">
	.st0{fill:#1FA8E1;}
	.st1{fill:#1A287B;}
</style>
<g>
	<path class="st0" d="M111.1,35.2c0-2-0.6-3.4-1.8-4.3c-1.1-0.8-2.9-1.2-5.3-1.2c-3.6,0-7,1.3-7,1.3l-0.5,3.8l0.8-0.3
		c1.1-0.5,2.2-0.8,3.2-1.1s2-0.4,2.9-0.4c1.3,0,2.2,0.2,2.8,0.5c0.5,0.3,0.8,0.8,0.8,1.5c0,0.6-0.2,1-0.6,1.4
		c-0.3,0.3-1.1,0.8-3,1.5l-4.3,1.5c-1.6,0.6-2.8,1.4-3.5,2.2c-0.7,0.9-1.1,2.1-1,3.5c0,1.6,0.7,3,2,3.9c0.5,0.4,1.1,0.7,1.6,0.9
		c0.8,0.3,1.8,0.5,2.7,0.6c2.2,0.2,4.2-0.5,5.8-1.7l-0.1,1.3h4.4v-3.8l0.1-9.6C111.1,36.6,111.1,35.2,111.1,35.2 M103.2,47.1
		c-0.4,0-0.8,0.1-1.2,0.1c-1,0-1.8-0.2-2.3-0.6c-0.5-0.4-0.7-0.9-0.8-1.6c0-0.6,0.1-1.2,0.5-1.6c0.3-0.4,1.1-0.9,2.1-1.2l4.1-1.5
		c0.6-0.3,1-0.4,1.4-0.6c0,0,0.1,0,0.1-0.1l-0.2,5.9c0,0.1-0.7,0.4-0.8,0.5C105.8,46.4,104.3,46.9,103.2,47.1"/>
	<path class="st0" d="M92.1,45.6L92.1,45.6l-0.6,0.2c-1,0.5-1.9,0.8-2.9,1.1c-1.5,0.4-3.1,0.6-4.6,0.1c-0.5-0.2-1-0.4-1.4-0.7
		s-0.8-0.6-1.1-1c-1.2-1.6-1.4-3.8-1.3-5.8c0.1-1.5,0.4-3.1,1.3-4.4c0.3-0.4,0.6-0.7,1.1-1c0.4-0.3,0.9-0.5,1.4-0.7
		c2.1-0.6,4.3-0.1,6.3,0.6c0.7,0.2,1.4,0.5,2.3,0.9l0.7-3.9c-1.8-0.6-3.7-0.9-5.6-1.1c-1.7-0.2-3.4-0.1-5,0.4
		c-1.5,0.5-2.8,1.3-3.8,2.4c-1.9,2.2-2.5,5.4-2.3,8.2c0.1,2.3,0.8,4.8,2.2,6.6c1.4,1.8,3.5,2.7,5.7,2.9c2.2,0.3,4.3,0,6.5-0.6
		c0.8-0.2,1.6-0.5,2.4-0.8h0.1v-0.1C92.7,47.9,92.3,46.7,92.1,45.6"/>
	<path class="st0" d="M127.9,30.5c-1-0.3-2-0.5-2.9-0.6c-1.1-0.1-2.3-0.2-3.5-0.2c-2.5,0-4.3,0.5-5.5,1.3c-1.2,0.9-1.8,2.3-1.9,4.2
		v1.5v9.6V50h4.5l-0.1-0.7c-0.1-0.6-0.2-2.3-0.2-2.3c0-0.3,0-0.6,0-0.9L118,38c0-0.9,0-1.7,0.1-2.5c0.1-0.4,0.3-1.1,0.9-1.6
		c2.3-1.9,6.3-0.1,6.3-0.1c0-0.2,0.1-0.4,0.2-0.6c0.3-0.6,0.7-1.1,1.1-1.5C127,31.3,127.5,30.9,127.9,30.5"/>
	<path class="st0" d="M140.3,24.4c0,0.4,0.1,2.4,0.1,5.8c-0.9-0.2-1.6-0.3-2.5-0.4c-1.7-0.2-3.5-0.1-5.2,0.4
		c-1.6,0.5-2.9,1.3-3.9,2.4c-2,2.2-2.5,5.4-2.4,8.2c0.1,2.3,0.8,4.8,2.3,6.6c1.4,1.8,3.6,2.7,5.8,2.9c0.1,0,0.8,0.1,1,0.1
		c0.6,0,1.1,0,1.7,0c0.7,0,1.5-0.1,2.2-0.2c0.3,0,0.6-0.1,0.8-0.2c0.3-0.1,0.5-0.1,0.8-0.2c0.1,0,0.6-0.2,0.7-0.3
		c0.6-0.3,1.3-0.7,1.7-1.3c0.1-0.1,0.2-0.3,0.3-0.5c0.2-0.3,0.3-0.7,0.3-1.2V24.4H140.3z M134.2,46.9c-0.5-0.2-1-0.4-1.4-0.7
		s-0.8-0.6-1.1-1c-1.2-1.6-1.5-3.8-1.4-5.8c0.1-1.5,0.4-3.1,1.4-4.4c0.3-0.4,0.7-0.7,1.1-1c0.4-0.3,0.9-0.5,1.4-0.7
		c2.1-0.6,4.1,0,6.2,0.6c0,0,0,11.3,0,11.4c0,0.7-0.8,1.1-1.3,1.3c-0.7,0.3-2.1,0.4-2.1,0.4C136,47.2,135.1,47.2,134.2,46.9"/>
	<path class="st1" d="M43.8,39.7c-1.2-1-2.7-1.6-4-2.1c-1.8-0.8-3.4-1.4-3.4-2.6c0-0.5,0.3-1,0.7-1.4c0.5-0.4,1.1-0.6,1.9-0.6
		c2.3,0,4.1,1.6,4.1,1.6l0.4,0.4l2-3.8L45.3,31c-0.1-0.1-2.2-2.3-6.4-2.3c-2,0-3.8,0.6-5.1,1.8c-1.4,1.2-2.1,2.8-2.1,4.5
		s0.7,3.1,2,4.2c1.1,1,2.6,1.6,4,2.2c1.9,0.8,3.5,1.5,3.5,2.8c0,0.9-0.6,2-2.5,2c-2.6,0-4.7-2-4.7-2l-0.4-0.4l-2.5,3.5l0.3,0.3
		c0,0,0.7,0.8,1.9,1.5c1.1,0.7,3,1.4,5.4,1.4c2.1,0,3.9-0.6,5.2-1.9c1.2-1.1,1.9-2.8,1.9-4.5C45.8,42.3,45.1,40.9,43.8,39.7"/>
	<rect x="65.1" y="29" class="st1" width="4.7" height="21.2"/>
	<path class="st1" d="M62.2,40.7c-0.5-0.7-1.1-1.3-1.9-1.7c1.2-1,1.9-2.5,1.9-4.3c0-1.7-0.7-3.2-1.9-4.2S57.4,29,55.5,29h-7.7v21.2
		h7.8c2.1,0,3.9-0.5,5.2-1.5c1.5-1.1,2.3-2.8,2.3-4.8C63,42.7,62.7,41.6,62.2,40.7 M55.9,46.2h-3.6V33h3.2c1.4,0,2.3,0.8,2.3,2.2
		s-0.7,2.1-2.2,2.1h-1.1v3.9H56c0.8,0,1.5,0.3,1.9,0.7c0.5,0.5,0.7,1,0.7,1.7C58.5,45.2,57.5,46.2,55.9,46.2"/>
	<path class="st0" d="M17,28.6c-6,0-10.9,4.9-10.9,11c0,5.7,4.3,10.3,9.8,10.9v-8c-1.2-0.5-2-1.6-2-2.9c0-1.7,1.4-3.1,3.1-3.1
		s3.1,1.4,3.1,3.1c0,1.3-0.9,2.5-2,2.9v8c5.5-0.6,9.8-5.2,9.8-10.9C27.9,33.5,23,28.6,17,28.6"/>
</g>
</svg>
